<?xml version="1.0" encoding="UTF-8" standalone="no"?>
<svg 
  xmlns="http://www.w3.org/2000/svg"
  id="svg8"
  version="1.1" 
  height="153.88417685876271mm" 
  width="1000.0mm">
<g>
  <line x1="0.0" y1="153.88417685876271" x2="100.0" y2="153.88417685876271" stroke="black" stroke-width="3" />
  <line x1="100.0" y1="153.88417685876271" x2="100.0" y2="153.88417685876271" stroke="black" stroke-width="3" />
  <line x1="100.0" y1="153.88417685876271" x2="200.0" y2="153.88417685876271" stroke="black" stroke-width="3" />
  <line x1="200.0" y1="153.88417685876271" x2="200.0" y2="153.88417685876271" stroke="black" stroke-width="3" />
  <line x1="200.0" y1="153.88417685876271" x2="300.0" y2="153.88417685876271" stroke="black" stroke-width="3" />
  <line x1="300.0" y1="153.88417685876271" x2="300.0" y2="153.88417685876271" stroke="black" stroke-width="3" />
  <line x1="300.0" y1="153.88417685876271" x2="400.0" y2="153.88417685876271" stroke="black" stroke-width="3" />
  <line x1="400.0" y1="153.88417685876271" x2="400.0" y2="153.88417685876271" stroke="black" stroke-width="3" />
  <line x1="400.0" y1="153.88417685876271" x2="500.0" y2="153.88417685876271" stroke="black" stroke-width="3" />
  <line x1="500.0" y1="153.88417685876271" x2="500.0" y2="153.88417685876271" stroke="black" stroke-width="3" />
  <line x1="500.0" y1="153.88417685876271" x2="600.0" y2="153.88417685876271" stroke="black" stroke-width="3" />
  <line x1="600.0" y1="153.88417685876271" x2="600.0" y2="153.88417685876271" stroke="black" stroke-width="3" />
  <line x1="600.0" y1="153.88417685876271" x2="700.0" y2="153.88417685876271" stroke="black" stroke-width="3" />
  <line x1="700.0" y1="153.88417685876271" x2="700.0" y2="153.88417685876271" stroke="black" stroke-width="3" />
  <line x1="700.0" y1="153.88417685876271" x2="800.0" y2="153.88417685876271" stroke="black" stroke-width="3" />
  <line x1="800.0" y1="153.88417685876271" x2="800.0" y2="153.88417685876271" stroke="black" stroke-width="3" />
  <line x1="800.0" y1="153.88417685876271" x2="900.0" y2="153.88417685876271" stroke="black" stroke-width="3" />
  <line x1="900.0" y1="153.88417685876271" x2="900.0" y2="153.88417685876271" stroke="black" stroke-width="3" />
  <line x1="900.0" y1="153.88417685876271" x2="1000.0" y2="153.88417685876271" stroke="black" stroke-width="3" />
  <line x1="1000.0" y1="153.88417685876271" x2="1000.0" y2="153.88417685876271" stroke="black" stroke-width="3" />
  <line x1="0.0" y1="153.88417685876271" x2="0.0" y2="0.0" stroke="black" stroke-width="3" />
  <line x1="100.0" y1="153.88417685876271" x2="100.0" y2="0.0" stroke="red" stroke-width="2" />
  <line x1="100.0" y1="153.88417685876271" x2="100.0" y2="0.0" stroke="blue" stroke-width="2" />
  <line x1="200.0" y1="153.88417685876271" x2="200.0" y2="0.0" stroke="red" stroke-width="2" />
  <line x1="200.0" y1="153.88417685876271" x2="200.0" y2="0.0" stroke="blue" stroke-width="2" />
  <line x1="300.0" y1="153.88417685876271" x2="300.0" y2="0.0" stroke="red" stroke-width="2" />
  <line x1="300.0" y1="153.88417685876271" x2="300.0" y2="0.0" stroke="blue" stroke-width="2" />
  <line x1="400.0" y1="153.88417685876271" x2="400.0" y2="0.0" stroke="red" stroke-width="2" />
  <line x1="400.0" y1="153.88417685876271" x2="400.0" y2="0.0" stroke="blue" stroke-width="2" />
  <line x1="500.0" y1="153.88417685876271" x2="500.0" y2="0.0" stroke="red" stroke-width="2" />
  <line x1="500.0" y1="153.88417685876271" x2="500.0" y2="0.0" stroke="blue" stroke-width="2" />
  <line x1="600.0" y1="153.88417685876271" x2="600.0" y2="0.0" stroke="red" stroke-width="2" />
  <line x1="600.0" y1="153.88417685876271" x2="600.0" y2="0.0" stroke="blue" stroke-width="2" />
  <line x1="700.0" y1="153.88417685876271" x2="700.0" y2="0.0" stroke="red" stroke-width="2" />
  <line x1="700.0" y1="153.88417685876271" x2="700.0" y2="0.0" stroke="blue" stroke-width="2" />
  <line x1="800.0" y1="153.88417685876271" x2="800.0" y2="0.0" stroke="red" stroke-width="2" />
  <line x1="800.0" y1="153.88417685876271" x2="800.0" y2="0.0" stroke="blue" stroke-width="2" />
  <line x1="900.0" y1="153.88417685876271" x2="900.0" y2="0.0" stroke="red" stroke-width="2" />
  <line x1="900.0" y1="153.88417685876271" x2="900.0" y2="0.0" stroke="blue" stroke-width="2" />
  <line x1="1000.0" y1="153.88417685876271" x2="1000.0" y2="0.0" stroke="red" stroke-width="2" />
  <line x1="1000.0" y1="153.88417685876271" x2="1000.0" y2="0.0" stroke="black" stroke-width="3" />
  <line x1="0.0" y1="0.0" x2="100.0" y2="0.0" stroke="black" stroke-width="3" />
  <line x1="100.0" y1="0.0" x2="100.0" y2="0.0" stroke="black" stroke-width="3" />
  <line x1="100.0" y1="0.0" x2="200.0" y2="0.0" stroke="black" stroke-width="3" />
  <line x1="200.0" y1="0.0" x2="200.0" y2="0.0" stroke="black" stroke-width="3" />
  <line x1="200.0" y1="0.0" x2="300.0" y2="0.0" stroke="black" stroke-width="3" />
  <line x1="300.0" y1="0.0" x2="300.0" y2="0.0" stroke="black" stroke-width="3" />
  <line x1="300.0" y1="0.0" x2="400.0" y2="0.0" stroke="black" stroke-width="3" />
  <line x1="400.0" y1="0.0" x2="400.0" y2="0.0" stroke="black" stroke-width="3" />
  <line x1="400.0" y1="0.0" x2="500.0" y2="0.0" stroke="black" stroke-width="3" />
  <line x1="500.0" y1="0.0" x2="500.0" y2="0.0" stroke="black" stroke-width="3" />
  <line x1="500.0" y1="0.0" x2="600.0" y2="0.0" stroke="black" stroke-width="3" />
  <line x1="600.0" y1="0.0" x2="600.0" y2="0.0" stroke="black" stroke-width="3" />
  <line x1="600.0" y1="0.0" x2="700.0" y2="0.0" stroke="black" stroke-width="3" />
  <line x1="700.0" y1="0.0" x2="700.0" y2="0.0" stroke="black" stroke-width="3" />
  <line x1="700.0" y1="0.0" x2="800.0" y2="0.0" stroke="black" stroke-width="3" />
  <line x1="800.0" y1="0.0" x2="800.0" y2="0.0" stroke="black" stroke-width="3" />
  <line x1="800.0" y1="0.0" x2="900.0" y2="0.0" stroke="black" stroke-width="3" />
  <line x1="900.0" y1="0.0" x2="900.0" y2="0.0" stroke="black" stroke-width="3" />
  <line x1="900.0" y1="0.0" x2="1000.0" y2="0.0" stroke="black" stroke-width="3" />
  <line x1="1000.0" y1="0.0" x2="1000.0" y2="0.0" stroke="black" stroke-width="3" />
</g>
</svg>