<?xml version="1.0" encoding="UTF-8" standalone="no"?>
<svg 
  xmlns="http://www.w3.org/2000/svg"
  id="svg8"
  version="1.1" 
  height="829.1951537339344mm" 
  width="1600.0mm">
<g>
  <line x1="0.0" y1="829.1951537339344" x2="100.0" y2="829.1951537339344" stroke="black" stroke-width="3" />
  <line x1="100.0" y1="829.1951537339344" x2="200.0" y2="829.1951537339344" stroke="black" stroke-width="3" />
  <line x1="200.0" y1="829.1951537339344" x2="300.0" y2="829.1951537339344" stroke="black" stroke-width="3" />
  <line x1="300.0" y1="829.1951537339344" x2="400.0" y2="829.1951537339344" stroke="black" stroke-width="3" />
  <line x1="400.0" y1="829.1951537339344" x2="500.0" y2="829.1951537339344" stroke="black" stroke-width="3" />
  <line x1="500.0" y1="829.1951537339344" x2="600.0" y2="829.1951537339344" stroke="black" stroke-width="3" />
  <line x1="600.0" y1="829.1951537339344" x2="700.0" y2="829.1951537339344" stroke="black" stroke-width="3" />
  <line x1="700.0" y1="829.1951537339344" x2="800.0" y2="829.1951537339344" stroke="black" stroke-width="3" />
  <line x1="800.0" y1="829.1951537339344" x2="900.0" y2="829.1951537339344" stroke="black" stroke-width="3" />
  <line x1="900.0" y1="829.1951537339344" x2="1000.0" y2="829.1951537339344" stroke="black" stroke-width="3" />
  <line x1="1000.0" y1="829.1951537339344" x2="1100.0" y2="829.1951537339344" stroke="black" stroke-width="3" />
  <line x1="1100.0" y1="829.1951537339344" x2="1200.0" y2="829.1951537339344" stroke="black" stroke-width="3" />
  <line x1="1200.0" y1="829.1951537339344" x2="1300.0" y2="829.1951537339344" stroke="black" stroke-width="3" />
  <line x1="1300.0" y1="829.1951537339344" x2="1400.0" y2="829.1951537339344" stroke="black" stroke-width="3" />
  <line x1="1400.0" y1="829.1951537339344" x2="1500.0" y2="829.1951537339344" stroke="black" stroke-width="3" />
  <line x1="1500.0" y1="829.1951537339344" x2="1600.0" y2="829.1951537339344" stroke="black" stroke-width="3" />
  <line x1="0.0" y1="829.1951537339344" x2="0.0" y2="708.4844756152796" stroke="black" stroke-width="3" />
  <line x1="100.0" y1="829.1951537339344" x2="150.0" y2="708.4844756152796" stroke="red" stroke-width="2" />
  <line x1="200.0" y1="829.1951537339344" x2="200.0" y2="708.4844756152796" stroke="blue" stroke-width="2" />
  <line x1="300.0" y1="829.1951537339344" x2="350.0" y2="708.4844756152796" stroke="red" stroke-width="2" />
  <line x1="400.0" y1="829.1951537339344" x2="400.0" y2="708.4844756152796" stroke="blue" stroke-width="2" />
  <line x1="500.0" y1="829.1951537339344" x2="550.0" y2="708.4844756152796" stroke="red" stroke-width="2" />
  <line x1="600.0" y1="829.1951537339344" x2="600.0" y2="708.4844756152796" stroke="blue" stroke-width="2" />
  <line x1="700.0" y1="829.1951537339344" x2="750.0" y2="708.4844756152796" stroke="red" stroke-width="2" />
  <line x1="800.0" y1="829.1951537339344" x2="800.0" y2="708.4844756152796" stroke="blue" stroke-width="2" />
  <line x1="900.0" y1="829.1951537339344" x2="950.0" y2="708.4844756152796" stroke="red" stroke-width="2" />
  <line x1="1000.0" y1="829.1951537339344" x2="1000.0" y2="708.4844756152796" stroke="blue" stroke-width="2" />
  <line x1="1100.0" y1="829.1951537339344" x2="1150.0" y2="708.4844756152796" stroke="red" stroke-width="2" />
  <line x1="1200.0" y1="829.1951537339344" x2="1200.0" y2="708.4844756152796" stroke="blue" stroke-width="2" />
  <line x1="1300.0" y1="829.1951537339344" x2="1350.0" y2="708.4844756152796" stroke="red" stroke-width="2" />
  <line x1="1400.0" y1="829.1951537339344" x2="1400.0" y2="708.4844756152796" stroke="blue" stroke-width="2" />
  <line x1="1500.0" y1="829.1951537339344" x2="1550.0" y2="708.4844756152796" stroke="red" stroke-width="2" />
  <line x1="1600.0" y1="829.1951537339344" x2="1600.0" y2="708.4844756152796" stroke="black" stroke-width="3" />
  <line x1="0.0" y1="708.4844756152796" x2="150.0" y2="708.4844756152796" stroke="blue" stroke-width="2" />
  <line x1="150.0" y1="708.4844756152796" x2="200.0" y2="708.4844756152796" stroke="red" stroke-width="2" />
  <line x1="200.0" y1="708.4844756152796" x2="350.0" y2="708.4844756152796" stroke="blue" stroke-width="2" />
  <line x1="350.0" y1="708.4844756152796" x2="400.0" y2="708.4844756152796" stroke="red" stroke-width="2" />
  <line x1="400.0" y1="708.4844756152796" x2="550.0" y2="708.4844756152796" stroke="blue" stroke-width="2" />
  <line x1="550.0" y1="708.4844756152796" x2="600.0" y2="708.4844756152796" stroke="red" stroke-width="2" />
  <line x1="600.0" y1="708.4844756152796" x2="750.0" y2="708.4844756152796" stroke="blue" stroke-width="2" />
  <line x1="750.0" y1="708.4844756152796" x2="800.0" y2="708.4844756152796" stroke="red" stroke-width="2" />
  <line x1="800.0" y1="708.4844756152796" x2="950.0" y2="708.4844756152796" stroke="blue" stroke-width="2" />
  <line x1="950.0" y1="708.4844756152796" x2="1000.0" y2="708.4844756152796" stroke="red" stroke-width="2" />
  <line x1="1000.0" y1="708.4844756152796" x2="1150.0" y2="708.4844756152796" stroke="blue" stroke-width="2" />
  <line x1="1150.0" y1="708.4844756152796" x2="1200.0" y2="708.4844756152796" stroke="red" stroke-width="2" />
  <line x1="1200.0" y1="708.4844756152796" x2="1350.0" y2="708.4844756152796" stroke="blue" stroke-width="2" />
  <line x1="1350.0" y1="708.4844756152796" x2="1400.0" y2="708.4844756152796" stroke="red" stroke-width="2" />
  <line x1="1400.0" y1="708.4844756152796" x2="1550.0" y2="708.4844756152796" stroke="blue" stroke-width="2" />
  <line x1="1550.0" y1="708.4844756152796" x2="1600.0" y2="708.4844756152796" stroke="red" stroke-width="2" />
  <line x1="0.0" y1="708.4844756152796" x2="0.0" y2="326.8400702695724" stroke="black" stroke-width="3" />
  <line x1="150.0" y1="708.4844756152796" x2="199.89999999999998" y2="326.8400702695724" stroke="red" stroke-width="2" />
  <line x1="200.0" y1="708.4844756152796" x2="200.0" y2="326.8400702695724" stroke="blue" stroke-width="2" />
  <line x1="350.0" y1="708.4844756152796" x2="399.9" y2="326.8400702695724" stroke="red" stroke-width="2" />
  <line x1="400.0" y1="708.4844756152796" x2="400.0" y2="326.8400702695724" stroke="blue" stroke-width="2" />
  <line x1="550.0" y1="708.4844756152796" x2="599.9" y2="326.8400702695724" stroke="red" stroke-width="2" />
  <line x1="600.0" y1="708.4844756152796" x2="600.0" y2="326.8400702695724" stroke="blue" stroke-width="2" />
  <line x1="750.0" y1="708.4844756152796" x2="799.9" y2="326.8400702695724" stroke="red" stroke-width="2" />
  <line x1="800.0" y1="708.4844756152796" x2="800.0" y2="326.8400702695724" stroke="blue" stroke-width="2" />
  <line x1="950.0" y1="708.4844756152796" x2="999.8999999999999" y2="326.8400702695724" stroke="red" stroke-width="2" />
  <line x1="1000.0" y1="708.4844756152796" x2="1000.0" y2="326.8400702695724" stroke="blue" stroke-width="2" />
  <line x1="1150.0" y1="708.4844756152796" x2="1199.8999999999999" y2="326.8400702695724" stroke="red" stroke-width="2" />
  <line x1="1200.0" y1="708.4844756152796" x2="1200.0" y2="326.8400702695724" stroke="blue" stroke-width="2" />
  <line x1="1350.0" y1="708.4844756152796" x2="1399.8999999999999" y2="326.8400702695724" stroke="red" stroke-width="2" />
  <line x1="1400.0" y1="708.4844756152796" x2="1400.0" y2="326.8400702695724" stroke="blue" stroke-width="2" />
  <line x1="1550.0" y1="708.4844756152796" x2="1599.8999999999999" y2="326.8400702695724" stroke="red" stroke-width="2" />
  <line x1="1600.0" y1="708.4844756152796" x2="1600.0" y2="326.8400702695724" stroke="black" stroke-width="3" />
  <line x1="0.0" y1="326.8400702695724" x2="199.89999999999998" y2="326.8400702695724" stroke="gray" stroke-width="0.5" />
  <line x1="199.89999999999998" y1="326.8400702695724" x2="200.0" y2="326.8400702695724" stroke="gray" stroke-width="0.5" />
  <line x1="200.0" y1="326.8400702695724" x2="399.9" y2="326.8400702695724" stroke="gray" stroke-width="0.5" />
  <line x1="399.9" y1="326.8400702695724" x2="400.0" y2="326.8400702695724" stroke="gray" stroke-width="0.5" />
  <line x1="400.0" y1="326.8400702695724" x2="599.9" y2="326.8400702695724" stroke="gray" stroke-width="0.5" />
  <line x1="599.9" y1="326.8400702695724" x2="600.0" y2="326.8400702695724" stroke="gray" stroke-width="0.5" />
  <line x1="600.0" y1="326.8400702695724" x2="799.9" y2="326.8400702695724" stroke="gray" stroke-width="0.5" />
  <line x1="799.9" y1="326.8400702695724" x2="800.0" y2="326.8400702695724" stroke="gray" stroke-width="0.5" />
  <line x1="800.0" y1="326.8400702695724" x2="999.8999999999999" y2="326.8400702695724" stroke="gray" stroke-width="0.5" />
  <line x1="999.8999999999999" y1="326.8400702695724" x2="1000.0" y2="326.8400702695724" stroke="gray" stroke-width="0.5" />
  <line x1="1000.0" y1="326.8400702695724" x2="1199.8999999999999" y2="326.8400702695724" stroke="gray" stroke-width="0.5" />
  <line x1="1199.8999999999999" y1="326.8400702695724" x2="1200.0" y2="326.8400702695724" stroke="gray" stroke-width="0.5" />
  <line x1="1200.0" y1="326.8400702695724" x2="1399.8999999999999" y2="326.8400702695724" stroke="gray" stroke-width="0.5" />
  <line x1="1399.8999999999999" y1="326.8400702695724" x2="1400.0" y2="326.8400702695724" stroke="gray" stroke-width="0.5" />
  <line x1="1400.0" y1="326.8400702695724" x2="1599.8999999999999" y2="326.8400702695724" stroke="gray" stroke-width="0.5" />
  <line x1="1599.8999999999999" y1="326.8400702695724" x2="1600.0" y2="326.8400702695724" stroke="gray" stroke-width="0.5" />
  <line x1="0.0" y1="326.8400702695724" x2="0.0" y2="206.1293921509175" stroke="black" stroke-width="3" />
  <line x1="199.89999999999998" y1="326.8400702695724" x2="199.89999999999998" y2="206.1293921509175" stroke="red" stroke-width="2" />
  <line x1="200.0" y1="326.8400702695724" x2="200.0" y2="206.1293921509175" stroke="blue" stroke-width="2" />
  <line x1="399.9" y1="326.8400702695724" x2="399.9" y2="206.1293921509175" stroke="red" stroke-width="2" />
  <line x1="400.0" y1="326.8400702695724" x2="400.0" y2="206.1293921509175" stroke="blue" stroke-width="2" />
  <line x1="599.9" y1="326.8400702695724" x2="599.9" y2="206.1293921509175" stroke="red" stroke-width="2" />
  <line x1="600.0" y1="326.8400702695724" x2="600.0" y2="206.1293921509175" stroke="blue" stroke-width="2" />
  <line x1="799.9" y1="326.8400702695724" x2="799.9" y2="206.1293921509175" stroke="red" stroke-width="2" />
  <line x1="800.0" y1="326.8400702695724" x2="800.0" y2="206.1293921509175" stroke="blue" stroke-width="2" />
  <line x1="999.8999999999999" y1="326.8400702695724" x2="999.8999999999999" y2="206.1293921509175" stroke="red" stroke-width="2" />
  <line x1="1000.0" y1="326.8400702695724" x2="1000.0" y2="206.1293921509175" stroke="blue" stroke-width="2" />
  <line x1="1199.8999999999999" y1="326.8400702695724" x2="1199.8999999999999" y2="206.1293921509175" stroke="red" stroke-width="2" />
  <line x1="1200.0" y1="326.8400702695724" x2="1200.0" y2="206.1293921509175" stroke="blue" stroke-width="2" />
  <line x1="1399.8999999999999" y1="326.8400702695724" x2="1399.8999999999999" y2="206.1293921509175" stroke="red" stroke-width="2" />
  <line x1="1400.0" y1="326.8400702695724" x2="1400.0" y2="206.1293921509175" stroke="blue" stroke-width="2" />
  <line x1="1599.8999999999999" y1="326.8400702695724" x2="1599.8999999999999" y2="206.1293921509175" stroke="red" stroke-width="2" />
  <line x1="1600.0" y1="326.8400702695724" x2="1600.0" y2="206.1293921509175" stroke="black" stroke-width="3" />
  <line x1="0.0" y1="206.1293921509175" x2="199.89999999999998" y2="206.1293921509175" stroke="gray" stroke-width="0.5" />
  <line x1="199.89999999999998" y1="206.1293921509175" x2="200.0" y2="206.1293921509175" stroke="gray" stroke-width="0.5" />
  <line x1="200.0" y1="206.1293921509175" x2="399.9" y2="206.1293921509175" stroke="gray" stroke-width="0.5" />
  <line x1="399.9" y1="206.1293921509175" x2="400.0" y2="206.1293921509175" stroke="gray" stroke-width="0.5" />
  <line x1="400.0" y1="206.1293921509175" x2="599.9" y2="206.1293921509175" stroke="gray" stroke-width="0.5" />
  <line x1="599.9" y1="206.1293921509175" x2="600.0" y2="206.1293921509175" stroke="gray" stroke-width="0.5" />
  <line x1="600.0" y1="206.1293921509175" x2="799.9" y2="206.1293921509175" stroke="gray" stroke-width="0.5" />
  <line x1="799.9" y1="206.1293921509175" x2="800.0" y2="206.1293921509175" stroke="gray" stroke-width="0.5" />
  <line x1="800.0" y1="206.1293921509175" x2="999.8999999999999" y2="206.1293921509175" stroke="gray" stroke-width="0.5" />
  <line x1="999.8999999999999" y1="206.1293921509175" x2="1000.0" y2="206.1293921509175" stroke="gray" stroke-width="0.5" />
  <line x1="1000.0" y1="206.1293921509175" x2="1199.8999999999999" y2="206.1293921509175" stroke="gray" stroke-width="0.5" />
  <line x1="1199.8999999999999" y1="206.1293921509175" x2="1200.0" y2="206.1293921509175" stroke="gray" stroke-width="0.5" />
  <line x1="1200.0" y1="206.1293921509175" x2="1399.8999999999999" y2="206.1293921509175" stroke="gray" stroke-width="0.5" />
  <line x1="1399.8999999999999" y1="206.1293921509175" x2="1400.0" y2="206.1293921509175" stroke="gray" stroke-width="0.5" />
  <line x1="1400.0" y1="206.1293921509175" x2="1599.8999999999999" y2="206.1293921509175" stroke="gray" stroke-width="0.5" />
  <line x1="1599.8999999999999" y1="206.1293921509175" x2="1600.0" y2="206.1293921509175" stroke="gray" stroke-width="0.5" />
  <line x1="0.0" y1="206.1293921509175" x2="0.0" y2="76.34413615167966" stroke="black" stroke-width="3" />
  <line x1="199.89999999999998" y1="206.1293921509175" x2="150.0" y2="76.34413615167966" stroke="red" stroke-width="2" />
  <line x1="200.0" y1="206.1293921509175" x2="200.0" y2="76.34413615167966" stroke="blue" stroke-width="2" />
  <line x1="399.9" y1="206.1293921509175" x2="350.0" y2="76.34413615167966" stroke="red" stroke-width="2" />
  <line x1="400.0" y1="206.1293921509175" x2="400.0" y2="76.34413615167966" stroke="blue" stroke-width="2" />
  <line x1="599.9" y1="206.1293921509175" x2="550.0" y2="76.34413615167966" stroke="red" stroke-width="2" />
  <line x1="600.0" y1="206.1293921509175" x2="600.0" y2="76.34413615167966" stroke="blue" stroke-width="2" />
  <line x1="799.9" y1="206.1293921509175" x2="750.0" y2="76.34413615167966" stroke="red" stroke-width="2" />
  <line x1="800.0" y1="206.1293921509175" x2="800.0" y2="76.34413615167966" stroke="blue" stroke-width="2" />
  <line x1="999.8999999999999" y1="206.1293921509175" x2="950.0" y2="76.34413615167966" stroke="red" stroke-width="2" />
  <line x1="1000.0" y1="206.1293921509175" x2="1000.0" y2="76.34413615167966" stroke="blue" stroke-width="2" />
  <line x1="1199.8999999999999" y1="206.1293921509175" x2="1150.0" y2="76.34413615167966" stroke="red" stroke-width="2" />
  <line x1="1200.0" y1="206.1293921509175" x2="1200.0" y2="76.34413615167966" stroke="blue" stroke-width="2" />
  <line x1="1399.8999999999999" y1="206.1293921509175" x2="1350.0" y2="76.34413615167966" stroke="red" stroke-width="2" />
  <line x1="1400.0" y1="206.1293921509175" x2="1400.0" y2="76.34413615167966" stroke="blue" stroke-width="2" />
  <line x1="1599.8999999999999" y1="206.1293921509175" x2="1550.0" y2="76.34413615167966" stroke="red" stroke-width="2" />
  <line x1="1600.0" y1="206.1293921509175" x2="1600.0" y2="76.34413615167966" stroke="black" stroke-width="3" />
  <line x1="0.0" y1="76.34413615167966" x2="150.0" y2="76.34413615167966" stroke="red" stroke-width="2" />
  <line x1="150.0" y1="76.34413615167966" x2="200.0" y2="76.34413615167966" stroke="blue" stroke-width="2" />
  <line x1="200.0" y1="76.34413615167966" x2="350.0" y2="76.34413615167966" stroke="red" stroke-width="2" />
  <line x1="350.0" y1="76.34413615167966" x2="400.0" y2="76.34413615167966" stroke="blue" stroke-width="2" />
  <line x1="400.0" y1="76.34413615167966" x2="550.0" y2="76.34413615167966" stroke="red" stroke-width="2" />
  <line x1="550.0" y1="76.34413615167966" x2="600.0" y2="76.34413615167966" stroke="blue" stroke-width="2" />
  <line x1="600.0" y1="76.34413615167966" x2="750.0" y2="76.34413615167966" stroke="red" stroke-width="2" />
  <line x1="750.0" y1="76.34413615167966" x2="800.0" y2="76.34413615167966" stroke="blue" stroke-width="2" />
  <line x1="800.0" y1="76.34413615167966" x2="950.0" y2="76.34413615167966" stroke="red" stroke-width="2" />
  <line x1="950.0" y1="76.34413615167966" x2="1000.0" y2="76.34413615167966" stroke="blue" stroke-width="2" />
  <line x1="1000.0" y1="76.34413615167966" x2="1150.0" y2="76.34413615167966" stroke="red" stroke-width="2" />
  <line x1="1150.0" y1="76.34413615167966" x2="1200.0" y2="76.34413615167966" stroke="blue" stroke-width="2" />
  <line x1="1200.0" y1="76.34413615167966" x2="1350.0" y2="76.34413615167966" stroke="red" stroke-width="2" />
  <line x1="1350.0" y1="76.34413615167966" x2="1400.0" y2="76.34413615167966" stroke="blue" stroke-width="2" />
  <line x1="1400.0" y1="76.34413615167966" x2="1550.0" y2="76.34413615167966" stroke="red" stroke-width="2" />
  <line x1="1550.0" y1="76.34413615167966" x2="1600.0" y2="76.34413615167966" stroke="blue" stroke-width="2" />
  <line x1="0.0" y1="76.34413615167966" x2="0.0" y2="0.0" stroke="black" stroke-width="3" />
  <line x1="150.0" y1="76.34413615167966" x2="160.0" y2="0.0" stroke="red" stroke-width="2" />
  <line x1="200.0" y1="76.34413615167966" x2="200.0" y2="0.0" stroke="blue" stroke-width="2" />
  <line x1="350.0" y1="76.34413615167966" x2="360.0" y2="0.0" stroke="red" stroke-width="2" />
  <line x1="400.0" y1="76.34413615167966" x2="400.0" y2="0.0" stroke="blue" stroke-width="2" />
  <line x1="550.0" y1="76.34413615167966" x2="560.0" y2="0.0" stroke="red" stroke-width="2" />
  <line x1="600.0" y1="76.34413615167966" x2="600.0" y2="0.0" stroke="blue" stroke-width="2" />
  <line x1="750.0" y1="76.34413615167966" x2="760.0" y2="0.0" stroke="red" stroke-width="2" />
  <line x1="800.0" y1="76.34413615167966" x2="800.0" y2="0.0" stroke="blue" stroke-width="2" />
  <line x1="950.0" y1="76.34413615167966" x2="960.0" y2="0.0" stroke="red" stroke-width="2" />
  <line x1="1000.0" y1="76.34413615167966" x2="1000.0" y2="0.0" stroke="blue" stroke-width="2" />
  <line x1="1150.0" y1="76.34413615167966" x2="1160.0" y2="0.0" stroke="red" stroke-width="2" />
  <line x1="1200.0" y1="76.34413615167966" x2="1200.0" y2="0.0" stroke="blue" stroke-width="2" />
  <line x1="1350.0" y1="76.34413615167966" x2="1360.0" y2="0.0" stroke="red" stroke-width="2" />
  <line x1="1400.0" y1="76.34413615167966" x2="1400.0" y2="0.0" stroke="blue" stroke-width="2" />
  <line x1="1550.0" y1="76.34413615167966" x2="1560.0" y2="0.0" stroke="red" stroke-width="2" />
  <line x1="1600.0" y1="76.34413615167966" x2="1600.0" y2="0.0" stroke="black" stroke-width="3" />
  <line x1="0.0" y1="0.0" x2="160.0" y2="0.0" stroke="black" stroke-width="3" />
  <line x1="160.0" y1="0.0" x2="200.0" y2="0.0" stroke="black" stroke-width="3" />
  <line x1="200.0" y1="0.0" x2="360.0" y2="0.0" stroke="black" stroke-width="3" />
  <line x1="360.0" y1="0.0" x2="400.0" y2="0.0" stroke="black" stroke-width="3" />
  <line x1="400.0" y1="0.0" x2="560.0" y2="0.0" stroke="black" stroke-width="3" />
  <line x1="560.0" y1="0.0" x2="600.0" y2="0.0" stroke="black" stroke-width="3" />
  <line x1="600.0" y1="0.0" x2="760.0" y2="0.0" stroke="black" stroke-width="3" />
  <line x1="760.0" y1="0.0" x2="800.0" y2="0.0" stroke="black" stroke-width="3" />
  <line x1="800.0" y1="0.0" x2="960.0" y2="0.0" stroke="black" stroke-width="3" />
  <line x1="960.0" y1="0.0" x2="1000.0" y2="0.0" stroke="black" stroke-width="3" />
  <line x1="1000.0" y1="0.0" x2="1160.0" y2="0.0" stroke="black" stroke-width="3" />
  <line x1="1160.0" y1="0.0" x2="1200.0" y2="0.0" stroke="black" stroke-width="3" />
  <line x1="1200.0" y1="0.0" x2="1360.0" y2="0.0" stroke="black" stroke-width="3" />
  <line x1="1360.0" y1="0.0" x2="1400.0" y2="0.0" stroke="black" stroke-width="3" />
  <line x1="1400.0" y1="0.0" x2="1560.0" y2="0.0" stroke="black" stroke-width="3" />
  <line x1="1560.0" y1="0.0" x2="1600.0" y2="0.0" stroke="black" stroke-width="3" />
</g>
</svg>