<?xml version="1.0" encoding="UTF-8" standalone="no"?>
<svg 
  xmlns="http://www.w3.org/2000/svg"
  id="svg8"
  version="1.1" 
  height="95.61767118713826mm" 
  width="180.0mm">
<g>
  <line x1="0.0mm" y1="95.61767118713826mm" x2="10.0mm" y2="95.61767118713826mm" stroke="black" stroke-width="2" />
  <line x1="10.0mm" y1="95.61767118713826mm" x2="20.0mm" y2="95.61767118713826mm" stroke="black" stroke-width="2" />
  <line x1="20.0mm" y1="95.61767118713826mm" x2="30.0mm" y2="95.61767118713826mm" stroke="black" stroke-width="2" />
  <line x1="30.0mm" y1="95.61767118713826mm" x2="40.0mm" y2="95.61767118713826mm" stroke="black" stroke-width="2" />
  <line x1="40.0mm" y1="95.61767118713826mm" x2="50.0mm" y2="95.61767118713826mm" stroke="black" stroke-width="2" />
  <line x1="50.0mm" y1="95.61767118713826mm" x2="60.0mm" y2="95.61767118713826mm" stroke="black" stroke-width="2" />
  <line x1="60.0mm" y1="95.61767118713826mm" x2="70.0mm" y2="95.61767118713826mm" stroke="black" stroke-width="2" />
  <line x1="70.0mm" y1="95.61767118713826mm" x2="80.0mm" y2="95.61767118713826mm" stroke="black" stroke-width="2" />
  <line x1="80.0mm" y1="95.61767118713826mm" x2="90.0mm" y2="95.61767118713826mm" stroke="black" stroke-width="2" />
  <line x1="90.0mm" y1="95.61767118713826mm" x2="100.0mm" y2="95.61767118713826mm" stroke="black" stroke-width="2" />
  <line x1="100.0mm" y1="95.61767118713826mm" x2="110.0mm" y2="95.61767118713826mm" stroke="black" stroke-width="2" />
  <line x1="110.0mm" y1="95.61767118713826mm" x2="120.0mm" y2="95.61767118713826mm" stroke="black" stroke-width="2" />
  <line x1="120.0mm" y1="95.61767118713826mm" x2="130.0mm" y2="95.61767118713826mm" stroke="black" stroke-width="2" />
  <line x1="130.0mm" y1="95.61767118713826mm" x2="140.0mm" y2="95.61767118713826mm" stroke="black" stroke-width="2" />
  <line x1="140.0mm" y1="95.61767118713826mm" x2="150.0mm" y2="95.61767118713826mm" stroke="black" stroke-width="2" />
  <line x1="150.0mm" y1="95.61767118713826mm" x2="160.0mm" y2="95.61767118713826mm" stroke="black" stroke-width="2" />
  <line x1="160.0mm" y1="95.61767118713826mm" x2="170.0mm" y2="95.61767118713826mm" stroke="black" stroke-width="2" />
  <line x1="170.0mm" y1="95.61767118713826mm" x2="180.0mm" y2="95.61767118713826mm" stroke="black" stroke-width="2" />
  <line x1="0.0mm" y1="95.61767118713826mm" x2="0.0mm" y2="83.54660337527278mm" stroke="black" stroke-width="2" />
  <line x1="10.0mm" y1="95.61767118713826mm" x2="15.0mm" y2="83.54660337527278mm" stroke="red" stroke-width="1.5" />
  <line x1="20.0mm" y1="95.61767118713826mm" x2="20.0mm" y2="83.54660337527278mm" stroke="blue" stroke-width="1.5" />
  <line x1="30.0mm" y1="95.61767118713826mm" x2="35.0mm" y2="83.54660337527278mm" stroke="red" stroke-width="1.5" />
  <line x1="40.0mm" y1="95.61767118713826mm" x2="40.0mm" y2="83.54660337527278mm" stroke="blue" stroke-width="1.5" />
  <line x1="50.0mm" y1="95.61767118713826mm" x2="55.0mm" y2="83.54660337527278mm" stroke="red" stroke-width="1.5" />
  <line x1="60.0mm" y1="95.61767118713826mm" x2="60.0mm" y2="83.54660337527278mm" stroke="blue" stroke-width="1.5" />
  <line x1="70.0mm" y1="95.61767118713826mm" x2="75.0mm" y2="83.54660337527278mm" stroke="red" stroke-width="1.5" />
  <line x1="80.0mm" y1="95.61767118713826mm" x2="80.0mm" y2="83.54660337527278mm" stroke="blue" stroke-width="1.5" />
  <line x1="90.0mm" y1="95.61767118713826mm" x2="95.0mm" y2="83.54660337527278mm" stroke="red" stroke-width="1.5" />
  <line x1="100.0mm" y1="95.61767118713826mm" x2="100.0mm" y2="83.54660337527278mm" stroke="blue" stroke-width="1.5" />
  <line x1="110.0mm" y1="95.61767118713826mm" x2="115.0mm" y2="83.54660337527278mm" stroke="red" stroke-width="1.5" />
  <line x1="120.0mm" y1="95.61767118713826mm" x2="120.0mm" y2="83.54660337527278mm" stroke="blue" stroke-width="1.5" />
  <line x1="130.0mm" y1="95.61767118713826mm" x2="135.0mm" y2="83.54660337527278mm" stroke="red" stroke-width="1.5" />
  <line x1="140.0mm" y1="95.61767118713826mm" x2="140.0mm" y2="83.54660337527278mm" stroke="blue" stroke-width="1.5" />
  <line x1="150.0mm" y1="95.61767118713826mm" x2="155.0mm" y2="83.54660337527278mm" stroke="red" stroke-width="1.5" />
  <line x1="160.0mm" y1="95.61767118713826mm" x2="160.0mm" y2="83.54660337527278mm" stroke="blue" stroke-width="1.5" />
  <line x1="170.0mm" y1="95.61767118713826mm" x2="175.0mm" y2="83.54660337527278mm" stroke="red" stroke-width="1.5" />
  <line x1="180.0mm" y1="95.61767118713826mm" x2="180.0mm" y2="83.54660337527278mm" stroke="black" stroke-width="2" />
  <line x1="0.0mm" y1="83.54660337527278mm" x2="15.0mm" y2="83.54660337527278mm" stroke="black" stroke-width="2" />
  <line x1="15.0mm" y1="83.54660337527278mm" x2="20.0mm" y2="83.54660337527278mm" stroke="black" stroke-width="2" />
  <line x1="20.0mm" y1="83.54660337527278mm" x2="35.0mm" y2="83.54660337527278mm" stroke="black" stroke-width="2" />
  <line x1="35.0mm" y1="83.54660337527278mm" x2="40.0mm" y2="83.54660337527278mm" stroke="black" stroke-width="2" />
  <line x1="40.0mm" y1="83.54660337527278mm" x2="55.0mm" y2="83.54660337527278mm" stroke="black" stroke-width="2" />
  <line x1="55.0mm" y1="83.54660337527278mm" x2="60.0mm" y2="83.54660337527278mm" stroke="black" stroke-width="2" />
  <line x1="60.0mm" y1="83.54660337527278mm" x2="75.0mm" y2="83.54660337527278mm" stroke="black" stroke-width="2" />
  <line x1="75.0mm" y1="83.54660337527278mm" x2="80.0mm" y2="83.54660337527278mm" stroke="black" stroke-width="2" />
  <line x1="80.0mm" y1="83.54660337527278mm" x2="95.0mm" y2="83.54660337527278mm" stroke="black" stroke-width="2" />
  <line x1="95.0mm" y1="83.54660337527278mm" x2="100.0mm" y2="83.54660337527278mm" stroke="black" stroke-width="2" />
  <line x1="100.0mm" y1="83.54660337527278mm" x2="115.0mm" y2="83.54660337527278mm" stroke="black" stroke-width="2" />
  <line x1="115.0mm" y1="83.54660337527278mm" x2="120.0mm" y2="83.54660337527278mm" stroke="black" stroke-width="2" />
  <line x1="120.0mm" y1="83.54660337527278mm" x2="135.0mm" y2="83.54660337527278mm" stroke="black" stroke-width="2" />
  <line x1="135.0mm" y1="83.54660337527278mm" x2="140.0mm" y2="83.54660337527278mm" stroke="black" stroke-width="2" />
  <line x1="140.0mm" y1="83.54660337527278mm" x2="155.0mm" y2="83.54660337527278mm" stroke="black" stroke-width="2" />
  <line x1="155.0mm" y1="83.54660337527278mm" x2="160.0mm" y2="83.54660337527278mm" stroke="black" stroke-width="2" />
  <line x1="160.0mm" y1="83.54660337527278mm" x2="175.0mm" y2="83.54660337527278mm" stroke="black" stroke-width="2" />
  <line x1="175.0mm" y1="83.54660337527278mm" x2="180.0mm" y2="83.54660337527278mm" stroke="black" stroke-width="2" />
  <line x1="0.0mm" y1="83.54660337527278mm" x2="0.0mm" y2="52.16191991799914mm" stroke="black" stroke-width="2" />
  <line x1="15.0mm" y1="83.54660337527278mm" x2="19.9999mm" y2="52.16191991799914mm" stroke="red" stroke-width="1.5" />
  <line x1="20.0mm" y1="83.54660337527278mm" x2="20.0mm" y2="52.16191991799914mm" stroke="blue" stroke-width="1.5" />
  <line x1="35.0mm" y1="83.54660337527278mm" x2="39.9999mm" y2="52.16191991799914mm" stroke="red" stroke-width="1.5" />
  <line x1="40.0mm" y1="83.54660337527278mm" x2="40.0mm" y2="52.16191991799914mm" stroke="blue" stroke-width="1.5" />
  <line x1="55.0mm" y1="83.54660337527278mm" x2="59.999900000000004mm" y2="52.16191991799914mm" stroke="red" stroke-width="1.5" />
  <line x1="60.0mm" y1="83.54660337527278mm" x2="60.0mm" y2="52.16191991799914mm" stroke="blue" stroke-width="1.5" />
  <line x1="75.0mm" y1="83.54660337527278mm" x2="79.9999mm" y2="52.16191991799914mm" stroke="red" stroke-width="1.5" />
  <line x1="80.0mm" y1="83.54660337527278mm" x2="80.0mm" y2="52.16191991799914mm" stroke="blue" stroke-width="1.5" />
  <line x1="95.0mm" y1="83.54660337527278mm" x2="99.9999mm" y2="52.16191991799914mm" stroke="red" stroke-width="1.5" />
  <line x1="100.0mm" y1="83.54660337527278mm" x2="100.0mm" y2="52.16191991799914mm" stroke="blue" stroke-width="1.5" />
  <line x1="115.0mm" y1="83.54660337527278mm" x2="119.9999mm" y2="52.16191991799914mm" stroke="red" stroke-width="1.5" />
  <line x1="120.0mm" y1="83.54660337527278mm" x2="120.0mm" y2="52.16191991799914mm" stroke="blue" stroke-width="1.5" />
  <line x1="135.0mm" y1="83.54660337527278mm" x2="139.9999mm" y2="52.16191991799914mm" stroke="red" stroke-width="1.5" />
  <line x1="140.0mm" y1="83.54660337527278mm" x2="140.0mm" y2="52.16191991799914mm" stroke="blue" stroke-width="1.5" />
  <line x1="155.0mm" y1="83.54660337527278mm" x2="159.9999mm" y2="52.16191991799914mm" stroke="red" stroke-width="1.5" />
  <line x1="160.0mm" y1="83.54660337527278mm" x2="160.0mm" y2="52.16191991799914mm" stroke="blue" stroke-width="1.5" />
  <line x1="175.0mm" y1="83.54660337527278mm" x2="179.9999mm" y2="52.16191991799914mm" stroke="red" stroke-width="1.5" />
  <line x1="180.0mm" y1="83.54660337527278mm" x2="180.0mm" y2="52.16191991799914mm" stroke="black" stroke-width="2" />
  <line x1="0.0mm" y1="52.16191991799914mm" x2="19.9999mm" y2="52.16191991799914mm" stroke="black" stroke-width="2" />
  <line x1="19.9999mm" y1="52.16191991799914mm" x2="20.0mm" y2="52.16191991799914mm" stroke="black" stroke-width="2" />
  <line x1="20.0mm" y1="52.16191991799914mm" x2="39.9999mm" y2="52.16191991799914mm" stroke="black" stroke-width="2" />
  <line x1="39.9999mm" y1="52.16191991799914mm" x2="40.0mm" y2="52.16191991799914mm" stroke="black" stroke-width="2" />
  <line x1="40.0mm" y1="52.16191991799914mm" x2="59.999900000000004mm" y2="52.16191991799914mm" stroke="black" stroke-width="2" />
  <line x1="59.999900000000004mm" y1="52.16191991799914mm" x2="60.0mm" y2="52.16191991799914mm" stroke="black" stroke-width="2" />
  <line x1="60.0mm" y1="52.16191991799914mm" x2="79.9999mm" y2="52.16191991799914mm" stroke="black" stroke-width="2" />
  <line x1="79.9999mm" y1="52.16191991799914mm" x2="80.0mm" y2="52.16191991799914mm" stroke="black" stroke-width="2" />
  <line x1="80.0mm" y1="52.16191991799914mm" x2="99.9999mm" y2="52.16191991799914mm" stroke="black" stroke-width="2" />
  <line x1="99.9999mm" y1="52.16191991799914mm" x2="100.0mm" y2="52.16191991799914mm" stroke="black" stroke-width="2" />
  <line x1="100.0mm" y1="52.16191991799914mm" x2="119.9999mm" y2="52.16191991799914mm" stroke="black" stroke-width="2" />
  <line x1="119.9999mm" y1="52.16191991799914mm" x2="120.0mm" y2="52.16191991799914mm" stroke="black" stroke-width="2" />
  <line x1="120.0mm" y1="52.16191991799914mm" x2="139.9999mm" y2="52.16191991799914mm" stroke="black" stroke-width="2" />
  <line x1="139.9999mm" y1="52.16191991799914mm" x2="140.0mm" y2="52.16191991799914mm" stroke="black" stroke-width="2" />
  <line x1="140.0mm" y1="52.16191991799914mm" x2="159.9999mm" y2="52.16191991799914mm" stroke="black" stroke-width="2" />
  <line x1="159.9999mm" y1="52.16191991799914mm" x2="160.0mm" y2="52.16191991799914mm" stroke="black" stroke-width="2" />
  <line x1="160.0mm" y1="52.16191991799914mm" x2="179.9999mm" y2="52.16191991799914mm" stroke="black" stroke-width="2" />
  <line x1="179.9999mm" y1="52.16191991799914mm" x2="180.0mm" y2="52.16191991799914mm" stroke="black" stroke-width="2" />
  <line x1="0.0mm" y1="52.16191991799914mm" x2="0.0mm" y2="40.09085210613367mm" stroke="black" stroke-width="2" />
  <line x1="19.9999mm" y1="52.16191991799914mm" x2="19.9999mm" y2="40.09085210613367mm" stroke="red" stroke-width="1.5" />
  <line x1="20.0mm" y1="52.16191991799914mm" x2="20.0mm" y2="40.09085210613367mm" stroke="blue" stroke-width="1.5" />
  <line x1="39.9999mm" y1="52.16191991799914mm" x2="39.9999mm" y2="40.09085210613367mm" stroke="red" stroke-width="1.5" />
  <line x1="40.0mm" y1="52.16191991799914mm" x2="40.0mm" y2="40.09085210613367mm" stroke="blue" stroke-width="1.5" />
  <line x1="59.999900000000004mm" y1="52.16191991799914mm" x2="59.999900000000004mm" y2="40.09085210613367mm" stroke="red" stroke-width="1.5" />
  <line x1="60.0mm" y1="52.16191991799914mm" x2="60.0mm" y2="40.09085210613367mm" stroke="blue" stroke-width="1.5" />
  <line x1="79.9999mm" y1="52.16191991799914mm" x2="79.9999mm" y2="40.09085210613367mm" stroke="red" stroke-width="1.5" />
  <line x1="80.0mm" y1="52.16191991799914mm" x2="80.0mm" y2="40.09085210613367mm" stroke="blue" stroke-width="1.5" />
  <line x1="99.9999mm" y1="52.16191991799914mm" x2="99.9999mm" y2="40.09085210613367mm" stroke="red" stroke-width="1.5" />
  <line x1="100.0mm" y1="52.16191991799914mm" x2="100.0mm" y2="40.09085210613367mm" stroke="blue" stroke-width="1.5" />
  <line x1="119.9999mm" y1="52.16191991799914mm" x2="119.9999mm" y2="40.09085210613367mm" stroke="red" stroke-width="1.5" />
  <line x1="120.0mm" y1="52.16191991799914mm" x2="120.0mm" y2="40.09085210613367mm" stroke="blue" stroke-width="1.5" />
  <line x1="139.9999mm" y1="52.16191991799914mm" x2="139.9999mm" y2="40.09085210613367mm" stroke="red" stroke-width="1.5" />
  <line x1="140.0mm" y1="52.16191991799914mm" x2="140.0mm" y2="40.09085210613367mm" stroke="blue" stroke-width="1.5" />
  <line x1="159.9999mm" y1="52.16191991799914mm" x2="159.9999mm" y2="40.09085210613367mm" stroke="red" stroke-width="1.5" />
  <line x1="160.0mm" y1="52.16191991799914mm" x2="160.0mm" y2="40.09085210613367mm" stroke="blue" stroke-width="1.5" />
  <line x1="179.9999mm" y1="52.16191991799914mm" x2="179.9999mm" y2="40.09085210613367mm" stroke="red" stroke-width="1.5" />
  <line x1="180.0mm" y1="52.16191991799914mm" x2="180.0mm" y2="40.09085210613367mm" stroke="black" stroke-width="2" />
  <line x1="0.0mm" y1="40.09085210613367mm" x2="19.9999mm" y2="40.09085210613367mm" stroke="black" stroke-width="2" />
  <line x1="19.9999mm" y1="40.09085210613367mm" x2="20.0mm" y2="40.09085210613367mm" stroke="black" stroke-width="2" />
  <line x1="20.0mm" y1="40.09085210613367mm" x2="39.9999mm" y2="40.09085210613367mm" stroke="black" stroke-width="2" />
  <line x1="39.9999mm" y1="40.09085210613367mm" x2="40.0mm" y2="40.09085210613367mm" stroke="black" stroke-width="2" />
  <line x1="40.0mm" y1="40.09085210613367mm" x2="59.999900000000004mm" y2="40.09085210613367mm" stroke="black" stroke-width="2" />
  <line x1="59.999900000000004mm" y1="40.09085210613367mm" x2="60.0mm" y2="40.09085210613367mm" stroke="black" stroke-width="2" />
  <line x1="60.0mm" y1="40.09085210613367mm" x2="79.9999mm" y2="40.09085210613367mm" stroke="black" stroke-width="2" />
  <line x1="79.9999mm" y1="40.09085210613367mm" x2="80.0mm" y2="40.09085210613367mm" stroke="black" stroke-width="2" />
  <line x1="80.0mm" y1="40.09085210613367mm" x2="99.9999mm" y2="40.09085210613367mm" stroke="black" stroke-width="2" />
  <line x1="99.9999mm" y1="40.09085210613367mm" x2="100.0mm" y2="40.09085210613367mm" stroke="black" stroke-width="2" />
  <line x1="100.0mm" y1="40.09085210613367mm" x2="119.9999mm" y2="40.09085210613367mm" stroke="black" stroke-width="2" />
  <line x1="119.9999mm" y1="40.09085210613367mm" x2="120.0mm" y2="40.09085210613367mm" stroke="black" stroke-width="2" />
  <line x1="120.0mm" y1="40.09085210613367mm" x2="139.9999mm" y2="40.09085210613367mm" stroke="black" stroke-width="2" />
  <line x1="139.9999mm" y1="40.09085210613367mm" x2="140.0mm" y2="40.09085210613367mm" stroke="black" stroke-width="2" />
  <line x1="140.0mm" y1="40.09085210613367mm" x2="159.9999mm" y2="40.09085210613367mm" stroke="black" stroke-width="2" />
  <line x1="159.9999mm" y1="40.09085210613367mm" x2="160.0mm" y2="40.09085210613367mm" stroke="black" stroke-width="2" />
  <line x1="160.0mm" y1="40.09085210613367mm" x2="179.9999mm" y2="40.09085210613367mm" stroke="black" stroke-width="2" />
  <line x1="179.9999mm" y1="40.09085210613367mm" x2="180.0mm" y2="40.09085210613367mm" stroke="black" stroke-width="2" />
  <line x1="0.0mm" y1="40.09085210613367mm" x2="0.0mm" y2="20.627049718912104mm" stroke="black" stroke-width="2" />
  <line x1="19.9999mm" y1="40.09085210613367mm" x2="13.0mm" y2="20.627049718912104mm" stroke="red" stroke-width="1.5" />
  <line x1="20.0mm" y1="40.09085210613367mm" x2="20.0mm" y2="20.627049718912104mm" stroke="blue" stroke-width="1.5" />
  <line x1="39.9999mm" y1="40.09085210613367mm" x2="33.0mm" y2="20.627049718912104mm" stroke="red" stroke-width="1.5" />
  <line x1="40.0mm" y1="40.09085210613367mm" x2="40.0mm" y2="20.627049718912104mm" stroke="blue" stroke-width="1.5" />
  <line x1="59.999900000000004mm" y1="40.09085210613367mm" x2="53.0mm" y2="20.627049718912104mm" stroke="red" stroke-width="1.5" />
  <line x1="60.0mm" y1="40.09085210613367mm" x2="60.0mm" y2="20.627049718912104mm" stroke="blue" stroke-width="1.5" />
  <line x1="79.9999mm" y1="40.09085210613367mm" x2="73.0mm" y2="20.627049718912104mm" stroke="red" stroke-width="1.5" />
  <line x1="80.0mm" y1="40.09085210613367mm" x2="80.0mm" y2="20.627049718912104mm" stroke="blue" stroke-width="1.5" />
  <line x1="99.9999mm" y1="40.09085210613367mm" x2="93.0mm" y2="20.627049718912104mm" stroke="red" stroke-width="1.5" />
  <line x1="100.0mm" y1="40.09085210613367mm" x2="100.0mm" y2="20.627049718912104mm" stroke="blue" stroke-width="1.5" />
  <line x1="119.9999mm" y1="40.09085210613367mm" x2="113.0mm" y2="20.627049718912104mm" stroke="red" stroke-width="1.5" />
  <line x1="120.0mm" y1="40.09085210613367mm" x2="120.0mm" y2="20.627049718912104mm" stroke="blue" stroke-width="1.5" />
  <line x1="139.9999mm" y1="40.09085210613367mm" x2="133.0mm" y2="20.627049718912104mm" stroke="red" stroke-width="1.5" />
  <line x1="140.0mm" y1="40.09085210613367mm" x2="140.0mm" y2="20.627049718912104mm" stroke="blue" stroke-width="1.5" />
  <line x1="159.9999mm" y1="40.09085210613367mm" x2="153.0mm" y2="20.627049718912104mm" stroke="red" stroke-width="1.5" />
  <line x1="160.0mm" y1="40.09085210613367mm" x2="160.0mm" y2="20.627049718912104mm" stroke="blue" stroke-width="1.5" />
  <line x1="179.9999mm" y1="40.09085210613367mm" x2="173.0mm" y2="20.627049718912104mm" stroke="red" stroke-width="1.5" />
  <line x1="180.0mm" y1="40.09085210613367mm" x2="180.0mm" y2="20.627049718912104mm" stroke="black" stroke-width="2" />
  <line x1="0.0mm" y1="20.627049718912104mm" x2="13.0mm" y2="20.627049718912104mm" stroke="black" stroke-width="2" />
  <line x1="13.0mm" y1="20.627049718912104mm" x2="20.0mm" y2="20.627049718912104mm" stroke="black" stroke-width="2" />
  <line x1="20.0mm" y1="20.627049718912104mm" x2="33.0mm" y2="20.627049718912104mm" stroke="black" stroke-width="2" />
  <line x1="33.0mm" y1="20.627049718912104mm" x2="40.0mm" y2="20.627049718912104mm" stroke="black" stroke-width="2" />
  <line x1="40.0mm" y1="20.627049718912104mm" x2="53.0mm" y2="20.627049718912104mm" stroke="black" stroke-width="2" />
  <line x1="53.0mm" y1="20.627049718912104mm" x2="60.0mm" y2="20.627049718912104mm" stroke="black" stroke-width="2" />
  <line x1="60.0mm" y1="20.627049718912104mm" x2="73.0mm" y2="20.627049718912104mm" stroke="black" stroke-width="2" />
  <line x1="73.0mm" y1="20.627049718912104mm" x2="80.0mm" y2="20.627049718912104mm" stroke="black" stroke-width="2" />
  <line x1="80.0mm" y1="20.627049718912104mm" x2="93.0mm" y2="20.627049718912104mm" stroke="black" stroke-width="2" />
  <line x1="93.0mm" y1="20.627049718912104mm" x2="100.0mm" y2="20.627049718912104mm" stroke="black" stroke-width="2" />
  <line x1="100.0mm" y1="20.627049718912104mm" x2="113.0mm" y2="20.627049718912104mm" stroke="black" stroke-width="2" />
  <line x1="113.0mm" y1="20.627049718912104mm" x2="120.0mm" y2="20.627049718912104mm" stroke="black" stroke-width="2" />
  <line x1="120.0mm" y1="20.627049718912104mm" x2="133.0mm" y2="20.627049718912104mm" stroke="black" stroke-width="2" />
  <line x1="133.0mm" y1="20.627049718912104mm" x2="140.0mm" y2="20.627049718912104mm" stroke="black" stroke-width="2" />
  <line x1="140.0mm" y1="20.627049718912104mm" x2="153.0mm" y2="20.627049718912104mm" stroke="black" stroke-width="2" />
  <line x1="153.0mm" y1="20.627049718912104mm" x2="160.0mm" y2="20.627049718912104mm" stroke="black" stroke-width="2" />
  <line x1="160.0mm" y1="20.627049718912104mm" x2="173.0mm" y2="20.627049718912104mm" stroke="black" stroke-width="2" />
  <line x1="173.0mm" y1="20.627049718912104mm" x2="180.0mm" y2="20.627049718912104mm" stroke="black" stroke-width="2" />
  <line x1="0.0mm" y1="20.627049718912104mm" x2="0.0mm" y2="0.0mm" stroke="black" stroke-width="2" />
  <line x1="13.0mm" y1="20.627049718912104mm" x2="16.0mm" y2="0.0mm" stroke="red" stroke-width="1.5" />
  <line x1="20.0mm" y1="20.627049718912104mm" x2="20.0mm" y2="0.0mm" stroke="blue" stroke-width="1.5" />
  <line x1="33.0mm" y1="20.627049718912104mm" x2="36.0mm" y2="0.0mm" stroke="red" stroke-width="1.5" />
  <line x1="40.0mm" y1="20.627049718912104mm" x2="40.0mm" y2="0.0mm" stroke="blue" stroke-width="1.5" />
  <line x1="53.0mm" y1="20.627049718912104mm" x2="56.0mm" y2="0.0mm" stroke="red" stroke-width="1.5" />
  <line x1="60.0mm" y1="20.627049718912104mm" x2="60.0mm" y2="0.0mm" stroke="blue" stroke-width="1.5" />
  <line x1="73.0mm" y1="20.627049718912104mm" x2="76.0mm" y2="0.0mm" stroke="red" stroke-width="1.5" />
  <line x1="80.0mm" y1="20.627049718912104mm" x2="80.0mm" y2="0.0mm" stroke="blue" stroke-width="1.5" />
  <line x1="93.0mm" y1="20.627049718912104mm" x2="96.0mm" y2="0.0mm" stroke="red" stroke-width="1.5" />
  <line x1="100.0mm" y1="20.627049718912104mm" x2="100.0mm" y2="0.0mm" stroke="blue" stroke-width="1.5" />
  <line x1="113.0mm" y1="20.627049718912104mm" x2="116.0mm" y2="0.0mm" stroke="red" stroke-width="1.5" />
  <line x1="120.0mm" y1="20.627049718912104mm" x2="120.0mm" y2="0.0mm" stroke="blue" stroke-width="1.5" />
  <line x1="133.0mm" y1="20.627049718912104mm" x2="136.0mm" y2="0.0mm" stroke="red" stroke-width="1.5" />
  <line x1="140.0mm" y1="20.627049718912104mm" x2="140.0mm" y2="0.0mm" stroke="blue" stroke-width="1.5" />
  <line x1="153.0mm" y1="20.627049718912104mm" x2="156.0mm" y2="0.0mm" stroke="red" stroke-width="1.5" />
  <line x1="160.0mm" y1="20.627049718912104mm" x2="160.0mm" y2="0.0mm" stroke="blue" stroke-width="1.5" />
  <line x1="173.0mm" y1="20.627049718912104mm" x2="176.0mm" y2="0.0mm" stroke="red" stroke-width="1.5" />
  <line x1="180.0mm" y1="20.627049718912104mm" x2="180.0mm" y2="0.0mm" stroke="black" stroke-width="2" />
  <line x1="0.0mm" y1="0.0mm" x2="16.0mm" y2="0.0mm" stroke="black" stroke-width="2" />
  <line x1="16.0mm" y1="0.0mm" x2="20.0mm" y2="0.0mm" stroke="black" stroke-width="2" />
  <line x1="20.0mm" y1="0.0mm" x2="36.0mm" y2="0.0mm" stroke="black" stroke-width="2" />
  <line x1="36.0mm" y1="0.0mm" x2="40.0mm" y2="0.0mm" stroke="black" stroke-width="2" />
  <line x1="40.0mm" y1="0.0mm" x2="56.0mm" y2="0.0mm" stroke="black" stroke-width="2" />
  <line x1="56.0mm" y1="0.0mm" x2="60.0mm" y2="0.0mm" stroke="black" stroke-width="2" />
  <line x1="60.0mm" y1="0.0mm" x2="76.0mm" y2="0.0mm" stroke="black" stroke-width="2" />
  <line x1="76.0mm" y1="0.0mm" x2="80.0mm" y2="0.0mm" stroke="black" stroke-width="2" />
  <line x1="80.0mm" y1="0.0mm" x2="96.0mm" y2="0.0mm" stroke="black" stroke-width="2" />
  <line x1="96.0mm" y1="0.0mm" x2="100.0mm" y2="0.0mm" stroke="black" stroke-width="2" />
  <line x1="100.0mm" y1="0.0mm" x2="116.0mm" y2="0.0mm" stroke="black" stroke-width="2" />
  <line x1="116.0mm" y1="0.0mm" x2="120.0mm" y2="0.0mm" stroke="black" stroke-width="2" />
  <line x1="120.0mm" y1="0.0mm" x2="136.0mm" y2="0.0mm" stroke="black" stroke-width="2" />
  <line x1="136.0mm" y1="0.0mm" x2="140.0mm" y2="0.0mm" stroke="black" stroke-width="2" />
  <line x1="140.0mm" y1="0.0mm" x2="156.0mm" y2="0.0mm" stroke="black" stroke-width="2" />
  <line x1="156.0mm" y1="0.0mm" x2="160.0mm" y2="0.0mm" stroke="black" stroke-width="2" />
  <line x1="160.0mm" y1="0.0mm" x2="176.0mm" y2="0.0mm" stroke="black" stroke-width="2" />
  <line x1="176.0mm" y1="0.0mm" x2="180.0mm" y2="0.0mm" stroke="black" stroke-width="2" />
</g>
</svg>