<?xml version="1.0" encoding="UTF-8" standalone="no"?>
<svg 
  xmlns="http://www.w3.org/2000/svg"
  id="svg8"
  version="1.1" 
  height="193.84485638258425mm" 
  width="160.0mm">
<g>
  <line x1="0.0mm" y1="193.84485638258425mm" x2="5.0mm" y2="193.84485638258425mm" stroke="black" stroke-width="3" />
  <line x1="5.0mm" y1="193.84485638258425mm" x2="20.0mm" y2="193.84485638258425mm" stroke="black" stroke-width="3" />
  <line x1="20.0mm" y1="193.84485638258425mm" x2="25.0mm" y2="193.84485638258425mm" stroke="black" stroke-width="3" />
  <line x1="25.0mm" y1="193.84485638258425mm" x2="40.0mm" y2="193.84485638258425mm" stroke="black" stroke-width="3" />
  <line x1="40.0mm" y1="193.84485638258425mm" x2="45.0mm" y2="193.84485638258425mm" stroke="black" stroke-width="3" />
  <line x1="45.0mm" y1="193.84485638258425mm" x2="60.0mm" y2="193.84485638258425mm" stroke="black" stroke-width="3" />
  <line x1="60.0mm" y1="193.84485638258425mm" x2="65.0mm" y2="193.84485638258425mm" stroke="black" stroke-width="3" />
  <line x1="65.0mm" y1="193.84485638258425mm" x2="80.0mm" y2="193.84485638258425mm" stroke="black" stroke-width="3" />
  <line x1="80.0mm" y1="193.84485638258425mm" x2="85.0mm" y2="193.84485638258425mm" stroke="black" stroke-width="3" />
  <line x1="85.0mm" y1="193.84485638258425mm" x2="100.0mm" y2="193.84485638258425mm" stroke="black" stroke-width="3" />
  <line x1="100.0mm" y1="193.84485638258425mm" x2="105.0mm" y2="193.84485638258425mm" stroke="black" stroke-width="3" />
  <line x1="105.0mm" y1="193.84485638258425mm" x2="120.0mm" y2="193.84485638258425mm" stroke="black" stroke-width="3" />
  <line x1="120.0mm" y1="193.84485638258425mm" x2="125.0mm" y2="193.84485638258425mm" stroke="black" stroke-width="3" />
  <line x1="125.0mm" y1="193.84485638258425mm" x2="140.0mm" y2="193.84485638258425mm" stroke="black" stroke-width="3" />
  <line x1="140.0mm" y1="193.84485638258425mm" x2="145.0mm" y2="193.84485638258425mm" stroke="black" stroke-width="3" />
  <line x1="145.0mm" y1="193.84485638258425mm" x2="160.0mm" y2="193.84485638258425mm" stroke="black" stroke-width="3" />
  <line x1="0.0mm" y1="193.84485638258425mm" x2="0.0mm" y2="183.60221569546496mm" stroke="black" stroke-width="3" />
  <line x1="5.0mm" y1="193.84485638258425mm" x2="2.000000000000001mm" y2="183.60221569546496mm" stroke="red" stroke-width="2" />
  <line x1="20.0mm" y1="193.84485638258425mm" x2="20.0mm" y2="183.60221569546496mm" stroke="blue" stroke-width="2" />
  <line x1="25.0mm" y1="193.84485638258425mm" x2="22.0mm" y2="183.60221569546496mm" stroke="red" stroke-width="2" />
  <line x1="40.0mm" y1="193.84485638258425mm" x2="40.0mm" y2="183.60221569546496mm" stroke="blue" stroke-width="2" />
  <line x1="45.0mm" y1="193.84485638258425mm" x2="42.0mm" y2="183.60221569546496mm" stroke="red" stroke-width="2" />
  <line x1="60.0mm" y1="193.84485638258425mm" x2="60.0mm" y2="183.60221569546496mm" stroke="blue" stroke-width="2" />
  <line x1="65.0mm" y1="193.84485638258425mm" x2="62.0mm" y2="183.60221569546496mm" stroke="red" stroke-width="2" />
  <line x1="80.0mm" y1="193.84485638258425mm" x2="80.0mm" y2="183.60221569546496mm" stroke="blue" stroke-width="2" />
  <line x1="85.0mm" y1="193.84485638258425mm" x2="82.0mm" y2="183.60221569546496mm" stroke="red" stroke-width="2" />
  <line x1="100.0mm" y1="193.84485638258425mm" x2="100.0mm" y2="183.60221569546496mm" stroke="blue" stroke-width="2" />
  <line x1="105.0mm" y1="193.84485638258425mm" x2="102.0mm" y2="183.60221569546496mm" stroke="red" stroke-width="2" />
  <line x1="120.0mm" y1="193.84485638258425mm" x2="120.0mm" y2="183.60221569546496mm" stroke="blue" stroke-width="2" />
  <line x1="125.0mm" y1="193.84485638258425mm" x2="122.0mm" y2="183.60221569546496mm" stroke="red" stroke-width="2" />
  <line x1="140.0mm" y1="193.84485638258425mm" x2="140.0mm" y2="183.60221569546496mm" stroke="blue" stroke-width="2" />
  <line x1="145.0mm" y1="193.84485638258425mm" x2="142.0mm" y2="183.60221569546496mm" stroke="red" stroke-width="2" />
  <line x1="160.0mm" y1="193.84485638258425mm" x2="160.0mm" y2="183.60221569546496mm" stroke="black" stroke-width="3" />
  <line x1="0.0mm" y1="183.60221569546496mm" x2="2.000000000000001mm" y2="183.60221569546496mm" stroke="red" stroke-width="2" />
  <line x1="2.000000000000001mm" y1="183.60221569546496mm" x2="20.0mm" y2="183.60221569546496mm" stroke="blue" stroke-width="2" />
  <line x1="20.0mm" y1="183.60221569546496mm" x2="22.0mm" y2="183.60221569546496mm" stroke="red" stroke-width="2" />
  <line x1="22.0mm" y1="183.60221569546496mm" x2="40.0mm" y2="183.60221569546496mm" stroke="blue" stroke-width="2" />
  <line x1="40.0mm" y1="183.60221569546496mm" x2="42.0mm" y2="183.60221569546496mm" stroke="red" stroke-width="2" />
  <line x1="42.0mm" y1="183.60221569546496mm" x2="60.0mm" y2="183.60221569546496mm" stroke="blue" stroke-width="2" />
  <line x1="60.0mm" y1="183.60221569546496mm" x2="62.0mm" y2="183.60221569546496mm" stroke="red" stroke-width="2" />
  <line x1="62.0mm" y1="183.60221569546496mm" x2="80.0mm" y2="183.60221569546496mm" stroke="blue" stroke-width="2" />
  <line x1="80.0mm" y1="183.60221569546496mm" x2="82.0mm" y2="183.60221569546496mm" stroke="red" stroke-width="2" />
  <line x1="82.0mm" y1="183.60221569546496mm" x2="100.0mm" y2="183.60221569546496mm" stroke="blue" stroke-width="2" />
  <line x1="100.0mm" y1="183.60221569546496mm" x2="102.0mm" y2="183.60221569546496mm" stroke="red" stroke-width="2" />
  <line x1="102.0mm" y1="183.60221569546496mm" x2="120.0mm" y2="183.60221569546496mm" stroke="blue" stroke-width="2" />
  <line x1="120.0mm" y1="183.60221569546496mm" x2="122.0mm" y2="183.60221569546496mm" stroke="red" stroke-width="2" />
  <line x1="122.0mm" y1="183.60221569546496mm" x2="140.0mm" y2="183.60221569546496mm" stroke="blue" stroke-width="2" />
  <line x1="140.0mm" y1="183.60221569546496mm" x2="142.0mm" y2="183.60221569546496mm" stroke="red" stroke-width="2" />
  <line x1="142.0mm" y1="183.60221569546496mm" x2="160.0mm" y2="183.60221569546496mm" stroke="blue" stroke-width="2" />
  <line x1="0.0mm" y1="183.60221569546496mm" x2="0.0mm" y2="170.61022460959356mm" stroke="black" stroke-width="3" />
  <line x1="2.000000000000001mm" y1="183.60221569546496mm" x2="0.010000000000001119mm" y2="170.61022460959356mm" stroke="red" stroke-width="2" />
  <line x1="20.0mm" y1="183.60221569546496mm" x2="20.0mm" y2="170.61022460959356mm" stroke="blue" stroke-width="2" />
  <line x1="22.0mm" y1="183.60221569546496mm" x2="20.010000000000005mm" y2="170.61022460959356mm" stroke="red" stroke-width="2" />
  <line x1="40.0mm" y1="183.60221569546496mm" x2="40.0mm" y2="170.61022460959356mm" stroke="blue" stroke-width="2" />
  <line x1="42.0mm" y1="183.60221569546496mm" x2="40.010000000000005mm" y2="170.61022460959356mm" stroke="red" stroke-width="2" />
  <line x1="60.0mm" y1="183.60221569546496mm" x2="60.0mm" y2="170.61022460959356mm" stroke="blue" stroke-width="2" />
  <line x1="62.0mm" y1="183.60221569546496mm" x2="60.010000000000005mm" y2="170.61022460959356mm" stroke="red" stroke-width="2" />
  <line x1="80.0mm" y1="183.60221569546496mm" x2="80.0mm" y2="170.61022460959356mm" stroke="blue" stroke-width="2" />
  <line x1="82.0mm" y1="183.60221569546496mm" x2="80.01000000000002mm" y2="170.61022460959356mm" stroke="red" stroke-width="2" />
  <line x1="100.0mm" y1="183.60221569546496mm" x2="100.0mm" y2="170.61022460959356mm" stroke="blue" stroke-width="2" />
  <line x1="102.0mm" y1="183.60221569546496mm" x2="100.01000000000002mm" y2="170.61022460959356mm" stroke="red" stroke-width="2" />
  <line x1="120.0mm" y1="183.60221569546496mm" x2="120.0mm" y2="170.61022460959356mm" stroke="blue" stroke-width="2" />
  <line x1="122.0mm" y1="183.60221569546496mm" x2="120.01000000000002mm" y2="170.61022460959356mm" stroke="red" stroke-width="2" />
  <line x1="140.0mm" y1="183.60221569546496mm" x2="140.0mm" y2="170.61022460959356mm" stroke="blue" stroke-width="2" />
  <line x1="142.0mm" y1="183.60221569546496mm" x2="140.01000000000002mm" y2="170.61022460959356mm" stroke="red" stroke-width="2" />
  <line x1="160.0mm" y1="183.60221569546496mm" x2="160.0mm" y2="170.61022460959356mm" stroke="black" stroke-width="3" />
  <line x1="0.0mm" y1="170.61022460959356mm" x2="0.010000000000001119mm" y2="170.61022460959356mm" stroke="red" stroke-width="2" />
  <line x1="0.010000000000001119mm" y1="170.61022460959356mm" x2="20.0mm" y2="170.61022460959356mm" stroke="blue" stroke-width="2" />
  <line x1="20.0mm" y1="170.61022460959356mm" x2="20.010000000000005mm" y2="170.61022460959356mm" stroke="red" stroke-width="2" />
  <line x1="20.010000000000005mm" y1="170.61022460959356mm" x2="40.0mm" y2="170.61022460959356mm" stroke="blue" stroke-width="2" />
  <line x1="40.0mm" y1="170.61022460959356mm" x2="40.010000000000005mm" y2="170.61022460959356mm" stroke="red" stroke-width="2" />
  <line x1="40.010000000000005mm" y1="170.61022460959356mm" x2="60.0mm" y2="170.61022460959356mm" stroke="blue" stroke-width="2" />
  <line x1="60.0mm" y1="170.61022460959356mm" x2="60.010000000000005mm" y2="170.61022460959356mm" stroke="red" stroke-width="2" />
  <line x1="60.010000000000005mm" y1="170.61022460959356mm" x2="80.0mm" y2="170.61022460959356mm" stroke="blue" stroke-width="2" />
  <line x1="80.0mm" y1="170.61022460959356mm" x2="80.01000000000002mm" y2="170.61022460959356mm" stroke="red" stroke-width="2" />
  <line x1="80.01000000000002mm" y1="170.61022460959356mm" x2="100.0mm" y2="170.61022460959356mm" stroke="blue" stroke-width="2" />
  <line x1="100.0mm" y1="170.61022460959356mm" x2="100.01000000000002mm" y2="170.61022460959356mm" stroke="red" stroke-width="2" />
  <line x1="100.01000000000002mm" y1="170.61022460959356mm" x2="120.0mm" y2="170.61022460959356mm" stroke="blue" stroke-width="2" />
  <line x1="120.0mm" y1="170.61022460959356mm" x2="120.01000000000002mm" y2="170.61022460959356mm" stroke="red" stroke-width="2" />
  <line x1="120.01000000000002mm" y1="170.61022460959356mm" x2="140.0mm" y2="170.61022460959356mm" stroke="blue" stroke-width="2" />
  <line x1="140.0mm" y1="170.61022460959356mm" x2="140.01000000000002mm" y2="170.61022460959356mm" stroke="red" stroke-width="2" />
  <line x1="140.01000000000002mm" y1="170.61022460959356mm" x2="160.0mm" y2="170.61022460959356mm" stroke="blue" stroke-width="2" />
  <line x1="0.0mm" y1="170.61022460959356mm" x2="0.0mm" y2="149.55221205616974mm" stroke="black" stroke-width="3" />
  <line x1="0.010000000000001119mm" y1="170.61022460959356mm" x2="0.010000000000001119mm" y2="149.55529812181877mm" stroke="red" stroke-width="2" />
  <line x1="20.0mm" y1="170.61022460959356mm" x2="20.0mm" y2="149.55529812118414mm" stroke="blue" stroke-width="2" />
  <line x1="20.010000000000005mm" y1="170.61022460959356mm" x2="20.010000000000005mm" y2="149.55529812118442mm" stroke="red" stroke-width="2" />
  <line x1="40.0mm" y1="170.61022460959356mm" x2="40.0mm" y2="155.72434335420604mm" stroke="blue" stroke-width="2" />
  <line x1="40.010000000000005mm" y1="170.61022460959356mm" x2="40.010000000000005mm" y2="155.7212572885567mm" stroke="red" stroke-width="2" />
  <line x1="60.0mm" y1="170.61022460959356mm" x2="60.0mm" y2="164.44558307809933mm" stroke="blue" stroke-width="2" />
  <line x1="60.010000000000005mm" y1="170.61022460959356mm" x2="60.010000000000005mm" y2="164.44121873303203mm" stroke="red" stroke-width="2" />
  <line x1="80.0mm" y1="170.61022460959356mm" x2="80.0mm" y2="170.61022460959356mm" stroke="blue" stroke-width="2" />
  <line x1="80.01000000000002mm" y1="170.61022460959356mm" x2="80.01000000000002mm" y2="170.6071385636323mm" stroke="red" stroke-width="2" />
  <line x1="100.0mm" y1="170.61022460959356mm" x2="100.0mm" y2="170.6071385636323mm" stroke="blue" stroke-width="2" />
  <line x1="100.01000000000002mm" y1="170.61022460959356mm" x2="100.01000000000002mm" y2="170.6071385636323mm" stroke="red" stroke-width="2" />
  <line x1="120.0mm" y1="170.61022460959356mm" x2="120.0mm" y2="164.43813268707078mm" stroke="blue" stroke-width="2" />
  <line x1="120.01000000000002mm" y1="170.61022460959356mm" x2="120.01000000000002mm" y2="164.44121873303203mm" stroke="red" stroke-width="2" />
  <line x1="140.0mm" y1="170.61022460959356mm" x2="140.0mm" y2="155.71689294348943mm" stroke="blue" stroke-width="2" />
  <line x1="140.01000000000002mm" y1="170.61022460959356mm" x2="140.01000000000002mm" y2="155.7212572885567mm" stroke="red" stroke-width="2" />
  <line x1="160.0mm" y1="170.61022460959356mm" x2="160.0mm" y2="149.55221205616974mm" stroke="black" stroke-width="3" />
  <line x1="0.0mm" y1="149.55221205616974mm" x2="0.010000000000001119mm" y2="149.55529812181877mm" stroke="red" stroke-width="2" />
  <line x1="0.010000000000001119mm" y1="149.55529812181877mm" x2="20.0mm" y2="149.55529812118414mm" stroke="blue" stroke-width="2" />
  <line x1="20.0mm" y1="149.55529812118414mm" x2="20.010000000000005mm" y2="149.55529812118442mm" stroke="red" stroke-width="2" />
  <line x1="20.010000000000005mm" y1="149.55529812118442mm" x2="40.0mm" y2="155.72434335420604mm" stroke="blue" stroke-width="2" />
  <line x1="40.0mm" y1="155.72434335420604mm" x2="40.010000000000005mm" y2="155.7212572885567mm" stroke="red" stroke-width="2" />
  <line x1="40.010000000000005mm" y1="155.7212572885567mm" x2="60.0mm" y2="164.44558307809933mm" stroke="blue" stroke-width="2" />
  <line x1="60.0mm" y1="164.44558307809933mm" x2="60.010000000000005mm" y2="164.44121873303203mm" stroke="red" stroke-width="2" />
  <line x1="60.010000000000005mm" y1="164.44121873303203mm" x2="80.0mm" y2="170.61022460959356mm" stroke="blue" stroke-width="2" />
  <line x1="80.0mm" y1="170.61022460959356mm" x2="80.01000000000002mm" y2="170.6071385636323mm" stroke="red" stroke-width="2" />
  <line x1="80.01000000000002mm" y1="170.6071385636323mm" x2="100.0mm" y2="170.6071385636323mm" stroke="blue" stroke-width="2" />
  <line x1="100.0mm" y1="170.6071385636323mm" x2="100.01000000000002mm" y2="170.6071385636323mm" stroke="red" stroke-width="2" />
  <line x1="100.01000000000002mm" y1="170.6071385636323mm" x2="120.0mm" y2="164.43813268707078mm" stroke="blue" stroke-width="2" />
  <line x1="120.0mm" y1="164.43813268707078mm" x2="120.01000000000002mm" y2="164.44121873303203mm" stroke="red" stroke-width="2" />
  <line x1="120.01000000000002mm" y1="164.44121873303203mm" x2="140.0mm" y2="155.71689294348943mm" stroke="blue" stroke-width="2" />
  <line x1="140.0mm" y1="155.71689294348943mm" x2="140.01000000000002mm" y2="155.7212572885567mm" stroke="red" stroke-width="2" />
  <line x1="140.01000000000002mm" y1="155.7212572885567mm" x2="160.0mm" y2="149.55221205616974mm" stroke="blue" stroke-width="2" />
  <line x1="0.0mm" y1="149.55221205616974mm" x2="0.0mm" y2="133.76636626059104mm" stroke="black" stroke-width="3" />
  <line x1="0.010000000000001119mm" y1="149.55529812181877mm" x2="10.0mm" y2="133.76636626059104mm" stroke="red" stroke-width="2" />
  <line x1="20.0mm" y1="149.55529812118414mm" x2="20.0mm" y2="133.76636626059104mm" stroke="blue" stroke-width="2" />
  <line x1="20.010000000000005mm" y1="149.55529812118442mm" x2="30.0mm" y2="133.76636626059104mm" stroke="red" stroke-width="2" />
  <line x1="40.0mm" y1="155.72434335420604mm" x2="40.0mm" y2="133.76636626059104mm" stroke="blue" stroke-width="2" />
  <line x1="40.010000000000005mm" y1="155.7212572885567mm" x2="50.0mm" y2="133.76636626059104mm" stroke="red" stroke-width="2" />
  <line x1="60.0mm" y1="164.44558307809933mm" x2="60.0mm" y2="133.76636626059104mm" stroke="blue" stroke-width="2" />
  <line x1="60.010000000000005mm" y1="164.44121873303203mm" x2="70.0mm" y2="133.76636626059104mm" stroke="red" stroke-width="2" />
  <line x1="80.0mm" y1="170.61022460959356mm" x2="80.0mm" y2="133.76636626059104mm" stroke="blue" stroke-width="2" />
  <line x1="80.01000000000002mm" y1="170.6071385636323mm" x2="90.0mm" y2="133.76636626059104mm" stroke="red" stroke-width="2" />
  <line x1="100.0mm" y1="170.6071385636323mm" x2="100.0mm" y2="133.76636626059104mm" stroke="blue" stroke-width="2" />
  <line x1="100.01000000000002mm" y1="170.6071385636323mm" x2="110.0mm" y2="133.76636626059104mm" stroke="red" stroke-width="2" />
  <line x1="120.0mm" y1="164.43813268707078mm" x2="120.0mm" y2="133.76636626059104mm" stroke="blue" stroke-width="2" />
  <line x1="120.01000000000002mm" y1="164.44121873303203mm" x2="130.0mm" y2="133.76636626059104mm" stroke="red" stroke-width="2" />
  <line x1="140.0mm" y1="155.71689294348943mm" x2="140.0mm" y2="133.76636626059104mm" stroke="blue" stroke-width="2" />
  <line x1="140.01000000000002mm" y1="155.7212572885567mm" x2="150.0mm" y2="133.76636626059104mm" stroke="red" stroke-width="2" />
  <line x1="160.0mm" y1="149.55221205616974mm" x2="160.0mm" y2="133.76636626059104mm" stroke="black" stroke-width="3" />
  <line x1="0.0mm" y1="133.76636626059104mm" x2="0.0mm" y2="111.80838916502545mm" stroke="black" stroke-width="3" />
  <line x1="10.0mm" y1="133.76636626059104mm" x2="19.99mm" y2="117.97743439815332mm" stroke="red" stroke-width="2" />
  <line x1="20.0mm" y1="133.76636626059104mm" x2="20.0mm" y2="117.97743439815349mm" stroke="blue" stroke-width="2" />
  <line x1="30.0mm" y1="133.76636626059104mm" x2="39.989999999999995mm" y2="117.97743439781362mm" stroke="red" stroke-width="2" />
  <line x1="40.0mm" y1="133.76636626059104mm" x2="40.0mm" y2="117.98052046346284mm" stroke="blue" stroke-width="2" />
  <line x1="50.0mm" y1="133.76636626059104mm" x2="59.989999999999995mm" y2="111.81147523067483mm" stroke="red" stroke-width="2" />
  <line x1="60.0mm" y1="133.76636626059104mm" x2="60.0mm" y2="111.81583957574273mm" stroke="blue" stroke-width="2" />
  <line x1="70.0mm" y1="133.76636626059104mm" x2="79.99mm" y2="103.09151378504228mm" stroke="red" stroke-width="2" />
  <line x1="80.0mm" y1="133.76636626059104mm" x2="80.0mm" y2="103.09459983100366mm" stroke="blue" stroke-width="2" />
  <line x1="90.0mm" y1="133.76636626059104mm" x2="99.98999999999998mm" y2="96.92559395424462mm" stroke="red" stroke-width="2" />
  <line x1="100.0mm" y1="133.76636626059104mm" x2="100.0mm" y2="96.92559395424462mm" stroke="blue" stroke-width="2" />
  <line x1="110.0mm" y1="133.76636626059104mm" x2="119.98999999999998mm" y2="96.92559395424462mm" stroke="red" stroke-width="2" />
  <line x1="120.0mm" y1="133.76636626059104mm" x2="120.0mm" y2="96.92250790828327mm" stroke="blue" stroke-width="2" />
  <line x1="130.0mm" y1="133.76636626059104mm" x2="139.98999999999998mm" y2="103.09151378504228mm" stroke="red" stroke-width="2" />
  <line x1="140.0mm" y1="133.76636626059104mm" x2="140.0mm" y2="103.08714943997441mm" stroke="blue" stroke-width="2" />
  <line x1="150.0mm" y1="133.76636626059104mm" x2="159.98999999999998mm" y2="111.81147523067483mm" stroke="red" stroke-width="2" />
  <line x1="160.0mm" y1="133.76636626059104mm" x2="160.0mm" y2="111.80838916502545mm" stroke="black" stroke-width="3" />
  <line x1="0.0mm" y1="111.80838916502545mm" x2="19.99mm" y2="117.97743439815332mm" stroke="blue" stroke-width="2" />
  <line x1="19.99mm" y1="117.97743439815332mm" x2="20.0mm" y2="117.97743439815349mm" stroke="red" stroke-width="2" />
  <line x1="20.0mm" y1="117.97743439815349mm" x2="39.989999999999995mm" y2="117.97743439781362mm" stroke="blue" stroke-width="2" />
  <line x1="39.989999999999995mm" y1="117.97743439781362mm" x2="40.0mm" y2="117.98052046346284mm" stroke="red" stroke-width="2" />
  <line x1="40.0mm" y1="117.98052046346284mm" x2="59.989999999999995mm" y2="111.81147523067483mm" stroke="blue" stroke-width="2" />
  <line x1="59.989999999999995mm" y1="111.81147523067483mm" x2="60.0mm" y2="111.81583957574273mm" stroke="red" stroke-width="2" />
  <line x1="60.0mm" y1="111.81583957574273mm" x2="79.99mm" y2="103.09151378504228mm" stroke="blue" stroke-width="2" />
  <line x1="79.99mm" y1="103.09151378504228mm" x2="80.0mm" y2="103.09459983100366mm" stroke="red" stroke-width="2" />
  <line x1="80.0mm" y1="103.09459983100366mm" x2="99.98999999999998mm" y2="96.92559395424462mm" stroke="blue" stroke-width="2" />
  <line x1="99.98999999999998mm" y1="96.92559395424462mm" x2="100.0mm" y2="96.92559395424462mm" stroke="red" stroke-width="2" />
  <line x1="100.0mm" y1="96.92559395424462mm" x2="119.98999999999998mm" y2="96.92559395424462mm" stroke="blue" stroke-width="2" />
  <line x1="119.98999999999998mm" y1="96.92559395424462mm" x2="120.0mm" y2="96.92250790828327mm" stroke="red" stroke-width="2" />
  <line x1="120.0mm" y1="96.92250790828327mm" x2="139.98999999999998mm" y2="103.09151378504228mm" stroke="blue" stroke-width="2" />
  <line x1="139.98999999999998mm" y1="103.09151378504228mm" x2="140.0mm" y2="103.08714943997441mm" stroke="red" stroke-width="2" />
  <line x1="140.0mm" y1="103.08714943997441mm" x2="159.98999999999998mm" y2="111.81147523067483mm" stroke="blue" stroke-width="2" />
  <line x1="159.98999999999998mm" y1="111.81147523067483mm" x2="160.0mm" y2="111.80838916502545mm" stroke="red" stroke-width="2" />
  <line x1="0.0mm" y1="111.80838916502545mm" x2="0.0mm" y2="96.92250790828327mm" stroke="black" stroke-width="3" />
  <line x1="19.99mm" y1="117.97743439815332mm" x2="19.99mm" y2="96.92250790828327mm" stroke="red" stroke-width="2" />
  <line x1="20.0mm" y1="117.97743439815349mm" x2="20.0mm" y2="96.92250790828327mm" stroke="blue" stroke-width="2" />
  <line x1="39.989999999999995mm" y1="117.97743439781362mm" x2="39.989999999999995mm" y2="96.92250790828327mm" stroke="red" stroke-width="2" />
  <line x1="40.0mm" y1="117.98052046346284mm" x2="40.0mm" y2="96.92250790828327mm" stroke="blue" stroke-width="2" />
  <line x1="59.989999999999995mm" y1="111.81147523067483mm" x2="59.989999999999995mm" y2="96.92250790828327mm" stroke="red" stroke-width="2" />
  <line x1="60.0mm" y1="111.81583957574273mm" x2="60.0mm" y2="96.92250790828327mm" stroke="blue" stroke-width="2" />
  <line x1="79.99mm" y1="103.09151378504228mm" x2="79.99mm" y2="96.92250790828327mm" stroke="red" stroke-width="2" />
  <line x1="80.0mm" y1="103.09459983100366mm" x2="80.0mm" y2="96.92250790828327mm" stroke="blue" stroke-width="2" />
  <line x1="99.98999999999998mm" y1="96.92559395424462mm" x2="99.98999999999998mm" y2="96.92250790828327mm" stroke="red" stroke-width="2" />
  <line x1="100.0mm" y1="96.92559395424462mm" x2="100.0mm" y2="96.92250790828327mm" stroke="blue" stroke-width="2" />
  <line x1="119.98999999999998mm" y1="96.92559395424462mm" x2="119.98999999999998mm" y2="96.92250790828327mm" stroke="red" stroke-width="2" />
  <line x1="120.0mm" y1="96.92250790828327mm" x2="120.0mm" y2="96.92250790828327mm" stroke="blue" stroke-width="2" />
  <line x1="139.98999999999998mm" y1="103.09151378504228mm" x2="139.98999999999998mm" y2="96.92250790828327mm" stroke="red" stroke-width="2" />
  <line x1="140.0mm" y1="103.08714943997441mm" x2="140.0mm" y2="96.92250790828327mm" stroke="blue" stroke-width="2" />
  <line x1="159.98999999999998mm" y1="111.81147523067483mm" x2="159.98999999999998mm" y2="96.92250790828327mm" stroke="red" stroke-width="2" />
  <line x1="160.0mm" y1="111.80838916502545mm" x2="160.0mm" y2="96.92250790828327mm" stroke="black" stroke-width="3" />
  <line x1="0.0mm" y1="96.92250790828327mm" x2="0.0mm" y2="90.75036510756576mm" stroke="black" stroke-width="3" />
  <line x1="19.99mm" y1="96.92250790828327mm" x2="19.99mm" y2="96.9194218368829mm" stroke="red" stroke-width="2" />
  <line x1="20.0mm" y1="96.92250790828327mm" x2="20.0mm" y2="96.9194218368829mm" stroke="blue" stroke-width="2" />
  <line x1="39.989999999999995mm" y1="96.92250790828327mm" x2="39.989999999999995mm" y2="96.9194218368829mm" stroke="red" stroke-width="2" />
  <line x1="40.0mm" y1="96.92250790828327mm" x2="40.0mm" y2="96.92250790828328mm" stroke="blue" stroke-width="2" />
  <line x1="59.989999999999995mm" y1="96.92250790828327mm" x2="59.989999999999995mm" y2="90.75345117896615mm" stroke="red" stroke-width="2" />
  <line x1="60.0mm" y1="96.92250790828327mm" x2="60.0mm" y2="90.75781554763549mm" stroke="blue" stroke-width="2" />
  <line x1="79.99mm" y1="96.92250790828327mm" x2="79.99mm" y2="82.03344257758107mm" stroke="red" stroke-width="2" />
  <line x1="80.0mm" y1="96.92250790828327mm" x2="80.0mm" y2="82.03652865116901mm" stroke="blue" stroke-width="2" />
  <line x1="99.98999999999998mm" y1="96.92250790828327mm" x2="99.98999999999998mm" y2="75.86746754889049mm" stroke="red" stroke-width="2" />
  <line x1="100.0mm" y1="96.92250790828327mm" x2="100.0mm" y2="75.86746754889049mm" stroke="blue" stroke-width="2" />
  <line x1="119.98999999999998mm" y1="96.92250790828327mm" x2="119.98999999999998mm" y2="75.86746754889049mm" stroke="red" stroke-width="2" />
  <line x1="120.0mm" y1="96.92250790828327mm" x2="120.0mm" y2="75.86438147530257mm" stroke="blue" stroke-width="2" />
  <line x1="139.98999999999998mm" y1="96.92250790828327mm" x2="139.98999999999998mm" y2="82.03344257758107mm" stroke="red" stroke-width="2" />
  <line x1="140.0mm" y1="96.92250790828327mm" x2="140.0mm" y2="82.0290782089117mm" stroke="blue" stroke-width="2" />
  <line x1="159.98999999999998mm" y1="96.92250790828327mm" x2="159.98999999999998mm" y2="90.75345117896615mm" stroke="red" stroke-width="2" />
  <line x1="160.0mm" y1="96.92250790828327mm" x2="160.0mm" y2="90.75036510756576mm" stroke="black" stroke-width="3" />
  <line x1="0.0mm" y1="90.75036510756576mm" x2="19.99mm" y2="96.9194218368829mm" stroke="blue" stroke-width="2" />
  <line x1="19.99mm" y1="96.9194218368829mm" x2="20.0mm" y2="96.9194218368829mm" stroke="red" stroke-width="2" />
  <line x1="20.0mm" y1="96.9194218368829mm" x2="39.989999999999995mm" y2="96.9194218368829mm" stroke="blue" stroke-width="2" />
  <line x1="39.989999999999995mm" y1="96.9194218368829mm" x2="40.0mm" y2="96.92250790828328mm" stroke="red" stroke-width="2" />
  <line x1="40.0mm" y1="96.92250790828328mm" x2="59.989999999999995mm" y2="90.75345117896615mm" stroke="blue" stroke-width="2" />
  <line x1="59.989999999999995mm" y1="90.75345117896615mm" x2="60.0mm" y2="90.75781554763549mm" stroke="red" stroke-width="2" />
  <line x1="60.0mm" y1="90.75781554763549mm" x2="79.99mm" y2="82.03344257758107mm" stroke="blue" stroke-width="2" />
  <line x1="79.99mm" y1="82.03344257758107mm" x2="80.0mm" y2="82.03652865116901mm" stroke="red" stroke-width="2" />
  <line x1="80.0mm" y1="82.03652865116901mm" x2="99.98999999999998mm" y2="75.86746754889049mm" stroke="blue" stroke-width="2" />
  <line x1="99.98999999999998mm" y1="75.86746754889049mm" x2="100.0mm" y2="75.86746754889049mm" stroke="red" stroke-width="2" />
  <line x1="100.0mm" y1="75.86746754889049mm" x2="119.98999999999998mm" y2="75.86746754889049mm" stroke="blue" stroke-width="2" />
  <line x1="119.98999999999998mm" y1="75.86746754889049mm" x2="120.0mm" y2="75.86438147530257mm" stroke="red" stroke-width="2" />
  <line x1="120.0mm" y1="75.86438147530257mm" x2="139.98999999999998mm" y2="82.03344257758107mm" stroke="blue" stroke-width="2" />
  <line x1="139.98999999999998mm" y1="82.03344257758107mm" x2="140.0mm" y2="82.0290782089117mm" stroke="red" stroke-width="2" />
  <line x1="140.0mm" y1="82.0290782089117mm" x2="159.98999999999998mm" y2="90.75345117896615mm" stroke="blue" stroke-width="2" />
  <line x1="159.98999999999998mm" y1="90.75345117896615mm" x2="160.0mm" y2="90.75036510756576mm" stroke="red" stroke-width="2" />
  <line x1="0.0mm" y1="90.75036510756576mm" x2="0.0mm" y2="60.078569840637016mm" stroke="black" stroke-width="3" />
  <line x1="19.99mm" y1="96.9194218368829mm" x2="10.0mm" y2="60.078569840637016mm" stroke="red" stroke-width="2" />
  <line x1="20.0mm" y1="96.9194218368829mm" x2="20.0mm" y2="60.078569840637016mm" stroke="blue" stroke-width="2" />
  <line x1="39.989999999999995mm" y1="96.9194218368829mm" x2="30.0mm" y2="60.078569840637016mm" stroke="red" stroke-width="2" />
  <line x1="40.0mm" y1="96.92250790828328mm" x2="40.0mm" y2="60.078569840637016mm" stroke="blue" stroke-width="2" />
  <line x1="59.989999999999995mm" y1="90.75345117896615mm" x2="50.0mm" y2="60.078569840637016mm" stroke="red" stroke-width="2" />
  <line x1="60.0mm" y1="90.75781554763549mm" x2="60.0mm" y2="60.078569840637016mm" stroke="blue" stroke-width="2" />
  <line x1="79.99mm" y1="82.03344257758107mm" x2="70.0mm" y2="60.078569840637016mm" stroke="red" stroke-width="2" />
  <line x1="80.0mm" y1="82.03652865116901mm" x2="80.0mm" y2="60.078569840637016mm" stroke="blue" stroke-width="2" />
  <line x1="99.98999999999998mm" y1="75.86746754889049mm" x2="90.0mm" y2="60.078569840637016mm" stroke="red" stroke-width="2" />
  <line x1="100.0mm" y1="75.86746754889049mm" x2="100.0mm" y2="60.078569840637016mm" stroke="blue" stroke-width="2" />
  <line x1="119.98999999999998mm" y1="75.86746754889049mm" x2="110.0mm" y2="60.078569840637016mm" stroke="red" stroke-width="2" />
  <line x1="120.0mm" y1="75.86438147530257mm" x2="120.0mm" y2="60.078569840637016mm" stroke="blue" stroke-width="2" />
  <line x1="139.98999999999998mm" y1="82.03344257758107mm" x2="130.0mm" y2="60.078569840637016mm" stroke="red" stroke-width="2" />
  <line x1="140.0mm" y1="82.0290782089117mm" x2="140.0mm" y2="60.078569840637016mm" stroke="blue" stroke-width="2" />
  <line x1="159.98999999999998mm" y1="90.75345117896615mm" x2="150.0mm" y2="60.078569840637016mm" stroke="red" stroke-width="2" />
  <line x1="160.0mm" y1="90.75036510756576mm" x2="160.0mm" y2="60.078569840637016mm" stroke="black" stroke-width="3" />
  <line x1="0.0mm" y1="60.078569840637016mm" x2="0.0mm" y2="23.234631772990724mm" stroke="black" stroke-width="3" />
  <line x1="10.0mm" y1="60.078569840637016mm" x2="0.010000000000001119mm" y2="23.237717844391057mm" stroke="red" stroke-width="2" />
  <line x1="20.0mm" y1="60.078569840637016mm" x2="20.0mm" y2="23.237717844391057mm" stroke="blue" stroke-width="2" />
  <line x1="30.0mm" y1="60.078569840637016mm" x2="20.010000000000005mm" y2="23.237717844391057mm" stroke="red" stroke-width="2" />
  <line x1="40.0mm" y1="60.078569840637016mm" x2="40.0mm" y2="29.406774573708248mm" stroke="blue" stroke-width="2" />
  <line x1="50.0mm" y1="60.078569840637016mm" x2="40.010000000000005mm" y2="29.403688502307915mm" stroke="red" stroke-width="2" />
  <line x1="60.0mm" y1="60.078569840637016mm" x2="60.0mm" y2="38.12806147236233mm" stroke="blue" stroke-width="2" />
  <line x1="70.0mm" y1="60.078569840637016mm" x2="60.010000000000005mm" y2="38.12369710369296mm" stroke="red" stroke-width="2" />
  <line x1="80.0mm" y1="60.078569840637016mm" x2="80.0mm" y2="44.29275820597147mm" stroke="blue" stroke-width="2" />
  <line x1="90.0mm" y1="60.078569840637016mm" x2="80.01000000000002mm" y2="44.289672132383544mm" stroke="red" stroke-width="2" />
  <line x1="100.0mm" y1="60.078569840637016mm" x2="100.0mm" y2="44.289672132383544mm" stroke="blue" stroke-width="2" />
  <line x1="110.0mm" y1="60.078569840637016mm" x2="100.01000000000002mm" y2="44.289672132383544mm" stroke="red" stroke-width="2" />
  <line x1="120.0mm" y1="60.078569840637016mm" x2="120.0mm" y2="38.12061103010504mm" stroke="blue" stroke-width="2" />
  <line x1="130.0mm" y1="60.078569840637016mm" x2="120.01000000000002mm" y2="38.12369710369296mm" stroke="red" stroke-width="2" />
  <line x1="140.0mm" y1="60.078569840637016mm" x2="140.0mm" y2="29.399324133638515mm" stroke="blue" stroke-width="2" />
  <line x1="150.0mm" y1="60.078569840637016mm" x2="140.01000000000002mm" y2="29.403688502307915mm" stroke="red" stroke-width="2" />
  <line x1="160.0mm" y1="60.078569840637016mm" x2="160.0mm" y2="23.234631772990724mm" stroke="black" stroke-width="3" />
  <line x1="0.0mm" y1="23.234631772990724mm" x2="0.010000000000001119mm" y2="23.237717844391057mm" stroke="red" stroke-width="2" />
  <line x1="0.010000000000001119mm" y1="23.237717844391057mm" x2="20.0mm" y2="23.237717844391057mm" stroke="blue" stroke-width="2" />
  <line x1="20.0mm" y1="23.237717844391057mm" x2="20.010000000000005mm" y2="23.237717844391057mm" stroke="red" stroke-width="2" />
  <line x1="20.010000000000005mm" y1="23.237717844391057mm" x2="40.0mm" y2="29.406774573708248mm" stroke="blue" stroke-width="2" />
  <line x1="40.0mm" y1="29.406774573708248mm" x2="40.010000000000005mm" y2="29.403688502307915mm" stroke="red" stroke-width="2" />
  <line x1="40.010000000000005mm" y1="29.403688502307915mm" x2="60.0mm" y2="38.12806147236233mm" stroke="blue" stroke-width="2" />
  <line x1="60.0mm" y1="38.12806147236233mm" x2="60.010000000000005mm" y2="38.12369710369296mm" stroke="red" stroke-width="2" />
  <line x1="60.010000000000005mm" y1="38.12369710369296mm" x2="80.0mm" y2="44.29275820597147mm" stroke="blue" stroke-width="2" />
  <line x1="80.0mm" y1="44.29275820597147mm" x2="80.01000000000002mm" y2="44.289672132383544mm" stroke="red" stroke-width="2" />
  <line x1="80.01000000000002mm" y1="44.289672132383544mm" x2="100.0mm" y2="44.289672132383544mm" stroke="blue" stroke-width="2" />
  <line x1="100.0mm" y1="44.289672132383544mm" x2="100.01000000000002mm" y2="44.289672132383544mm" stroke="red" stroke-width="2" />
  <line x1="100.01000000000002mm" y1="44.289672132383544mm" x2="120.0mm" y2="38.12061103010504mm" stroke="blue" stroke-width="2" />
  <line x1="120.0mm" y1="38.12061103010504mm" x2="120.01000000000002mm" y2="38.12369710369296mm" stroke="red" stroke-width="2" />
  <line x1="120.01000000000002mm" y1="38.12369710369296mm" x2="140.0mm" y2="29.399324133638515mm" stroke="blue" stroke-width="2" />
  <line x1="140.0mm" y1="29.399324133638515mm" x2="140.01000000000002mm" y2="29.403688502307915mm" stroke="red" stroke-width="2" />
  <line x1="140.01000000000002mm" y1="29.403688502307915mm" x2="160.0mm" y2="23.234631772990724mm" stroke="blue" stroke-width="2" />
  <line x1="0.0mm" y1="23.234631772990724mm" x2="0.0mm" y2="23.234631772990724mm" stroke="black" stroke-width="3" />
  <line x1="0.010000000000001119mm" y1="23.237717844391057mm" x2="0.010000000000001119mm" y2="23.234631772990724mm" stroke="red" stroke-width="2" />
  <line x1="20.0mm" y1="23.237717844391057mm" x2="20.0mm" y2="23.234631772990724mm" stroke="blue" stroke-width="2" />
  <line x1="20.010000000000005mm" y1="23.237717844391057mm" x2="20.010000000000005mm" y2="23.234631772990724mm" stroke="red" stroke-width="2" />
  <line x1="40.0mm" y1="29.406774573708248mm" x2="40.0mm" y2="23.234631772990724mm" stroke="blue" stroke-width="2" />
  <line x1="40.010000000000005mm" y1="29.403688502307915mm" x2="40.010000000000005mm" y2="23.234631772990724mm" stroke="red" stroke-width="2" />
  <line x1="60.0mm" y1="38.12806147236233mm" x2="60.0mm" y2="23.234631772990724mm" stroke="blue" stroke-width="2" />
  <line x1="60.010000000000005mm" y1="38.12369710369296mm" x2="60.010000000000005mm" y2="23.234631772990724mm" stroke="red" stroke-width="2" />
  <line x1="80.0mm" y1="44.29275820597147mm" x2="80.0mm" y2="23.234631772990724mm" stroke="blue" stroke-width="2" />
  <line x1="80.01000000000002mm" y1="44.289672132383544mm" x2="80.01000000000002mm" y2="23.234631772990724mm" stroke="red" stroke-width="2" />
  <line x1="100.0mm" y1="44.289672132383544mm" x2="100.0mm" y2="23.234631772990724mm" stroke="blue" stroke-width="2" />
  <line x1="100.01000000000002mm" y1="44.289672132383544mm" x2="100.01000000000002mm" y2="23.234631772990724mm" stroke="red" stroke-width="2" />
  <line x1="120.0mm" y1="38.12061103010504mm" x2="120.0mm" y2="23.234631772990724mm" stroke="blue" stroke-width="2" />
  <line x1="120.01000000000002mm" y1="38.12369710369296mm" x2="120.01000000000002mm" y2="23.234631772990724mm" stroke="red" stroke-width="2" />
  <line x1="140.0mm" y1="29.399324133638515mm" x2="140.0mm" y2="23.234631772990724mm" stroke="blue" stroke-width="2" />
  <line x1="140.01000000000002mm" y1="29.403688502307915mm" x2="140.01000000000002mm" y2="23.234631772990724mm" stroke="red" stroke-width="2" />
  <line x1="160.0mm" y1="23.234631772990724mm" x2="160.0mm" y2="23.234631772990724mm" stroke="black" stroke-width="3" />
  <line x1="0.0mm" y1="23.234631772990724mm" x2="0.010000000000001119mm" y2="23.234631772990724mm" stroke="red" stroke-width="2" />
  <line x1="0.010000000000001119mm" y1="23.234631772990724mm" x2="20.0mm" y2="23.234631772990724mm" stroke="blue" stroke-width="2" />
  <line x1="20.0mm" y1="23.234631772990724mm" x2="20.010000000000005mm" y2="23.234631772990724mm" stroke="red" stroke-width="2" />
  <line x1="20.010000000000005mm" y1="23.234631772990724mm" x2="40.0mm" y2="23.234631772990724mm" stroke="blue" stroke-width="2" />
  <line x1="40.0mm" y1="23.234631772990724mm" x2="40.010000000000005mm" y2="23.234631772990724mm" stroke="red" stroke-width="2" />
  <line x1="40.010000000000005mm" y1="23.234631772990724mm" x2="60.0mm" y2="23.234631772990724mm" stroke="blue" stroke-width="2" />
  <line x1="60.0mm" y1="23.234631772990724mm" x2="60.010000000000005mm" y2="23.234631772990724mm" stroke="red" stroke-width="2" />
  <line x1="60.010000000000005mm" y1="23.234631772990724mm" x2="80.0mm" y2="23.234631772990724mm" stroke="blue" stroke-width="2" />
  <line x1="80.0mm" y1="23.234631772990724mm" x2="80.01000000000002mm" y2="23.234631772990724mm" stroke="red" stroke-width="2" />
  <line x1="80.01000000000002mm" y1="23.234631772990724mm" x2="100.0mm" y2="23.234631772990724mm" stroke="blue" stroke-width="2" />
  <line x1="100.0mm" y1="23.234631772990724mm" x2="100.01000000000002mm" y2="23.234631772990724mm" stroke="red" stroke-width="2" />
  <line x1="100.01000000000002mm" y1="23.234631772990724mm" x2="120.0mm" y2="23.234631772990724mm" stroke="blue" stroke-width="2" />
  <line x1="120.0mm" y1="23.234631772990724mm" x2="120.01000000000002mm" y2="23.234631772990724mm" stroke="red" stroke-width="2" />
  <line x1="120.01000000000002mm" y1="23.234631772990724mm" x2="140.0mm" y2="23.234631772990724mm" stroke="blue" stroke-width="2" />
  <line x1="140.0mm" y1="23.234631772990724mm" x2="140.01000000000002mm" y2="23.234631772990724mm" stroke="red" stroke-width="2" />
  <line x1="140.01000000000002mm" y1="23.234631772990724mm" x2="160.0mm" y2="23.234631772990724mm" stroke="blue" stroke-width="2" />
  <line x1="0.0mm" y1="23.234631772990724mm" x2="0.0mm" y2="10.242640687119291mm" stroke="black" stroke-width="3" />
  <line x1="0.010000000000001119mm" y1="23.234631772990724mm" x2="2.000000000000001mm" y2="10.242640687119291mm" stroke="red" stroke-width="2" />
  <line x1="20.0mm" y1="23.234631772990724mm" x2="20.0mm" y2="10.242640687119291mm" stroke="blue" stroke-width="2" />
  <line x1="20.010000000000005mm" y1="23.234631772990724mm" x2="22.0mm" y2="10.242640687119291mm" stroke="red" stroke-width="2" />
  <line x1="40.0mm" y1="23.234631772990724mm" x2="40.0mm" y2="10.242640687119291mm" stroke="blue" stroke-width="2" />
  <line x1="40.010000000000005mm" y1="23.234631772990724mm" x2="42.0mm" y2="10.242640687119291mm" stroke="red" stroke-width="2" />
  <line x1="60.0mm" y1="23.234631772990724mm" x2="60.0mm" y2="10.242640687119291mm" stroke="blue" stroke-width="2" />
  <line x1="60.010000000000005mm" y1="23.234631772990724mm" x2="62.0mm" y2="10.242640687119291mm" stroke="red" stroke-width="2" />
  <line x1="80.0mm" y1="23.234631772990724mm" x2="80.0mm" y2="10.242640687119291mm" stroke="blue" stroke-width="2" />
  <line x1="80.01000000000002mm" y1="23.234631772990724mm" x2="82.0mm" y2="10.242640687119291mm" stroke="red" stroke-width="2" />
  <line x1="100.0mm" y1="23.234631772990724mm" x2="100.0mm" y2="10.242640687119291mm" stroke="blue" stroke-width="2" />
  <line x1="100.01000000000002mm" y1="23.234631772990724mm" x2="102.0mm" y2="10.242640687119291mm" stroke="red" stroke-width="2" />
  <line x1="120.0mm" y1="23.234631772990724mm" x2="120.0mm" y2="10.242640687119291mm" stroke="blue" stroke-width="2" />
  <line x1="120.01000000000002mm" y1="23.234631772990724mm" x2="122.0mm" y2="10.242640687119291mm" stroke="red" stroke-width="2" />
  <line x1="140.0mm" y1="23.234631772990724mm" x2="140.0mm" y2="10.242640687119291mm" stroke="blue" stroke-width="2" />
  <line x1="140.01000000000002mm" y1="23.234631772990724mm" x2="142.0mm" y2="10.242640687119291mm" stroke="red" stroke-width="2" />
  <line x1="160.0mm" y1="23.234631772990724mm" x2="160.0mm" y2="10.242640687119291mm" stroke="black" stroke-width="3" />
  <line x1="0.0mm" y1="10.242640687119291mm" x2="2.000000000000001mm" y2="10.242640687119291mm" stroke="red" stroke-width="2" />
  <line x1="2.000000000000001mm" y1="10.242640687119291mm" x2="20.0mm" y2="10.242640687119291mm" stroke="blue" stroke-width="2" />
  <line x1="20.0mm" y1="10.242640687119291mm" x2="22.0mm" y2="10.242640687119291mm" stroke="red" stroke-width="2" />
  <line x1="22.0mm" y1="10.242640687119291mm" x2="40.0mm" y2="10.242640687119291mm" stroke="blue" stroke-width="2" />
  <line x1="40.0mm" y1="10.242640687119291mm" x2="42.0mm" y2="10.242640687119291mm" stroke="red" stroke-width="2" />
  <line x1="42.0mm" y1="10.242640687119291mm" x2="60.0mm" y2="10.242640687119291mm" stroke="blue" stroke-width="2" />
  <line x1="60.0mm" y1="10.242640687119291mm" x2="62.0mm" y2="10.242640687119291mm" stroke="red" stroke-width="2" />
  <line x1="62.0mm" y1="10.242640687119291mm" x2="80.0mm" y2="10.242640687119291mm" stroke="blue" stroke-width="2" />
  <line x1="80.0mm" y1="10.242640687119291mm" x2="82.0mm" y2="10.242640687119291mm" stroke="red" stroke-width="2" />
  <line x1="82.0mm" y1="10.242640687119291mm" x2="100.0mm" y2="10.242640687119291mm" stroke="blue" stroke-width="2" />
  <line x1="100.0mm" y1="10.242640687119291mm" x2="102.0mm" y2="10.242640687119291mm" stroke="red" stroke-width="2" />
  <line x1="102.0mm" y1="10.242640687119291mm" x2="120.0mm" y2="10.242640687119291mm" stroke="blue" stroke-width="2" />
  <line x1="120.0mm" y1="10.242640687119291mm" x2="122.0mm" y2="10.242640687119291mm" stroke="red" stroke-width="2" />
  <line x1="122.0mm" y1="10.242640687119291mm" x2="140.0mm" y2="10.242640687119291mm" stroke="blue" stroke-width="2" />
  <line x1="140.0mm" y1="10.242640687119291mm" x2="142.0mm" y2="10.242640687119291mm" stroke="red" stroke-width="2" />
  <line x1="142.0mm" y1="10.242640687119291mm" x2="160.0mm" y2="10.242640687119291mm" stroke="blue" stroke-width="2" />
  <line x1="0.0mm" y1="10.242640687119291mm" x2="0.0mm" y2="0.0mm" stroke="black" stroke-width="3" />
  <line x1="2.000000000000001mm" y1="10.242640687119291mm" x2="5.0mm" y2="0.0mm" stroke="red" stroke-width="2" />
  <line x1="20.0mm" y1="10.242640687119291mm" x2="20.0mm" y2="0.0mm" stroke="blue" stroke-width="2" />
  <line x1="22.0mm" y1="10.242640687119291mm" x2="25.0mm" y2="0.0mm" stroke="red" stroke-width="2" />
  <line x1="40.0mm" y1="10.242640687119291mm" x2="40.0mm" y2="0.0mm" stroke="blue" stroke-width="2" />
  <line x1="42.0mm" y1="10.242640687119291mm" x2="45.0mm" y2="0.0mm" stroke="red" stroke-width="2" />
  <line x1="60.0mm" y1="10.242640687119291mm" x2="60.0mm" y2="0.0mm" stroke="blue" stroke-width="2" />
  <line x1="62.0mm" y1="10.242640687119291mm" x2="65.0mm" y2="0.0mm" stroke="red" stroke-width="2" />
  <line x1="80.0mm" y1="10.242640687119291mm" x2="80.0mm" y2="0.0mm" stroke="blue" stroke-width="2" />
  <line x1="82.0mm" y1="10.242640687119291mm" x2="85.0mm" y2="0.0mm" stroke="red" stroke-width="2" />
  <line x1="100.0mm" y1="10.242640687119291mm" x2="100.0mm" y2="0.0mm" stroke="blue" stroke-width="2" />
  <line x1="102.0mm" y1="10.242640687119291mm" x2="105.0mm" y2="0.0mm" stroke="red" stroke-width="2" />
  <line x1="120.0mm" y1="10.242640687119291mm" x2="120.0mm" y2="0.0mm" stroke="blue" stroke-width="2" />
  <line x1="122.0mm" y1="10.242640687119291mm" x2="125.0mm" y2="0.0mm" stroke="red" stroke-width="2" />
  <line x1="140.0mm" y1="10.242640687119291mm" x2="140.0mm" y2="0.0mm" stroke="blue" stroke-width="2" />
  <line x1="142.0mm" y1="10.242640687119291mm" x2="145.0mm" y2="0.0mm" stroke="red" stroke-width="2" />
  <line x1="160.0mm" y1="10.242640687119291mm" x2="160.0mm" y2="0.0mm" stroke="black" stroke-width="3" />
  <line x1="0.0mm" y1="0.0mm" x2="5.0mm" y2="0.0mm" stroke="black" stroke-width="3" />
  <line x1="5.0mm" y1="0.0mm" x2="20.0mm" y2="0.0mm" stroke="black" stroke-width="3" />
  <line x1="20.0mm" y1="0.0mm" x2="25.0mm" y2="0.0mm" stroke="black" stroke-width="3" />
  <line x1="25.0mm" y1="0.0mm" x2="40.0mm" y2="0.0mm" stroke="black" stroke-width="3" />
  <line x1="40.0mm" y1="0.0mm" x2="45.0mm" y2="0.0mm" stroke="black" stroke-width="3" />
  <line x1="45.0mm" y1="0.0mm" x2="60.0mm" y2="0.0mm" stroke="black" stroke-width="3" />
  <line x1="60.0mm" y1="0.0mm" x2="65.0mm" y2="0.0mm" stroke="black" stroke-width="3" />
  <line x1="65.0mm" y1="0.0mm" x2="80.0mm" y2="0.0mm" stroke="black" stroke-width="3" />
  <line x1="80.0mm" y1="0.0mm" x2="85.0mm" y2="0.0mm" stroke="black" stroke-width="3" />
  <line x1="85.0mm" y1="0.0mm" x2="100.0mm" y2="0.0mm" stroke="black" stroke-width="3" />
  <line x1="100.0mm" y1="0.0mm" x2="105.0mm" y2="0.0mm" stroke="black" stroke-width="3" />
  <line x1="105.0mm" y1="0.0mm" x2="120.0mm" y2="0.0mm" stroke="black" stroke-width="3" />
  <line x1="120.0mm" y1="0.0mm" x2="125.0mm" y2="0.0mm" stroke="black" stroke-width="3" />
  <line x1="125.0mm" y1="0.0mm" x2="140.0mm" y2="0.0mm" stroke="black" stroke-width="3" />
  <line x1="140.0mm" y1="0.0mm" x2="145.0mm" y2="0.0mm" stroke="black" stroke-width="3" />
  <line x1="145.0mm" y1="0.0mm" x2="160.0mm" y2="0.0mm" stroke="black" stroke-width="3" />
</g>
</svg>