<?xml version="1.0" encoding="UTF-8" standalone="no"?>
<svg 
  xmlns="http://www.w3.org/2000/svg"
  id="svg8"
  version="1.1" 
  height="152.51811318765408mm" 
  width="180.0mm">
<g>
  <line x1="0.0mm" y1="152.51811318765408mm" x2="5.0mm" y2="152.51811318765408mm" stroke="black" stroke-width="2" />
  <line x1="5.0mm" y1="152.51811318765408mm" x2="20.0mm" y2="152.51811318765408mm" stroke="black" stroke-width="2" />
  <line x1="20.0mm" y1="152.51811318765408mm" x2="25.0mm" y2="152.51811318765408mm" stroke="black" stroke-width="2" />
  <line x1="25.0mm" y1="152.51811318765408mm" x2="40.0mm" y2="152.51811318765408mm" stroke="black" stroke-width="2" />
  <line x1="40.0mm" y1="152.51811318765408mm" x2="45.0mm" y2="152.51811318765408mm" stroke="black" stroke-width="2" />
  <line x1="45.0mm" y1="152.51811318765408mm" x2="60.0mm" y2="152.51811318765408mm" stroke="black" stroke-width="2" />
  <line x1="60.0mm" y1="152.51811318765408mm" x2="65.0mm" y2="152.51811318765408mm" stroke="black" stroke-width="2" />
  <line x1="65.0mm" y1="152.51811318765408mm" x2="80.0mm" y2="152.51811318765408mm" stroke="black" stroke-width="2" />
  <line x1="80.0mm" y1="152.51811318765408mm" x2="85.0mm" y2="152.51811318765408mm" stroke="black" stroke-width="2" />
  <line x1="85.0mm" y1="152.51811318765408mm" x2="100.0mm" y2="152.51811318765408mm" stroke="black" stroke-width="2" />
  <line x1="100.0mm" y1="152.51811318765408mm" x2="105.0mm" y2="152.51811318765408mm" stroke="black" stroke-width="2" />
  <line x1="105.0mm" y1="152.51811318765408mm" x2="120.0mm" y2="152.51811318765408mm" stroke="black" stroke-width="2" />
  <line x1="120.0mm" y1="152.51811318765408mm" x2="125.0mm" y2="152.51811318765408mm" stroke="black" stroke-width="2" />
  <line x1="125.0mm" y1="152.51811318765408mm" x2="140.0mm" y2="152.51811318765408mm" stroke="black" stroke-width="2" />
  <line x1="140.0mm" y1="152.51811318765408mm" x2="145.0mm" y2="152.51811318765408mm" stroke="black" stroke-width="2" />
  <line x1="145.0mm" y1="152.51811318765408mm" x2="160.0mm" y2="152.51811318765408mm" stroke="black" stroke-width="2" />
  <line x1="160.0mm" y1="152.51811318765408mm" x2="165.0mm" y2="152.51811318765408mm" stroke="black" stroke-width="2" />
  <line x1="165.0mm" y1="152.51811318765408mm" x2="180.0mm" y2="152.51811318765408mm" stroke="black" stroke-width="2" />
  <line x1="0.0mm" y1="152.51811318765408mm" x2="0.0mm" y2="142.2754725005348mm" stroke="black" stroke-width="2" />
  <line x1="5.0mm" y1="152.51811318765408mm" x2="2.000000000000001mm" y2="142.2754725005348mm" stroke="red" stroke-width="1.5" />
  <line x1="20.0mm" y1="152.51811318765408mm" x2="20.0mm" y2="142.2754725005348mm" stroke="blue" stroke-width="1.5" />
  <line x1="25.0mm" y1="152.51811318765408mm" x2="22.0mm" y2="142.2754725005348mm" stroke="red" stroke-width="1.5" />
  <line x1="40.0mm" y1="152.51811318765408mm" x2="40.0mm" y2="142.2754725005348mm" stroke="blue" stroke-width="1.5" />
  <line x1="45.0mm" y1="152.51811318765408mm" x2="42.0mm" y2="142.2754725005348mm" stroke="red" stroke-width="1.5" />
  <line x1="60.0mm" y1="152.51811318765408mm" x2="60.0mm" y2="142.2754725005348mm" stroke="blue" stroke-width="1.5" />
  <line x1="65.0mm" y1="152.51811318765408mm" x2="62.0mm" y2="142.2754725005348mm" stroke="red" stroke-width="1.5" />
  <line x1="80.0mm" y1="152.51811318765408mm" x2="80.0mm" y2="142.2754725005348mm" stroke="blue" stroke-width="1.5" />
  <line x1="85.0mm" y1="152.51811318765408mm" x2="82.0mm" y2="142.2754725005348mm" stroke="red" stroke-width="1.5" />
  <line x1="100.0mm" y1="152.51811318765408mm" x2="100.0mm" y2="142.2754725005348mm" stroke="blue" stroke-width="1.5" />
  <line x1="105.0mm" y1="152.51811318765408mm" x2="102.0mm" y2="142.2754725005348mm" stroke="red" stroke-width="1.5" />
  <line x1="120.0mm" y1="152.51811318765408mm" x2="120.0mm" y2="142.2754725005348mm" stroke="blue" stroke-width="1.5" />
  <line x1="125.0mm" y1="152.51811318765408mm" x2="122.0mm" y2="142.2754725005348mm" stroke="red" stroke-width="1.5" />
  <line x1="140.0mm" y1="152.51811318765408mm" x2="140.0mm" y2="142.2754725005348mm" stroke="blue" stroke-width="1.5" />
  <line x1="145.0mm" y1="152.51811318765408mm" x2="142.0mm" y2="142.2754725005348mm" stroke="red" stroke-width="1.5" />
  <line x1="160.0mm" y1="152.51811318765408mm" x2="160.0mm" y2="142.2754725005348mm" stroke="blue" stroke-width="1.5" />
  <line x1="165.0mm" y1="152.51811318765408mm" x2="162.0mm" y2="142.2754725005348mm" stroke="red" stroke-width="1.5" />
  <line x1="180.0mm" y1="152.51811318765408mm" x2="180.0mm" y2="142.2754725005348mm" stroke="black" stroke-width="2" />
  <line x1="0.0mm" y1="142.2754725005348mm" x2="2.000000000000001mm" y2="142.2754725005348mm" stroke="black" stroke-width="2" />
  <line x1="2.000000000000001mm" y1="142.2754725005348mm" x2="20.0mm" y2="142.2754725005348mm" stroke="black" stroke-width="2" />
  <line x1="20.0mm" y1="142.2754725005348mm" x2="22.0mm" y2="142.2754725005348mm" stroke="black" stroke-width="2" />
  <line x1="22.0mm" y1="142.2754725005348mm" x2="40.0mm" y2="142.2754725005348mm" stroke="black" stroke-width="2" />
  <line x1="40.0mm" y1="142.2754725005348mm" x2="42.0mm" y2="142.2754725005348mm" stroke="black" stroke-width="2" />
  <line x1="42.0mm" y1="142.2754725005348mm" x2="60.0mm" y2="142.2754725005348mm" stroke="black" stroke-width="2" />
  <line x1="60.0mm" y1="142.2754725005348mm" x2="62.0mm" y2="142.2754725005348mm" stroke="black" stroke-width="2" />
  <line x1="62.0mm" y1="142.2754725005348mm" x2="80.0mm" y2="142.2754725005348mm" stroke="black" stroke-width="2" />
  <line x1="80.0mm" y1="142.2754725005348mm" x2="82.0mm" y2="142.2754725005348mm" stroke="black" stroke-width="2" />
  <line x1="82.0mm" y1="142.2754725005348mm" x2="100.0mm" y2="142.2754725005348mm" stroke="black" stroke-width="2" />
  <line x1="100.0mm" y1="142.2754725005348mm" x2="102.0mm" y2="142.2754725005348mm" stroke="black" stroke-width="2" />
  <line x1="102.0mm" y1="142.2754725005348mm" x2="120.0mm" y2="142.2754725005348mm" stroke="black" stroke-width="2" />
  <line x1="120.0mm" y1="142.2754725005348mm" x2="122.0mm" y2="142.2754725005348mm" stroke="black" stroke-width="2" />
  <line x1="122.0mm" y1="142.2754725005348mm" x2="140.0mm" y2="142.2754725005348mm" stroke="black" stroke-width="2" />
  <line x1="140.0mm" y1="142.2754725005348mm" x2="142.0mm" y2="142.2754725005348mm" stroke="black" stroke-width="2" />
  <line x1="142.0mm" y1="142.2754725005348mm" x2="160.0mm" y2="142.2754725005348mm" stroke="black" stroke-width="2" />
  <line x1="160.0mm" y1="142.2754725005348mm" x2="162.0mm" y2="142.2754725005348mm" stroke="black" stroke-width="2" />
  <line x1="162.0mm" y1="142.2754725005348mm" x2="180.0mm" y2="142.2754725005348mm" stroke="black" stroke-width="2" />
  <line x1="0.0mm" y1="142.2754725005348mm" x2="0.0mm" y2="130.2044046886693mm" stroke="black" stroke-width="2" />
  <line x1="2.000000000000001mm" y1="142.2754725005348mm" x2="2.000000000000001mm" y2="130.2044046886693mm" stroke="red" stroke-width="1.5" />
  <line x1="20.0mm" y1="142.2754725005348mm" x2="20.0mm" y2="130.2044046886693mm" stroke="blue" stroke-width="1.5" />
  <line x1="22.0mm" y1="142.2754725005348mm" x2="22.0mm" y2="130.2044046886693mm" stroke="red" stroke-width="1.5" />
  <line x1="40.0mm" y1="142.2754725005348mm" x2="40.0mm" y2="130.2044046886693mm" stroke="blue" stroke-width="1.5" />
  <line x1="42.0mm" y1="142.2754725005348mm" x2="42.0mm" y2="130.2044046886693mm" stroke="red" stroke-width="1.5" />
  <line x1="60.0mm" y1="142.2754725005348mm" x2="60.0mm" y2="130.2044046886693mm" stroke="blue" stroke-width="1.5" />
  <line x1="62.0mm" y1="142.2754725005348mm" x2="62.0mm" y2="130.2044046886693mm" stroke="red" stroke-width="1.5" />
  <line x1="80.0mm" y1="142.2754725005348mm" x2="80.0mm" y2="130.2044046886693mm" stroke="blue" stroke-width="1.5" />
  <line x1="82.0mm" y1="142.2754725005348mm" x2="82.0mm" y2="130.2044046886693mm" stroke="red" stroke-width="1.5" />
  <line x1="100.0mm" y1="142.2754725005348mm" x2="100.0mm" y2="130.2044046886693mm" stroke="blue" stroke-width="1.5" />
  <line x1="102.0mm" y1="142.2754725005348mm" x2="102.0mm" y2="130.2044046886693mm" stroke="red" stroke-width="1.5" />
  <line x1="120.0mm" y1="142.2754725005348mm" x2="120.0mm" y2="130.2044046886693mm" stroke="blue" stroke-width="1.5" />
  <line x1="122.0mm" y1="142.2754725005348mm" x2="122.0mm" y2="130.2044046886693mm" stroke="red" stroke-width="1.5" />
  <line x1="140.0mm" y1="142.2754725005348mm" x2="140.0mm" y2="130.2044046886693mm" stroke="blue" stroke-width="1.5" />
  <line x1="142.0mm" y1="142.2754725005348mm" x2="142.0mm" y2="130.2044046886693mm" stroke="red" stroke-width="1.5" />
  <line x1="160.0mm" y1="142.2754725005348mm" x2="160.0mm" y2="130.2044046886693mm" stroke="blue" stroke-width="1.5" />
  <line x1="162.0mm" y1="142.2754725005348mm" x2="162.0mm" y2="130.2044046886693mm" stroke="red" stroke-width="1.5" />
  <line x1="180.0mm" y1="142.2754725005348mm" x2="180.0mm" y2="130.2044046886693mm" stroke="black" stroke-width="2" />
  <line x1="0.0mm" y1="130.2044046886693mm" x2="2.000000000000001mm" y2="130.2044046886693mm" stroke="gray" stroke-width="0.3" />
  <line x1="2.000000000000001mm" y1="130.2044046886693mm" x2="20.0mm" y2="130.2044046886693mm" stroke="gray" stroke-width="0.3" />
  <line x1="20.0mm" y1="130.2044046886693mm" x2="22.0mm" y2="130.2044046886693mm" stroke="gray" stroke-width="0.3" />
  <line x1="22.0mm" y1="130.2044046886693mm" x2="40.0mm" y2="130.2044046886693mm" stroke="gray" stroke-width="0.3" />
  <line x1="40.0mm" y1="130.2044046886693mm" x2="42.0mm" y2="130.2044046886693mm" stroke="gray" stroke-width="0.3" />
  <line x1="42.0mm" y1="130.2044046886693mm" x2="60.0mm" y2="130.2044046886693mm" stroke="gray" stroke-width="0.3" />
  <line x1="60.0mm" y1="130.2044046886693mm" x2="62.0mm" y2="130.2044046886693mm" stroke="gray" stroke-width="0.3" />
  <line x1="62.0mm" y1="130.2044046886693mm" x2="80.0mm" y2="130.2044046886693mm" stroke="gray" stroke-width="0.3" />
  <line x1="80.0mm" y1="130.2044046886693mm" x2="82.0mm" y2="130.2044046886693mm" stroke="gray" stroke-width="0.3" />
  <line x1="82.0mm" y1="130.2044046886693mm" x2="100.0mm" y2="130.2044046886693mm" stroke="gray" stroke-width="0.3" />
  <line x1="100.0mm" y1="130.2044046886693mm" x2="102.0mm" y2="130.2044046886693mm" stroke="gray" stroke-width="0.3" />
  <line x1="102.0mm" y1="130.2044046886693mm" x2="120.0mm" y2="130.2044046886693mm" stroke="gray" stroke-width="0.3" />
  <line x1="120.0mm" y1="130.2044046886693mm" x2="122.0mm" y2="130.2044046886693mm" stroke="gray" stroke-width="0.3" />
  <line x1="122.0mm" y1="130.2044046886693mm" x2="140.0mm" y2="130.2044046886693mm" stroke="gray" stroke-width="0.3" />
  <line x1="140.0mm" y1="130.2044046886693mm" x2="142.0mm" y2="130.2044046886693mm" stroke="gray" stroke-width="0.3" />
  <line x1="142.0mm" y1="130.2044046886693mm" x2="160.0mm" y2="130.2044046886693mm" stroke="gray" stroke-width="0.3" />
  <line x1="160.0mm" y1="130.2044046886693mm" x2="162.0mm" y2="130.2044046886693mm" stroke="gray" stroke-width="0.3" />
  <line x1="162.0mm" y1="130.2044046886693mm" x2="180.0mm" y2="130.2044046886693mm" stroke="gray" stroke-width="0.3" />
  <line x1="0.0mm" y1="130.2044046886693mm" x2="0.0mm" y2="112.11163959400321mm" stroke="black" stroke-width="2" />
  <line x1="2.000000000000001mm" y1="130.2044046886693mm" x2="2.000000000000001mm" y2="112.72885277765954mm" stroke="red" stroke-width="1.5" />
  <line x1="20.0mm" y1="130.2044046886693mm" x2="20.0mm" y2="112.72885277777482mm" stroke="blue" stroke-width="1.5" />
  <line x1="22.0mm" y1="130.2044046886693mm" x2="22.0mm" y2="112.728852777762mm" stroke="red" stroke-width="1.5" />
  <line x1="40.0mm" y1="130.2044046886693mm" x2="40.0mm" y2="118.28377143055388mm" stroke="blue" stroke-width="1.5" />
  <line x1="42.0mm" y1="130.2044046886693mm" x2="42.0mm" y2="117.66655824691034mm" stroke="red" stroke-width="1.5" />
  <line x1="60.0mm" y1="130.2044046886693mm" x2="60.0mm" y2="125.52238393609231mm" stroke="blue" stroke-width="1.5" />
  <line x1="62.0mm" y1="130.2044046886693mm" x2="62.0mm" y2="124.64951441507209mm" stroke="red" stroke-width="1.5" />
  <line x1="80.0mm" y1="130.2044046886693mm" x2="80.0mm" y2="130.2044046886693mm" stroke="blue" stroke-width="1.5" />
  <line x1="82.0mm" y1="130.2044046886693mm" x2="82.0mm" y2="129.58719465826962mm" stroke="red" stroke-width="1.5" />
  <line x1="100.0mm" y1="130.2044046886693mm" x2="100.0mm" y2="129.58719465826962mm" stroke="blue" stroke-width="1.5" />
  <line x1="102.0mm" y1="130.2044046886693mm" x2="102.0mm" y2="129.58719465826962mm" stroke="red" stroke-width="1.5" />
  <line x1="120.0mm" y1="130.2044046886693mm" x2="120.0mm" y2="124.0323043846725mm" stroke="blue" stroke-width="1.5" />
  <line x1="122.0mm" y1="130.2044046886693mm" x2="122.0mm" y2="124.64951441507216mm" stroke="red" stroke-width="1.5" />
  <line x1="140.0mm" y1="130.2044046886693mm" x2="140.0mm" y2="116.79368872589006mm" stroke="blue" stroke-width="1.5" />
  <line x1="142.0mm" y1="130.2044046886693mm" x2="142.0mm" y2="117.66655824691031mm" stroke="red" stroke-width="1.5" />
  <line x1="160.0mm" y1="130.2044046886693mm" x2="160.0mm" y2="112.11163959400321mm" stroke="blue" stroke-width="1.5" />
  <line x1="162.0mm" y1="130.2044046886693mm" x2="162.0mm" y2="112.72885277765954mm" stroke="red" stroke-width="1.5" />
  <line x1="180.0mm" y1="130.2044046886693mm" x2="180.0mm" y2="112.72885277777482mm" stroke="black" stroke-width="2" />
  <line x1="0.0mm" y1="112.11163959400321mm" x2="2.000000000000001mm" y2="112.72885277765954mm" stroke="red" stroke-width="1.5" />
  <line x1="2.000000000000001mm" y1="112.72885277765954mm" x2="20.0mm" y2="112.72885277777482mm" stroke="blue" stroke-width="1.5" />
  <line x1="20.0mm" y1="112.72885277777482mm" x2="22.0mm" y2="112.728852777762mm" stroke="red" stroke-width="1.5" />
  <line x1="22.0mm" y1="112.728852777762mm" x2="40.0mm" y2="118.28377143055388mm" stroke="blue" stroke-width="1.5" />
  <line x1="40.0mm" y1="118.28377143055388mm" x2="42.0mm" y2="117.66655824691034mm" stroke="red" stroke-width="1.5" />
  <line x1="42.0mm" y1="117.66655824691034mm" x2="60.0mm" y2="125.52238393609231mm" stroke="blue" stroke-width="1.5" />
  <line x1="60.0mm" y1="125.52238393609231mm" x2="62.0mm" y2="124.64951441507209mm" stroke="red" stroke-width="1.5" />
  <line x1="62.0mm" y1="124.64951441507209mm" x2="80.0mm" y2="130.2044046886693mm" stroke="blue" stroke-width="1.5" />
  <line x1="80.0mm" y1="130.2044046886693mm" x2="82.0mm" y2="129.58719465826962mm" stroke="red" stroke-width="1.5" />
  <line x1="82.0mm" y1="129.58719465826962mm" x2="100.0mm" y2="129.58719465826962mm" stroke="blue" stroke-width="1.5" />
  <line x1="100.0mm" y1="129.58719465826962mm" x2="102.0mm" y2="129.58719465826962mm" stroke="red" stroke-width="1.5" />
  <line x1="102.0mm" y1="129.58719465826962mm" x2="120.0mm" y2="124.0323043846725mm" stroke="blue" stroke-width="1.5" />
  <line x1="120.0mm" y1="124.0323043846725mm" x2="122.0mm" y2="124.64951441507216mm" stroke="red" stroke-width="1.5" />
  <line x1="122.0mm" y1="124.64951441507216mm" x2="140.0mm" y2="116.79368872589006mm" stroke="blue" stroke-width="1.5" />
  <line x1="140.0mm" y1="116.79368872589006mm" x2="142.0mm" y2="117.66655824691031mm" stroke="red" stroke-width="1.5" />
  <line x1="142.0mm" y1="117.66655824691031mm" x2="160.0mm" y2="112.11163959400321mm" stroke="blue" stroke-width="1.5" />
  <line x1="160.0mm" y1="112.11163959400321mm" x2="162.0mm" y2="112.72885277765954mm" stroke="red" stroke-width="1.5" />
  <line x1="162.0mm" y1="112.72885277765954mm" x2="180.0mm" y2="112.72885277777482mm" stroke="blue" stroke-width="1.5" />
  <line x1="0.0mm" y1="112.11163959400321mm" x2="0.0mm" y2="100.0850633225957mm" stroke="black" stroke-width="2" />
  <line x1="2.000000000000001mm" y1="112.72885277765954mm" x2="10.0mm" y2="100.0850633225957mm" stroke="red" stroke-width="1.5" />
  <line x1="20.0mm" y1="112.72885277777482mm" x2="20.0mm" y2="100.0850633225957mm" stroke="blue" stroke-width="1.5" />
  <line x1="22.0mm" y1="112.728852777762mm" x2="30.0mm" y2="100.0850633225957mm" stroke="red" stroke-width="1.5" />
  <line x1="40.0mm" y1="118.28377143055388mm" x2="40.0mm" y2="100.0850633225957mm" stroke="blue" stroke-width="1.5" />
  <line x1="42.0mm" y1="117.66655824691034mm" x2="50.0mm" y2="100.0850633225957mm" stroke="red" stroke-width="1.5" />
  <line x1="60.0mm" y1="125.52238393609231mm" x2="60.0mm" y2="100.0850633225957mm" stroke="blue" stroke-width="1.5" />
  <line x1="62.0mm" y1="124.64951441507209mm" x2="70.0mm" y2="100.0850633225957mm" stroke="red" stroke-width="1.5" />
  <line x1="80.0mm" y1="130.2044046886693mm" x2="80.0mm" y2="100.0850633225957mm" stroke="blue" stroke-width="1.5" />
  <line x1="82.0mm" y1="129.58719465826962mm" x2="90.0mm" y2="100.0850633225957mm" stroke="red" stroke-width="1.5" />
  <line x1="100.0mm" y1="129.58719465826962mm" x2="100.0mm" y2="100.0850633225957mm" stroke="blue" stroke-width="1.5" />
  <line x1="102.0mm" y1="129.58719465826962mm" x2="110.0mm" y2="100.0850633225957mm" stroke="red" stroke-width="1.5" />
  <line x1="120.0mm" y1="124.0323043846725mm" x2="120.0mm" y2="100.0850633225957mm" stroke="blue" stroke-width="1.5" />
  <line x1="122.0mm" y1="124.64951441507216mm" x2="130.0mm" y2="100.0850633225957mm" stroke="red" stroke-width="1.5" />
  <line x1="140.0mm" y1="116.79368872589006mm" x2="140.0mm" y2="100.0850633225957mm" stroke="blue" stroke-width="1.5" />
  <line x1="142.0mm" y1="117.66655824691031mm" x2="150.0mm" y2="100.0850633225957mm" stroke="red" stroke-width="1.5" />
  <line x1="160.0mm" y1="112.11163959400321mm" x2="160.0mm" y2="100.0850633225957mm" stroke="blue" stroke-width="1.5" />
  <line x1="162.0mm" y1="112.72885277765954mm" x2="170.0mm" y2="100.0850633225957mm" stroke="red" stroke-width="1.5" />
  <line x1="180.0mm" y1="112.72885277777482mm" x2="180.0mm" y2="100.0850633225957mm" stroke="black" stroke-width="2" />
  <line x1="0.0mm" y1="100.0850633225957mm" x2="0.0mm" y2="87.55359526378354mm" stroke="black" stroke-width="2" />
  <line x1="10.0mm" y1="100.0850633225957mm" x2="15.0mm" y2="92.18269474728439mm" stroke="red" stroke-width="1.5" />
  <line x1="20.0mm" y1="100.0850633225957mm" x2="20.0mm" y2="92.18269474728439mm" stroke="blue" stroke-width="1.5" />
  <line x1="30.0mm" y1="100.0850633225957mm" x2="35.0mm" y2="92.18269474728439mm" stroke="red" stroke-width="1.5" />
  <line x1="40.0mm" y1="100.0850633225957mm" x2="40.0mm" y2="93.72572790845132mm" stroke="blue" stroke-width="1.5" />
  <line x1="50.0mm" y1="100.0850633225957mm" x2="55.0mm" y2="89.0966284249505mm" stroke="red" stroke-width="1.5" />
  <line x1="60.0mm" y1="100.0850633225957mm" x2="60.0mm" y2="91.27880413658406mm" stroke="blue" stroke-width="1.5" />
  <line x1="70.0mm" y1="100.0850633225957mm" x2="75.0mm" y2="84.73227700168336mm" stroke="red" stroke-width="1.5" />
  <line x1="80.0mm" y1="100.0850633225957mm" x2="80.0mm" y2="86.27530524054413mm" stroke="blue" stroke-width="1.5" />
  <line x1="90.0mm" y1="100.0850633225957mm" x2="95.0mm" y2="81.6462205239618mm" stroke="red" stroke-width="1.5" />
  <line x1="100.0mm" y1="100.0850633225957mm" x2="100.0mm" y2="81.6462205239618mm" stroke="blue" stroke-width="1.5" />
  <line x1="110.0mm" y1="100.0850633225957mm" x2="115.0mm" y2="81.6462205239618mm" stroke="red" stroke-width="1.5" />
  <line x1="120.0mm" y1="100.0850633225957mm" x2="120.0mm" y2="80.10319228510102mm" stroke="blue" stroke-width="1.5" />
  <line x1="130.0mm" y1="100.0850633225957mm" x2="135.0mm" y2="84.73227700168336mm" stroke="red" stroke-width="1.5" />
  <line x1="140.0mm" y1="100.0850633225957mm" x2="140.0mm" y2="82.5501012900498mm" stroke="blue" stroke-width="1.5" />
  <line x1="150.0mm" y1="100.0850633225957mm" x2="155.0mm" y2="89.0966284249505mm" stroke="red" stroke-width="1.5" />
  <line x1="160.0mm" y1="100.0850633225957mm" x2="160.0mm" y2="87.55359526378354mm" stroke="blue" stroke-width="1.5" />
  <line x1="170.0mm" y1="100.0850633225957mm" x2="175.0mm" y2="92.18269474728439mm" stroke="red" stroke-width="1.5" />
  <line x1="180.0mm" y1="100.0850633225957mm" x2="180.0mm" y2="92.18269474728439mm" stroke="black" stroke-width="2" />
  <line x1="0.0mm" y1="87.55359526378354mm" x2="15.0mm" y2="92.18269474728439mm" stroke="blue" stroke-width="1.5" />
  <line x1="15.0mm" y1="92.18269474728439mm" x2="20.0mm" y2="92.18269474728439mm" stroke="red" stroke-width="1.5" />
  <line x1="20.0mm" y1="92.18269474728439mm" x2="35.0mm" y2="92.18269474728439mm" stroke="blue" stroke-width="1.5" />
  <line x1="35.0mm" y1="92.18269474728439mm" x2="40.0mm" y2="93.72572790845132mm" stroke="red" stroke-width="1.5" />
  <line x1="40.0mm" y1="93.72572790845132mm" x2="55.0mm" y2="89.0966284249505mm" stroke="blue" stroke-width="1.5" />
  <line x1="55.0mm" y1="89.0966284249505mm" x2="60.0mm" y2="91.27880413658406mm" stroke="red" stroke-width="1.5" />
  <line x1="60.0mm" y1="91.27880413658406mm" x2="75.0mm" y2="84.73227700168336mm" stroke="blue" stroke-width="1.5" />
  <line x1="75.0mm" y1="84.73227700168336mm" x2="80.0mm" y2="86.27530524054413mm" stroke="red" stroke-width="1.5" />
  <line x1="80.0mm" y1="86.27530524054413mm" x2="95.0mm" y2="81.6462205239618mm" stroke="blue" stroke-width="1.5" />
  <line x1="95.0mm" y1="81.6462205239618mm" x2="100.0mm" y2="81.6462205239618mm" stroke="red" stroke-width="1.5" />
  <line x1="100.0mm" y1="81.6462205239618mm" x2="115.0mm" y2="81.6462205239618mm" stroke="blue" stroke-width="1.5" />
  <line x1="115.0mm" y1="81.6462205239618mm" x2="120.0mm" y2="80.10319228510102mm" stroke="red" stroke-width="1.5" />
  <line x1="120.0mm" y1="80.10319228510102mm" x2="135.0mm" y2="84.73227700168336mm" stroke="blue" stroke-width="1.5" />
  <line x1="135.0mm" y1="84.73227700168336mm" x2="140.0mm" y2="82.5501012900498mm" stroke="red" stroke-width="1.5" />
  <line x1="140.0mm" y1="82.5501012900498mm" x2="155.0mm" y2="89.0966284249505mm" stroke="blue" stroke-width="1.5" />
  <line x1="155.0mm" y1="89.0966284249505mm" x2="160.0mm" y2="87.55359526378354mm" stroke="red" stroke-width="1.5" />
  <line x1="160.0mm" y1="87.55359526378354mm" x2="175.0mm" y2="92.18269474728439mm" stroke="blue" stroke-width="1.5" />
  <line x1="175.0mm" y1="92.18269474728439mm" x2="180.0mm" y2="92.18269474728439mm" stroke="red" stroke-width="1.5" />
  <line x1="0.0mm" y1="87.55359526378354mm" x2="0.0mm" y2="80.10319228510102mm" stroke="black" stroke-width="2" />
  <line x1="15.0mm" y1="92.18269474728439mm" x2="15.0mm" y2="80.10319228510102mm" stroke="red" stroke-width="1.5" />
  <line x1="20.0mm" y1="92.18269474728439mm" x2="20.0mm" y2="80.10319228510102mm" stroke="blue" stroke-width="1.5" />
  <line x1="35.0mm" y1="92.18269474728439mm" x2="35.0mm" y2="80.10319228510102mm" stroke="red" stroke-width="1.5" />
  <line x1="40.0mm" y1="93.72572790845132mm" x2="40.0mm" y2="80.10319228510102mm" stroke="blue" stroke-width="1.5" />
  <line x1="55.0mm" y1="89.0966284249505mm" x2="55.0mm" y2="80.10319228510102mm" stroke="red" stroke-width="1.5" />
  <line x1="60.0mm" y1="91.27880413658406mm" x2="60.0mm" y2="80.10319228510102mm" stroke="blue" stroke-width="1.5" />
  <line x1="75.0mm" y1="84.73227700168336mm" x2="75.0mm" y2="80.10319228510102mm" stroke="red" stroke-width="1.5" />
  <line x1="80.0mm" y1="86.27530524054413mm" x2="80.0mm" y2="80.10319228510102mm" stroke="blue" stroke-width="1.5" />
  <line x1="95.0mm" y1="81.6462205239618mm" x2="95.0mm" y2="80.10319228510102mm" stroke="red" stroke-width="1.5" />
  <line x1="100.0mm" y1="81.6462205239618mm" x2="100.0mm" y2="80.10319228510102mm" stroke="blue" stroke-width="1.5" />
  <line x1="115.0mm" y1="81.6462205239618mm" x2="115.0mm" y2="80.10319228510102mm" stroke="red" stroke-width="1.5" />
  <line x1="120.0mm" y1="80.10319228510102mm" x2="120.0mm" y2="80.10319228510102mm" stroke="blue" stroke-width="1.5" />
  <line x1="135.0mm" y1="84.73227700168336mm" x2="135.0mm" y2="80.10319228510102mm" stroke="red" stroke-width="1.5" />
  <line x1="140.0mm" y1="82.5501012900498mm" x2="140.0mm" y2="80.10319228510102mm" stroke="blue" stroke-width="1.5" />
  <line x1="155.0mm" y1="89.0966284249505mm" x2="155.0mm" y2="80.10319228510102mm" stroke="red" stroke-width="1.5" />
  <line x1="160.0mm" y1="87.55359526378354mm" x2="160.0mm" y2="80.10319228510102mm" stroke="blue" stroke-width="1.5" />
  <line x1="175.0mm" y1="92.18269474728439mm" x2="175.0mm" y2="80.10319228510102mm" stroke="red" stroke-width="1.5" />
  <line x1="180.0mm" y1="92.18269474728439mm" x2="180.0mm" y2="80.10319228510102mm" stroke="black" stroke-width="2" />
  <line x1="0.0mm" y1="80.10319228510102mm" x2="15.0mm" y2="80.10319228510102mm" stroke="gray" stroke-width="0.3" />
  <line x1="15.0mm" y1="80.10319228510102mm" x2="20.0mm" y2="80.10319228510102mm" stroke="gray" stroke-width="0.3" />
  <line x1="20.0mm" y1="80.10319228510102mm" x2="35.0mm" y2="80.10319228510102mm" stroke="gray" stroke-width="0.3" />
  <line x1="35.0mm" y1="80.10319228510102mm" x2="40.0mm" y2="80.10319228510102mm" stroke="gray" stroke-width="0.3" />
  <line x1="40.0mm" y1="80.10319228510102mm" x2="55.0mm" y2="80.10319228510102mm" stroke="gray" stroke-width="0.3" />
  <line x1="55.0mm" y1="80.10319228510102mm" x2="60.0mm" y2="80.10319228510102mm" stroke="gray" stroke-width="0.3" />
  <line x1="60.0mm" y1="80.10319228510102mm" x2="75.0mm" y2="80.10319228510102mm" stroke="gray" stroke-width="0.3" />
  <line x1="75.0mm" y1="80.10319228510102mm" x2="80.0mm" y2="80.10319228510102mm" stroke="gray" stroke-width="0.3" />
  <line x1="80.0mm" y1="80.10319228510102mm" x2="95.0mm" y2="80.10319228510102mm" stroke="gray" stroke-width="0.3" />
  <line x1="95.0mm" y1="80.10319228510102mm" x2="100.0mm" y2="80.10319228510102mm" stroke="gray" stroke-width="0.3" />
  <line x1="100.0mm" y1="80.10319228510102mm" x2="115.0mm" y2="80.10319228510102mm" stroke="gray" stroke-width="0.3" />
  <line x1="115.0mm" y1="80.10319228510102mm" x2="120.0mm" y2="80.10319228510102mm" stroke="gray" stroke-width="0.3" />
  <line x1="120.0mm" y1="80.10319228510102mm" x2="135.0mm" y2="80.10319228510102mm" stroke="gray" stroke-width="0.3" />
  <line x1="135.0mm" y1="80.10319228510102mm" x2="140.0mm" y2="80.10319228510102mm" stroke="gray" stroke-width="0.3" />
  <line x1="140.0mm" y1="80.10319228510102mm" x2="155.0mm" y2="80.10319228510102mm" stroke="gray" stroke-width="0.3" />
  <line x1="155.0mm" y1="80.10319228510102mm" x2="160.0mm" y2="80.10319228510102mm" stroke="gray" stroke-width="0.3" />
  <line x1="160.0mm" y1="80.10319228510102mm" x2="175.0mm" y2="80.10319228510102mm" stroke="gray" stroke-width="0.3" />
  <line x1="175.0mm" y1="80.10319228510102mm" x2="180.0mm" y2="80.10319228510102mm" stroke="gray" stroke-width="0.3" />
  <line x1="0.0mm" y1="80.10319228510102mm" x2="0.0mm" y2="80.10319228510102mm" stroke="black" stroke-width="2" />
  <line x1="15.0mm" y1="80.10319228510102mm" x2="15.0mm" y2="75.47409199462678mm" stroke="red" stroke-width="1.5" />
  <line x1="20.0mm" y1="80.10319228510102mm" x2="20.0mm" y2="77.65627286719443mm" stroke="blue" stroke-width="1.5" />
  <line x1="35.0mm" y1="80.10319228510102mm" x2="35.0mm" y2="71.10973024949142mm" stroke="red" stroke-width="1.5" />
  <line x1="40.0mm" y1="80.10319228510102mm" x2="40.0mm" y2="72.65276550990606mm" stroke="blue" stroke-width="1.5" />
  <line x1="55.0mm" y1="80.10319228510102mm" x2="55.0mm" y2="68.02365972866217mm" stroke="red" stroke-width="1.5" />
  <line x1="60.0mm" y1="80.10319228510102mm" x2="60.0mm" y2="68.02365972866217mm" stroke="blue" stroke-width="1.5" />
  <line x1="75.0mm" y1="80.10319228510102mm" x2="75.0mm" y2="68.02365972866217mm" stroke="red" stroke-width="1.5" />
  <line x1="80.0mm" y1="80.10319228510102mm" x2="80.0mm" y2="66.48062446824754mm" stroke="blue" stroke-width="1.5" />
  <line x1="95.0mm" y1="80.10319228510102mm" x2="95.0mm" y2="71.10973024949142mm" stroke="red" stroke-width="1.5" />
  <line x1="100.0mm" y1="80.10319228510102mm" x2="100.0mm" y2="68.92754937694622mm" stroke="blue" stroke-width="1.5" />
  <line x1="115.0mm" y1="80.10319228510102mm" x2="115.0mm" y2="75.47409199458187mm" stroke="red" stroke-width="1.5" />
  <line x1="120.0mm" y1="80.10319228510102mm" x2="120.0mm" y2="73.93105856440133mm" stroke="blue" stroke-width="1.5" />
  <line x1="135.0mm" y1="80.10319228510102mm" x2="135.0mm" y2="78.56015885494293mm" stroke="red" stroke-width="1.5" />
  <line x1="140.0mm" y1="80.10319228510102mm" x2="140.0mm" y2="78.56015885494293mm" stroke="blue" stroke-width="1.5" />
  <line x1="155.0mm" y1="80.10319228510102mm" x2="155.0mm" y2="78.56015885494293mm" stroke="red" stroke-width="1.5" />
  <line x1="160.0mm" y1="80.10319228510102mm" x2="160.0mm" y2="80.10319228510102mm" stroke="blue" stroke-width="1.5" />
  <line x1="175.0mm" y1="80.10319228510102mm" x2="175.0mm" y2="75.47409199462678mm" stroke="red" stroke-width="1.5" />
  <line x1="180.0mm" y1="80.10319228510102mm" x2="180.0mm" y2="77.65627286719443mm" stroke="black" stroke-width="2" />
  <line x1="0.0mm" y1="80.10319228510102mm" x2="15.0mm" y2="75.47409199462678mm" stroke="blue" stroke-width="1.5" />
  <line x1="15.0mm" y1="75.47409199462678mm" x2="20.0mm" y2="77.65627286719443mm" stroke="red" stroke-width="1.5" />
  <line x1="20.0mm" y1="77.65627286719443mm" x2="35.0mm" y2="71.10973024949142mm" stroke="blue" stroke-width="1.5" />
  <line x1="35.0mm" y1="71.10973024949142mm" x2="40.0mm" y2="72.65276550990606mm" stroke="red" stroke-width="1.5" />
  <line x1="40.0mm" y1="72.65276550990606mm" x2="55.0mm" y2="68.02365972866217mm" stroke="blue" stroke-width="1.5" />
  <line x1="55.0mm" y1="68.02365972866217mm" x2="60.0mm" y2="68.02365972866217mm" stroke="red" stroke-width="1.5" />
  <line x1="60.0mm" y1="68.02365972866217mm" x2="75.0mm" y2="68.02365972866217mm" stroke="blue" stroke-width="1.5" />
  <line x1="75.0mm" y1="68.02365972866217mm" x2="80.0mm" y2="66.48062446824754mm" stroke="red" stroke-width="1.5" />
  <line x1="80.0mm" y1="66.48062446824754mm" x2="95.0mm" y2="71.10973024949142mm" stroke="blue" stroke-width="1.5" />
  <line x1="95.0mm" y1="71.10973024949142mm" x2="100.0mm" y2="68.92754937694622mm" stroke="red" stroke-width="1.5" />
  <line x1="100.0mm" y1="68.92754937694622mm" x2="115.0mm" y2="75.47409199458187mm" stroke="blue" stroke-width="1.5" />
  <line x1="115.0mm" y1="75.47409199458187mm" x2="120.0mm" y2="73.93105856440133mm" stroke="red" stroke-width="1.5" />
  <line x1="120.0mm" y1="73.93105856440133mm" x2="135.0mm" y2="78.56015885494293mm" stroke="blue" stroke-width="1.5" />
  <line x1="135.0mm" y1="78.56015885494293mm" x2="140.0mm" y2="78.56015885494293mm" stroke="red" stroke-width="1.5" />
  <line x1="140.0mm" y1="78.56015885494293mm" x2="155.0mm" y2="78.56015885494293mm" stroke="blue" stroke-width="1.5" />
  <line x1="155.0mm" y1="78.56015885494293mm" x2="160.0mm" y2="80.10319228510102mm" stroke="red" stroke-width="1.5" />
  <line x1="160.0mm" y1="80.10319228510102mm" x2="175.0mm" y2="75.47409199462678mm" stroke="blue" stroke-width="1.5" />
  <line x1="175.0mm" y1="75.47409199462678mm" x2="180.0mm" y2="77.65627286719443mm" stroke="red" stroke-width="1.5" />
  <line x1="0.0mm" y1="80.10319228510102mm" x2="0.0mm" y2="60.121296324864105mm" stroke="black" stroke-width="2" />
  <line x1="15.0mm" y1="75.47409199462678mm" x2="10.0mm" y2="60.121296324864105mm" stroke="red" stroke-width="1.5" />
  <line x1="20.0mm" y1="77.65627286719443mm" x2="20.0mm" y2="60.121296324864105mm" stroke="blue" stroke-width="1.5" />
  <line x1="35.0mm" y1="71.10973024949142mm" x2="30.0mm" y2="60.121296324864105mm" stroke="red" stroke-width="1.5" />
  <line x1="40.0mm" y1="72.65276550990606mm" x2="40.0mm" y2="60.121296324864105mm" stroke="blue" stroke-width="1.5" />
  <line x1="55.0mm" y1="68.02365972866217mm" x2="50.0mm" y2="60.121296324864105mm" stroke="red" stroke-width="1.5" />
  <line x1="60.0mm" y1="68.02365972866217mm" x2="60.0mm" y2="60.121296324864105mm" stroke="blue" stroke-width="1.5" />
  <line x1="75.0mm" y1="68.02365972866217mm" x2="70.0mm" y2="60.121296324864105mm" stroke="red" stroke-width="1.5" />
  <line x1="80.0mm" y1="66.48062446824754mm" x2="80.0mm" y2="60.121296324864105mm" stroke="blue" stroke-width="1.5" />
  <line x1="95.0mm" y1="71.10973024949142mm" x2="90.0mm" y2="60.121296324864105mm" stroke="red" stroke-width="1.5" />
  <line x1="100.0mm" y1="68.92754937694622mm" x2="100.0mm" y2="60.121296324864105mm" stroke="blue" stroke-width="1.5" />
  <line x1="115.0mm" y1="75.47409199458187mm" x2="110.0mm" y2="60.121296324864105mm" stroke="red" stroke-width="1.5" />
  <line x1="120.0mm" y1="73.93105856440133mm" x2="120.0mm" y2="60.121296324864105mm" stroke="blue" stroke-width="1.5" />
  <line x1="135.0mm" y1="78.56015885494293mm" x2="130.0mm" y2="60.121296324864105mm" stroke="red" stroke-width="1.5" />
  <line x1="140.0mm" y1="78.56015885494293mm" x2="140.0mm" y2="60.121296324864105mm" stroke="blue" stroke-width="1.5" />
  <line x1="155.0mm" y1="78.56015885494293mm" x2="150.0mm" y2="60.121296324864105mm" stroke="red" stroke-width="1.5" />
  <line x1="160.0mm" y1="80.10319228510102mm" x2="160.0mm" y2="60.121296324864105mm" stroke="blue" stroke-width="1.5" />
  <line x1="175.0mm" y1="75.47409199462678mm" x2="170.0mm" y2="60.121296324864105mm" stroke="red" stroke-width="1.5" />
  <line x1="180.0mm" y1="77.65627286719443mm" x2="180.0mm" y2="60.121296324864105mm" stroke="black" stroke-width="2" />
  <line x1="0.0mm" y1="60.121296324864105mm" x2="0.0mm" y2="29.41570740485568mm" stroke="black" stroke-width="2" />
  <line x1="10.0mm" y1="60.121296324864105mm" x2="1.1102230246251565e-15mm" y2="29.41570740485568mm" stroke="red" stroke-width="1.5" />
  <line x1="20.0mm" y1="60.121296324864105mm" x2="20.0mm" y2="38.14443221717171mm" stroke="blue" stroke-width="1.5" />
  <line x1="30.0mm" y1="60.121296324864105mm" x2="20.0mm" y2="38.14443221717171mm" stroke="red" stroke-width="1.5" />
  <line x1="40.0mm" y1="60.121296324864105mm" x2="40.0mm" y2="44.31657566418036mm" stroke="blue" stroke-width="1.5" />
  <line x1="50.0mm" y1="60.121296324864105mm" x2="40.0mm" y2="44.31657566418036mm" stroke="red" stroke-width="1.5" />
  <line x1="60.0mm" y1="60.121296324864105mm" x2="60.0mm" y2="44.31657566418036mm" stroke="blue" stroke-width="1.5" />
  <line x1="70.0mm" y1="60.121296324864105mm" x2="60.0mm" y2="44.31657566418036mm" stroke="red" stroke-width="1.5" />
  <line x1="80.0mm" y1="60.121296324864105mm" x2="80.0mm" y2="38.14443221717171mm" stroke="blue" stroke-width="1.5" />
  <line x1="90.0mm" y1="60.121296324864105mm" x2="80.0mm" y2="38.14443221717171mm" stroke="red" stroke-width="1.5" />
  <line x1="100.0mm" y1="60.121296324864105mm" x2="100.0mm" y2="29.41570740485568mm" stroke="blue" stroke-width="1.5" />
  <line x1="110.0mm" y1="60.121296324864105mm" x2="100.0mm" y2="29.41570740485568mm" stroke="red" stroke-width="1.5" />
  <line x1="120.0mm" y1="60.121296324864105mm" x2="120.0mm" y2="23.2435786001177mm" stroke="blue" stroke-width="1.5" />
  <line x1="130.0mm" y1="60.121296324864105mm" x2="120.0mm" y2="23.2435786001177mm" stroke="red" stroke-width="1.5" />
  <line x1="140.0mm" y1="60.121296324864105mm" x2="140.0mm" y2="23.2435786001177mm" stroke="blue" stroke-width="1.5" />
  <line x1="150.0mm" y1="60.121296324864105mm" x2="140.0mm" y2="23.2435786001177mm" stroke="red" stroke-width="1.5" />
  <line x1="160.0mm" y1="60.121296324864105mm" x2="160.0mm" y2="29.41570740485568mm" stroke="blue" stroke-width="1.5" />
  <line x1="170.0mm" y1="60.121296324864105mm" x2="160.0mm" y2="29.41570740485568mm" stroke="red" stroke-width="1.5" />
  <line x1="180.0mm" y1="60.121296324864105mm" x2="180.0mm" y2="38.14443221717171mm" stroke="black" stroke-width="2" />
  <line x1="0.0mm" y1="29.41570740485568mm" x2="1.1102230246251565e-15mm" y2="29.41570740485568mm" stroke="red" stroke-width="1.5" />
  <line x1="1.1102230246251565e-15mm" y1="29.41570740485568mm" x2="20.0mm" y2="38.14443221717171mm" stroke="blue" stroke-width="1.5" />
  <line x1="20.0mm" y1="38.14443221717171mm" x2="20.0mm" y2="38.14443221717171mm" stroke="red" stroke-width="1.5" />
  <line x1="20.0mm" y1="38.14443221717171mm" x2="40.0mm" y2="44.31657566418036mm" stroke="blue" stroke-width="1.5" />
  <line x1="40.0mm" y1="44.31657566418036mm" x2="40.0mm" y2="44.31657566418036mm" stroke="red" stroke-width="1.5" />
  <line x1="40.0mm" y1="44.31657566418036mm" x2="60.0mm" y2="44.31657566418036mm" stroke="blue" stroke-width="1.5" />
  <line x1="60.0mm" y1="44.31657566418036mm" x2="60.0mm" y2="44.31657566418036mm" stroke="red" stroke-width="1.5" />
  <line x1="60.0mm" y1="44.31657566418036mm" x2="80.0mm" y2="38.14443221717171mm" stroke="blue" stroke-width="1.5" />
  <line x1="80.0mm" y1="38.14443221717171mm" x2="80.0mm" y2="38.14443221717171mm" stroke="red" stroke-width="1.5" />
  <line x1="80.0mm" y1="38.14443221717171mm" x2="100.0mm" y2="29.41570740485568mm" stroke="blue" stroke-width="1.5" />
  <line x1="100.0mm" y1="29.41570740485568mm" x2="100.0mm" y2="29.41570740485568mm" stroke="red" stroke-width="1.5" />
  <line x1="100.0mm" y1="29.41570740485568mm" x2="120.0mm" y2="23.2435786001177mm" stroke="blue" stroke-width="1.5" />
  <line x1="120.0mm" y1="23.2435786001177mm" x2="120.0mm" y2="23.2435786001177mm" stroke="red" stroke-width="1.5" />
  <line x1="120.0mm" y1="23.2435786001177mm" x2="140.0mm" y2="23.2435786001177mm" stroke="blue" stroke-width="1.5" />
  <line x1="140.0mm" y1="23.2435786001177mm" x2="140.0mm" y2="23.2435786001177mm" stroke="red" stroke-width="1.5" />
  <line x1="140.0mm" y1="23.2435786001177mm" x2="160.0mm" y2="29.41570740485568mm" stroke="blue" stroke-width="1.5" />
  <line x1="160.0mm" y1="29.41570740485568mm" x2="160.0mm" y2="29.41570740485568mm" stroke="red" stroke-width="1.5" />
  <line x1="160.0mm" y1="29.41570740485568mm" x2="180.0mm" y2="38.14443221717171mm" stroke="blue" stroke-width="1.5" />
  <line x1="0.0mm" y1="29.41570740485568mm" x2="0.0mm" y2="23.2435786001177mm" stroke="black" stroke-width="2" />
  <line x1="1.1102230246251565e-15mm" y1="29.41570740485568mm" x2="1.1102230246251565e-15mm" y2="23.2435786001177mm" stroke="red" stroke-width="1.5" />
  <line x1="20.0mm" y1="38.14443221717171mm" x2="20.0mm" y2="23.2435786001177mm" stroke="blue" stroke-width="1.5" />
  <line x1="20.0mm" y1="38.14443221717171mm" x2="20.0mm" y2="23.2435786001177mm" stroke="red" stroke-width="1.5" />
  <line x1="40.0mm" y1="44.31657566418036mm" x2="40.0mm" y2="23.2435786001177mm" stroke="blue" stroke-width="1.5" />
  <line x1="40.0mm" y1="44.31657566418036mm" x2="40.0mm" y2="23.2435786001177mm" stroke="red" stroke-width="1.5" />
  <line x1="60.0mm" y1="44.31657566418036mm" x2="60.0mm" y2="23.2435786001177mm" stroke="blue" stroke-width="1.5" />
  <line x1="60.0mm" y1="44.31657566418036mm" x2="60.0mm" y2="23.2435786001177mm" stroke="red" stroke-width="1.5" />
  <line x1="80.0mm" y1="38.14443221717171mm" x2="80.0mm" y2="23.2435786001177mm" stroke="blue" stroke-width="1.5" />
  <line x1="80.0mm" y1="38.14443221717171mm" x2="80.0mm" y2="23.2435786001177mm" stroke="red" stroke-width="1.5" />
  <line x1="100.0mm" y1="29.41570740485568mm" x2="100.0mm" y2="23.2435786001177mm" stroke="blue" stroke-width="1.5" />
  <line x1="100.0mm" y1="29.41570740485568mm" x2="100.0mm" y2="23.2435786001177mm" stroke="red" stroke-width="1.5" />
  <line x1="120.0mm" y1="23.2435786001177mm" x2="120.0mm" y2="23.2435786001177mm" stroke="blue" stroke-width="1.5" />
  <line x1="120.0mm" y1="23.2435786001177mm" x2="120.0mm" y2="23.2435786001177mm" stroke="red" stroke-width="1.5" />
  <line x1="140.0mm" y1="23.2435786001177mm" x2="140.0mm" y2="23.2435786001177mm" stroke="blue" stroke-width="1.5" />
  <line x1="140.0mm" y1="23.2435786001177mm" x2="140.0mm" y2="23.2435786001177mm" stroke="red" stroke-width="1.5" />
  <line x1="160.0mm" y1="29.41570740485568mm" x2="160.0mm" y2="23.2435786001177mm" stroke="blue" stroke-width="1.5" />
  <line x1="160.0mm" y1="29.41570740485568mm" x2="160.0mm" y2="23.2435786001177mm" stroke="red" stroke-width="1.5" />
  <line x1="180.0mm" y1="38.14443221717171mm" x2="180.0mm" y2="23.2435786001177mm" stroke="black" stroke-width="2" />
  <line x1="0.0mm" y1="23.2435786001177mm" x2="1.1102230246251565e-15mm" y2="23.2435786001177mm" stroke="black" stroke-width="2" />
  <line x1="1.1102230246251565e-15mm" y1="23.2435786001177mm" x2="20.0mm" y2="23.2435786001177mm" stroke="black" stroke-width="2" />
  <line x1="20.0mm" y1="23.2435786001177mm" x2="20.0mm" y2="23.2435786001177mm" stroke="black" stroke-width="2" />
  <line x1="20.0mm" y1="23.2435786001177mm" x2="40.0mm" y2="23.2435786001177mm" stroke="black" stroke-width="2" />
  <line x1="40.0mm" y1="23.2435786001177mm" x2="40.0mm" y2="23.2435786001177mm" stroke="black" stroke-width="2" />
  <line x1="40.0mm" y1="23.2435786001177mm" x2="60.0mm" y2="23.2435786001177mm" stroke="black" stroke-width="2" />
  <line x1="60.0mm" y1="23.2435786001177mm" x2="60.0mm" y2="23.2435786001177mm" stroke="black" stroke-width="2" />
  <line x1="60.0mm" y1="23.2435786001177mm" x2="80.0mm" y2="23.2435786001177mm" stroke="black" stroke-width="2" />
  <line x1="80.0mm" y1="23.2435786001177mm" x2="80.0mm" y2="23.2435786001177mm" stroke="black" stroke-width="2" />
  <line x1="80.0mm" y1="23.2435786001177mm" x2="100.0mm" y2="23.2435786001177mm" stroke="black" stroke-width="2" />
  <line x1="100.0mm" y1="23.2435786001177mm" x2="100.0mm" y2="23.2435786001177mm" stroke="black" stroke-width="2" />
  <line x1="100.0mm" y1="23.2435786001177mm" x2="120.0mm" y2="23.2435786001177mm" stroke="black" stroke-width="2" />
  <line x1="120.0mm" y1="23.2435786001177mm" x2="120.0mm" y2="23.2435786001177mm" stroke="black" stroke-width="2" />
  <line x1="120.0mm" y1="23.2435786001177mm" x2="140.0mm" y2="23.2435786001177mm" stroke="black" stroke-width="2" />
  <line x1="140.0mm" y1="23.2435786001177mm" x2="140.0mm" y2="23.2435786001177mm" stroke="black" stroke-width="2" />
  <line x1="140.0mm" y1="23.2435786001177mm" x2="160.0mm" y2="23.2435786001177mm" stroke="black" stroke-width="2" />
  <line x1="160.0mm" y1="23.2435786001177mm" x2="160.0mm" y2="23.2435786001177mm" stroke="black" stroke-width="2" />
  <line x1="160.0mm" y1="23.2435786001177mm" x2="180.0mm" y2="23.2435786001177mm" stroke="black" stroke-width="2" />
  <line x1="0.0mm" y1="23.2435786001177mm" x2="0.0mm" y2="10.242640687119291mm" stroke="black" stroke-width="2" />
  <line x1="1.1102230246251565e-15mm" y1="23.2435786001177mm" x2="2.000000000000001mm" y2="10.242640687119291mm" stroke="red" stroke-width="1.5" />
  <line x1="20.0mm" y1="23.2435786001177mm" x2="20.0mm" y2="10.242640687119291mm" stroke="blue" stroke-width="1.5" />
  <line x1="20.0mm" y1="23.2435786001177mm" x2="22.0mm" y2="10.242640687119291mm" stroke="red" stroke-width="1.5" />
  <line x1="40.0mm" y1="23.2435786001177mm" x2="40.0mm" y2="10.242640687119291mm" stroke="blue" stroke-width="1.5" />
  <line x1="40.0mm" y1="23.2435786001177mm" x2="42.0mm" y2="10.242640687119291mm" stroke="red" stroke-width="1.5" />
  <line x1="60.0mm" y1="23.2435786001177mm" x2="60.0mm" y2="10.242640687119291mm" stroke="blue" stroke-width="1.5" />
  <line x1="60.0mm" y1="23.2435786001177mm" x2="62.0mm" y2="10.242640687119291mm" stroke="red" stroke-width="1.5" />
  <line x1="80.0mm" y1="23.2435786001177mm" x2="80.0mm" y2="10.242640687119291mm" stroke="blue" stroke-width="1.5" />
  <line x1="80.0mm" y1="23.2435786001177mm" x2="82.0mm" y2="10.242640687119291mm" stroke="red" stroke-width="1.5" />
  <line x1="100.0mm" y1="23.2435786001177mm" x2="100.0mm" y2="10.242640687119291mm" stroke="blue" stroke-width="1.5" />
  <line x1="100.0mm" y1="23.2435786001177mm" x2="102.0mm" y2="10.242640687119291mm" stroke="red" stroke-width="1.5" />
  <line x1="120.0mm" y1="23.2435786001177mm" x2="120.0mm" y2="10.242640687119291mm" stroke="blue" stroke-width="1.5" />
  <line x1="120.0mm" y1="23.2435786001177mm" x2="122.0mm" y2="10.242640687119291mm" stroke="red" stroke-width="1.5" />
  <line x1="140.0mm" y1="23.2435786001177mm" x2="140.0mm" y2="10.242640687119291mm" stroke="blue" stroke-width="1.5" />
  <line x1="140.0mm" y1="23.2435786001177mm" x2="142.0mm" y2="10.242640687119291mm" stroke="red" stroke-width="1.5" />
  <line x1="160.0mm" y1="23.2435786001177mm" x2="160.0mm" y2="10.242640687119291mm" stroke="blue" stroke-width="1.5" />
  <line x1="160.0mm" y1="23.2435786001177mm" x2="162.0mm" y2="10.242640687119291mm" stroke="red" stroke-width="1.5" />
  <line x1="180.0mm" y1="23.2435786001177mm" x2="180.0mm" y2="10.242640687119291mm" stroke="black" stroke-width="2" />
  <line x1="0.0mm" y1="10.242640687119291mm" x2="2.000000000000001mm" y2="10.242640687119291mm" stroke="black" stroke-width="2" />
  <line x1="2.000000000000001mm" y1="10.242640687119291mm" x2="20.0mm" y2="10.242640687119291mm" stroke="black" stroke-width="2" />
  <line x1="20.0mm" y1="10.242640687119291mm" x2="22.0mm" y2="10.242640687119291mm" stroke="black" stroke-width="2" />
  <line x1="22.0mm" y1="10.242640687119291mm" x2="40.0mm" y2="10.242640687119291mm" stroke="black" stroke-width="2" />
  <line x1="40.0mm" y1="10.242640687119291mm" x2="42.0mm" y2="10.242640687119291mm" stroke="black" stroke-width="2" />
  <line x1="42.0mm" y1="10.242640687119291mm" x2="60.0mm" y2="10.242640687119291mm" stroke="black" stroke-width="2" />
  <line x1="60.0mm" y1="10.242640687119291mm" x2="62.0mm" y2="10.242640687119291mm" stroke="black" stroke-width="2" />
  <line x1="62.0mm" y1="10.242640687119291mm" x2="80.0mm" y2="10.242640687119291mm" stroke="black" stroke-width="2" />
  <line x1="80.0mm" y1="10.242640687119291mm" x2="82.0mm" y2="10.242640687119291mm" stroke="black" stroke-width="2" />
  <line x1="82.0mm" y1="10.242640687119291mm" x2="100.0mm" y2="10.242640687119291mm" stroke="black" stroke-width="2" />
  <line x1="100.0mm" y1="10.242640687119291mm" x2="102.0mm" y2="10.242640687119291mm" stroke="black" stroke-width="2" />
  <line x1="102.0mm" y1="10.242640687119291mm" x2="120.0mm" y2="10.242640687119291mm" stroke="black" stroke-width="2" />
  <line x1="120.0mm" y1="10.242640687119291mm" x2="122.0mm" y2="10.242640687119291mm" stroke="black" stroke-width="2" />
  <line x1="122.0mm" y1="10.242640687119291mm" x2="140.0mm" y2="10.242640687119291mm" stroke="black" stroke-width="2" />
  <line x1="140.0mm" y1="10.242640687119291mm" x2="142.0mm" y2="10.242640687119291mm" stroke="black" stroke-width="2" />
  <line x1="142.0mm" y1="10.242640687119291mm" x2="160.0mm" y2="10.242640687119291mm" stroke="black" stroke-width="2" />
  <line x1="160.0mm" y1="10.242640687119291mm" x2="162.0mm" y2="10.242640687119291mm" stroke="black" stroke-width="2" />
  <line x1="162.0mm" y1="10.242640687119291mm" x2="180.0mm" y2="10.242640687119291mm" stroke="black" stroke-width="2" />
  <line x1="0.0mm" y1="10.242640687119291mm" x2="0.0mm" y2="0.0mm" stroke="black" stroke-width="2" />
  <line x1="2.000000000000001mm" y1="10.242640687119291mm" x2="5.0mm" y2="0.0mm" stroke="red" stroke-width="1.5" />
  <line x1="20.0mm" y1="10.242640687119291mm" x2="20.0mm" y2="0.0mm" stroke="blue" stroke-width="1.5" />
  <line x1="22.0mm" y1="10.242640687119291mm" x2="25.0mm" y2="0.0mm" stroke="red" stroke-width="1.5" />
  <line x1="40.0mm" y1="10.242640687119291mm" x2="40.0mm" y2="0.0mm" stroke="blue" stroke-width="1.5" />
  <line x1="42.0mm" y1="10.242640687119291mm" x2="45.0mm" y2="0.0mm" stroke="red" stroke-width="1.5" />
  <line x1="60.0mm" y1="10.242640687119291mm" x2="60.0mm" y2="0.0mm" stroke="blue" stroke-width="1.5" />
  <line x1="62.0mm" y1="10.242640687119291mm" x2="65.0mm" y2="0.0mm" stroke="red" stroke-width="1.5" />
  <line x1="80.0mm" y1="10.242640687119291mm" x2="80.0mm" y2="0.0mm" stroke="blue" stroke-width="1.5" />
  <line x1="82.0mm" y1="10.242640687119291mm" x2="85.0mm" y2="0.0mm" stroke="red" stroke-width="1.5" />
  <line x1="100.0mm" y1="10.242640687119291mm" x2="100.0mm" y2="0.0mm" stroke="blue" stroke-width="1.5" />
  <line x1="102.0mm" y1="10.242640687119291mm" x2="105.0mm" y2="0.0mm" stroke="red" stroke-width="1.5" />
  <line x1="120.0mm" y1="10.242640687119291mm" x2="120.0mm" y2="0.0mm" stroke="blue" stroke-width="1.5" />
  <line x1="122.0mm" y1="10.242640687119291mm" x2="125.0mm" y2="0.0mm" stroke="red" stroke-width="1.5" />
  <line x1="140.0mm" y1="10.242640687119291mm" x2="140.0mm" y2="0.0mm" stroke="blue" stroke-width="1.5" />
  <line x1="142.0mm" y1="10.242640687119291mm" x2="145.0mm" y2="0.0mm" stroke="red" stroke-width="1.5" />
  <line x1="160.0mm" y1="10.242640687119291mm" x2="160.0mm" y2="0.0mm" stroke="blue" stroke-width="1.5" />
  <line x1="162.0mm" y1="10.242640687119291mm" x2="165.0mm" y2="0.0mm" stroke="red" stroke-width="1.5" />
  <line x1="180.0mm" y1="10.242640687119291mm" x2="180.0mm" y2="0.0mm" stroke="black" stroke-width="2" />
  <line x1="0.0mm" y1="0.0mm" x2="5.0mm" y2="0.0mm" stroke="black" stroke-width="2" />
  <line x1="5.0mm" y1="0.0mm" x2="20.0mm" y2="0.0mm" stroke="black" stroke-width="2" />
  <line x1="20.0mm" y1="0.0mm" x2="25.0mm" y2="0.0mm" stroke="black" stroke-width="2" />
  <line x1="25.0mm" y1="0.0mm" x2="40.0mm" y2="0.0mm" stroke="black" stroke-width="2" />
  <line x1="40.0mm" y1="0.0mm" x2="45.0mm" y2="0.0mm" stroke="black" stroke-width="2" />
  <line x1="45.0mm" y1="0.0mm" x2="60.0mm" y2="0.0mm" stroke="black" stroke-width="2" />
  <line x1="60.0mm" y1="0.0mm" x2="65.0mm" y2="0.0mm" stroke="black" stroke-width="2" />
  <line x1="65.0mm" y1="0.0mm" x2="80.0mm" y2="0.0mm" stroke="black" stroke-width="2" />
  <line x1="80.0mm" y1="0.0mm" x2="85.0mm" y2="0.0mm" stroke="black" stroke-width="2" />
  <line x1="85.0mm" y1="0.0mm" x2="100.0mm" y2="0.0mm" stroke="black" stroke-width="2" />
  <line x1="100.0mm" y1="0.0mm" x2="105.0mm" y2="0.0mm" stroke="black" stroke-width="2" />
  <line x1="105.0mm" y1="0.0mm" x2="120.0mm" y2="0.0mm" stroke="black" stroke-width="2" />
  <line x1="120.0mm" y1="0.0mm" x2="125.0mm" y2="0.0mm" stroke="black" stroke-width="2" />
  <line x1="125.0mm" y1="0.0mm" x2="140.0mm" y2="0.0mm" stroke="black" stroke-width="2" />
  <line x1="140.0mm" y1="0.0mm" x2="145.0mm" y2="0.0mm" stroke="black" stroke-width="2" />
  <line x1="145.0mm" y1="0.0mm" x2="160.0mm" y2="0.0mm" stroke="black" stroke-width="2" />
  <line x1="160.0mm" y1="0.0mm" x2="165.0mm" y2="0.0mm" stroke="black" stroke-width="2" />
  <line x1="165.0mm" y1="0.0mm" x2="180.0mm" y2="0.0mm" stroke="black" stroke-width="2" />
</g>
</svg>