<?xml version="1.0" encoding="UTF-8" standalone="no"?>
<svg 
  xmlns="http://www.w3.org/2000/svg"
  id="svg8"
  version="1.1" 
  height="50.000000000000014px" 
  width="400.0px">
<g>
  <line x1="0.0" y1="50.000000000000014" x2="75.0" y2="50.000000000000014" stroke="black" stroke-width="3" />
  <line x1="75.0" y1="50.000000000000014" x2="100.0" y2="50.000000000000014" stroke="black" stroke-width="3" />
  <line x1="100.0" y1="50.000000000000014" x2="175.0" y2="50.000000000000014" stroke="black" stroke-width="3" />
  <line x1="175.0" y1="50.000000000000014" x2="200.0" y2="50.000000000000014" stroke="black" stroke-width="3" />
  <line x1="200.0" y1="50.000000000000014" x2="275.0" y2="50.000000000000014" stroke="black" stroke-width="3" />
  <line x1="275.0" y1="50.000000000000014" x2="300.0" y2="50.000000000000014" stroke="black" stroke-width="3" />
  <line x1="300.0" y1="50.000000000000014" x2="375.0" y2="50.000000000000014" stroke="black" stroke-width="3" />
  <line x1="375.0" y1="50.000000000000014" x2="400.0" y2="50.000000000000014" stroke="black" stroke-width="3" />
  <line x1="0.0" y1="50.000000000000014" x2="0.0" y2="0.0" stroke="black" stroke-width="3" />
  <line x1="75.0" y1="50.000000000000014" x2="75.0" y2="0.0" stroke="red" stroke-width="2" />
  <line x1="100.0" y1="50.000000000000014" x2="100.0" y2="0.0" stroke="blue" stroke-width="2" />
  <line x1="175.0" y1="50.000000000000014" x2="175.0" y2="0.0" stroke="red" stroke-width="2" />
  <line x1="200.0" y1="50.000000000000014" x2="200.0" y2="0.0" stroke="blue" stroke-width="2" />
  <line x1="275.0" y1="50.000000000000014" x2="275.0" y2="0.0" stroke="red" stroke-width="2" />
  <line x1="300.0" y1="50.000000000000014" x2="300.0" y2="0.0" stroke="blue" stroke-width="2" />
  <line x1="375.0" y1="50.000000000000014" x2="375.0" y2="0.0" stroke="red" stroke-width="2" />
  <line x1="400.0" y1="50.000000000000014" x2="400.0" y2="0.0" stroke="black" stroke-width="3" />
  <line x1="0.0" y1="0.0" x2="75.0" y2="0.0" stroke="black" stroke-width="3" />
  <line x1="75.0" y1="0.0" x2="100.0" y2="0.0" stroke="black" stroke-width="3" />
  <line x1="100.0" y1="0.0" x2="175.0" y2="0.0" stroke="black" stroke-width="3" />
  <line x1="175.0" y1="0.0" x2="200.0" y2="0.0" stroke="black" stroke-width="3" />
  <line x1="200.0" y1="0.0" x2="275.0" y2="0.0" stroke="black" stroke-width="3" />
  <line x1="275.0" y1="0.0" x2="300.0" y2="0.0" stroke="black" stroke-width="3" />
  <line x1="300.0" y1="0.0" x2="375.0" y2="0.0" stroke="black" stroke-width="3" />
  <line x1="375.0" y1="0.0" x2="400.0" y2="0.0" stroke="black" stroke-width="3" />
</g>
</svg>