<?xml version="1.0" encoding="UTF-8" standalone="no"?>
<svg 
  xmlns="http://www.w3.org/2000/svg"
  id="svg8"
  version="1.1" 
  height="1938.4485638258425mm" 
  width="1600.0mm">
<g>
  <line x1="0.0" y1="1938.4485638258425" x2="50.0" y2="1938.4485638258425" stroke="black" stroke-width="3" />
  <line x1="50.0" y1="1938.4485638258425" x2="200.0" y2="1938.4485638258425" stroke="black" stroke-width="3" />
  <line x1="200.0" y1="1938.4485638258425" x2="250.0" y2="1938.4485638258425" stroke="black" stroke-width="3" />
  <line x1="250.0" y1="1938.4485638258425" x2="400.0" y2="1938.4485638258425" stroke="black" stroke-width="3" />
  <line x1="400.0" y1="1938.4485638258425" x2="450.0" y2="1938.4485638258425" stroke="black" stroke-width="3" />
  <line x1="450.0" y1="1938.4485638258425" x2="600.0" y2="1938.4485638258425" stroke="black" stroke-width="3" />
  <line x1="600.0" y1="1938.4485638258425" x2="650.0" y2="1938.4485638258425" stroke="black" stroke-width="3" />
  <line x1="650.0" y1="1938.4485638258425" x2="800.0" y2="1938.4485638258425" stroke="black" stroke-width="3" />
  <line x1="800.0" y1="1938.4485638258425" x2="850.0" y2="1938.4485638258425" stroke="black" stroke-width="3" />
  <line x1="850.0" y1="1938.4485638258425" x2="1000.0" y2="1938.4485638258425" stroke="black" stroke-width="3" />
  <line x1="1000.0" y1="1938.4485638258425" x2="1050.0" y2="1938.4485638258425" stroke="black" stroke-width="3" />
  <line x1="1050.0" y1="1938.4485638258425" x2="1200.0" y2="1938.4485638258425" stroke="black" stroke-width="3" />
  <line x1="1200.0" y1="1938.4485638258425" x2="1250.0" y2="1938.4485638258425" stroke="black" stroke-width="3" />
  <line x1="1250.0" y1="1938.4485638258425" x2="1400.0" y2="1938.4485638258425" stroke="black" stroke-width="3" />
  <line x1="1400.0" y1="1938.4485638258425" x2="1450.0" y2="1938.4485638258425" stroke="black" stroke-width="3" />
  <line x1="1450.0" y1="1938.4485638258425" x2="1600.0" y2="1938.4485638258425" stroke="black" stroke-width="3" />
  <line x1="0.0" y1="1938.4485638258425" x2="0.0" y2="1836.0221569546497" stroke="black" stroke-width="3" />
  <line x1="50.0" y1="1938.4485638258425" x2="20.000000000000007" y2="1836.0221569546497" stroke="red" stroke-width="2" />
  <line x1="200.0" y1="1938.4485638258425" x2="200.0" y2="1836.0221569546497" stroke="blue" stroke-width="2" />
  <line x1="250.0" y1="1938.4485638258425" x2="220.00000000000003" y2="1836.0221569546497" stroke="red" stroke-width="2" />
  <line x1="400.0" y1="1938.4485638258425" x2="400.0" y2="1836.0221569546497" stroke="blue" stroke-width="2" />
  <line x1="450.0" y1="1938.4485638258425" x2="420.0" y2="1836.0221569546497" stroke="red" stroke-width="2" />
  <line x1="600.0" y1="1938.4485638258425" x2="600.0" y2="1836.0221569546497" stroke="blue" stroke-width="2" />
  <line x1="650.0" y1="1938.4485638258425" x2="620.0" y2="1836.0221569546497" stroke="red" stroke-width="2" />
  <line x1="800.0" y1="1938.4485638258425" x2="800.0" y2="1836.0221569546497" stroke="blue" stroke-width="2" />
  <line x1="850.0" y1="1938.4485638258425" x2="819.9999999999999" y2="1836.0221569546497" stroke="red" stroke-width="2" />
  <line x1="1000.0" y1="1938.4485638258425" x2="1000.0" y2="1836.0221569546497" stroke="blue" stroke-width="2" />
  <line x1="1050.0" y1="1938.4485638258425" x2="1019.9999999999999" y2="1836.0221569546497" stroke="red" stroke-width="2" />
  <line x1="1200.0" y1="1938.4485638258425" x2="1200.0" y2="1836.0221569546497" stroke="blue" stroke-width="2" />
  <line x1="1250.0" y1="1938.4485638258425" x2="1220.0" y2="1836.0221569546497" stroke="red" stroke-width="2" />
  <line x1="1400.0" y1="1938.4485638258425" x2="1400.0" y2="1836.0221569546497" stroke="blue" stroke-width="2" />
  <line x1="1450.0" y1="1938.4485638258425" x2="1420.0" y2="1836.0221569546497" stroke="red" stroke-width="2" />
  <line x1="1600.0" y1="1938.4485638258425" x2="1600.0" y2="1836.0221569546497" stroke="black" stroke-width="3" />
  <line x1="0.0" y1="1836.0221569546497" x2="20.000000000000007" y2="1836.0221569546497" stroke="red" stroke-width="2" />
  <line x1="20.000000000000007" y1="1836.0221569546497" x2="200.0" y2="1836.0221569546497" stroke="blue" stroke-width="2" />
  <line x1="200.0" y1="1836.0221569546497" x2="220.00000000000003" y2="1836.0221569546497" stroke="red" stroke-width="2" />
  <line x1="220.00000000000003" y1="1836.0221569546497" x2="400.0" y2="1836.0221569546497" stroke="blue" stroke-width="2" />
  <line x1="400.0" y1="1836.0221569546497" x2="420.0" y2="1836.0221569546497" stroke="red" stroke-width="2" />
  <line x1="420.0" y1="1836.0221569546497" x2="600.0" y2="1836.0221569546497" stroke="blue" stroke-width="2" />
  <line x1="600.0" y1="1836.0221569546497" x2="620.0" y2="1836.0221569546497" stroke="red" stroke-width="2" />
  <line x1="620.0" y1="1836.0221569546497" x2="800.0" y2="1836.0221569546497" stroke="blue" stroke-width="2" />
  <line x1="800.0" y1="1836.0221569546497" x2="819.9999999999999" y2="1836.0221569546497" stroke="red" stroke-width="2" />
  <line x1="819.9999999999999" y1="1836.0221569546497" x2="1000.0" y2="1836.0221569546497" stroke="blue" stroke-width="2" />
  <line x1="1000.0" y1="1836.0221569546497" x2="1019.9999999999999" y2="1836.0221569546497" stroke="red" stroke-width="2" />
  <line x1="1019.9999999999999" y1="1836.0221569546497" x2="1200.0" y2="1836.0221569546497" stroke="blue" stroke-width="2" />
  <line x1="1200.0" y1="1836.0221569546497" x2="1220.0" y2="1836.0221569546497" stroke="red" stroke-width="2" />
  <line x1="1220.0" y1="1836.0221569546497" x2="1400.0" y2="1836.0221569546497" stroke="blue" stroke-width="2" />
  <line x1="1400.0" y1="1836.0221569546497" x2="1420.0" y2="1836.0221569546497" stroke="red" stroke-width="2" />
  <line x1="1420.0" y1="1836.0221569546497" x2="1600.0" y2="1836.0221569546497" stroke="blue" stroke-width="2" />
  <line x1="0.0" y1="1836.0221569546497" x2="0.0" y2="1706.1022460959357" stroke="black" stroke-width="3" />
  <line x1="20.000000000000007" y1="1836.0221569546497" x2="0.10000000000001119" y2="1706.1022460959357" stroke="red" stroke-width="2" />
  <line x1="200.0" y1="1836.0221569546497" x2="200.0" y2="1706.1022460959357" stroke="blue" stroke-width="2" />
  <line x1="220.00000000000003" y1="1836.0221569546497" x2="200.10000000000002" y2="1706.1022460959357" stroke="red" stroke-width="2" />
  <line x1="400.0" y1="1836.0221569546497" x2="400.0" y2="1706.1022460959357" stroke="blue" stroke-width="2" />
  <line x1="420.0" y1="1836.0221569546497" x2="400.1" y2="1706.1022460959357" stroke="red" stroke-width="2" />
  <line x1="600.0" y1="1836.0221569546497" x2="600.0" y2="1706.1022460959357" stroke="blue" stroke-width="2" />
  <line x1="620.0" y1="1836.0221569546497" x2="600.1" y2="1706.1022460959357" stroke="red" stroke-width="2" />
  <line x1="800.0" y1="1836.0221569546497" x2="800.0" y2="1706.1022460959357" stroke="blue" stroke-width="2" />
  <line x1="819.9999999999999" y1="1836.0221569546497" x2="800.1000000000001" y2="1706.1022460959357" stroke="red" stroke-width="2" />
  <line x1="1000.0" y1="1836.0221569546497" x2="1000.0" y2="1706.1022460959357" stroke="blue" stroke-width="2" />
  <line x1="1019.9999999999999" y1="1836.0221569546497" x2="1000.1000000000001" y2="1706.1022460959357" stroke="red" stroke-width="2" />
  <line x1="1200.0" y1="1836.0221569546497" x2="1200.0" y2="1706.1022460959357" stroke="blue" stroke-width="2" />
  <line x1="1220.0" y1="1836.0221569546497" x2="1200.1000000000001" y2="1706.1022460959357" stroke="red" stroke-width="2" />
  <line x1="1400.0" y1="1836.0221569546497" x2="1400.0" y2="1706.1022460959357" stroke="blue" stroke-width="2" />
  <line x1="1420.0" y1="1836.0221569546497" x2="1400.1000000000001" y2="1706.1022460959357" stroke="red" stroke-width="2" />
  <line x1="1600.0" y1="1836.0221569546497" x2="1600.0" y2="1706.1022460959357" stroke="black" stroke-width="3" />
  <line x1="0.0" y1="1706.1022460959357" x2="0.10000000000001119" y2="1706.1022460959357" stroke="red" stroke-width="2" />
  <line x1="0.10000000000001119" y1="1706.1022460959357" x2="200.0" y2="1706.1022460959357" stroke="blue" stroke-width="2" />
  <line x1="200.0" y1="1706.1022460959357" x2="200.10000000000002" y2="1706.1022460959357" stroke="red" stroke-width="2" />
  <line x1="200.10000000000002" y1="1706.1022460959357" x2="400.0" y2="1706.1022460959357" stroke="blue" stroke-width="2" />
  <line x1="400.0" y1="1706.1022460959357" x2="400.1" y2="1706.1022460959357" stroke="red" stroke-width="2" />
  <line x1="400.1" y1="1706.1022460959357" x2="600.0" y2="1706.1022460959357" stroke="blue" stroke-width="2" />
  <line x1="600.0" y1="1706.1022460959357" x2="600.1" y2="1706.1022460959357" stroke="red" stroke-width="2" />
  <line x1="600.1" y1="1706.1022460959357" x2="800.0" y2="1706.1022460959357" stroke="blue" stroke-width="2" />
  <line x1="800.0" y1="1706.1022460959357" x2="800.1000000000001" y2="1706.1022460959357" stroke="red" stroke-width="2" />
  <line x1="800.1000000000001" y1="1706.1022460959357" x2="1000.0" y2="1706.1022460959357" stroke="blue" stroke-width="2" />
  <line x1="1000.0" y1="1706.1022460959357" x2="1000.1000000000001" y2="1706.1022460959357" stroke="red" stroke-width="2" />
  <line x1="1000.1000000000001" y1="1706.1022460959357" x2="1200.0" y2="1706.1022460959357" stroke="blue" stroke-width="2" />
  <line x1="1200.0" y1="1706.1022460959357" x2="1200.1000000000001" y2="1706.1022460959357" stroke="red" stroke-width="2" />
  <line x1="1200.1000000000001" y1="1706.1022460959357" x2="1400.0" y2="1706.1022460959357" stroke="blue" stroke-width="2" />
  <line x1="1400.0" y1="1706.1022460959357" x2="1400.1000000000001" y2="1706.1022460959357" stroke="red" stroke-width="2" />
  <line x1="1400.1000000000001" y1="1706.1022460959357" x2="1600.0" y2="1706.1022460959357" stroke="blue" stroke-width="2" />
  <line x1="0.0" y1="1706.1022460959357" x2="0.0" y2="1495.5221205616974" stroke="black" stroke-width="3" />
  <line x1="0.10000000000001119" y1="1706.1022460959357" x2="0.10000000000001119" y2="1495.5529812181876" stroke="red" stroke-width="2" />
  <line x1="200.0" y1="1706.1022460959357" x2="200.0" y2="1495.5529812118411" stroke="blue" stroke-width="2" />
  <line x1="200.10000000000002" y1="1706.1022460959357" x2="200.10000000000002" y2="1495.5529812118443" stroke="red" stroke-width="2" />
  <line x1="400.0" y1="1706.1022460959357" x2="400.0" y2="1557.2434335420603" stroke="blue" stroke-width="2" />
  <line x1="400.1" y1="1706.1022460959357" x2="400.1" y2="1557.212572885567" stroke="red" stroke-width="2" />
  <line x1="600.0" y1="1706.1022460959357" x2="600.0" y2="1644.4558307809934" stroke="blue" stroke-width="2" />
  <line x1="600.1" y1="1706.1022460959357" x2="600.1" y2="1644.4121873303202" stroke="red" stroke-width="2" />
  <line x1="800.0" y1="1706.1022460959357" x2="800.0" y2="1706.1022460959357" stroke="blue" stroke-width="2" />
  <line x1="800.1000000000001" y1="1706.1022460959357" x2="800.1000000000001" y2="1706.071385636323" stroke="red" stroke-width="2" />
  <line x1="1000.0" y1="1706.1022460959357" x2="1000.0" y2="1706.071385636323" stroke="blue" stroke-width="2" />
  <line x1="1000.1000000000001" y1="1706.1022460959357" x2="1000.1000000000001" y2="1706.071385636323" stroke="red" stroke-width="2" />
  <line x1="1200.0" y1="1706.1022460959357" x2="1200.0" y2="1644.3813268707077" stroke="blue" stroke-width="2" />
  <line x1="1200.1000000000001" y1="1706.1022460959357" x2="1200.1000000000001" y2="1644.4121873303202" stroke="red" stroke-width="2" />
  <line x1="1400.0" y1="1706.1022460959357" x2="1400.0" y2="1557.168929434894" stroke="blue" stroke-width="2" />
  <line x1="1400.1000000000001" y1="1706.1022460959357" x2="1400.1000000000001" y2="1557.212572885567" stroke="red" stroke-width="2" />
  <line x1="1600.0" y1="1706.1022460959357" x2="1600.0" y2="1495.5221205616974" stroke="black" stroke-width="3" />
  <line x1="0.0" y1="1495.5221205616974" x2="0.10000000000001119" y2="1495.5529812181876" stroke="red" stroke-width="2" />
  <line x1="0.10000000000001119" y1="1495.5529812181876" x2="200.0" y2="1495.5529812118411" stroke="blue" stroke-width="2" />
  <line x1="200.0" y1="1495.5529812118411" x2="200.10000000000002" y2="1495.5529812118443" stroke="red" stroke-width="2" />
  <line x1="200.10000000000002" y1="1495.5529812118443" x2="400.0" y2="1557.2434335420603" stroke="blue" stroke-width="2" />
  <line x1="400.0" y1="1557.2434335420603" x2="400.1" y2="1557.212572885567" stroke="red" stroke-width="2" />
  <line x1="400.1" y1="1557.212572885567" x2="600.0" y2="1644.4558307809934" stroke="blue" stroke-width="2" />
  <line x1="600.0" y1="1644.4558307809934" x2="600.1" y2="1644.4121873303202" stroke="red" stroke-width="2" />
  <line x1="600.1" y1="1644.4121873303202" x2="800.0" y2="1706.1022460959357" stroke="blue" stroke-width="2" />
  <line x1="800.0" y1="1706.1022460959357" x2="800.1000000000001" y2="1706.071385636323" stroke="red" stroke-width="2" />
  <line x1="800.1000000000001" y1="1706.071385636323" x2="1000.0" y2="1706.071385636323" stroke="blue" stroke-width="2" />
  <line x1="1000.0" y1="1706.071385636323" x2="1000.1000000000001" y2="1706.071385636323" stroke="red" stroke-width="2" />
  <line x1="1000.1000000000001" y1="1706.071385636323" x2="1200.0" y2="1644.3813268707077" stroke="blue" stroke-width="2" />
  <line x1="1200.0" y1="1644.3813268707077" x2="1200.1000000000001" y2="1644.4121873303202" stroke="red" stroke-width="2" />
  <line x1="1200.1000000000001" y1="1644.4121873303202" x2="1400.0" y2="1557.168929434894" stroke="blue" stroke-width="2" />
  <line x1="1400.0" y1="1557.168929434894" x2="1400.1000000000001" y2="1557.212572885567" stroke="red" stroke-width="2" />
  <line x1="1400.1000000000001" y1="1557.212572885567" x2="1600.0" y2="1495.5221205616974" stroke="blue" stroke-width="2" />
  <line x1="0.0" y1="1495.5221205616974" x2="0.0" y2="1337.6636626059103" stroke="black" stroke-width="3" />
  <line x1="0.10000000000001119" y1="1495.5529812181876" x2="100.0" y2="1337.6636626059103" stroke="red" stroke-width="2" />
  <line x1="200.0" y1="1495.5529812118411" x2="200.0" y2="1337.6636626059103" stroke="blue" stroke-width="2" />
  <line x1="200.10000000000002" y1="1495.5529812118443" x2="300.0" y2="1337.6636626059103" stroke="red" stroke-width="2" />
  <line x1="400.0" y1="1557.2434335420603" x2="400.0" y2="1337.6636626059103" stroke="blue" stroke-width="2" />
  <line x1="400.1" y1="1557.212572885567" x2="500.0" y2="1337.6636626059103" stroke="red" stroke-width="2" />
  <line x1="600.0" y1="1644.4558307809934" x2="600.0" y2="1337.6636626059103" stroke="blue" stroke-width="2" />
  <line x1="600.1" y1="1644.4121873303202" x2="700.0" y2="1337.6636626059103" stroke="red" stroke-width="2" />
  <line x1="800.0" y1="1706.1022460959357" x2="800.0" y2="1337.6636626059103" stroke="blue" stroke-width="2" />
  <line x1="800.1000000000001" y1="1706.071385636323" x2="900.0" y2="1337.6636626059103" stroke="red" stroke-width="2" />
  <line x1="1000.0" y1="1706.071385636323" x2="1000.0" y2="1337.6636626059103" stroke="blue" stroke-width="2" />
  <line x1="1000.1000000000001" y1="1706.071385636323" x2="1100.0" y2="1337.6636626059103" stroke="red" stroke-width="2" />
  <line x1="1200.0" y1="1644.3813268707077" x2="1200.0" y2="1337.6636626059103" stroke="blue" stroke-width="2" />
  <line x1="1200.1000000000001" y1="1644.4121873303202" x2="1300.0" y2="1337.6636626059103" stroke="red" stroke-width="2" />
  <line x1="1400.0" y1="1557.168929434894" x2="1400.0" y2="1337.6636626059103" stroke="blue" stroke-width="2" />
  <line x1="1400.1000000000001" y1="1557.212572885567" x2="1500.0" y2="1337.6636626059103" stroke="red" stroke-width="2" />
  <line x1="1600.0" y1="1495.5221205616974" x2="1600.0" y2="1337.6636626059103" stroke="black" stroke-width="3" />
  <line x1="0.0" y1="1337.6636626059103" x2="0.0" y2="1118.0838916502544" stroke="black" stroke-width="3" />
  <line x1="100.0" y1="1337.6636626059103" x2="199.89999999999998" y2="1179.774343981533" stroke="red" stroke-width="2" />
  <line x1="200.0" y1="1337.6636626059103" x2="200.0" y2="1179.774343981535" stroke="blue" stroke-width="2" />
  <line x1="300.0" y1="1337.6636626059103" x2="399.9" y2="1179.7743439781361" stroke="red" stroke-width="2" />
  <line x1="400.0" y1="1337.6636626059103" x2="400.0" y2="1179.8052046346284" stroke="blue" stroke-width="2" />
  <line x1="500.0" y1="1337.6636626059103" x2="599.9" y2="1118.1147523067484" stroke="red" stroke-width="2" />
  <line x1="600.0" y1="1337.6636626059103" x2="600.0" y2="1118.1583957574271" stroke="blue" stroke-width="2" />
  <line x1="700.0" y1="1337.6636626059103" x2="799.9" y2="1030.915137850423" stroke="red" stroke-width="2" />
  <line x1="800.0" y1="1337.6636626059103" x2="800.0" y2="1030.9459983100364" stroke="blue" stroke-width="2" />
  <line x1="900.0" y1="1337.6636626059103" x2="999.8999999999999" y2="969.2559395424462" stroke="red" stroke-width="2" />
  <line x1="1000.0" y1="1337.6636626059103" x2="1000.0" y2="969.2559395424462" stroke="blue" stroke-width="2" />
  <line x1="1100.0" y1="1337.6636626059103" x2="1199.8999999999999" y2="969.2559395424462" stroke="red" stroke-width="2" />
  <line x1="1200.0" y1="1337.6636626059103" x2="1200.0" y2="969.2250790828326" stroke="blue" stroke-width="2" />
  <line x1="1300.0" y1="1337.6636626059103" x2="1399.8999999999999" y2="1030.915137850423" stroke="red" stroke-width="2" />
  <line x1="1400.0" y1="1337.6636626059103" x2="1400.0" y2="1030.8714943997438" stroke="blue" stroke-width="2" />
  <line x1="1500.0" y1="1337.6636626059103" x2="1599.8999999999999" y2="1118.1147523067484" stroke="red" stroke-width="2" />
  <line x1="1600.0" y1="1337.6636626059103" x2="1600.0" y2="1118.0838916502544" stroke="black" stroke-width="3" />
  <line x1="0.0" y1="1118.0838916502544" x2="199.89999999999998" y2="1179.774343981533" stroke="blue" stroke-width="2" />
  <line x1="199.89999999999998" y1="1179.774343981533" x2="200.0" y2="1179.774343981535" stroke="red" stroke-width="2" />
  <line x1="200.0" y1="1179.774343981535" x2="399.9" y2="1179.7743439781361" stroke="blue" stroke-width="2" />
  <line x1="399.9" y1="1179.7743439781361" x2="400.0" y2="1179.8052046346284" stroke="red" stroke-width="2" />
  <line x1="400.0" y1="1179.8052046346284" x2="599.9" y2="1118.1147523067484" stroke="blue" stroke-width="2" />
  <line x1="599.9" y1="1118.1147523067484" x2="600.0" y2="1118.1583957574271" stroke="red" stroke-width="2" />
  <line x1="600.0" y1="1118.1583957574271" x2="799.9" y2="1030.915137850423" stroke="blue" stroke-width="2" />
  <line x1="799.9" y1="1030.915137850423" x2="800.0" y2="1030.9459983100364" stroke="red" stroke-width="2" />
  <line x1="800.0" y1="1030.9459983100364" x2="999.8999999999999" y2="969.2559395424462" stroke="blue" stroke-width="2" />
  <line x1="999.8999999999999" y1="969.2559395424462" x2="1000.0" y2="969.2559395424462" stroke="red" stroke-width="2" />
  <line x1="1000.0" y1="969.2559395424462" x2="1199.8999999999999" y2="969.2559395424462" stroke="blue" stroke-width="2" />
  <line x1="1199.8999999999999" y1="969.2559395424462" x2="1200.0" y2="969.2250790828326" stroke="red" stroke-width="2" />
  <line x1="1200.0" y1="969.2250790828326" x2="1399.8999999999999" y2="1030.915137850423" stroke="blue" stroke-width="2" />
  <line x1="1399.8999999999999" y1="1030.915137850423" x2="1400.0" y2="1030.8714943997438" stroke="red" stroke-width="2" />
  <line x1="1400.0" y1="1030.8714943997438" x2="1599.8999999999999" y2="1118.1147523067484" stroke="blue" stroke-width="2" />
  <line x1="1599.8999999999999" y1="1118.1147523067484" x2="1600.0" y2="1118.0838916502544" stroke="red" stroke-width="2" />
  <line x1="0.0" y1="1118.0838916502544" x2="0.0" y2="969.2250790828326" stroke="black" stroke-width="3" />
  <line x1="199.89999999999998" y1="1179.774343981533" x2="199.89999999999998" y2="969.2250790828326" stroke="red" stroke-width="2" />
  <line x1="200.0" y1="1179.774343981535" x2="200.0" y2="969.2250790828326" stroke="blue" stroke-width="2" />
  <line x1="399.9" y1="1179.7743439781361" x2="399.9" y2="969.2250790828326" stroke="red" stroke-width="2" />
  <line x1="400.0" y1="1179.8052046346284" x2="400.0" y2="969.2250790828326" stroke="blue" stroke-width="2" />
  <line x1="599.9" y1="1118.1147523067484" x2="599.9" y2="969.2250790828326" stroke="red" stroke-width="2" />
  <line x1="600.0" y1="1118.1583957574271" x2="600.0" y2="969.2250790828326" stroke="blue" stroke-width="2" />
  <line x1="799.9" y1="1030.915137850423" x2="799.9" y2="969.2250790828326" stroke="red" stroke-width="2" />
  <line x1="800.0" y1="1030.9459983100364" x2="800.0" y2="969.2250790828326" stroke="blue" stroke-width="2" />
  <line x1="999.8999999999999" y1="969.2559395424462" x2="999.8999999999999" y2="969.2250790828326" stroke="red" stroke-width="2" />
  <line x1="1000.0" y1="969.2559395424462" x2="1000.0" y2="969.2250790828326" stroke="blue" stroke-width="2" />
  <line x1="1199.8999999999999" y1="969.2559395424462" x2="1199.8999999999999" y2="969.2250790828326" stroke="red" stroke-width="2" />
  <line x1="1200.0" y1="969.2250790828326" x2="1200.0" y2="969.2250790828326" stroke="blue" stroke-width="2" />
  <line x1="1399.8999999999999" y1="1030.915137850423" x2="1399.8999999999999" y2="969.2250790828326" stroke="red" stroke-width="2" />
  <line x1="1400.0" y1="1030.8714943997438" x2="1400.0" y2="969.2250790828326" stroke="blue" stroke-width="2" />
  <line x1="1599.8999999999999" y1="1118.1147523067484" x2="1599.8999999999999" y2="969.2250790828326" stroke="red" stroke-width="2" />
  <line x1="1600.0" y1="1118.0838916502544" x2="1600.0" y2="969.2250790828326" stroke="black" stroke-width="3" />
  <line x1="0.0" y1="969.2250790828326" x2="199.89999999999998" y2="969.2250790828326" stroke="gray" stroke-width="0.5" />
  <line x1="199.89999999999998" y1="969.2250790828326" x2="200.0" y2="969.2250790828326" stroke="gray" stroke-width="0.5" />
  <line x1="200.0" y1="969.2250790828326" x2="399.9" y2="969.2250790828326" stroke="gray" stroke-width="0.5" />
  <line x1="399.9" y1="969.2250790828326" x2="400.0" y2="969.2250790828326" stroke="gray" stroke-width="0.5" />
  <line x1="400.0" y1="969.2250790828326" x2="599.9" y2="969.2250790828326" stroke="gray" stroke-width="0.5" />
  <line x1="599.9" y1="969.2250790828326" x2="600.0" y2="969.2250790828326" stroke="gray" stroke-width="0.5" />
  <line x1="600.0" y1="969.2250790828326" x2="799.9" y2="969.2250790828326" stroke="gray" stroke-width="0.5" />
  <line x1="799.9" y1="969.2250790828326" x2="800.0" y2="969.2250790828326" stroke="gray" stroke-width="0.5" />
  <line x1="800.0" y1="969.2250790828326" x2="999.8999999999999" y2="969.2250790828326" stroke="gray" stroke-width="0.5" />
  <line x1="999.8999999999999" y1="969.2250790828326" x2="1000.0" y2="969.2250790828326" stroke="gray" stroke-width="0.5" />
  <line x1="1000.0" y1="969.2250790828326" x2="1199.8999999999999" y2="969.2250790828326" stroke="gray" stroke-width="0.5" />
  <line x1="1199.8999999999999" y1="969.2250790828326" x2="1200.0" y2="969.2250790828326" stroke="gray" stroke-width="0.5" />
  <line x1="1200.0" y1="969.2250790828326" x2="1399.8999999999999" y2="969.2250790828326" stroke="gray" stroke-width="0.5" />
  <line x1="1399.8999999999999" y1="969.2250790828326" x2="1400.0" y2="969.2250790828326" stroke="gray" stroke-width="0.5" />
  <line x1="1400.0" y1="969.2250790828326" x2="1599.8999999999999" y2="969.2250790828326" stroke="gray" stroke-width="0.5" />
  <line x1="1599.8999999999999" y1="969.2250790828326" x2="1600.0" y2="969.2250790828326" stroke="gray" stroke-width="0.5" />
  <line x1="0.0" y1="969.2250790828326" x2="0.0" y2="907.5036510756574" stroke="black" stroke-width="3" />
  <line x1="199.89999999999998" y1="969.2250790828326" x2="199.89999999999998" y2="969.194218368829" stroke="red" stroke-width="2" />
  <line x1="200.0" y1="969.2250790828326" x2="200.0" y2="969.194218368829" stroke="blue" stroke-width="2" />
  <line x1="399.9" y1="969.2250790828326" x2="399.9" y2="969.194218368829" stroke="red" stroke-width="2" />
  <line x1="400.0" y1="969.2250790828326" x2="400.0" y2="969.2250790828328" stroke="blue" stroke-width="2" />
  <line x1="599.9" y1="969.2250790828326" x2="599.9" y2="907.5345117896613" stroke="red" stroke-width="2" />
  <line x1="600.0" y1="969.2250790828326" x2="600.0" y2="907.5781554763548" stroke="blue" stroke-width="2" />
  <line x1="799.9" y1="969.2250790828326" x2="799.9" y2="820.3344257758108" stroke="red" stroke-width="2" />
  <line x1="800.0" y1="969.2250790828326" x2="800.0" y2="820.3652865116901" stroke="blue" stroke-width="2" />
  <line x1="999.8999999999999" y1="969.2250790828326" x2="999.8999999999999" y2="758.6746754889048" stroke="red" stroke-width="2" />
  <line x1="1000.0" y1="969.2250790828326" x2="1000.0" y2="758.6746754889048" stroke="blue" stroke-width="2" />
  <line x1="1199.8999999999999" y1="969.2250790828326" x2="1199.8999999999999" y2="758.6746754889048" stroke="red" stroke-width="2" />
  <line x1="1200.0" y1="969.2250790828326" x2="1200.0" y2="758.6438147530255" stroke="blue" stroke-width="2" />
  <line x1="1399.8999999999999" y1="969.2250790828326" x2="1399.8999999999999" y2="820.3344257758108" stroke="red" stroke-width="2" />
  <line x1="1400.0" y1="969.2250790828326" x2="1400.0" y2="820.2907820891169" stroke="blue" stroke-width="2" />
  <line x1="1599.8999999999999" y1="969.2250790828326" x2="1599.8999999999999" y2="907.5345117896613" stroke="red" stroke-width="2" />
  <line x1="1600.0" y1="969.2250790828326" x2="1600.0" y2="907.5036510756574" stroke="black" stroke-width="3" />
  <line x1="0.0" y1="907.5036510756574" x2="199.89999999999998" y2="969.194218368829" stroke="blue" stroke-width="2" />
  <line x1="199.89999999999998" y1="969.194218368829" x2="200.0" y2="969.194218368829" stroke="red" stroke-width="2" />
  <line x1="200.0" y1="969.194218368829" x2="399.9" y2="969.194218368829" stroke="blue" stroke-width="2" />
  <line x1="399.9" y1="969.194218368829" x2="400.0" y2="969.2250790828328" stroke="red" stroke-width="2" />
  <line x1="400.0" y1="969.2250790828328" x2="599.9" y2="907.5345117896613" stroke="blue" stroke-width="2" />
  <line x1="599.9" y1="907.5345117896613" x2="600.0" y2="907.5781554763548" stroke="red" stroke-width="2" />
  <line x1="600.0" y1="907.5781554763548" x2="799.9" y2="820.3344257758108" stroke="blue" stroke-width="2" />
  <line x1="799.9" y1="820.3344257758108" x2="800.0" y2="820.3652865116901" stroke="red" stroke-width="2" />
  <line x1="800.0" y1="820.3652865116901" x2="999.8999999999999" y2="758.6746754889048" stroke="blue" stroke-width="2" />
  <line x1="999.8999999999999" y1="758.6746754889048" x2="1000.0" y2="758.6746754889048" stroke="red" stroke-width="2" />
  <line x1="1000.0" y1="758.6746754889048" x2="1199.8999999999999" y2="758.6746754889048" stroke="blue" stroke-width="2" />
  <line x1="1199.8999999999999" y1="758.6746754889048" x2="1200.0" y2="758.6438147530255" stroke="red" stroke-width="2" />
  <line x1="1200.0" y1="758.6438147530255" x2="1399.8999999999999" y2="820.3344257758108" stroke="blue" stroke-width="2" />
  <line x1="1399.8999999999999" y1="820.3344257758108" x2="1400.0" y2="820.2907820891169" stroke="red" stroke-width="2" />
  <line x1="1400.0" y1="820.2907820891169" x2="1599.8999999999999" y2="907.5345117896613" stroke="blue" stroke-width="2" />
  <line x1="1599.8999999999999" y1="907.5345117896613" x2="1600.0" y2="907.5036510756574" stroke="red" stroke-width="2" />
  <line x1="0.0" y1="907.5036510756574" x2="0.0" y2="600.7856984063699" stroke="black" stroke-width="3" />
  <line x1="199.89999999999998" y1="969.194218368829" x2="100.0" y2="600.7856984063699" stroke="red" stroke-width="2" />
  <line x1="200.0" y1="969.194218368829" x2="200.0" y2="600.7856984063699" stroke="blue" stroke-width="2" />
  <line x1="399.9" y1="969.194218368829" x2="300.0" y2="600.7856984063699" stroke="red" stroke-width="2" />
  <line x1="400.0" y1="969.2250790828328" x2="400.0" y2="600.7856984063699" stroke="blue" stroke-width="2" />
  <line x1="599.9" y1="907.5345117896613" x2="500.0" y2="600.7856984063699" stroke="red" stroke-width="2" />
  <line x1="600.0" y1="907.5781554763548" x2="600.0" y2="600.7856984063699" stroke="blue" stroke-width="2" />
  <line x1="799.9" y1="820.3344257758108" x2="700.0" y2="600.7856984063699" stroke="red" stroke-width="2" />
  <line x1="800.0" y1="820.3652865116901" x2="800.0" y2="600.7856984063699" stroke="blue" stroke-width="2" />
  <line x1="999.8999999999999" y1="758.6746754889048" x2="900.0" y2="600.7856984063699" stroke="red" stroke-width="2" />
  <line x1="1000.0" y1="758.6746754889048" x2="1000.0" y2="600.7856984063699" stroke="blue" stroke-width="2" />
  <line x1="1199.8999999999999" y1="758.6746754889048" x2="1100.0" y2="600.7856984063699" stroke="red" stroke-width="2" />
  <line x1="1200.0" y1="758.6438147530255" x2="1200.0" y2="600.7856984063699" stroke="blue" stroke-width="2" />
  <line x1="1399.8999999999999" y1="820.3344257758108" x2="1300.0" y2="600.7856984063699" stroke="red" stroke-width="2" />
  <line x1="1400.0" y1="820.2907820891169" x2="1400.0" y2="600.7856984063699" stroke="blue" stroke-width="2" />
  <line x1="1599.8999999999999" y1="907.5345117896613" x2="1500.0" y2="600.7856984063699" stroke="red" stroke-width="2" />
  <line x1="1600.0" y1="907.5036510756574" x2="1600.0" y2="600.7856984063699" stroke="black" stroke-width="3" />
  <line x1="0.0" y1="600.7856984063699" x2="0.0" y2="232.346317729907" stroke="black" stroke-width="3" />
  <line x1="100.0" y1="600.7856984063699" x2="0.10000000000001119" y2="232.37717844391068" stroke="red" stroke-width="2" />
  <line x1="200.0" y1="600.7856984063699" x2="200.0" y2="232.37717844391068" stroke="blue" stroke-width="2" />
  <line x1="300.0" y1="600.7856984063699" x2="200.10000000000002" y2="232.37717844391068" stroke="red" stroke-width="2" />
  <line x1="400.0" y1="600.7856984063699" x2="400.0" y2="294.06774573708253" stroke="blue" stroke-width="2" />
  <line x1="500.0" y1="600.7856984063699" x2="400.1" y2="294.03688502307887" stroke="red" stroke-width="2" />
  <line x1="600.0" y1="600.7856984063699" x2="600.0" y2="381.2806147236231" stroke="blue" stroke-width="2" />
  <line x1="700.0" y1="600.7856984063699" x2="600.1" y2="381.2369710369296" stroke="red" stroke-width="2" />
  <line x1="800.0" y1="600.7856984063699" x2="800.0" y2="442.9275820597147" stroke="blue" stroke-width="2" />
  <line x1="900.0" y1="600.7856984063699" x2="800.1000000000001" y2="442.8967213238352" stroke="red" stroke-width="2" />
  <line x1="1000.0" y1="600.7856984063699" x2="1000.0" y2="442.8967213238352" stroke="blue" stroke-width="2" />
  <line x1="1100.0" y1="600.7856984063699" x2="1000.1000000000001" y2="442.8967213238352" stroke="red" stroke-width="2" />
  <line x1="1200.0" y1="600.7856984063699" x2="1200.0" y2="381.20611030105033" stroke="blue" stroke-width="2" />
  <line x1="1300.0" y1="600.7856984063699" x2="1200.1000000000001" y2="381.2369710369296" stroke="red" stroke-width="2" />
  <line x1="1400.0" y1="600.7856984063699" x2="1400.0" y2="293.99324133638515" stroke="blue" stroke-width="2" />
  <line x1="1500.0" y1="600.7856984063699" x2="1400.1000000000001" y2="294.03688502307887" stroke="red" stroke-width="2" />
  <line x1="1600.0" y1="600.7856984063699" x2="1600.0" y2="232.346317729907" stroke="black" stroke-width="3" />
  <line x1="0.0" y1="232.346317729907" x2="0.10000000000001119" y2="232.37717844391068" stroke="red" stroke-width="2" />
  <line x1="0.10000000000001119" y1="232.37717844391068" x2="200.0" y2="232.37717844391068" stroke="blue" stroke-width="2" />
  <line x1="200.0" y1="232.37717844391068" x2="200.10000000000002" y2="232.37717844391068" stroke="red" stroke-width="2" />
  <line x1="200.10000000000002" y1="232.37717844391068" x2="400.0" y2="294.06774573708253" stroke="blue" stroke-width="2" />
  <line x1="400.0" y1="294.06774573708253" x2="400.1" y2="294.03688502307887" stroke="red" stroke-width="2" />
  <line x1="400.1" y1="294.03688502307887" x2="600.0" y2="381.2806147236231" stroke="blue" stroke-width="2" />
  <line x1="600.0" y1="381.2806147236231" x2="600.1" y2="381.2369710369296" stroke="red" stroke-width="2" />
  <line x1="600.1" y1="381.2369710369296" x2="800.0" y2="442.9275820597147" stroke="blue" stroke-width="2" />
  <line x1="800.0" y1="442.9275820597147" x2="800.1000000000001" y2="442.8967213238352" stroke="red" stroke-width="2" />
  <line x1="800.1000000000001" y1="442.8967213238352" x2="1000.0" y2="442.8967213238352" stroke="blue" stroke-width="2" />
  <line x1="1000.0" y1="442.8967213238352" x2="1000.1000000000001" y2="442.8967213238352" stroke="red" stroke-width="2" />
  <line x1="1000.1000000000001" y1="442.8967213238352" x2="1200.0" y2="381.20611030105033" stroke="blue" stroke-width="2" />
  <line x1="1200.0" y1="381.20611030105033" x2="1200.1000000000001" y2="381.2369710369296" stroke="red" stroke-width="2" />
  <line x1="1200.1000000000001" y1="381.2369710369296" x2="1400.0" y2="293.99324133638515" stroke="blue" stroke-width="2" />
  <line x1="1400.0" y1="293.99324133638515" x2="1400.1000000000001" y2="294.03688502307887" stroke="red" stroke-width="2" />
  <line x1="1400.1000000000001" y1="294.03688502307887" x2="1600.0" y2="232.346317729907" stroke="blue" stroke-width="2" />
  <line x1="0.0" y1="232.346317729907" x2="0.0" y2="232.346317729907" stroke="black" stroke-width="3" />
  <line x1="0.10000000000001119" y1="232.37717844391068" x2="0.10000000000001119" y2="232.346317729907" stroke="red" stroke-width="2" />
  <line x1="200.0" y1="232.37717844391068" x2="200.0" y2="232.346317729907" stroke="blue" stroke-width="2" />
  <line x1="200.10000000000002" y1="232.37717844391068" x2="200.10000000000002" y2="232.346317729907" stroke="red" stroke-width="2" />
  <line x1="400.0" y1="294.06774573708253" x2="400.0" y2="232.346317729907" stroke="blue" stroke-width="2" />
  <line x1="400.1" y1="294.03688502307887" x2="400.1" y2="232.346317729907" stroke="red" stroke-width="2" />
  <line x1="600.0" y1="381.2806147236231" x2="600.0" y2="232.346317729907" stroke="blue" stroke-width="2" />
  <line x1="600.1" y1="381.2369710369296" x2="600.1" y2="232.346317729907" stroke="red" stroke-width="2" />
  <line x1="800.0" y1="442.9275820597147" x2="800.0" y2="232.346317729907" stroke="blue" stroke-width="2" />
  <line x1="800.1000000000001" y1="442.8967213238352" x2="800.1000000000001" y2="232.346317729907" stroke="red" stroke-width="2" />
  <line x1="1000.0" y1="442.8967213238352" x2="1000.0" y2="232.346317729907" stroke="blue" stroke-width="2" />
  <line x1="1000.1000000000001" y1="442.8967213238352" x2="1000.1000000000001" y2="232.346317729907" stroke="red" stroke-width="2" />
  <line x1="1200.0" y1="381.20611030105033" x2="1200.0" y2="232.346317729907" stroke="blue" stroke-width="2" />
  <line x1="1200.1000000000001" y1="381.2369710369296" x2="1200.1000000000001" y2="232.346317729907" stroke="red" stroke-width="2" />
  <line x1="1400.0" y1="293.99324133638515" x2="1400.0" y2="232.346317729907" stroke="blue" stroke-width="2" />
  <line x1="1400.1000000000001" y1="294.03688502307887" x2="1400.1000000000001" y2="232.346317729907" stroke="red" stroke-width="2" />
  <line x1="1600.0" y1="232.346317729907" x2="1600.0" y2="232.346317729907" stroke="black" stroke-width="3" />
  <line x1="0.0" y1="232.346317729907" x2="0.10000000000001119" y2="232.346317729907" stroke="red" stroke-width="2" />
  <line x1="0.10000000000001119" y1="232.346317729907" x2="200.0" y2="232.346317729907" stroke="blue" stroke-width="2" />
  <line x1="200.0" y1="232.346317729907" x2="200.10000000000002" y2="232.346317729907" stroke="red" stroke-width="2" />
  <line x1="200.10000000000002" y1="232.346317729907" x2="400.0" y2="232.346317729907" stroke="blue" stroke-width="2" />
  <line x1="400.0" y1="232.346317729907" x2="400.1" y2="232.346317729907" stroke="red" stroke-width="2" />
  <line x1="400.1" y1="232.346317729907" x2="600.0" y2="232.346317729907" stroke="blue" stroke-width="2" />
  <line x1="600.0" y1="232.346317729907" x2="600.1" y2="232.346317729907" stroke="red" stroke-width="2" />
  <line x1="600.1" y1="232.346317729907" x2="800.0" y2="232.346317729907" stroke="blue" stroke-width="2" />
  <line x1="800.0" y1="232.346317729907" x2="800.1000000000001" y2="232.346317729907" stroke="red" stroke-width="2" />
  <line x1="800.1000000000001" y1="232.346317729907" x2="1000.0" y2="232.346317729907" stroke="blue" stroke-width="2" />
  <line x1="1000.0" y1="232.346317729907" x2="1000.1000000000001" y2="232.346317729907" stroke="red" stroke-width="2" />
  <line x1="1000.1000000000001" y1="232.346317729907" x2="1200.0" y2="232.346317729907" stroke="blue" stroke-width="2" />
  <line x1="1200.0" y1="232.346317729907" x2="1200.1000000000001" y2="232.346317729907" stroke="red" stroke-width="2" />
  <line x1="1200.1000000000001" y1="232.346317729907" x2="1400.0" y2="232.346317729907" stroke="blue" stroke-width="2" />
  <line x1="1400.0" y1="232.346317729907" x2="1400.1000000000001" y2="232.346317729907" stroke="red" stroke-width="2" />
  <line x1="1400.1000000000001" y1="232.346317729907" x2="1600.0" y2="232.346317729907" stroke="blue" stroke-width="2" />
  <line x1="0.0" y1="232.346317729907" x2="0.0" y2="102.42640687119274" stroke="black" stroke-width="3" />
  <line x1="0.10000000000001119" y1="232.346317729907" x2="20.000000000000007" y2="102.42640687119274" stroke="red" stroke-width="2" />
  <line x1="200.0" y1="232.346317729907" x2="200.0" y2="102.42640687119274" stroke="blue" stroke-width="2" />
  <line x1="200.10000000000002" y1="232.346317729907" x2="220.00000000000003" y2="102.42640687119274" stroke="red" stroke-width="2" />
  <line x1="400.0" y1="232.346317729907" x2="400.0" y2="102.42640687119274" stroke="blue" stroke-width="2" />
  <line x1="400.1" y1="232.346317729907" x2="420.0" y2="102.42640687119274" stroke="red" stroke-width="2" />
  <line x1="600.0" y1="232.346317729907" x2="600.0" y2="102.42640687119274" stroke="blue" stroke-width="2" />
  <line x1="600.1" y1="232.346317729907" x2="620.0" y2="102.42640687119274" stroke="red" stroke-width="2" />
  <line x1="800.0" y1="232.346317729907" x2="800.0" y2="102.42640687119274" stroke="blue" stroke-width="2" />
  <line x1="800.1000000000001" y1="232.346317729907" x2="819.9999999999999" y2="102.42640687119274" stroke="red" stroke-width="2" />
  <line x1="1000.0" y1="232.346317729907" x2="1000.0" y2="102.42640687119274" stroke="blue" stroke-width="2" />
  <line x1="1000.1000000000001" y1="232.346317729907" x2="1019.9999999999999" y2="102.42640687119274" stroke="red" stroke-width="2" />
  <line x1="1200.0" y1="232.346317729907" x2="1200.0" y2="102.42640687119274" stroke="blue" stroke-width="2" />
  <line x1="1200.1000000000001" y1="232.346317729907" x2="1220.0" y2="102.42640687119274" stroke="red" stroke-width="2" />
  <line x1="1400.0" y1="232.346317729907" x2="1400.0" y2="102.42640687119274" stroke="blue" stroke-width="2" />
  <line x1="1400.1000000000001" y1="232.346317729907" x2="1420.0" y2="102.42640687119274" stroke="red" stroke-width="2" />
  <line x1="1600.0" y1="232.346317729907" x2="1600.0" y2="102.42640687119274" stroke="black" stroke-width="3" />
  <line x1="0.0" y1="102.42640687119274" x2="20.000000000000007" y2="102.42640687119274" stroke="red" stroke-width="2" />
  <line x1="20.000000000000007" y1="102.42640687119274" x2="200.0" y2="102.42640687119274" stroke="blue" stroke-width="2" />
  <line x1="200.0" y1="102.42640687119274" x2="220.00000000000003" y2="102.42640687119274" stroke="red" stroke-width="2" />
  <line x1="220.00000000000003" y1="102.42640687119274" x2="400.0" y2="102.42640687119274" stroke="blue" stroke-width="2" />
  <line x1="400.0" y1="102.42640687119274" x2="420.0" y2="102.42640687119274" stroke="red" stroke-width="2" />
  <line x1="420.0" y1="102.42640687119274" x2="600.0" y2="102.42640687119274" stroke="blue" stroke-width="2" />
  <line x1="600.0" y1="102.42640687119274" x2="620.0" y2="102.42640687119274" stroke="red" stroke-width="2" />
  <line x1="620.0" y1="102.42640687119274" x2="800.0" y2="102.42640687119274" stroke="blue" stroke-width="2" />
  <line x1="800.0" y1="102.42640687119274" x2="819.9999999999999" y2="102.42640687119274" stroke="red" stroke-width="2" />
  <line x1="819.9999999999999" y1="102.42640687119274" x2="1000.0" y2="102.42640687119274" stroke="blue" stroke-width="2" />
  <line x1="1000.0" y1="102.42640687119274" x2="1019.9999999999999" y2="102.42640687119274" stroke="red" stroke-width="2" />
  <line x1="1019.9999999999999" y1="102.42640687119274" x2="1200.0" y2="102.42640687119274" stroke="blue" stroke-width="2" />
  <line x1="1200.0" y1="102.42640687119274" x2="1220.0" y2="102.42640687119274" stroke="red" stroke-width="2" />
  <line x1="1220.0" y1="102.42640687119274" x2="1400.0" y2="102.42640687119274" stroke="blue" stroke-width="2" />
  <line x1="1400.0" y1="102.42640687119274" x2="1420.0" y2="102.42640687119274" stroke="red" stroke-width="2" />
  <line x1="1420.0" y1="102.42640687119274" x2="1600.0" y2="102.42640687119274" stroke="blue" stroke-width="2" />
  <line x1="0.0" y1="102.42640687119274" x2="0.0" y2="0.0" stroke="black" stroke-width="3" />
  <line x1="20.000000000000007" y1="102.42640687119274" x2="50.0" y2="0.0" stroke="red" stroke-width="2" />
  <line x1="200.0" y1="102.42640687119274" x2="200.0" y2="0.0" stroke="blue" stroke-width="2" />
  <line x1="220.00000000000003" y1="102.42640687119274" x2="250.0" y2="0.0" stroke="red" stroke-width="2" />
  <line x1="400.0" y1="102.42640687119274" x2="400.0" y2="0.0" stroke="blue" stroke-width="2" />
  <line x1="420.0" y1="102.42640687119274" x2="450.0" y2="0.0" stroke="red" stroke-width="2" />
  <line x1="600.0" y1="102.42640687119274" x2="600.0" y2="0.0" stroke="blue" stroke-width="2" />
  <line x1="620.0" y1="102.42640687119274" x2="650.0" y2="0.0" stroke="red" stroke-width="2" />
  <line x1="800.0" y1="102.42640687119274" x2="800.0" y2="0.0" stroke="blue" stroke-width="2" />
  <line x1="819.9999999999999" y1="102.42640687119274" x2="850.0" y2="0.0" stroke="red" stroke-width="2" />
  <line x1="1000.0" y1="102.42640687119274" x2="1000.0" y2="0.0" stroke="blue" stroke-width="2" />
  <line x1="1019.9999999999999" y1="102.42640687119274" x2="1050.0" y2="0.0" stroke="red" stroke-width="2" />
  <line x1="1200.0" y1="102.42640687119274" x2="1200.0" y2="0.0" stroke="blue" stroke-width="2" />
  <line x1="1220.0" y1="102.42640687119274" x2="1250.0" y2="0.0" stroke="red" stroke-width="2" />
  <line x1="1400.0" y1="102.42640687119274" x2="1400.0" y2="0.0" stroke="blue" stroke-width="2" />
  <line x1="1420.0" y1="102.42640687119274" x2="1450.0" y2="0.0" stroke="red" stroke-width="2" />
  <line x1="1600.0" y1="102.42640687119274" x2="1600.0" y2="0.0" stroke="black" stroke-width="3" />
  <line x1="0.0" y1="0.0" x2="50.0" y2="0.0" stroke="black" stroke-width="3" />
  <line x1="50.0" y1="0.0" x2="200.0" y2="0.0" stroke="black" stroke-width="3" />
  <line x1="200.0" y1="0.0" x2="250.0" y2="0.0" stroke="black" stroke-width="3" />
  <line x1="250.0" y1="0.0" x2="400.0" y2="0.0" stroke="black" stroke-width="3" />
  <line x1="400.0" y1="0.0" x2="450.0" y2="0.0" stroke="black" stroke-width="3" />
  <line x1="450.0" y1="0.0" x2="600.0" y2="0.0" stroke="black" stroke-width="3" />
  <line x1="600.0" y1="0.0" x2="650.0" y2="0.0" stroke="black" stroke-width="3" />
  <line x1="650.0" y1="0.0" x2="800.0" y2="0.0" stroke="black" stroke-width="3" />
  <line x1="800.0" y1="0.0" x2="850.0" y2="0.0" stroke="black" stroke-width="3" />
  <line x1="850.0" y1="0.0" x2="1000.0" y2="0.0" stroke="black" stroke-width="3" />
  <line x1="1000.0" y1="0.0" x2="1050.0" y2="0.0" stroke="black" stroke-width="3" />
  <line x1="1050.0" y1="0.0" x2="1200.0" y2="0.0" stroke="black" stroke-width="3" />
  <line x1="1200.0" y1="0.0" x2="1250.0" y2="0.0" stroke="black" stroke-width="3" />
  <line x1="1250.0" y1="0.0" x2="1400.0" y2="0.0" stroke="black" stroke-width="3" />
  <line x1="1400.0" y1="0.0" x2="1450.0" y2="0.0" stroke="black" stroke-width="3" />
  <line x1="1450.0" y1="0.0" x2="1600.0" y2="0.0" stroke="black" stroke-width="3" />
</g>
</svg>