<?xml version="1.0" encoding="UTF-8" standalone="no"?>
<svg 
  xmlns="http://www.w3.org/2000/svg"
  id="svg8"
  version="1.1" 
  height="19.639602774453216mm" 
  width="80.0mm">
<g>
  <line x1="0.0mm" y1="19.639602774453216mm" x2="5.0mm" y2="19.639602774453216mm" stroke="black" stroke-width="2" />
  <line x1="5.0mm" y1="19.639602774453216mm" x2="20.0mm" y2="19.639602774453216mm" stroke="black" stroke-width="2" />
  <line x1="20.0mm" y1="19.639602774453216mm" x2="25.0mm" y2="19.639602774453216mm" stroke="black" stroke-width="2" />
  <line x1="25.0mm" y1="19.639602774453216mm" x2="40.0mm" y2="19.639602774453216mm" stroke="black" stroke-width="2" />
  <line x1="40.0mm" y1="19.639602774453216mm" x2="45.0mm" y2="19.639602774453216mm" stroke="black" stroke-width="2" />
  <line x1="45.0mm" y1="19.639602774453216mm" x2="60.0mm" y2="19.639602774453216mm" stroke="black" stroke-width="2" />
  <line x1="60.0mm" y1="19.639602774453216mm" x2="65.0mm" y2="19.639602774453216mm" stroke="black" stroke-width="2" />
  <line x1="65.0mm" y1="19.639602774453216mm" x2="80.0mm" y2="19.639602774453216mm" stroke="black" stroke-width="2" />
  <line x1="0.0mm" y1="19.639602774453216mm" x2="0.0mm" y2="10.910891700157418mm" stroke="black" stroke-width="2" />
  <line x1="5.0mm" y1="19.639602774453216mm" x2="5.0mm" y2="13.093069468726778mm" stroke="red" stroke-width="1.5" />
  <line x1="20.0mm" y1="19.639602774453216mm" x2="20.0mm" y2="13.093069468727473mm" stroke="blue" stroke-width="1.5" />
  <line x1="25.0mm" y1="19.639602774453216mm" x2="25.0mm" y2="13.09306946872724mm" stroke="red" stroke-width="1.5" />
  <line x1="40.0mm" y1="19.639602774453216mm" x2="40.0mm" y2="19.639602774453216mm" stroke="blue" stroke-width="1.5" />
  <line x1="45.0mm" y1="19.639602774453216mm" x2="45.0mm" y2="17.45742500587789mm" stroke="red" stroke-width="1.5" />
  <line x1="60.0mm" y1="19.639602774453216mm" x2="60.0mm" y2="17.4574250058593mm" stroke="blue" stroke-width="1.5" />
  <line x1="65.0mm" y1="19.639602774453216mm" x2="65.0mm" y2="17.457425005865495mm" stroke="red" stroke-width="1.5" />
  <line x1="80.0mm" y1="19.639602774453216mm" x2="80.0mm" y2="10.910891700157418mm" stroke="black" stroke-width="2" />
  <line x1="0.0mm" y1="10.910891700157418mm" x2="5.0mm" y2="13.093069468726778mm" stroke="red" stroke-width="1.5" />
  <line x1="5.0mm" y1="13.093069468726778mm" x2="20.0mm" y2="13.093069468727473mm" stroke="blue" stroke-width="1.5" />
  <line x1="20.0mm" y1="13.093069468727473mm" x2="25.0mm" y2="13.09306946872724mm" stroke="red" stroke-width="1.5" />
  <line x1="25.0mm" y1="13.09306946872724mm" x2="40.0mm" y2="19.639602774453216mm" stroke="blue" stroke-width="1.5" />
  <line x1="40.0mm" y1="19.639602774453216mm" x2="45.0mm" y2="17.45742500587789mm" stroke="red" stroke-width="1.5" />
  <line x1="45.0mm" y1="17.45742500587789mm" x2="60.0mm" y2="17.4574250058593mm" stroke="blue" stroke-width="1.5" />
  <line x1="60.0mm" y1="17.4574250058593mm" x2="65.0mm" y2="17.457425005865495mm" stroke="red" stroke-width="1.5" />
  <line x1="65.0mm" y1="17.457425005865495mm" x2="80.0mm" y2="10.910891700157418mm" stroke="blue" stroke-width="1.5" />
  <line x1="0.0mm" y1="10.910891700157418mm" x2="0.0mm" y2="9.819801387295065mm" stroke="black" stroke-width="2" />
  <line x1="5.0mm" y1="13.093069468726778mm" x2="10.0mm" y2="9.819801387295065mm" stroke="red" stroke-width="1.5" />
  <line x1="20.0mm" y1="13.093069468727473mm" x2="20.0mm" y2="9.819801387295065mm" stroke="blue" stroke-width="1.5" />
  <line x1="25.0mm" y1="13.09306946872724mm" x2="30.0mm" y2="9.819801387295065mm" stroke="red" stroke-width="1.5" />
  <line x1="40.0mm" y1="19.639602774453216mm" x2="40.0mm" y2="9.819801387295065mm" stroke="blue" stroke-width="1.5" />
  <line x1="45.0mm" y1="17.45742500587789mm" x2="50.0mm" y2="9.819801387295065mm" stroke="red" stroke-width="1.5" />
  <line x1="60.0mm" y1="17.4574250058593mm" x2="60.0mm" y2="9.819801387295065mm" stroke="blue" stroke-width="1.5" />
  <line x1="65.0mm" y1="17.457425005865495mm" x2="70.0mm" y2="9.819801387295065mm" stroke="red" stroke-width="1.5" />
  <line x1="80.0mm" y1="10.910891700157418mm" x2="80.0mm" y2="9.819801387295065mm" stroke="black" stroke-width="2" />
  <line x1="0.0mm" y1="9.819801387295065mm" x2="0.0mm" y2="0.0mm" stroke="black" stroke-width="2" />
  <line x1="10.0mm" y1="9.819801387295065mm" x2="15.0mm" y2="6.54653330586631mm" stroke="red" stroke-width="1.5" />
  <line x1="20.0mm" y1="9.819801387295065mm" x2="20.0mm" y2="6.546533305866308mm" stroke="blue" stroke-width="1.5" />
  <line x1="30.0mm" y1="9.819801387295065mm" x2="35.0mm" y2="6.546533305866312mm" stroke="red" stroke-width="1.5" />
  <line x1="40.0mm" y1="9.819801387295065mm" x2="40.0mm" y2="8.728711074428018mm" stroke="blue" stroke-width="1.5" />
  <line x1="50.0mm" y1="9.819801387295065mm" x2="55.0mm" y2="2.1821777687429mm" stroke="red" stroke-width="1.5" />
  <line x1="60.0mm" y1="9.819801387295065mm" x2="60.0mm" y2="2.1821777688032995mm" stroke="blue" stroke-width="1.5" />
  <line x1="70.0mm" y1="9.819801387295065mm" x2="75.0mm" y2="2.182177768622104mm" stroke="red" stroke-width="1.5" />
  <line x1="80.0mm" y1="9.819801387295065mm" x2="80.0mm" y2="0.0mm" stroke="black" stroke-width="2" />
  <line x1="0.0mm" y1="0.0mm" x2="15.0mm" y2="6.54653330586631mm" stroke="blue" stroke-width="1.5" />
  <line x1="15.0mm" y1="6.54653330586631mm" x2="20.0mm" y2="6.546533305866308mm" stroke="red" stroke-width="1.5" />
  <line x1="20.0mm" y1="6.546533305866308mm" x2="35.0mm" y2="6.546533305866312mm" stroke="blue" stroke-width="1.5" />
  <line x1="35.0mm" y1="6.546533305866312mm" x2="40.0mm" y2="8.728711074428018mm" stroke="red" stroke-width="1.5" />
  <line x1="40.0mm" y1="8.728711074428018mm" x2="55.0mm" y2="2.1821777687429mm" stroke="blue" stroke-width="1.5" />
  <line x1="55.0mm" y1="2.1821777687429mm" x2="60.0mm" y2="2.1821777688032995mm" stroke="red" stroke-width="1.5" />
  <line x1="60.0mm" y1="2.1821777688032995mm" x2="75.0mm" y2="2.182177768622104mm" stroke="blue" stroke-width="1.5" />
  <line x1="75.0mm" y1="2.182177768622104mm" x2="80.0mm" y2="0.0mm" stroke="red" stroke-width="1.5" />
  <line x1="0.0mm" y1="0.0mm" x2="0.0mm" y2="0.0mm" stroke="black" stroke-width="2" />
  <line x1="15.0mm" y1="6.54653330586631mm" x2="15.0mm" y2="0.0mm" stroke="red" stroke-width="1.5" />
  <line x1="20.0mm" y1="6.546533305866308mm" x2="20.0mm" y2="0.0mm" stroke="blue" stroke-width="1.5" />
  <line x1="35.0mm" y1="6.546533305866312mm" x2="35.0mm" y2="0.0mm" stroke="red" stroke-width="1.5" />
  <line x1="40.0mm" y1="8.728711074428018mm" x2="40.0mm" y2="0.0mm" stroke="blue" stroke-width="1.5" />
  <line x1="55.0mm" y1="2.1821777687429mm" x2="55.0mm" y2="0.0mm" stroke="red" stroke-width="1.5" />
  <line x1="60.0mm" y1="2.1821777688032995mm" x2="60.0mm" y2="0.0mm" stroke="blue" stroke-width="1.5" />
  <line x1="75.0mm" y1="2.182177768622104mm" x2="75.0mm" y2="0.0mm" stroke="red" stroke-width="1.5" />
  <line x1="80.0mm" y1="0.0mm" x2="80.0mm" y2="0.0mm" stroke="black" stroke-width="2" />
  <line x1="0.0mm" y1="0.0mm" x2="15.0mm" y2="0.0mm" stroke="black" stroke-width="2" />
  <line x1="15.0mm" y1="0.0mm" x2="20.0mm" y2="0.0mm" stroke="black" stroke-width="2" />
  <line x1="20.0mm" y1="0.0mm" x2="35.0mm" y2="0.0mm" stroke="black" stroke-width="2" />
  <line x1="35.0mm" y1="0.0mm" x2="40.0mm" y2="0.0mm" stroke="black" stroke-width="2" />
  <line x1="40.0mm" y1="0.0mm" x2="55.0mm" y2="0.0mm" stroke="black" stroke-width="2" />
  <line x1="55.0mm" y1="0.0mm" x2="60.0mm" y2="0.0mm" stroke="black" stroke-width="2" />
  <line x1="60.0mm" y1="0.0mm" x2="75.0mm" y2="0.0mm" stroke="black" stroke-width="2" />
  <line x1="75.0mm" y1="0.0mm" x2="80.0mm" y2="0.0mm" stroke="black" stroke-width="2" />
</g>
</svg>