<?xml version="1.0" encoding="UTF-8" standalone="no"?>
<svg 
  xmlns="http://www.w3.org/2000/svg"
  id="svg8"
  version="1.1" 
  height="160.20586422380597mm" 
  width="160.0mm">
<g>
  <line x1="0.0mm" y1="160.20586422380597mm" x2="5.0mm" y2="160.20586422380597mm" stroke="black" stroke-width="2" />
  <line x1="5.0mm" y1="160.20586422380597mm" x2="20.0mm" y2="160.20586422380597mm" stroke="black" stroke-width="2" />
  <line x1="20.0mm" y1="160.20586422380597mm" x2="25.0mm" y2="160.20586422380597mm" stroke="black" stroke-width="2" />
  <line x1="25.0mm" y1="160.20586422380597mm" x2="40.0mm" y2="160.20586422380597mm" stroke="black" stroke-width="2" />
  <line x1="40.0mm" y1="160.20586422380597mm" x2="45.0mm" y2="160.20586422380597mm" stroke="black" stroke-width="2" />
  <line x1="45.0mm" y1="160.20586422380597mm" x2="60.0mm" y2="160.20586422380597mm" stroke="black" stroke-width="2" />
  <line x1="60.0mm" y1="160.20586422380597mm" x2="65.0mm" y2="160.20586422380597mm" stroke="black" stroke-width="2" />
  <line x1="65.0mm" y1="160.20586422380597mm" x2="80.0mm" y2="160.20586422380597mm" stroke="black" stroke-width="2" />
  <line x1="80.0mm" y1="160.20586422380597mm" x2="85.0mm" y2="160.20586422380597mm" stroke="black" stroke-width="2" />
  <line x1="85.0mm" y1="160.20586422380597mm" x2="100.0mm" y2="160.20586422380597mm" stroke="black" stroke-width="2" />
  <line x1="100.0mm" y1="160.20586422380597mm" x2="105.0mm" y2="160.20586422380597mm" stroke="black" stroke-width="2" />
  <line x1="105.0mm" y1="160.20586422380597mm" x2="120.0mm" y2="160.20586422380597mm" stroke="black" stroke-width="2" />
  <line x1="120.0mm" y1="160.20586422380597mm" x2="125.0mm" y2="160.20586422380597mm" stroke="black" stroke-width="2" />
  <line x1="125.0mm" y1="160.20586422380597mm" x2="140.0mm" y2="160.20586422380597mm" stroke="black" stroke-width="2" />
  <line x1="140.0mm" y1="160.20586422380597mm" x2="145.0mm" y2="160.20586422380597mm" stroke="black" stroke-width="2" />
  <line x1="145.0mm" y1="160.20586422380597mm" x2="160.0mm" y2="160.20586422380597mm" stroke="black" stroke-width="2" />
  <line x1="0.0mm" y1="160.20586422380597mm" x2="0.0mm" y2="149.96322353668668mm" stroke="black" stroke-width="2" />
  <line x1="5.0mm" y1="160.20586422380597mm" x2="2.000000000000001mm" y2="149.96322353668668mm" stroke="red" stroke-width="1.5" />
  <line x1="20.0mm" y1="160.20586422380597mm" x2="20.0mm" y2="149.96322353668668mm" stroke="blue" stroke-width="1.5" />
  <line x1="25.0mm" y1="160.20586422380597mm" x2="22.0mm" y2="149.96322353668668mm" stroke="red" stroke-width="1.5" />
  <line x1="40.0mm" y1="160.20586422380597mm" x2="40.0mm" y2="149.96322353668668mm" stroke="blue" stroke-width="1.5" />
  <line x1="45.0mm" y1="160.20586422380597mm" x2="42.0mm" y2="149.96322353668668mm" stroke="red" stroke-width="1.5" />
  <line x1="60.0mm" y1="160.20586422380597mm" x2="60.0mm" y2="149.96322353668668mm" stroke="blue" stroke-width="1.5" />
  <line x1="65.0mm" y1="160.20586422380597mm" x2="62.0mm" y2="149.96322353668668mm" stroke="red" stroke-width="1.5" />
  <line x1="80.0mm" y1="160.20586422380597mm" x2="80.0mm" y2="149.96322353668668mm" stroke="blue" stroke-width="1.5" />
  <line x1="85.0mm" y1="160.20586422380597mm" x2="82.0mm" y2="149.96322353668668mm" stroke="red" stroke-width="1.5" />
  <line x1="100.0mm" y1="160.20586422380597mm" x2="100.0mm" y2="149.96322353668668mm" stroke="blue" stroke-width="1.5" />
  <line x1="105.0mm" y1="160.20586422380597mm" x2="102.0mm" y2="149.96322353668668mm" stroke="red" stroke-width="1.5" />
  <line x1="120.0mm" y1="160.20586422380597mm" x2="120.0mm" y2="149.96322353668668mm" stroke="blue" stroke-width="1.5" />
  <line x1="125.0mm" y1="160.20586422380597mm" x2="122.0mm" y2="149.96322353668668mm" stroke="red" stroke-width="1.5" />
  <line x1="140.0mm" y1="160.20586422380597mm" x2="140.0mm" y2="149.96322353668668mm" stroke="blue" stroke-width="1.5" />
  <line x1="145.0mm" y1="160.20586422380597mm" x2="142.0mm" y2="149.96322353668668mm" stroke="red" stroke-width="1.5" />
  <line x1="160.0mm" y1="160.20586422380597mm" x2="160.0mm" y2="149.96322353668668mm" stroke="black" stroke-width="2" />
  <line x1="0.0mm" y1="149.96322353668668mm" x2="2.000000000000001mm" y2="149.96322353668668mm" stroke="red" stroke-width="1.5" />
  <line x1="2.000000000000001mm" y1="149.96322353668668mm" x2="20.0mm" y2="149.96322353668668mm" stroke="blue" stroke-width="1.5" />
  <line x1="20.0mm" y1="149.96322353668668mm" x2="22.0mm" y2="149.96322353668668mm" stroke="red" stroke-width="1.5" />
  <line x1="22.0mm" y1="149.96322353668668mm" x2="40.0mm" y2="149.96322353668668mm" stroke="blue" stroke-width="1.5" />
  <line x1="40.0mm" y1="149.96322353668668mm" x2="42.0mm" y2="149.96322353668668mm" stroke="red" stroke-width="1.5" />
  <line x1="42.0mm" y1="149.96322353668668mm" x2="60.0mm" y2="149.96322353668668mm" stroke="blue" stroke-width="1.5" />
  <line x1="60.0mm" y1="149.96322353668668mm" x2="62.0mm" y2="149.96322353668668mm" stroke="red" stroke-width="1.5" />
  <line x1="62.0mm" y1="149.96322353668668mm" x2="80.0mm" y2="149.96322353668668mm" stroke="blue" stroke-width="1.5" />
  <line x1="80.0mm" y1="149.96322353668668mm" x2="82.0mm" y2="149.96322353668668mm" stroke="red" stroke-width="1.5" />
  <line x1="82.0mm" y1="149.96322353668668mm" x2="100.0mm" y2="149.96322353668668mm" stroke="blue" stroke-width="1.5" />
  <line x1="100.0mm" y1="149.96322353668668mm" x2="102.0mm" y2="149.96322353668668mm" stroke="red" stroke-width="1.5" />
  <line x1="102.0mm" y1="149.96322353668668mm" x2="120.0mm" y2="149.96322353668668mm" stroke="blue" stroke-width="1.5" />
  <line x1="120.0mm" y1="149.96322353668668mm" x2="122.0mm" y2="149.96322353668668mm" stroke="red" stroke-width="1.5" />
  <line x1="122.0mm" y1="149.96322353668668mm" x2="140.0mm" y2="149.96322353668668mm" stroke="blue" stroke-width="1.5" />
  <line x1="140.0mm" y1="149.96322353668668mm" x2="142.0mm" y2="149.96322353668668mm" stroke="red" stroke-width="1.5" />
  <line x1="142.0mm" y1="149.96322353668668mm" x2="160.0mm" y2="149.96322353668668mm" stroke="blue" stroke-width="1.5" />
  <line x1="0.0mm" y1="149.96322353668668mm" x2="0.0mm" y2="136.96237528339668mm" stroke="black" stroke-width="2" />
  <line x1="2.000000000000001mm" y1="149.96322353668668mm" x2="9.99999999995449e-05mm" y2="136.96237528339668mm" stroke="red" stroke-width="1.5" />
  <line x1="20.0mm" y1="149.96322353668668mm" x2="20.0mm" y2="136.96237528339668mm" stroke="blue" stroke-width="1.5" />
  <line x1="22.0mm" y1="149.96322353668668mm" x2="20.0001mm" y2="136.96237528339668mm" stroke="red" stroke-width="1.5" />
  <line x1="40.0mm" y1="149.96322353668668mm" x2="40.0mm" y2="136.96237528339668mm" stroke="blue" stroke-width="1.5" />
  <line x1="42.0mm" y1="149.96322353668668mm" x2="40.000099999999996mm" y2="136.96237528339668mm" stroke="red" stroke-width="1.5" />
  <line x1="60.0mm" y1="149.96322353668668mm" x2="60.0mm" y2="136.96237528339668mm" stroke="blue" stroke-width="1.5" />
  <line x1="62.0mm" y1="149.96322353668668mm" x2="60.000099999999996mm" y2="136.96237528339668mm" stroke="red" stroke-width="1.5" />
  <line x1="80.0mm" y1="149.96322353668668mm" x2="80.0mm" y2="136.96237528339668mm" stroke="blue" stroke-width="1.5" />
  <line x1="82.0mm" y1="149.96322353668668mm" x2="80.0001mm" y2="136.96237528339668mm" stroke="red" stroke-width="1.5" />
  <line x1="100.0mm" y1="149.96322353668668mm" x2="100.0mm" y2="136.96237528339668mm" stroke="blue" stroke-width="1.5" />
  <line x1="102.0mm" y1="149.96322353668668mm" x2="100.0001mm" y2="136.96237528339668mm" stroke="red" stroke-width="1.5" />
  <line x1="120.0mm" y1="149.96322353668668mm" x2="120.0mm" y2="136.96237528339668mm" stroke="blue" stroke-width="1.5" />
  <line x1="122.0mm" y1="149.96322353668668mm" x2="120.0001mm" y2="136.96237528339668mm" stroke="red" stroke-width="1.5" />
  <line x1="140.0mm" y1="149.96322353668668mm" x2="140.0mm" y2="136.96237528339668mm" stroke="blue" stroke-width="1.5" />
  <line x1="142.0mm" y1="149.96322353668668mm" x2="140.0001mm" y2="136.96237528339668mm" stroke="red" stroke-width="1.5" />
  <line x1="160.0mm" y1="149.96322353668668mm" x2="160.0mm" y2="136.96237528339668mm" stroke="black" stroke-width="2" />
  <line x1="0.0mm" y1="136.96237528339668mm" x2="9.99999999995449e-05mm" y2="136.96237528339668mm" stroke="red" stroke-width="1.5" />
  <line x1="9.99999999995449e-05mm" y1="136.96237528339668mm" x2="20.0mm" y2="136.96237528339668mm" stroke="blue" stroke-width="1.5" />
  <line x1="20.0mm" y1="136.96237528339668mm" x2="20.0001mm" y2="136.96237528339668mm" stroke="red" stroke-width="1.5" />
  <line x1="20.0001mm" y1="136.96237528339668mm" x2="40.0mm" y2="136.96237528339668mm" stroke="blue" stroke-width="1.5" />
  <line x1="40.0mm" y1="136.96237528339668mm" x2="40.000099999999996mm" y2="136.96237528339668mm" stroke="red" stroke-width="1.5" />
  <line x1="40.000099999999996mm" y1="136.96237528339668mm" x2="60.0mm" y2="136.96237528339668mm" stroke="blue" stroke-width="1.5" />
  <line x1="60.0mm" y1="136.96237528339668mm" x2="60.000099999999996mm" y2="136.96237528339668mm" stroke="red" stroke-width="1.5" />
  <line x1="60.000099999999996mm" y1="136.96237528339668mm" x2="80.0mm" y2="136.96237528339668mm" stroke="blue" stroke-width="1.5" />
  <line x1="80.0mm" y1="136.96237528339668mm" x2="80.0001mm" y2="136.96237528339668mm" stroke="red" stroke-width="1.5" />
  <line x1="80.0001mm" y1="136.96237528339668mm" x2="100.0mm" y2="136.96237528339668mm" stroke="blue" stroke-width="1.5" />
  <line x1="100.0mm" y1="136.96237528339668mm" x2="100.0001mm" y2="136.96237528339668mm" stroke="red" stroke-width="1.5" />
  <line x1="100.0001mm" y1="136.96237528339668mm" x2="120.0mm" y2="136.96237528339668mm" stroke="blue" stroke-width="1.5" />
  <line x1="120.0mm" y1="136.96237528339668mm" x2="120.0001mm" y2="136.96237528339668mm" stroke="red" stroke-width="1.5" />
  <line x1="120.0001mm" y1="136.96237528339668mm" x2="140.0mm" y2="136.96237528339668mm" stroke="blue" stroke-width="1.5" />
  <line x1="140.0mm" y1="136.96237528339668mm" x2="140.0001mm" y2="136.96237528339668mm" stroke="red" stroke-width="1.5" />
  <line x1="140.0001mm" y1="136.96237528339668mm" x2="160.0mm" y2="136.96237528339668mm" stroke="blue" stroke-width="1.5" />
  <line x1="0.0mm" y1="136.96237528339668mm" x2="0.0mm" y2="115.88961100519111mm" stroke="black" stroke-width="2" />
  <line x1="9.99999999995449e-05mm" y1="136.96237528339668mm" x2="9.99999999995449e-05mm" y2="115.8896418658476mm" stroke="red" stroke-width="1.5" />
  <line x1="20.0mm" y1="136.96237528339668mm" x2="20.0mm" y2="115.88964186552266mm" stroke="blue" stroke-width="1.5" />
  <line x1="20.0001mm" y1="136.96237528339668mm" x2="20.0001mm" y2="115.88964186552266mm" stroke="red" stroke-width="1.5" />
  <line x1="40.0mm" y1="136.96237528339668mm" x2="40.0mm" y2="122.06174230078949mm" stroke="blue" stroke-width="1.5" />
  <line x1="40.000099999999996mm" y1="136.96237528339668mm" x2="40.000099999999996mm" y2="122.06171144013301mm" stroke="red" stroke-width="1.5" />
  <line x1="60.0mm" y1="136.96237528339668mm" x2="60.0mm" y2="130.790357906425mm" stroke="blue" stroke-width="1.5" />
  <line x1="60.000099999999996mm" y1="136.96237528339668mm" x2="60.000099999999996mm" y2="130.79031426297442mm" stroke="red" stroke-width="1.5" />
  <line x1="80.0mm" y1="136.96237528339668mm" x2="80.0mm" y2="136.96237528339668mm" stroke="blue" stroke-width="1.5" />
  <line x1="80.0001mm" y1="136.96237528339668mm" x2="80.0001mm" y2="136.9623444229373mm" stroke="red" stroke-width="1.5" />
  <line x1="100.0mm" y1="136.96237528339668mm" x2="100.0mm" y2="136.9623444229373mm" stroke="blue" stroke-width="1.5" />
  <line x1="100.0001mm" y1="136.96237528339668mm" x2="100.0001mm" y2="136.9623444229373mm" stroke="red" stroke-width="1.5" />
  <line x1="120.0mm" y1="136.96237528339668mm" x2="120.0mm" y2="130.79028340251503mm" stroke="blue" stroke-width="1.5" />
  <line x1="120.0001mm" y1="136.96237528339668mm" x2="120.0001mm" y2="130.79031426297442mm" stroke="red" stroke-width="1.5" />
  <line x1="140.0mm" y1="136.96237528339668mm" x2="140.0mm" y2="122.06166779668246mm" stroke="blue" stroke-width="1.5" />
  <line x1="140.0001mm" y1="136.96237528339668mm" x2="140.0001mm" y2="122.06171144013301mm" stroke="red" stroke-width="1.5" />
  <line x1="160.0mm" y1="136.96237528339668mm" x2="160.0mm" y2="115.88961100519111mm" stroke="black" stroke-width="2" />
  <line x1="0.0mm" y1="115.88961100519111mm" x2="9.99999999995449e-05mm" y2="115.8896418658476mm" stroke="red" stroke-width="1.5" />
  <line x1="9.99999999995449e-05mm" y1="115.8896418658476mm" x2="20.0mm" y2="115.88964186552266mm" stroke="blue" stroke-width="1.5" />
  <line x1="20.0mm" y1="115.88964186552266mm" x2="20.0001mm" y2="115.88964186552266mm" stroke="red" stroke-width="1.5" />
  <line x1="20.0001mm" y1="115.88964186552266mm" x2="40.0mm" y2="122.06174230078949mm" stroke="blue" stroke-width="1.5" />
  <line x1="40.0mm" y1="122.06174230078949mm" x2="40.000099999999996mm" y2="122.06171144013301mm" stroke="red" stroke-width="1.5" />
  <line x1="40.000099999999996mm" y1="122.06171144013301mm" x2="60.0mm" y2="130.790357906425mm" stroke="blue" stroke-width="1.5" />
  <line x1="60.0mm" y1="130.790357906425mm" x2="60.000099999999996mm" y2="130.79031426297442mm" stroke="red" stroke-width="1.5" />
  <line x1="60.000099999999996mm" y1="130.79031426297442mm" x2="80.0mm" y2="136.96237528339668mm" stroke="blue" stroke-width="1.5" />
  <line x1="80.0mm" y1="136.96237528339668mm" x2="80.0001mm" y2="136.9623444229373mm" stroke="red" stroke-width="1.5" />
  <line x1="80.0001mm" y1="136.9623444229373mm" x2="100.0mm" y2="136.9623444229373mm" stroke="blue" stroke-width="1.5" />
  <line x1="100.0mm" y1="136.9623444229373mm" x2="100.0001mm" y2="136.9623444229373mm" stroke="red" stroke-width="1.5" />
  <line x1="100.0001mm" y1="136.9623444229373mm" x2="120.0mm" y2="130.79028340251503mm" stroke="blue" stroke-width="1.5" />
  <line x1="120.0mm" y1="130.79028340251503mm" x2="120.0001mm" y2="130.79031426297442mm" stroke="red" stroke-width="1.5" />
  <line x1="120.0001mm" y1="130.79031426297442mm" x2="140.0mm" y2="122.06166779668246mm" stroke="blue" stroke-width="1.5" />
  <line x1="140.0mm" y1="122.06166779668246mm" x2="140.0001mm" y2="122.06171144013301mm" stroke="red" stroke-width="1.5" />
  <line x1="140.0001mm" y1="122.06171144013301mm" x2="160.0mm" y2="115.88961100519111mm" stroke="blue" stroke-width="1.5" />
  <line x1="0.0mm" y1="115.88961100519111mm" x2="0.0mm" y2="100.08506331609848mm" stroke="black" stroke-width="2" />
  <line x1="9.99999999995449e-05mm" y1="115.8896418658476mm" x2="10.0mm" y2="100.08506331609848mm" stroke="red" stroke-width="1.5" />
  <line x1="20.0mm" y1="115.88964186552266mm" x2="20.0mm" y2="100.08506331609848mm" stroke="blue" stroke-width="1.5" />
  <line x1="20.0001mm" y1="115.88964186552266mm" x2="30.0mm" y2="100.08506331609848mm" stroke="red" stroke-width="1.5" />
  <line x1="40.0mm" y1="122.06174230078949mm" x2="40.0mm" y2="100.08506331609848mm" stroke="blue" stroke-width="1.5" />
  <line x1="40.000099999999996mm" y1="122.06171144013301mm" x2="50.0mm" y2="100.08506331609848mm" stroke="red" stroke-width="1.5" />
  <line x1="60.0mm" y1="130.790357906425mm" x2="60.0mm" y2="100.08506331609848mm" stroke="blue" stroke-width="1.5" />
  <line x1="60.000099999999996mm" y1="130.79031426297442mm" x2="70.0mm" y2="100.08506331609848mm" stroke="red" stroke-width="1.5" />
  <line x1="80.0mm" y1="136.96237528339668mm" x2="80.0mm" y2="100.08506331609848mm" stroke="blue" stroke-width="1.5" />
  <line x1="80.0001mm" y1="136.9623444229373mm" x2="90.0mm" y2="100.08506331609848mm" stroke="red" stroke-width="1.5" />
  <line x1="100.0mm" y1="136.9623444229373mm" x2="100.0mm" y2="100.08506331609848mm" stroke="blue" stroke-width="1.5" />
  <line x1="100.0001mm" y1="136.9623444229373mm" x2="110.0mm" y2="100.08506331609848mm" stroke="red" stroke-width="1.5" />
  <line x1="120.0mm" y1="130.79028340251503mm" x2="120.0mm" y2="100.08506331609848mm" stroke="blue" stroke-width="1.5" />
  <line x1="120.0001mm" y1="130.79031426297442mm" x2="130.0mm" y2="100.08506331609848mm" stroke="red" stroke-width="1.5" />
  <line x1="140.0mm" y1="122.06166779668246mm" x2="140.0mm" y2="100.08506331609848mm" stroke="blue" stroke-width="1.5" />
  <line x1="140.0001mm" y1="122.06171144013301mm" x2="150.0mm" y2="100.08506331609848mm" stroke="red" stroke-width="1.5" />
  <line x1="160.0mm" y1="115.88961100519111mm" x2="160.0mm" y2="100.08506331609848mm" stroke="black" stroke-width="2" />
  <line x1="0.0mm" y1="100.08506331609848mm" x2="0.0mm" y2="87.55359525515588mm" stroke="black" stroke-width="2" />
  <line x1="10.0mm" y1="100.08506331609848mm" x2="15.0mm" y2="92.18269474052018mm" stroke="red" stroke-width="1.5" />
  <line x1="20.0mm" y1="100.08506331609848mm" x2="20.0mm" y2="92.18269474052018mm" stroke="blue" stroke-width="1.5" />
  <line x1="30.0mm" y1="100.08506331609848mm" x2="35.0mm" y2="92.18269474052018mm" stroke="red" stroke-width="1.5" />
  <line x1="40.0mm" y1="100.08506331609848mm" x2="40.0mm" y2="93.72572790230826mm" stroke="blue" stroke-width="1.5" />
  <line x1="50.0mm" y1="100.08506331609848mm" x2="55.0mm" y2="89.09662841694399mm" stroke="red" stroke-width="1.5" />
  <line x1="60.0mm" y1="100.08506331609848mm" x2="60.0mm" y2="91.27880413185153mm" stroke="blue" stroke-width="1.5" />
  <line x1="70.0mm" y1="100.08506331609848mm" x2="75.0mm" y2="84.73227698712888mm" stroke="red" stroke-width="1.5" />
  <line x1="80.0mm" y1="100.08506331609848mm" x2="80.0mm" y2="86.27530522197644mm" stroke="blue" stroke-width="1.5" />
  <line x1="90.0mm" y1="100.08506331609848mm" x2="95.0mm" y2="81.64622051743379mm" stroke="red" stroke-width="1.5" />
  <line x1="100.0mm" y1="100.08506331609848mm" x2="100.0mm" y2="81.64622051743379mm" stroke="blue" stroke-width="1.5" />
  <line x1="110.0mm" y1="100.08506331609848mm" x2="115.0mm" y2="81.64622051743379mm" stroke="red" stroke-width="1.5" />
  <line x1="120.0mm" y1="100.08506331609848mm" x2="120.0mm" y2="80.10319228258624mm" stroke="blue" stroke-width="1.5" />
  <line x1="130.0mm" y1="100.08506331609848mm" x2="135.0mm" y2="84.73227698712888mm" stroke="red" stroke-width="1.5" />
  <line x1="140.0mm" y1="100.08506331609848mm" x2="140.0mm" y2="82.55010127222134mm" stroke="blue" stroke-width="1.5" />
  <line x1="150.0mm" y1="100.08506331609848mm" x2="155.0mm" y2="89.09662841694399mm" stroke="red" stroke-width="1.5" />
  <line x1="160.0mm" y1="100.08506331609848mm" x2="160.0mm" y2="87.55359525515588mm" stroke="black" stroke-width="2" />
  <line x1="0.0mm" y1="87.55359525515588mm" x2="15.0mm" y2="92.18269474052018mm" stroke="blue" stroke-width="1.5" />
  <line x1="15.0mm" y1="92.18269474052018mm" x2="20.0mm" y2="92.18269474052018mm" stroke="red" stroke-width="1.5" />
  <line x1="20.0mm" y1="92.18269474052018mm" x2="35.0mm" y2="92.18269474052018mm" stroke="blue" stroke-width="1.5" />
  <line x1="35.0mm" y1="92.18269474052018mm" x2="40.0mm" y2="93.72572790230826mm" stroke="red" stroke-width="1.5" />
  <line x1="40.0mm" y1="93.72572790230826mm" x2="55.0mm" y2="89.09662841694399mm" stroke="blue" stroke-width="1.5" />
  <line x1="55.0mm" y1="89.09662841694399mm" x2="60.0mm" y2="91.27880413185153mm" stroke="red" stroke-width="1.5" />
  <line x1="60.0mm" y1="91.27880413185153mm" x2="75.0mm" y2="84.73227698712888mm" stroke="blue" stroke-width="1.5" />
  <line x1="75.0mm" y1="84.73227698712888mm" x2="80.0mm" y2="86.27530522197644mm" stroke="red" stroke-width="1.5" />
  <line x1="80.0mm" y1="86.27530522197644mm" x2="95.0mm" y2="81.64622051743379mm" stroke="blue" stroke-width="1.5" />
  <line x1="95.0mm" y1="81.64622051743379mm" x2="100.0mm" y2="81.64622051743379mm" stroke="red" stroke-width="1.5" />
  <line x1="100.0mm" y1="81.64622051743379mm" x2="115.0mm" y2="81.64622051743379mm" stroke="blue" stroke-width="1.5" />
  <line x1="115.0mm" y1="81.64622051743379mm" x2="120.0mm" y2="80.10319228258624mm" stroke="red" stroke-width="1.5" />
  <line x1="120.0mm" y1="80.10319228258624mm" x2="135.0mm" y2="84.73227698712888mm" stroke="blue" stroke-width="1.5" />
  <line x1="135.0mm" y1="84.73227698712888mm" x2="140.0mm" y2="82.55010127222134mm" stroke="red" stroke-width="1.5" />
  <line x1="140.0mm" y1="82.55010127222134mm" x2="155.0mm" y2="89.09662841694399mm" stroke="blue" stroke-width="1.5" />
  <line x1="155.0mm" y1="89.09662841694399mm" x2="160.0mm" y2="87.55359525515588mm" stroke="red" stroke-width="1.5" />
  <line x1="0.0mm" y1="87.55359525515588mm" x2="0.0mm" y2="80.10319228258624mm" stroke="black" stroke-width="2" />
  <line x1="15.0mm" y1="92.18269474052018mm" x2="15.0mm" y2="80.10319228258624mm" stroke="red" stroke-width="1.5" />
  <line x1="20.0mm" y1="92.18269474052018mm" x2="20.0mm" y2="80.10319228258624mm" stroke="blue" stroke-width="1.5" />
  <line x1="35.0mm" y1="92.18269474052018mm" x2="35.0mm" y2="80.10319228258624mm" stroke="red" stroke-width="1.5" />
  <line x1="40.0mm" y1="93.72572790230826mm" x2="40.0mm" y2="80.10319228258624mm" stroke="blue" stroke-width="1.5" />
  <line x1="55.0mm" y1="89.09662841694399mm" x2="55.0mm" y2="80.10319228258624mm" stroke="red" stroke-width="1.5" />
  <line x1="60.0mm" y1="91.27880413185153mm" x2="60.0mm" y2="80.10319228258624mm" stroke="blue" stroke-width="1.5" />
  <line x1="75.0mm" y1="84.73227698712888mm" x2="75.0mm" y2="80.10319228258624mm" stroke="red" stroke-width="1.5" />
  <line x1="80.0mm" y1="86.27530522197644mm" x2="80.0mm" y2="80.10319228258624mm" stroke="blue" stroke-width="1.5" />
  <line x1="95.0mm" y1="81.64622051743379mm" x2="95.0mm" y2="80.10319228258624mm" stroke="red" stroke-width="1.5" />
  <line x1="100.0mm" y1="81.64622051743379mm" x2="100.0mm" y2="80.10319228258624mm" stroke="blue" stroke-width="1.5" />
  <line x1="115.0mm" y1="81.64622051743379mm" x2="115.0mm" y2="80.10319228258624mm" stroke="red" stroke-width="1.5" />
  <line x1="120.0mm" y1="80.10319228258624mm" x2="120.0mm" y2="80.10319228258624mm" stroke="blue" stroke-width="1.5" />
  <line x1="135.0mm" y1="84.73227698712888mm" x2="135.0mm" y2="80.10319228258624mm" stroke="red" stroke-width="1.5" />
  <line x1="140.0mm" y1="82.55010127222134mm" x2="140.0mm" y2="80.10319228258624mm" stroke="blue" stroke-width="1.5" />
  <line x1="155.0mm" y1="89.09662841694399mm" x2="155.0mm" y2="80.10319228258624mm" stroke="red" stroke-width="1.5" />
  <line x1="160.0mm" y1="87.55359525515588mm" x2="160.0mm" y2="80.10319228258624mm" stroke="black" stroke-width="2" />
  <line x1="0.0mm" y1="80.10319228258624mm" x2="15.0mm" y2="80.10319228258624mm" stroke="gray" stroke-width="0.3" />
  <line x1="15.0mm" y1="80.10319228258624mm" x2="20.0mm" y2="80.10319228258624mm" stroke="gray" stroke-width="0.3" />
  <line x1="20.0mm" y1="80.10319228258624mm" x2="35.0mm" y2="80.10319228258624mm" stroke="gray" stroke-width="0.3" />
  <line x1="35.0mm" y1="80.10319228258624mm" x2="40.0mm" y2="80.10319228258624mm" stroke="gray" stroke-width="0.3" />
  <line x1="40.0mm" y1="80.10319228258624mm" x2="55.0mm" y2="80.10319228258624mm" stroke="gray" stroke-width="0.3" />
  <line x1="55.0mm" y1="80.10319228258624mm" x2="60.0mm" y2="80.10319228258624mm" stroke="gray" stroke-width="0.3" />
  <line x1="60.0mm" y1="80.10319228258624mm" x2="75.0mm" y2="80.10319228258624mm" stroke="gray" stroke-width="0.3" />
  <line x1="75.0mm" y1="80.10319228258624mm" x2="80.0mm" y2="80.10319228258624mm" stroke="gray" stroke-width="0.3" />
  <line x1="80.0mm" y1="80.10319228258624mm" x2="95.0mm" y2="80.10319228258624mm" stroke="gray" stroke-width="0.3" />
  <line x1="95.0mm" y1="80.10319228258624mm" x2="100.0mm" y2="80.10319228258624mm" stroke="gray" stroke-width="0.3" />
  <line x1="100.0mm" y1="80.10319228258624mm" x2="115.0mm" y2="80.10319228258624mm" stroke="gray" stroke-width="0.3" />
  <line x1="115.0mm" y1="80.10319228258624mm" x2="120.0mm" y2="80.10319228258624mm" stroke="gray" stroke-width="0.3" />
  <line x1="120.0mm" y1="80.10319228258624mm" x2="135.0mm" y2="80.10319228258624mm" stroke="gray" stroke-width="0.3" />
  <line x1="135.0mm" y1="80.10319228258624mm" x2="140.0mm" y2="80.10319228258624mm" stroke="gray" stroke-width="0.3" />
  <line x1="140.0mm" y1="80.10319228258624mm" x2="155.0mm" y2="80.10319228258624mm" stroke="gray" stroke-width="0.3" />
  <line x1="155.0mm" y1="80.10319228258624mm" x2="160.0mm" y2="80.10319228258624mm" stroke="gray" stroke-width="0.3" />
  <line x1="0.0mm" y1="80.10319228258624mm" x2="0.0mm" y2="80.1031922825862mm" stroke="black" stroke-width="2" />
  <line x1="15.0mm" y1="80.10319228258624mm" x2="15.0mm" y2="75.47409199344999mm" stroke="red" stroke-width="1.5" />
  <line x1="20.0mm" y1="80.10319228258624mm" x2="20.0mm" y2="77.65627286608927mm" stroke="blue" stroke-width="1.5" />
  <line x1="35.0mm" y1="80.10319228258624mm" x2="35.0mm" y2="71.10973024817139mm" stroke="red" stroke-width="1.5" />
  <line x1="40.0mm" y1="80.10319228258624mm" x2="40.0mm" y2="72.6527655085801mm" stroke="blue" stroke-width="1.5" />
  <line x1="55.0mm" y1="80.10319228258624mm" x2="55.0mm" y2="68.02365972735399mm" stroke="red" stroke-width="1.5" />
  <line x1="60.0mm" y1="80.10319228258624mm" x2="60.0mm" y2="68.02365972735399mm" stroke="blue" stroke-width="1.5" />
  <line x1="75.0mm" y1="80.10319228258624mm" x2="75.0mm" y2="68.02365972735399mm" stroke="red" stroke-width="1.5" />
  <line x1="80.0mm" y1="80.10319228258624mm" x2="80.0mm" y2="66.48062446694533mm" stroke="blue" stroke-width="1.5" />
  <line x1="95.0mm" y1="80.10319228258624mm" x2="95.0mm" y2="71.10973024817139mm" stroke="red" stroke-width="1.5" />
  <line x1="100.0mm" y1="80.10319228258624mm" x2="100.0mm" y2="68.92754937552988mm" stroke="blue" stroke-width="1.5" />
  <line x1="115.0mm" y1="80.10319228258624mm" x2="115.0mm" y2="75.4740919934544mm" stroke="red" stroke-width="1.5" />
  <line x1="120.0mm" y1="80.10319228258624mm" x2="120.0mm" y2="73.93105856374453mm" stroke="blue" stroke-width="1.5" />
  <line x1="135.0mm" y1="80.10319228258624mm" x2="135.0mm" y2="78.56015885287414mm" stroke="red" stroke-width="1.5" />
  <line x1="140.0mm" y1="80.10319228258624mm" x2="140.0mm" y2="78.56015885287414mm" stroke="blue" stroke-width="1.5" />
  <line x1="155.0mm" y1="80.10319228258624mm" x2="155.0mm" y2="78.56015885287414mm" stroke="red" stroke-width="1.5" />
  <line x1="160.0mm" y1="80.10319228258624mm" x2="160.0mm" y2="80.1031922825862mm" stroke="black" stroke-width="2" />
  <line x1="0.0mm" y1="80.1031922825862mm" x2="15.0mm" y2="75.47409199344999mm" stroke="blue" stroke-width="1.5" />
  <line x1="15.0mm" y1="75.47409199344999mm" x2="20.0mm" y2="77.65627286608927mm" stroke="red" stroke-width="1.5" />
  <line x1="20.0mm" y1="77.65627286608927mm" x2="35.0mm" y2="71.10973024817139mm" stroke="blue" stroke-width="1.5" />
  <line x1="35.0mm" y1="71.10973024817139mm" x2="40.0mm" y2="72.6527655085801mm" stroke="red" stroke-width="1.5" />
  <line x1="40.0mm" y1="72.6527655085801mm" x2="55.0mm" y2="68.02365972735399mm" stroke="blue" stroke-width="1.5" />
  <line x1="55.0mm" y1="68.02365972735399mm" x2="60.0mm" y2="68.02365972735399mm" stroke="red" stroke-width="1.5" />
  <line x1="60.0mm" y1="68.02365972735399mm" x2="75.0mm" y2="68.02365972735399mm" stroke="blue" stroke-width="1.5" />
  <line x1="75.0mm" y1="68.02365972735399mm" x2="80.0mm" y2="66.48062446694533mm" stroke="red" stroke-width="1.5" />
  <line x1="80.0mm" y1="66.48062446694533mm" x2="95.0mm" y2="71.10973024817139mm" stroke="blue" stroke-width="1.5" />
  <line x1="95.0mm" y1="71.10973024817139mm" x2="100.0mm" y2="68.92754937552988mm" stroke="red" stroke-width="1.5" />
  <line x1="100.0mm" y1="68.92754937552988mm" x2="115.0mm" y2="75.4740919934544mm" stroke="blue" stroke-width="1.5" />
  <line x1="115.0mm" y1="75.4740919934544mm" x2="120.0mm" y2="73.93105856374453mm" stroke="red" stroke-width="1.5" />
  <line x1="120.0mm" y1="73.93105856374453mm" x2="135.0mm" y2="78.56015885287414mm" stroke="blue" stroke-width="1.5" />
  <line x1="135.0mm" y1="78.56015885287414mm" x2="140.0mm" y2="78.56015885287414mm" stroke="red" stroke-width="1.5" />
  <line x1="140.0mm" y1="78.56015885287414mm" x2="155.0mm" y2="78.56015885287414mm" stroke="blue" stroke-width="1.5" />
  <line x1="155.0mm" y1="78.56015885287414mm" x2="160.0mm" y2="80.1031922825862mm" stroke="red" stroke-width="1.5" />
  <line x1="0.0mm" y1="80.1031922825862mm" x2="0.0mm" y2="60.121296323682486mm" stroke="black" stroke-width="2" />
  <line x1="15.0mm" y1="75.47409199344999mm" x2="10.0mm" y2="60.121296323682486mm" stroke="red" stroke-width="1.5" />
  <line x1="20.0mm" y1="77.65627286608927mm" x2="20.0mm" y2="60.121296323682486mm" stroke="blue" stroke-width="1.5" />
  <line x1="35.0mm" y1="71.10973024817139mm" x2="30.0mm" y2="60.121296323682486mm" stroke="red" stroke-width="1.5" />
  <line x1="40.0mm" y1="72.6527655085801mm" x2="40.0mm" y2="60.121296323682486mm" stroke="blue" stroke-width="1.5" />
  <line x1="55.0mm" y1="68.02365972735399mm" x2="50.0mm" y2="60.121296323682486mm" stroke="red" stroke-width="1.5" />
  <line x1="60.0mm" y1="68.02365972735399mm" x2="60.0mm" y2="60.121296323682486mm" stroke="blue" stroke-width="1.5" />
  <line x1="75.0mm" y1="68.02365972735399mm" x2="70.0mm" y2="60.121296323682486mm" stroke="red" stroke-width="1.5" />
  <line x1="80.0mm" y1="66.48062446694533mm" x2="80.0mm" y2="60.121296323682486mm" stroke="blue" stroke-width="1.5" />
  <line x1="95.0mm" y1="71.10973024817139mm" x2="90.0mm" y2="60.121296323682486mm" stroke="red" stroke-width="1.5" />
  <line x1="100.0mm" y1="68.92754937552988mm" x2="100.0mm" y2="60.121296323682486mm" stroke="blue" stroke-width="1.5" />
  <line x1="115.0mm" y1="75.4740919934544mm" x2="110.0mm" y2="60.121296323682486mm" stroke="red" stroke-width="1.5" />
  <line x1="120.0mm" y1="73.93105856374453mm" x2="120.0mm" y2="60.121296323682486mm" stroke="blue" stroke-width="1.5" />
  <line x1="135.0mm" y1="78.56015885287414mm" x2="130.0mm" y2="60.121296323682486mm" stroke="red" stroke-width="1.5" />
  <line x1="140.0mm" y1="78.56015885287414mm" x2="140.0mm" y2="60.121296323682486mm" stroke="blue" stroke-width="1.5" />
  <line x1="155.0mm" y1="78.56015885287414mm" x2="150.0mm" y2="60.121296323682486mm" stroke="red" stroke-width="1.5" />
  <line x1="160.0mm" y1="80.1031922825862mm" x2="160.0mm" y2="60.121296323682486mm" stroke="black" stroke-width="2" />
  <line x1="0.0mm" y1="60.121296323682486mm" x2="0.0mm" y2="29.41570740365765mm" stroke="black" stroke-width="2" />
  <line x1="10.0mm" y1="60.121296323682486mm" x2="1.1102230246251565e-15mm" y2="29.41570740365765mm" stroke="red" stroke-width="1.5" />
  <line x1="20.0mm" y1="60.121296323682486mm" x2="20.0mm" y2="38.14443221621721mm" stroke="blue" stroke-width="1.5" />
  <line x1="30.0mm" y1="60.121296323682486mm" x2="20.0mm" y2="38.14443221621721mm" stroke="red" stroke-width="1.5" />
  <line x1="40.0mm" y1="60.121296323682486mm" x2="40.0mm" y2="44.316575663240656mm" stroke="blue" stroke-width="1.5" />
  <line x1="50.0mm" y1="60.121296323682486mm" x2="40.0mm" y2="44.316575663240656mm" stroke="red" stroke-width="1.5" />
  <line x1="60.0mm" y1="60.121296323682486mm" x2="60.0mm" y2="44.316575663240656mm" stroke="blue" stroke-width="1.5" />
  <line x1="70.0mm" y1="60.121296323682486mm" x2="60.0mm" y2="44.316575663240656mm" stroke="red" stroke-width="1.5" />
  <line x1="80.0mm" y1="60.121296323682486mm" x2="80.0mm" y2="38.14443221621721mm" stroke="blue" stroke-width="1.5" />
  <line x1="90.0mm" y1="60.121296323682486mm" x2="80.0mm" y2="38.14443221621721mm" stroke="red" stroke-width="1.5" />
  <line x1="100.0mm" y1="60.121296323682486mm" x2="100.0mm" y2="29.41570740365765mm" stroke="blue" stroke-width="1.5" />
  <line x1="110.0mm" y1="60.121296323682486mm" x2="100.0mm" y2="29.41570740365765mm" stroke="red" stroke-width="1.5" />
  <line x1="120.0mm" y1="60.121296323682486mm" x2="120.0mm" y2="23.2435786001177mm" stroke="blue" stroke-width="1.5" />
  <line x1="130.0mm" y1="60.121296323682486mm" x2="120.0mm" y2="23.2435786001177mm" stroke="red" stroke-width="1.5" />
  <line x1="140.0mm" y1="60.121296323682486mm" x2="140.0mm" y2="23.2435786001177mm" stroke="blue" stroke-width="1.5" />
  <line x1="150.0mm" y1="60.121296323682486mm" x2="140.0mm" y2="23.2435786001177mm" stroke="red" stroke-width="1.5" />
  <line x1="160.0mm" y1="60.121296323682486mm" x2="160.0mm" y2="29.41570740365765mm" stroke="black" stroke-width="2" />
  <line x1="0.0mm" y1="29.41570740365765mm" x2="1.1102230246251565e-15mm" y2="29.41570740365765mm" stroke="red" stroke-width="1.5" />
  <line x1="1.1102230246251565e-15mm" y1="29.41570740365765mm" x2="20.0mm" y2="38.14443221621721mm" stroke="blue" stroke-width="1.5" />
  <line x1="20.0mm" y1="38.14443221621721mm" x2="20.0mm" y2="38.14443221621721mm" stroke="red" stroke-width="1.5" />
  <line x1="20.0mm" y1="38.14443221621721mm" x2="40.0mm" y2="44.316575663240656mm" stroke="blue" stroke-width="1.5" />
  <line x1="40.0mm" y1="44.316575663240656mm" x2="40.0mm" y2="44.316575663240656mm" stroke="red" stroke-width="1.5" />
  <line x1="40.0mm" y1="44.316575663240656mm" x2="60.0mm" y2="44.316575663240656mm" stroke="blue" stroke-width="1.5" />
  <line x1="60.0mm" y1="44.316575663240656mm" x2="60.0mm" y2="44.316575663240656mm" stroke="red" stroke-width="1.5" />
  <line x1="60.0mm" y1="44.316575663240656mm" x2="80.0mm" y2="38.14443221621721mm" stroke="blue" stroke-width="1.5" />
  <line x1="80.0mm" y1="38.14443221621721mm" x2="80.0mm" y2="38.14443221621721mm" stroke="red" stroke-width="1.5" />
  <line x1="80.0mm" y1="38.14443221621721mm" x2="100.0mm" y2="29.41570740365765mm" stroke="blue" stroke-width="1.5" />
  <line x1="100.0mm" y1="29.41570740365765mm" x2="100.0mm" y2="29.41570740365765mm" stroke="red" stroke-width="1.5" />
  <line x1="100.0mm" y1="29.41570740365765mm" x2="120.0mm" y2="23.2435786001177mm" stroke="blue" stroke-width="1.5" />
  <line x1="120.0mm" y1="23.2435786001177mm" x2="120.0mm" y2="23.2435786001177mm" stroke="red" stroke-width="1.5" />
  <line x1="120.0mm" y1="23.2435786001177mm" x2="140.0mm" y2="23.2435786001177mm" stroke="blue" stroke-width="1.5" />
  <line x1="140.0mm" y1="23.2435786001177mm" x2="140.0mm" y2="23.2435786001177mm" stroke="red" stroke-width="1.5" />
  <line x1="140.0mm" y1="23.2435786001177mm" x2="160.0mm" y2="29.41570740365765mm" stroke="blue" stroke-width="1.5" />
  <line x1="0.0mm" y1="29.41570740365765mm" x2="0.0mm" y2="23.2435786001177mm" stroke="black" stroke-width="2" />
  <line x1="1.1102230246251565e-15mm" y1="29.41570740365765mm" x2="1.1102230246251565e-15mm" y2="23.2435786001177mm" stroke="red" stroke-width="1.5" />
  <line x1="20.0mm" y1="38.14443221621721mm" x2="20.0mm" y2="23.2435786001177mm" stroke="blue" stroke-width="1.5" />
  <line x1="20.0mm" y1="38.14443221621721mm" x2="20.0mm" y2="23.2435786001177mm" stroke="red" stroke-width="1.5" />
  <line x1="40.0mm" y1="44.316575663240656mm" x2="40.0mm" y2="23.2435786001177mm" stroke="blue" stroke-width="1.5" />
  <line x1="40.0mm" y1="44.316575663240656mm" x2="40.0mm" y2="23.2435786001177mm" stroke="red" stroke-width="1.5" />
  <line x1="60.0mm" y1="44.316575663240656mm" x2="60.0mm" y2="23.2435786001177mm" stroke="blue" stroke-width="1.5" />
  <line x1="60.0mm" y1="44.316575663240656mm" x2="60.0mm" y2="23.2435786001177mm" stroke="red" stroke-width="1.5" />
  <line x1="80.0mm" y1="38.14443221621721mm" x2="80.0mm" y2="23.2435786001177mm" stroke="blue" stroke-width="1.5" />
  <line x1="80.0mm" y1="38.14443221621721mm" x2="80.0mm" y2="23.2435786001177mm" stroke="red" stroke-width="1.5" />
  <line x1="100.0mm" y1="29.41570740365765mm" x2="100.0mm" y2="23.2435786001177mm" stroke="blue" stroke-width="1.5" />
  <line x1="100.0mm" y1="29.41570740365765mm" x2="100.0mm" y2="23.2435786001177mm" stroke="red" stroke-width="1.5" />
  <line x1="120.0mm" y1="23.2435786001177mm" x2="120.0mm" y2="23.2435786001177mm" stroke="blue" stroke-width="1.5" />
  <line x1="120.0mm" y1="23.2435786001177mm" x2="120.0mm" y2="23.2435786001177mm" stroke="red" stroke-width="1.5" />
  <line x1="140.0mm" y1="23.2435786001177mm" x2="140.0mm" y2="23.2435786001177mm" stroke="blue" stroke-width="1.5" />
  <line x1="140.0mm" y1="23.2435786001177mm" x2="140.0mm" y2="23.2435786001177mm" stroke="red" stroke-width="1.5" />
  <line x1="160.0mm" y1="29.41570740365765mm" x2="160.0mm" y2="23.2435786001177mm" stroke="black" stroke-width="2" />
  <line x1="0.0mm" y1="23.2435786001177mm" x2="1.1102230246251565e-15mm" y2="23.2435786001177mm" stroke="red" stroke-width="1.5" />
  <line x1="1.1102230246251565e-15mm" y1="23.2435786001177mm" x2="20.0mm" y2="23.2435786001177mm" stroke="blue" stroke-width="1.5" />
  <line x1="20.0mm" y1="23.2435786001177mm" x2="20.0mm" y2="23.2435786001177mm" stroke="red" stroke-width="1.5" />
  <line x1="20.0mm" y1="23.2435786001177mm" x2="40.0mm" y2="23.2435786001177mm" stroke="blue" stroke-width="1.5" />
  <line x1="40.0mm" y1="23.2435786001177mm" x2="40.0mm" y2="23.2435786001177mm" stroke="red" stroke-width="1.5" />
  <line x1="40.0mm" y1="23.2435786001177mm" x2="60.0mm" y2="23.2435786001177mm" stroke="blue" stroke-width="1.5" />
  <line x1="60.0mm" y1="23.2435786001177mm" x2="60.0mm" y2="23.2435786001177mm" stroke="red" stroke-width="1.5" />
  <line x1="60.0mm" y1="23.2435786001177mm" x2="80.0mm" y2="23.2435786001177mm" stroke="blue" stroke-width="1.5" />
  <line x1="80.0mm" y1="23.2435786001177mm" x2="80.0mm" y2="23.2435786001177mm" stroke="red" stroke-width="1.5" />
  <line x1="80.0mm" y1="23.2435786001177mm" x2="100.0mm" y2="23.2435786001177mm" stroke="blue" stroke-width="1.5" />
  <line x1="100.0mm" y1="23.2435786001177mm" x2="100.0mm" y2="23.2435786001177mm" stroke="red" stroke-width="1.5" />
  <line x1="100.0mm" y1="23.2435786001177mm" x2="120.0mm" y2="23.2435786001177mm" stroke="blue" stroke-width="1.5" />
  <line x1="120.0mm" y1="23.2435786001177mm" x2="120.0mm" y2="23.2435786001177mm" stroke="red" stroke-width="1.5" />
  <line x1="120.0mm" y1="23.2435786001177mm" x2="140.0mm" y2="23.2435786001177mm" stroke="blue" stroke-width="1.5" />
  <line x1="140.0mm" y1="23.2435786001177mm" x2="140.0mm" y2="23.2435786001177mm" stroke="red" stroke-width="1.5" />
  <line x1="140.0mm" y1="23.2435786001177mm" x2="160.0mm" y2="23.2435786001177mm" stroke="blue" stroke-width="1.5" />
  <line x1="0.0mm" y1="23.2435786001177mm" x2="0.0mm" y2="10.242640687119291mm" stroke="black" stroke-width="2" />
  <line x1="1.1102230246251565e-15mm" y1="23.2435786001177mm" x2="2.000000000000001mm" y2="10.242640687119291mm" stroke="red" stroke-width="1.5" />
  <line x1="20.0mm" y1="23.2435786001177mm" x2="20.0mm" y2="10.242640687119291mm" stroke="blue" stroke-width="1.5" />
  <line x1="20.0mm" y1="23.2435786001177mm" x2="22.0mm" y2="10.242640687119291mm" stroke="red" stroke-width="1.5" />
  <line x1="40.0mm" y1="23.2435786001177mm" x2="40.0mm" y2="10.242640687119291mm" stroke="blue" stroke-width="1.5" />
  <line x1="40.0mm" y1="23.2435786001177mm" x2="42.0mm" y2="10.242640687119291mm" stroke="red" stroke-width="1.5" />
  <line x1="60.0mm" y1="23.2435786001177mm" x2="60.0mm" y2="10.242640687119291mm" stroke="blue" stroke-width="1.5" />
  <line x1="60.0mm" y1="23.2435786001177mm" x2="62.0mm" y2="10.242640687119291mm" stroke="red" stroke-width="1.5" />
  <line x1="80.0mm" y1="23.2435786001177mm" x2="80.0mm" y2="10.242640687119291mm" stroke="blue" stroke-width="1.5" />
  <line x1="80.0mm" y1="23.2435786001177mm" x2="82.0mm" y2="10.242640687119291mm" stroke="red" stroke-width="1.5" />
  <line x1="100.0mm" y1="23.2435786001177mm" x2="100.0mm" y2="10.242640687119291mm" stroke="blue" stroke-width="1.5" />
  <line x1="100.0mm" y1="23.2435786001177mm" x2="102.0mm" y2="10.242640687119291mm" stroke="red" stroke-width="1.5" />
  <line x1="120.0mm" y1="23.2435786001177mm" x2="120.0mm" y2="10.242640687119291mm" stroke="blue" stroke-width="1.5" />
  <line x1="120.0mm" y1="23.2435786001177mm" x2="122.0mm" y2="10.242640687119291mm" stroke="red" stroke-width="1.5" />
  <line x1="140.0mm" y1="23.2435786001177mm" x2="140.0mm" y2="10.242640687119291mm" stroke="blue" stroke-width="1.5" />
  <line x1="140.0mm" y1="23.2435786001177mm" x2="142.0mm" y2="10.242640687119291mm" stroke="red" stroke-width="1.5" />
  <line x1="160.0mm" y1="23.2435786001177mm" x2="160.0mm" y2="10.242640687119291mm" stroke="black" stroke-width="2" />
  <line x1="0.0mm" y1="10.242640687119291mm" x2="2.000000000000001mm" y2="10.242640687119291mm" stroke="red" stroke-width="1.5" />
  <line x1="2.000000000000001mm" y1="10.242640687119291mm" x2="20.0mm" y2="10.242640687119291mm" stroke="blue" stroke-width="1.5" />
  <line x1="20.0mm" y1="10.242640687119291mm" x2="22.0mm" y2="10.242640687119291mm" stroke="red" stroke-width="1.5" />
  <line x1="22.0mm" y1="10.242640687119291mm" x2="40.0mm" y2="10.242640687119291mm" stroke="blue" stroke-width="1.5" />
  <line x1="40.0mm" y1="10.242640687119291mm" x2="42.0mm" y2="10.242640687119291mm" stroke="red" stroke-width="1.5" />
  <line x1="42.0mm" y1="10.242640687119291mm" x2="60.0mm" y2="10.242640687119291mm" stroke="blue" stroke-width="1.5" />
  <line x1="60.0mm" y1="10.242640687119291mm" x2="62.0mm" y2="10.242640687119291mm" stroke="red" stroke-width="1.5" />
  <line x1="62.0mm" y1="10.242640687119291mm" x2="80.0mm" y2="10.242640687119291mm" stroke="blue" stroke-width="1.5" />
  <line x1="80.0mm" y1="10.242640687119291mm" x2="82.0mm" y2="10.242640687119291mm" stroke="red" stroke-width="1.5" />
  <line x1="82.0mm" y1="10.242640687119291mm" x2="100.0mm" y2="10.242640687119291mm" stroke="blue" stroke-width="1.5" />
  <line x1="100.0mm" y1="10.242640687119291mm" x2="102.0mm" y2="10.242640687119291mm" stroke="red" stroke-width="1.5" />
  <line x1="102.0mm" y1="10.242640687119291mm" x2="120.0mm" y2="10.242640687119291mm" stroke="blue" stroke-width="1.5" />
  <line x1="120.0mm" y1="10.242640687119291mm" x2="122.0mm" y2="10.242640687119291mm" stroke="red" stroke-width="1.5" />
  <line x1="122.0mm" y1="10.242640687119291mm" x2="140.0mm" y2="10.242640687119291mm" stroke="blue" stroke-width="1.5" />
  <line x1="140.0mm" y1="10.242640687119291mm" x2="142.0mm" y2="10.242640687119291mm" stroke="red" stroke-width="1.5" />
  <line x1="142.0mm" y1="10.242640687119291mm" x2="160.0mm" y2="10.242640687119291mm" stroke="blue" stroke-width="1.5" />
  <line x1="0.0mm" y1="10.242640687119291mm" x2="0.0mm" y2="0.0mm" stroke="black" stroke-width="2" />
  <line x1="2.000000000000001mm" y1="10.242640687119291mm" x2="5.0mm" y2="0.0mm" stroke="red" stroke-width="1.5" />
  <line x1="20.0mm" y1="10.242640687119291mm" x2="20.0mm" y2="0.0mm" stroke="blue" stroke-width="1.5" />
  <line x1="22.0mm" y1="10.242640687119291mm" x2="25.0mm" y2="0.0mm" stroke="red" stroke-width="1.5" />
  <line x1="40.0mm" y1="10.242640687119291mm" x2="40.0mm" y2="0.0mm" stroke="blue" stroke-width="1.5" />
  <line x1="42.0mm" y1="10.242640687119291mm" x2="45.0mm" y2="0.0mm" stroke="red" stroke-width="1.5" />
  <line x1="60.0mm" y1="10.242640687119291mm" x2="60.0mm" y2="0.0mm" stroke="blue" stroke-width="1.5" />
  <line x1="62.0mm" y1="10.242640687119291mm" x2="65.0mm" y2="0.0mm" stroke="red" stroke-width="1.5" />
  <line x1="80.0mm" y1="10.242640687119291mm" x2="80.0mm" y2="0.0mm" stroke="blue" stroke-width="1.5" />
  <line x1="82.0mm" y1="10.242640687119291mm" x2="85.0mm" y2="0.0mm" stroke="red" stroke-width="1.5" />
  <line x1="100.0mm" y1="10.242640687119291mm" x2="100.0mm" y2="0.0mm" stroke="blue" stroke-width="1.5" />
  <line x1="102.0mm" y1="10.242640687119291mm" x2="105.0mm" y2="0.0mm" stroke="red" stroke-width="1.5" />
  <line x1="120.0mm" y1="10.242640687119291mm" x2="120.0mm" y2="0.0mm" stroke="blue" stroke-width="1.5" />
  <line x1="122.0mm" y1="10.242640687119291mm" x2="125.0mm" y2="0.0mm" stroke="red" stroke-width="1.5" />
  <line x1="140.0mm" y1="10.242640687119291mm" x2="140.0mm" y2="0.0mm" stroke="blue" stroke-width="1.5" />
  <line x1="142.0mm" y1="10.242640687119291mm" x2="145.0mm" y2="0.0mm" stroke="red" stroke-width="1.5" />
  <line x1="160.0mm" y1="10.242640687119291mm" x2="160.0mm" y2="0.0mm" stroke="black" stroke-width="2" />
  <line x1="0.0mm" y1="0.0mm" x2="5.0mm" y2="0.0mm" stroke="black" stroke-width="2" />
  <line x1="5.0mm" y1="0.0mm" x2="20.0mm" y2="0.0mm" stroke="black" stroke-width="2" />
  <line x1="20.0mm" y1="0.0mm" x2="25.0mm" y2="0.0mm" stroke="black" stroke-width="2" />
  <line x1="25.0mm" y1="0.0mm" x2="40.0mm" y2="0.0mm" stroke="black" stroke-width="2" />
  <line x1="40.0mm" y1="0.0mm" x2="45.0mm" y2="0.0mm" stroke="black" stroke-width="2" />
  <line x1="45.0mm" y1="0.0mm" x2="60.0mm" y2="0.0mm" stroke="black" stroke-width="2" />
  <line x1="60.0mm" y1="0.0mm" x2="65.0mm" y2="0.0mm" stroke="black" stroke-width="2" />
  <line x1="65.0mm" y1="0.0mm" x2="80.0mm" y2="0.0mm" stroke="black" stroke-width="2" />
  <line x1="80.0mm" y1="0.0mm" x2="85.0mm" y2="0.0mm" stroke="black" stroke-width="2" />
  <line x1="85.0mm" y1="0.0mm" x2="100.0mm" y2="0.0mm" stroke="black" stroke-width="2" />
  <line x1="100.0mm" y1="0.0mm" x2="105.0mm" y2="0.0mm" stroke="black" stroke-width="2" />
  <line x1="105.0mm" y1="0.0mm" x2="120.0mm" y2="0.0mm" stroke="black" stroke-width="2" />
  <line x1="120.0mm" y1="0.0mm" x2="125.0mm" y2="0.0mm" stroke="black" stroke-width="2" />
  <line x1="125.0mm" y1="0.0mm" x2="140.0mm" y2="0.0mm" stroke="black" stroke-width="2" />
  <line x1="140.0mm" y1="0.0mm" x2="145.0mm" y2="0.0mm" stroke="black" stroke-width="2" />
  <line x1="145.0mm" y1="0.0mm" x2="160.0mm" y2="0.0mm" stroke="black" stroke-width="2" />
</g>
</svg>