<?xml version="1.0" encoding="UTF-8" standalone="no"?>
<svg 
  xmlns="http://www.w3.org/2000/svg"
  id="svg8"
  version="1.1" 
  height="1844.7299785743585mm" 
  width="3200.0mm">
<g>
  <line x1="0.0" y1="1844.7299785743585" x2="50.0" y2="1844.7299785743585" stroke="black" stroke-width="3" />
  <line x1="50.0" y1="1844.7299785743585" x2="200.0" y2="1844.7299785743585" stroke="black" stroke-width="3" />
  <line x1="200.0" y1="1844.7299785743585" x2="250.0" y2="1844.7299785743585" stroke="black" stroke-width="3" />
  <line x1="250.0" y1="1844.7299785743585" x2="400.0" y2="1844.7299785743585" stroke="black" stroke-width="3" />
  <line x1="400.0" y1="1844.7299785743585" x2="450.0" y2="1844.7299785743585" stroke="black" stroke-width="3" />
  <line x1="450.0" y1="1844.7299785743585" x2="600.0" y2="1844.7299785743585" stroke="black" stroke-width="3" />
  <line x1="600.0" y1="1844.7299785743585" x2="650.0" y2="1844.7299785743585" stroke="black" stroke-width="3" />
  <line x1="650.0" y1="1844.7299785743585" x2="800.0" y2="1844.7299785743585" stroke="black" stroke-width="3" />
  <line x1="800.0" y1="1844.7299785743585" x2="850.0" y2="1844.7299785743585" stroke="black" stroke-width="3" />
  <line x1="850.0" y1="1844.7299785743585" x2="1000.0" y2="1844.7299785743585" stroke="black" stroke-width="3" />
  <line x1="1000.0" y1="1844.7299785743585" x2="1050.0" y2="1844.7299785743585" stroke="black" stroke-width="3" />
  <line x1="1050.0" y1="1844.7299785743585" x2="1200.0" y2="1844.7299785743585" stroke="black" stroke-width="3" />
  <line x1="1200.0" y1="1844.7299785743585" x2="1250.0" y2="1844.7299785743585" stroke="black" stroke-width="3" />
  <line x1="1250.0" y1="1844.7299785743585" x2="1400.0" y2="1844.7299785743585" stroke="black" stroke-width="3" />
  <line x1="1400.0" y1="1844.7299785743585" x2="1450.0" y2="1844.7299785743585" stroke="black" stroke-width="3" />
  <line x1="1450.0" y1="1844.7299785743585" x2="1600.0" y2="1844.7299785743585" stroke="black" stroke-width="3" />
  <line x1="1600.0" y1="1844.7299785743585" x2="1650.0" y2="1844.7299785743585" stroke="black" stroke-width="3" />
  <line x1="1650.0" y1="1844.7299785743585" x2="1800.0" y2="1844.7299785743585" stroke="black" stroke-width="3" />
  <line x1="1800.0" y1="1844.7299785743585" x2="1850.0" y2="1844.7299785743585" stroke="black" stroke-width="3" />
  <line x1="1850.0" y1="1844.7299785743585" x2="2000.0" y2="1844.7299785743585" stroke="black" stroke-width="3" />
  <line x1="2000.0" y1="1844.7299785743585" x2="2050.0" y2="1844.7299785743585" stroke="black" stroke-width="3" />
  <line x1="2050.0" y1="1844.7299785743585" x2="2200.0" y2="1844.7299785743585" stroke="black" stroke-width="3" />
  <line x1="2200.0" y1="1844.7299785743585" x2="2250.0" y2="1844.7299785743585" stroke="black" stroke-width="3" />
  <line x1="2250.0" y1="1844.7299785743585" x2="2400.0" y2="1844.7299785743585" stroke="black" stroke-width="3" />
  <line x1="2400.0" y1="1844.7299785743585" x2="2450.0" y2="1844.7299785743585" stroke="black" stroke-width="3" />
  <line x1="2450.0" y1="1844.7299785743585" x2="2600.0" y2="1844.7299785743585" stroke="black" stroke-width="3" />
  <line x1="2600.0" y1="1844.7299785743585" x2="2650.0" y2="1844.7299785743585" stroke="black" stroke-width="3" />
  <line x1="2650.0" y1="1844.7299785743585" x2="2800.0" y2="1844.7299785743585" stroke="black" stroke-width="3" />
  <line x1="2800.0" y1="1844.7299785743585" x2="2850.0" y2="1844.7299785743585" stroke="black" stroke-width="3" />
  <line x1="2850.0" y1="1844.7299785743585" x2="3000.0" y2="1844.7299785743585" stroke="black" stroke-width="3" />
  <line x1="3000.0" y1="1844.7299785743585" x2="3050.0" y2="1844.7299785743585" stroke="black" stroke-width="3" />
  <line x1="3050.0" y1="1844.7299785743585" x2="3200.0" y2="1844.7299785743585" stroke="black" stroke-width="3" />
  <line x1="0.0" y1="1844.7299785743585" x2="0.0" y2="1626.5843693433376" stroke="black" stroke-width="3" />
  <line x1="50.0" y1="1844.7299785743585" x2="28.16875000000001" y2="1626.5843693433376" stroke="red" stroke-width="2" />
  <line x1="200.0" y1="1844.7299785743585" x2="200.0" y2="1626.5843693433376" stroke="blue" stroke-width="2" />
  <line x1="250.0" y1="1844.7299785743585" x2="228.16875000000005" y2="1626.5843693433376" stroke="red" stroke-width="2" />
  <line x1="400.0" y1="1844.7299785743585" x2="400.0" y2="1626.5843693433376" stroke="blue" stroke-width="2" />
  <line x1="450.0" y1="1844.7299785743585" x2="428.16875000000005" y2="1626.5843693433376" stroke="red" stroke-width="2" />
  <line x1="600.0" y1="1844.7299785743585" x2="600.0" y2="1626.5843693433376" stroke="blue" stroke-width="2" />
  <line x1="650.0" y1="1844.7299785743585" x2="628.16875" y2="1626.5843693433376" stroke="red" stroke-width="2" />
  <line x1="800.0" y1="1844.7299785743585" x2="800.0" y2="1626.5843693433376" stroke="blue" stroke-width="2" />
  <line x1="850.0" y1="1844.7299785743585" x2="828.16875" y2="1626.5843693433376" stroke="red" stroke-width="2" />
  <line x1="1000.0" y1="1844.7299785743585" x2="1000.0" y2="1626.5843693433376" stroke="blue" stroke-width="2" />
  <line x1="1050.0" y1="1844.7299785743585" x2="1028.16875" y2="1626.5843693433376" stroke="red" stroke-width="2" />
  <line x1="1200.0" y1="1844.7299785743585" x2="1200.0" y2="1626.5843693433376" stroke="blue" stroke-width="2" />
  <line x1="1250.0" y1="1844.7299785743585" x2="1228.16875" y2="1626.5843693433376" stroke="red" stroke-width="2" />
  <line x1="1400.0" y1="1844.7299785743585" x2="1400.0" y2="1626.5843693433376" stroke="blue" stroke-width="2" />
  <line x1="1450.0" y1="1844.7299785743585" x2="1428.16875" y2="1626.5843693433376" stroke="red" stroke-width="2" />
  <line x1="1600.0" y1="1844.7299785743585" x2="1600.0" y2="1626.5843693433376" stroke="blue" stroke-width="2" />
  <line x1="1650.0" y1="1844.7299785743585" x2="1628.16875" y2="1626.5843693433376" stroke="red" stroke-width="2" />
  <line x1="1800.0" y1="1844.7299785743585" x2="1800.0" y2="1626.5843693433376" stroke="blue" stroke-width="2" />
  <line x1="1850.0" y1="1844.7299785743585" x2="1828.16875" y2="1626.5843693433376" stroke="red" stroke-width="2" />
  <line x1="2000.0" y1="1844.7299785743585" x2="2000.0" y2="1626.5843693433376" stroke="blue" stroke-width="2" />
  <line x1="2050.0" y1="1844.7299785743585" x2="2028.16875" y2="1626.5843693433376" stroke="red" stroke-width="2" />
  <line x1="2200.0" y1="1844.7299785743585" x2="2200.0" y2="1626.5843693433376" stroke="blue" stroke-width="2" />
  <line x1="2250.0" y1="1844.7299785743585" x2="2228.16875" y2="1626.5843693433376" stroke="red" stroke-width="2" />
  <line x1="2400.0" y1="1844.7299785743585" x2="2400.0" y2="1626.5843693433376" stroke="blue" stroke-width="2" />
  <line x1="2450.0" y1="1844.7299785743585" x2="2428.16875" y2="1626.5843693433376" stroke="red" stroke-width="2" />
  <line x1="2600.0" y1="1844.7299785743585" x2="2600.0" y2="1626.5843693433376" stroke="blue" stroke-width="2" />
  <line x1="2650.0" y1="1844.7299785743585" x2="2628.16875" y2="1626.5843693433376" stroke="red" stroke-width="2" />
  <line x1="2800.0" y1="1844.7299785743585" x2="2800.0" y2="1626.5843693433376" stroke="blue" stroke-width="2" />
  <line x1="2850.0" y1="1844.7299785743585" x2="2828.16875" y2="1626.5843693433376" stroke="red" stroke-width="2" />
  <line x1="3000.0" y1="1844.7299785743585" x2="3000.0" y2="1626.5843693433376" stroke="blue" stroke-width="2" />
  <line x1="3050.0" y1="1844.7299785743585" x2="3028.16875" y2="1626.5843693433376" stroke="red" stroke-width="2" />
  <line x1="3200.0" y1="1844.7299785743585" x2="3200.0" y2="1626.5843693433376" stroke="black" stroke-width="3" />
  <line x1="0.0" y1="1626.5843693433376" x2="0.0" y2="1422.409075727825" stroke="black" stroke-width="3" />
  <line x1="28.16875000000001" y1="1626.5843693433376" x2="12.575000000000003" y2="1422.409075727825" stroke="red" stroke-width="2" />
  <line x1="200.0" y1="1626.5843693433376" x2="200.0" y2="1422.409075727825" stroke="blue" stroke-width="2" />
  <line x1="228.16875000000005" y1="1626.5843693433376" x2="212.575" y2="1422.409075727825" stroke="red" stroke-width="2" />
  <line x1="400.0" y1="1626.5843693433376" x2="400.0" y2="1422.409075727825" stroke="blue" stroke-width="2" />
  <line x1="428.16875000000005" y1="1626.5843693433376" x2="412.575" y2="1422.409075727825" stroke="red" stroke-width="2" />
  <line x1="600.0" y1="1626.5843693433376" x2="600.0" y2="1422.409075727825" stroke="blue" stroke-width="2" />
  <line x1="628.16875" y1="1626.5843693433376" x2="612.575" y2="1422.409075727825" stroke="red" stroke-width="2" />
  <line x1="800.0" y1="1626.5843693433376" x2="800.0" y2="1422.409075727825" stroke="blue" stroke-width="2" />
  <line x1="828.16875" y1="1626.5843693433376" x2="812.575" y2="1422.409075727825" stroke="red" stroke-width="2" />
  <line x1="1000.0" y1="1626.5843693433376" x2="1000.0" y2="1422.409075727825" stroke="blue" stroke-width="2" />
  <line x1="1028.16875" y1="1626.5843693433376" x2="1012.575" y2="1422.409075727825" stroke="red" stroke-width="2" />
  <line x1="1200.0" y1="1626.5843693433376" x2="1200.0" y2="1422.409075727825" stroke="blue" stroke-width="2" />
  <line x1="1228.16875" y1="1626.5843693433376" x2="1212.575" y2="1422.409075727825" stroke="red" stroke-width="2" />
  <line x1="1400.0" y1="1626.5843693433376" x2="1400.0" y2="1422.409075727825" stroke="blue" stroke-width="2" />
  <line x1="1428.16875" y1="1626.5843693433376" x2="1412.575" y2="1422.409075727825" stroke="red" stroke-width="2" />
  <line x1="1600.0" y1="1626.5843693433376" x2="1600.0" y2="1422.409075727825" stroke="blue" stroke-width="2" />
  <line x1="1628.16875" y1="1626.5843693433376" x2="1612.575" y2="1422.409075727825" stroke="red" stroke-width="2" />
  <line x1="1800.0" y1="1626.5843693433376" x2="1800.0" y2="1422.409075727825" stroke="blue" stroke-width="2" />
  <line x1="1828.16875" y1="1626.5843693433376" x2="1812.575" y2="1422.409075727825" stroke="red" stroke-width="2" />
  <line x1="2000.0" y1="1626.5843693433376" x2="2000.0" y2="1422.409075727825" stroke="blue" stroke-width="2" />
  <line x1="2028.16875" y1="1626.5843693433376" x2="2012.575" y2="1422.409075727825" stroke="red" stroke-width="2" />
  <line x1="2200.0" y1="1626.5843693433376" x2="2200.0" y2="1422.409075727825" stroke="blue" stroke-width="2" />
  <line x1="2228.16875" y1="1626.5843693433376" x2="2212.575" y2="1422.409075727825" stroke="red" stroke-width="2" />
  <line x1="2400.0" y1="1626.5843693433376" x2="2400.0" y2="1422.409075727825" stroke="blue" stroke-width="2" />
  <line x1="2428.16875" y1="1626.5843693433376" x2="2412.575" y2="1422.409075727825" stroke="red" stroke-width="2" />
  <line x1="2600.0" y1="1626.5843693433376" x2="2600.0" y2="1422.409075727825" stroke="blue" stroke-width="2" />
  <line x1="2628.16875" y1="1626.5843693433376" x2="2612.575" y2="1422.409075727825" stroke="red" stroke-width="2" />
  <line x1="2800.0" y1="1626.5843693433376" x2="2800.0" y2="1422.409075727825" stroke="blue" stroke-width="2" />
  <line x1="2828.16875" y1="1626.5843693433376" x2="2812.575" y2="1422.409075727825" stroke="red" stroke-width="2" />
  <line x1="3000.0" y1="1626.5843693433376" x2="3000.0" y2="1422.409075727825" stroke="blue" stroke-width="2" />
  <line x1="3028.16875" y1="1626.5843693433376" x2="3012.575" y2="1422.409075727825" stroke="red" stroke-width="2" />
  <line x1="3200.0" y1="1626.5843693433376" x2="3200.0" y2="1422.409075727825" stroke="black" stroke-width="3" />
  <line x1="0.0" y1="1422.409075727825" x2="0.0" y2="1228.1045561703725" stroke="black" stroke-width="3" />
  <line x1="12.575000000000003" y1="1422.409075727825" x2="3.2187500000000036" y2="1228.1045561703725" stroke="red" stroke-width="2" />
  <line x1="200.0" y1="1422.409075727825" x2="200.0" y2="1228.1045561703725" stroke="blue" stroke-width="2" />
  <line x1="212.575" y1="1422.409075727825" x2="203.21875" y2="1228.1045561703725" stroke="red" stroke-width="2" />
  <line x1="400.0" y1="1422.409075727825" x2="400.0" y2="1228.1045561703725" stroke="blue" stroke-width="2" />
  <line x1="412.575" y1="1422.409075727825" x2="403.21875" y2="1228.1045561703725" stroke="red" stroke-width="2" />
  <line x1="600.0" y1="1422.409075727825" x2="600.0" y2="1228.1045561703725" stroke="blue" stroke-width="2" />
  <line x1="612.575" y1="1422.409075727825" x2="603.21875" y2="1228.1045561703725" stroke="red" stroke-width="2" />
  <line x1="800.0" y1="1422.409075727825" x2="800.0" y2="1228.1045561703725" stroke="blue" stroke-width="2" />
  <line x1="812.575" y1="1422.409075727825" x2="803.2187499999999" y2="1228.1045561703725" stroke="red" stroke-width="2" />
  <line x1="1000.0" y1="1422.409075727825" x2="1000.0" y2="1228.1045561703725" stroke="blue" stroke-width="2" />
  <line x1="1012.575" y1="1422.409075727825" x2="1003.2187499999999" y2="1228.1045561703725" stroke="red" stroke-width="2" />
  <line x1="1200.0" y1="1422.409075727825" x2="1200.0" y2="1228.1045561703725" stroke="blue" stroke-width="2" />
  <line x1="1212.575" y1="1422.409075727825" x2="1203.21875" y2="1228.1045561703725" stroke="red" stroke-width="2" />
  <line x1="1400.0" y1="1422.409075727825" x2="1400.0" y2="1228.1045561703725" stroke="blue" stroke-width="2" />
  <line x1="1412.575" y1="1422.409075727825" x2="1403.21875" y2="1228.1045561703725" stroke="red" stroke-width="2" />
  <line x1="1600.0" y1="1422.409075727825" x2="1600.0" y2="1228.1045561703725" stroke="blue" stroke-width="2" />
  <line x1="1612.575" y1="1422.409075727825" x2="1603.21875" y2="1228.1045561703725" stroke="red" stroke-width="2" />
  <line x1="1800.0" y1="1422.409075727825" x2="1800.0" y2="1228.1045561703725" stroke="blue" stroke-width="2" />
  <line x1="1812.575" y1="1422.409075727825" x2="1803.21875" y2="1228.1045561703725" stroke="red" stroke-width="2" />
  <line x1="2000.0" y1="1422.409075727825" x2="2000.0" y2="1228.1045561703725" stroke="blue" stroke-width="2" />
  <line x1="2012.575" y1="1422.409075727825" x2="2003.21875" y2="1228.1045561703725" stroke="red" stroke-width="2" />
  <line x1="2200.0" y1="1422.409075727825" x2="2200.0" y2="1228.1045561703725" stroke="blue" stroke-width="2" />
  <line x1="2212.575" y1="1422.409075727825" x2="2203.21875" y2="1228.1045561703725" stroke="red" stroke-width="2" />
  <line x1="2400.0" y1="1422.409075727825" x2="2400.0" y2="1228.1045561703725" stroke="blue" stroke-width="2" />
  <line x1="2412.575" y1="1422.409075727825" x2="2403.21875" y2="1228.1045561703725" stroke="red" stroke-width="2" />
  <line x1="2600.0" y1="1422.409075727825" x2="2600.0" y2="1228.1045561703725" stroke="blue" stroke-width="2" />
  <line x1="2612.575" y1="1422.409075727825" x2="2603.21875" y2="1228.1045561703725" stroke="red" stroke-width="2" />
  <line x1="2800.0" y1="1422.409075727825" x2="2800.0" y2="1228.1045561703725" stroke="blue" stroke-width="2" />
  <line x1="2812.575" y1="1422.409075727825" x2="2803.21875" y2="1228.1045561703725" stroke="red" stroke-width="2" />
  <line x1="3000.0" y1="1422.409075727825" x2="3000.0" y2="1228.1045561703725" stroke="blue" stroke-width="2" />
  <line x1="3012.575" y1="1422.409075727825" x2="3003.21875" y2="1228.1045561703725" stroke="red" stroke-width="2" />
  <line x1="3200.0" y1="1422.409075727825" x2="3200.0" y2="1228.1045561703725" stroke="black" stroke-width="3" />
  <line x1="0.0" y1="1228.1045561703725" x2="0.0" y2="1038.9284630211896" stroke="black" stroke-width="3" />
  <line x1="3.2187500000000036" y1="1228.1045561703725" x2="0.10000000000001119" y2="1038.9284630211896" stroke="red" stroke-width="2" />
  <line x1="200.0" y1="1228.1045561703725" x2="200.0" y2="1038.9284630211896" stroke="blue" stroke-width="2" />
  <line x1="203.21875" y1="1228.1045561703725" x2="200.10000000000002" y2="1038.9284630211896" stroke="red" stroke-width="2" />
  <line x1="400.0" y1="1228.1045561703725" x2="400.0" y2="1038.9284630211896" stroke="blue" stroke-width="2" />
  <line x1="403.21875" y1="1228.1045561703725" x2="400.1" y2="1038.9284630211896" stroke="red" stroke-width="2" />
  <line x1="600.0" y1="1228.1045561703725" x2="600.0" y2="1038.9284630211896" stroke="blue" stroke-width="2" />
  <line x1="603.21875" y1="1228.1045561703725" x2="600.1" y2="1038.9284630211896" stroke="red" stroke-width="2" />
  <line x1="800.0" y1="1228.1045561703725" x2="800.0" y2="1038.9284630211896" stroke="blue" stroke-width="2" />
  <line x1="803.2187499999999" y1="1228.1045561703725" x2="800.1000000000001" y2="1038.9284630211896" stroke="red" stroke-width="2" />
  <line x1="1000.0" y1="1228.1045561703725" x2="1000.0" y2="1038.9284630211896" stroke="blue" stroke-width="2" />
  <line x1="1003.2187499999999" y1="1228.1045561703725" x2="1000.1000000000001" y2="1038.9284630211896" stroke="red" stroke-width="2" />
  <line x1="1200.0" y1="1228.1045561703725" x2="1200.0" y2="1038.9284630211896" stroke="blue" stroke-width="2" />
  <line x1="1203.21875" y1="1228.1045561703725" x2="1200.1000000000001" y2="1038.9284630211896" stroke="red" stroke-width="2" />
  <line x1="1400.0" y1="1228.1045561703725" x2="1400.0" y2="1038.9284630211896" stroke="blue" stroke-width="2" />
  <line x1="1403.21875" y1="1228.1045561703725" x2="1400.1000000000001" y2="1038.9284630211896" stroke="red" stroke-width="2" />
  <line x1="1600.0" y1="1228.1045561703725" x2="1600.0" y2="1038.9284630211896" stroke="blue" stroke-width="2" />
  <line x1="1603.21875" y1="1228.1045561703725" x2="1600.1000000000001" y2="1038.9284630211896" stroke="red" stroke-width="2" />
  <line x1="1800.0" y1="1228.1045561703725" x2="1800.0" y2="1038.9284630211896" stroke="blue" stroke-width="2" />
  <line x1="1803.21875" y1="1228.1045561703725" x2="1800.1000000000001" y2="1038.9284630211896" stroke="red" stroke-width="2" />
  <line x1="2000.0" y1="1228.1045561703725" x2="2000.0" y2="1038.9284630211896" stroke="blue" stroke-width="2" />
  <line x1="2003.21875" y1="1228.1045561703725" x2="2000.1000000000001" y2="1038.9284630211896" stroke="red" stroke-width="2" />
  <line x1="2200.0" y1="1228.1045561703725" x2="2200.0" y2="1038.9284630211896" stroke="blue" stroke-width="2" />
  <line x1="2203.21875" y1="1228.1045561703725" x2="2200.1" y2="1038.9284630211896" stroke="red" stroke-width="2" />
  <line x1="2400.0" y1="1228.1045561703725" x2="2400.0" y2="1038.9284630211896" stroke="blue" stroke-width="2" />
  <line x1="2403.21875" y1="1228.1045561703725" x2="2400.1" y2="1038.9284630211896" stroke="red" stroke-width="2" />
  <line x1="2600.0" y1="1228.1045561703725" x2="2600.0" y2="1038.9284630211896" stroke="blue" stroke-width="2" />
  <line x1="2603.21875" y1="1228.1045561703725" x2="2600.1" y2="1038.9284630211896" stroke="red" stroke-width="2" />
  <line x1="2800.0" y1="1228.1045561703725" x2="2800.0" y2="1038.9284630211896" stroke="blue" stroke-width="2" />
  <line x1="2803.21875" y1="1228.1045561703725" x2="2800.1" y2="1038.9284630211896" stroke="red" stroke-width="2" />
  <line x1="3000.0" y1="1228.1045561703725" x2="3000.0" y2="1038.9284630211896" stroke="blue" stroke-width="2" />
  <line x1="3003.21875" y1="1228.1045561703725" x2="3000.1" y2="1038.9284630211896" stroke="red" stroke-width="2" />
  <line x1="3200.0" y1="1228.1045561703725" x2="3200.0" y2="1038.9284630211896" stroke="black" stroke-width="3" />
  <line x1="0.0" y1="1038.9284630211896" x2="0.0" y2="974.1602898353722" stroke="black" stroke-width="3" />
  <line x1="0.10000000000001119" y1="1038.9284630211896" x2="3.2187500000000036" y2="974.1602898353722" stroke="red" stroke-width="2" />
  <line x1="200.0" y1="1038.9284630211896" x2="200.0" y2="974.1602898353722" stroke="blue" stroke-width="2" />
  <line x1="200.10000000000002" y1="1038.9284630211896" x2="203.21875" y2="974.1602898353722" stroke="red" stroke-width="2" />
  <line x1="400.0" y1="1038.9284630211896" x2="400.0" y2="974.1602898353722" stroke="blue" stroke-width="2" />
  <line x1="400.1" y1="1038.9284630211896" x2="403.21875" y2="974.1602898353722" stroke="red" stroke-width="2" />
  <line x1="600.0" y1="1038.9284630211896" x2="600.0" y2="974.1602898353722" stroke="blue" stroke-width="2" />
  <line x1="600.1" y1="1038.9284630211896" x2="603.21875" y2="974.1602898353722" stroke="red" stroke-width="2" />
  <line x1="800.0" y1="1038.9284630211896" x2="800.0" y2="974.1602898353722" stroke="blue" stroke-width="2" />
  <line x1="800.1000000000001" y1="1038.9284630211896" x2="803.2187499999999" y2="974.1602898353722" stroke="red" stroke-width="2" />
  <line x1="1000.0" y1="1038.9284630211896" x2="1000.0" y2="974.1602898353722" stroke="blue" stroke-width="2" />
  <line x1="1000.1000000000001" y1="1038.9284630211896" x2="1003.2187499999999" y2="974.1602898353722" stroke="red" stroke-width="2" />
  <line x1="1200.0" y1="1038.9284630211896" x2="1200.0" y2="974.1602898353722" stroke="blue" stroke-width="2" />
  <line x1="1200.1000000000001" y1="1038.9284630211896" x2="1203.21875" y2="974.1602898353722" stroke="red" stroke-width="2" />
  <line x1="1400.0" y1="1038.9284630211896" x2="1400.0" y2="974.1602898353722" stroke="blue" stroke-width="2" />
  <line x1="1400.1000000000001" y1="1038.9284630211896" x2="1403.21875" y2="974.1602898353722" stroke="red" stroke-width="2" />
  <line x1="1600.0" y1="1038.9284630211896" x2="1600.0" y2="974.1602898353722" stroke="blue" stroke-width="2" />
  <line x1="1600.1000000000001" y1="1038.9284630211896" x2="1603.21875" y2="974.1602898353722" stroke="red" stroke-width="2" />
  <line x1="1800.0" y1="1038.9284630211896" x2="1800.0" y2="974.1602898353722" stroke="blue" stroke-width="2" />
  <line x1="1800.1000000000001" y1="1038.9284630211896" x2="1803.21875" y2="974.1602898353722" stroke="red" stroke-width="2" />
  <line x1="2000.0" y1="1038.9284630211896" x2="2000.0" y2="974.1602898353722" stroke="blue" stroke-width="2" />
  <line x1="2000.1000000000001" y1="1038.9284630211896" x2="2003.21875" y2="974.1602898353722" stroke="red" stroke-width="2" />
  <line x1="2200.0" y1="1038.9284630211896" x2="2200.0" y2="974.1602898353722" stroke="blue" stroke-width="2" />
  <line x1="2200.1" y1="1038.9284630211896" x2="2203.21875" y2="974.1602898353722" stroke="red" stroke-width="2" />
  <line x1="2400.0" y1="1038.9284630211896" x2="2400.0" y2="974.1602898353722" stroke="blue" stroke-width="2" />
  <line x1="2400.1" y1="1038.9284630211896" x2="2403.21875" y2="974.1602898353722" stroke="red" stroke-width="2" />
  <line x1="2600.0" y1="1038.9284630211896" x2="2600.0" y2="974.1602898353722" stroke="blue" stroke-width="2" />
  <line x1="2600.1" y1="1038.9284630211896" x2="2603.21875" y2="974.1602898353722" stroke="red" stroke-width="2" />
  <line x1="2800.0" y1="1038.9284630211896" x2="2800.0" y2="974.1602898353722" stroke="blue" stroke-width="2" />
  <line x1="2800.1" y1="1038.9284630211896" x2="2803.21875" y2="974.1602898353722" stroke="red" stroke-width="2" />
  <line x1="3000.0" y1="1038.9284630211896" x2="3000.0" y2="974.1602898353722" stroke="blue" stroke-width="2" />
  <line x1="3000.1" y1="1038.9284630211896" x2="3003.21875" y2="974.1602898353722" stroke="red" stroke-width="2" />
  <line x1="3200.0" y1="1038.9284630211896" x2="3200.0" y2="974.1602898353722" stroke="black" stroke-width="3" />
  <line x1="0.0" y1="974.1602898353722" x2="0.0" y2="895.6646316172759" stroke="black" stroke-width="3" />
  <line x1="3.2187500000000036" y1="974.1602898353722" x2="12.575000000000014" y2="895.6646316172759" stroke="red" stroke-width="2" />
  <line x1="200.0" y1="974.1602898353722" x2="200.0" y2="895.6646316172759" stroke="blue" stroke-width="2" />
  <line x1="203.21875" y1="974.1602898353722" x2="212.575" y2="895.6646316172759" stroke="red" stroke-width="2" />
  <line x1="400.0" y1="974.1602898353722" x2="400.0" y2="895.6646316172759" stroke="blue" stroke-width="2" />
  <line x1="403.21875" y1="974.1602898353722" x2="412.575" y2="895.6646316172759" stroke="red" stroke-width="2" />
  <line x1="600.0" y1="974.1602898353722" x2="600.0" y2="895.6646316172759" stroke="blue" stroke-width="2" />
  <line x1="603.21875" y1="974.1602898353722" x2="612.575" y2="895.6646316172759" stroke="red" stroke-width="2" />
  <line x1="800.0" y1="974.1602898353722" x2="800.0" y2="895.6646316172759" stroke="blue" stroke-width="2" />
  <line x1="803.2187499999999" y1="974.1602898353722" x2="812.575" y2="895.6646316172759" stroke="red" stroke-width="2" />
  <line x1="1000.0" y1="974.1602898353722" x2="1000.0" y2="895.6646316172759" stroke="blue" stroke-width="2" />
  <line x1="1003.2187499999999" y1="974.1602898353722" x2="1012.575" y2="895.6646316172759" stroke="red" stroke-width="2" />
  <line x1="1200.0" y1="974.1602898353722" x2="1200.0" y2="895.6646316172759" stroke="blue" stroke-width="2" />
  <line x1="1203.21875" y1="974.1602898353722" x2="1212.575" y2="895.6646316172759" stroke="red" stroke-width="2" />
  <line x1="1400.0" y1="974.1602898353722" x2="1400.0" y2="895.6646316172759" stroke="blue" stroke-width="2" />
  <line x1="1403.21875" y1="974.1602898353722" x2="1412.575" y2="895.6646316172759" stroke="red" stroke-width="2" />
  <line x1="1600.0" y1="974.1602898353722" x2="1600.0" y2="895.6646316172759" stroke="blue" stroke-width="2" />
  <line x1="1603.21875" y1="974.1602898353722" x2="1612.575" y2="895.6646316172759" stroke="red" stroke-width="2" />
  <line x1="1800.0" y1="974.1602898353722" x2="1800.0" y2="895.6646316172759" stroke="blue" stroke-width="2" />
  <line x1="1803.21875" y1="974.1602898353722" x2="1812.575" y2="895.6646316172759" stroke="red" stroke-width="2" />
  <line x1="2000.0" y1="974.1602898353722" x2="2000.0" y2="895.6646316172759" stroke="blue" stroke-width="2" />
  <line x1="2003.21875" y1="974.1602898353722" x2="2012.575" y2="895.6646316172759" stroke="red" stroke-width="2" />
  <line x1="2200.0" y1="974.1602898353722" x2="2200.0" y2="895.6646316172759" stroke="blue" stroke-width="2" />
  <line x1="2203.21875" y1="974.1602898353722" x2="2212.575" y2="895.6646316172759" stroke="red" stroke-width="2" />
  <line x1="2400.0" y1="974.1602898353722" x2="2400.0" y2="895.6646316172759" stroke="blue" stroke-width="2" />
  <line x1="2403.21875" y1="974.1602898353722" x2="2412.575" y2="895.6646316172759" stroke="red" stroke-width="2" />
  <line x1="2600.0" y1="974.1602898353722" x2="2600.0" y2="895.6646316172759" stroke="blue" stroke-width="2" />
  <line x1="2603.21875" y1="974.1602898353722" x2="2612.575" y2="895.6646316172759" stroke="red" stroke-width="2" />
  <line x1="2800.0" y1="974.1602898353722" x2="2800.0" y2="895.6646316172759" stroke="blue" stroke-width="2" />
  <line x1="2803.21875" y1="974.1602898353722" x2="2812.575" y2="895.6646316172759" stroke="red" stroke-width="2" />
  <line x1="3000.0" y1="974.1602898353722" x2="3000.0" y2="895.6646316172759" stroke="blue" stroke-width="2" />
  <line x1="3003.21875" y1="974.1602898353722" x2="3012.575" y2="895.6646316172759" stroke="red" stroke-width="2" />
  <line x1="3200.0" y1="974.1602898353722" x2="3200.0" y2="895.6646316172759" stroke="black" stroke-width="3" />
  <line x1="0.0" y1="895.6646316172759" x2="0.0" y2="795.1913886039217" stroke="black" stroke-width="3" />
  <line x1="12.575000000000014" y1="895.6646316172759" x2="28.16875000000001" y2="795.1913886039217" stroke="red" stroke-width="2" />
  <line x1="200.0" y1="895.6646316172759" x2="200.0" y2="795.1913886039217" stroke="blue" stroke-width="2" />
  <line x1="212.575" y1="895.6646316172759" x2="228.16875000000005" y2="795.1913886039217" stroke="red" stroke-width="2" />
  <line x1="400.0" y1="895.6646316172759" x2="400.0" y2="795.1913886039217" stroke="blue" stroke-width="2" />
  <line x1="412.575" y1="895.6646316172759" x2="428.16875000000005" y2="795.1913886039217" stroke="red" stroke-width="2" />
  <line x1="600.0" y1="895.6646316172759" x2="600.0" y2="795.1913886039217" stroke="blue" stroke-width="2" />
  <line x1="612.575" y1="895.6646316172759" x2="628.16875" y2="795.1913886039217" stroke="red" stroke-width="2" />
  <line x1="800.0" y1="895.6646316172759" x2="800.0" y2="795.1913886039217" stroke="blue" stroke-width="2" />
  <line x1="812.575" y1="895.6646316172759" x2="828.16875" y2="795.1913886039217" stroke="red" stroke-width="2" />
  <line x1="1000.0" y1="895.6646316172759" x2="1000.0" y2="795.1913886039217" stroke="blue" stroke-width="2" />
  <line x1="1012.575" y1="895.6646316172759" x2="1028.16875" y2="795.1913886039217" stroke="red" stroke-width="2" />
  <line x1="1200.0" y1="895.6646316172759" x2="1200.0" y2="795.1913886039217" stroke="blue" stroke-width="2" />
  <line x1="1212.575" y1="895.6646316172759" x2="1228.16875" y2="795.1913886039217" stroke="red" stroke-width="2" />
  <line x1="1400.0" y1="895.6646316172759" x2="1400.0" y2="795.1913886039217" stroke="blue" stroke-width="2" />
  <line x1="1412.575" y1="895.6646316172759" x2="1428.16875" y2="795.1913886039217" stroke="red" stroke-width="2" />
  <line x1="1600.0" y1="895.6646316172759" x2="1600.0" y2="795.1913886039217" stroke="blue" stroke-width="2" />
  <line x1="1612.575" y1="895.6646316172759" x2="1628.16875" y2="795.1913886039217" stroke="red" stroke-width="2" />
  <line x1="1800.0" y1="895.6646316172759" x2="1800.0" y2="795.1913886039217" stroke="blue" stroke-width="2" />
  <line x1="1812.575" y1="895.6646316172759" x2="1828.16875" y2="795.1913886039217" stroke="red" stroke-width="2" />
  <line x1="2000.0" y1="895.6646316172759" x2="2000.0" y2="795.1913886039217" stroke="blue" stroke-width="2" />
  <line x1="2012.575" y1="895.6646316172759" x2="2028.16875" y2="795.1913886039217" stroke="red" stroke-width="2" />
  <line x1="2200.0" y1="895.6646316172759" x2="2200.0" y2="795.1913886039217" stroke="blue" stroke-width="2" />
  <line x1="2212.575" y1="895.6646316172759" x2="2228.16875" y2="795.1913886039217" stroke="red" stroke-width="2" />
  <line x1="2400.0" y1="895.6646316172759" x2="2400.0" y2="795.1913886039217" stroke="blue" stroke-width="2" />
  <line x1="2412.575" y1="895.6646316172759" x2="2428.16875" y2="795.1913886039217" stroke="red" stroke-width="2" />
  <line x1="2600.0" y1="895.6646316172759" x2="2600.0" y2="795.1913886039217" stroke="blue" stroke-width="2" />
  <line x1="2612.575" y1="895.6646316172759" x2="2628.16875" y2="795.1913886039217" stroke="red" stroke-width="2" />
  <line x1="2800.0" y1="895.6646316172759" x2="2800.0" y2="795.1913886039217" stroke="blue" stroke-width="2" />
  <line x1="2812.575" y1="895.6646316172759" x2="2828.16875" y2="795.1913886039217" stroke="red" stroke-width="2" />
  <line x1="3000.0" y1="895.6646316172759" x2="3000.0" y2="795.1913886039217" stroke="blue" stroke-width="2" />
  <line x1="3012.575" y1="895.6646316172759" x2="3028.16875" y2="795.1913886039217" stroke="red" stroke-width="2" />
  <line x1="3200.0" y1="895.6646316172759" x2="3200.0" y2="795.1913886039217" stroke="black" stroke-width="3" />
  <line x1="0.0" y1="795.1913886039217" x2="0.0" y2="668.7207245532691" stroke="black" stroke-width="3" />
  <line x1="28.16875000000001" y1="795.1913886039217" x2="50.0" y2="668.7207245532691" stroke="red" stroke-width="2" />
  <line x1="200.0" y1="795.1913886039217" x2="200.0" y2="668.7207245532691" stroke="blue" stroke-width="2" />
  <line x1="228.16875000000005" y1="795.1913886039217" x2="250.0" y2="668.7207245532691" stroke="red" stroke-width="2" />
  <line x1="400.0" y1="795.1913886039217" x2="400.0" y2="668.7207245532691" stroke="blue" stroke-width="2" />
  <line x1="428.16875000000005" y1="795.1913886039217" x2="450.0" y2="668.7207245532691" stroke="red" stroke-width="2" />
  <line x1="600.0" y1="795.1913886039217" x2="600.0" y2="668.7207245532691" stroke="blue" stroke-width="2" />
  <line x1="628.16875" y1="795.1913886039217" x2="650.0" y2="668.7207245532691" stroke="red" stroke-width="2" />
  <line x1="800.0" y1="795.1913886039217" x2="800.0" y2="668.7207245532691" stroke="blue" stroke-width="2" />
  <line x1="828.16875" y1="795.1913886039217" x2="850.0" y2="668.7207245532691" stroke="red" stroke-width="2" />
  <line x1="1000.0" y1="795.1913886039217" x2="1000.0" y2="668.7207245532691" stroke="blue" stroke-width="2" />
  <line x1="1028.16875" y1="795.1913886039217" x2="1050.0" y2="668.7207245532691" stroke="red" stroke-width="2" />
  <line x1="1200.0" y1="795.1913886039217" x2="1200.0" y2="668.7207245532691" stroke="blue" stroke-width="2" />
  <line x1="1228.16875" y1="795.1913886039217" x2="1250.0" y2="668.7207245532691" stroke="red" stroke-width="2" />
  <line x1="1400.0" y1="795.1913886039217" x2="1400.0" y2="668.7207245532691" stroke="blue" stroke-width="2" />
  <line x1="1428.16875" y1="795.1913886039217" x2="1450.0" y2="668.7207245532691" stroke="red" stroke-width="2" />
  <line x1="1600.0" y1="795.1913886039217" x2="1600.0" y2="668.7207245532691" stroke="blue" stroke-width="2" />
  <line x1="1628.16875" y1="795.1913886039217" x2="1650.0" y2="668.7207245532691" stroke="red" stroke-width="2" />
  <line x1="1800.0" y1="795.1913886039217" x2="1800.0" y2="668.7207245532691" stroke="blue" stroke-width="2" />
  <line x1="1828.16875" y1="795.1913886039217" x2="1850.0" y2="668.7207245532691" stroke="red" stroke-width="2" />
  <line x1="2000.0" y1="795.1913886039217" x2="2000.0" y2="668.7207245532691" stroke="blue" stroke-width="2" />
  <line x1="2028.16875" y1="795.1913886039217" x2="2050.0" y2="668.7207245532691" stroke="red" stroke-width="2" />
  <line x1="2200.0" y1="795.1913886039217" x2="2200.0" y2="668.7207245532691" stroke="blue" stroke-width="2" />
  <line x1="2228.16875" y1="795.1913886039217" x2="2250.0" y2="668.7207245532691" stroke="red" stroke-width="2" />
  <line x1="2400.0" y1="795.1913886039217" x2="2400.0" y2="668.7207245532691" stroke="blue" stroke-width="2" />
  <line x1="2428.16875" y1="795.1913886039217" x2="2450.0" y2="668.7207245532691" stroke="red" stroke-width="2" />
  <line x1="2600.0" y1="795.1913886039217" x2="2600.0" y2="668.7207245532691" stroke="blue" stroke-width="2" />
  <line x1="2628.16875" y1="795.1913886039217" x2="2650.0" y2="668.7207245532691" stroke="red" stroke-width="2" />
  <line x1="2800.0" y1="795.1913886039217" x2="2800.0" y2="668.7207245532691" stroke="blue" stroke-width="2" />
  <line x1="2828.16875" y1="795.1913886039217" x2="2850.0" y2="668.7207245532691" stroke="red" stroke-width="2" />
  <line x1="3000.0" y1="795.1913886039217" x2="3000.0" y2="668.7207245532691" stroke="blue" stroke-width="2" />
  <line x1="3028.16875" y1="795.1913886039217" x2="3050.0" y2="668.7207245532691" stroke="red" stroke-width="2" />
  <line x1="3200.0" y1="795.1913886039217" x2="3200.0" y2="668.7207245532691" stroke="black" stroke-width="3" />
  <line x1="0.0" y1="668.7207245532691" x2="50.0" y2="668.7207245532691" stroke="blue" stroke-width="2" />
  <line x1="50.0" y1="668.7207245532691" x2="200.0" y2="668.7207245532691" stroke="red" stroke-width="2" />
  <line x1="200.0" y1="668.7207245532691" x2="250.0" y2="668.7207245532691" stroke="blue" stroke-width="2" />
  <line x1="250.0" y1="668.7207245532691" x2="400.0" y2="668.7207245532691" stroke="red" stroke-width="2" />
  <line x1="400.0" y1="668.7207245532691" x2="450.0" y2="668.7207245532691" stroke="blue" stroke-width="2" />
  <line x1="450.0" y1="668.7207245532691" x2="600.0" y2="668.7207245532691" stroke="red" stroke-width="2" />
  <line x1="600.0" y1="668.7207245532691" x2="650.0" y2="668.7207245532691" stroke="blue" stroke-width="2" />
  <line x1="650.0" y1="668.7207245532691" x2="800.0" y2="668.7207245532691" stroke="red" stroke-width="2" />
  <line x1="800.0" y1="668.7207245532691" x2="850.0" y2="668.7207245532691" stroke="blue" stroke-width="2" />
  <line x1="850.0" y1="668.7207245532691" x2="1000.0" y2="668.7207245532691" stroke="red" stroke-width="2" />
  <line x1="1000.0" y1="668.7207245532691" x2="1050.0" y2="668.7207245532691" stroke="blue" stroke-width="2" />
  <line x1="1050.0" y1="668.7207245532691" x2="1200.0" y2="668.7207245532691" stroke="red" stroke-width="2" />
  <line x1="1200.0" y1="668.7207245532691" x2="1250.0" y2="668.7207245532691" stroke="blue" stroke-width="2" />
  <line x1="1250.0" y1="668.7207245532691" x2="1400.0" y2="668.7207245532691" stroke="red" stroke-width="2" />
  <line x1="1400.0" y1="668.7207245532691" x2="1450.0" y2="668.7207245532691" stroke="blue" stroke-width="2" />
  <line x1="1450.0" y1="668.7207245532691" x2="1600.0" y2="668.7207245532691" stroke="red" stroke-width="2" />
  <line x1="1600.0" y1="668.7207245532691" x2="1650.0" y2="668.7207245532691" stroke="blue" stroke-width="2" />
  <line x1="1650.0" y1="668.7207245532691" x2="1800.0" y2="668.7207245532691" stroke="red" stroke-width="2" />
  <line x1="1800.0" y1="668.7207245532691" x2="1850.0" y2="668.7207245532691" stroke="blue" stroke-width="2" />
  <line x1="1850.0" y1="668.7207245532691" x2="2000.0" y2="668.7207245532691" stroke="red" stroke-width="2" />
  <line x1="2000.0" y1="668.7207245532691" x2="2050.0" y2="668.7207245532691" stroke="blue" stroke-width="2" />
  <line x1="2050.0" y1="668.7207245532691" x2="2200.0" y2="668.7207245532691" stroke="red" stroke-width="2" />
  <line x1="2200.0" y1="668.7207245532691" x2="2250.0" y2="668.7207245532691" stroke="blue" stroke-width="2" />
  <line x1="2250.0" y1="668.7207245532691" x2="2400.0" y2="668.7207245532691" stroke="red" stroke-width="2" />
  <line x1="2400.0" y1="668.7207245532691" x2="2450.0" y2="668.7207245532691" stroke="blue" stroke-width="2" />
  <line x1="2450.0" y1="668.7207245532691" x2="2600.0" y2="668.7207245532691" stroke="red" stroke-width="2" />
  <line x1="2600.0" y1="668.7207245532691" x2="2650.0" y2="668.7207245532691" stroke="blue" stroke-width="2" />
  <line x1="2650.0" y1="668.7207245532691" x2="2800.0" y2="668.7207245532691" stroke="red" stroke-width="2" />
  <line x1="2800.0" y1="668.7207245532691" x2="2850.0" y2="668.7207245532691" stroke="blue" stroke-width="2" />
  <line x1="2850.0" y1="668.7207245532691" x2="3000.0" y2="668.7207245532691" stroke="red" stroke-width="2" />
  <line x1="3000.0" y1="668.7207245532691" x2="3050.0" y2="668.7207245532691" stroke="blue" stroke-width="2" />
  <line x1="3050.0" y1="668.7207245532691" x2="3200.0" y2="668.7207245532691" stroke="red" stroke-width="2" />
  <line x1="0.0" y1="668.7207245532691" x2="0.0" y2="560.6037007054806" stroke="black" stroke-width="3" />
  <line x1="50.0" y1="668.7207245532691" x2="67.5" y2="560.6037007054806" stroke="red" stroke-width="2" />
  <line x1="200.0" y1="668.7207245532691" x2="200.0" y2="560.6037007054806" stroke="blue" stroke-width="2" />
  <line x1="250.0" y1="668.7207245532691" x2="267.5" y2="560.6037007054806" stroke="red" stroke-width="2" />
  <line x1="400.0" y1="668.7207245532691" x2="400.0" y2="560.6037007054806" stroke="blue" stroke-width="2" />
  <line x1="450.0" y1="668.7207245532691" x2="467.5" y2="560.6037007054806" stroke="red" stroke-width="2" />
  <line x1="600.0" y1="668.7207245532691" x2="600.0" y2="560.6037007054806" stroke="blue" stroke-width="2" />
  <line x1="650.0" y1="668.7207245532691" x2="667.5" y2="560.6037007054806" stroke="red" stroke-width="2" />
  <line x1="800.0" y1="668.7207245532691" x2="800.0" y2="560.6037007054806" stroke="blue" stroke-width="2" />
  <line x1="850.0" y1="668.7207245532691" x2="867.5000000000001" y2="560.6037007054806" stroke="red" stroke-width="2" />
  <line x1="1000.0" y1="668.7207245532691" x2="1000.0" y2="560.6037007054806" stroke="blue" stroke-width="2" />
  <line x1="1050.0" y1="668.7207245532691" x2="1067.5" y2="560.6037007054806" stroke="red" stroke-width="2" />
  <line x1="1200.0" y1="668.7207245532691" x2="1200.0" y2="560.6037007054806" stroke="blue" stroke-width="2" />
  <line x1="1250.0" y1="668.7207245532691" x2="1267.5" y2="560.6037007054806" stroke="red" stroke-width="2" />
  <line x1="1400.0" y1="668.7207245532691" x2="1400.0" y2="560.6037007054806" stroke="blue" stroke-width="2" />
  <line x1="1450.0" y1="668.7207245532691" x2="1467.5" y2="560.6037007054806" stroke="red" stroke-width="2" />
  <line x1="1600.0" y1="668.7207245532691" x2="1600.0" y2="560.6037007054806" stroke="blue" stroke-width="2" />
  <line x1="1650.0" y1="668.7207245532691" x2="1667.5" y2="560.6037007054806" stroke="red" stroke-width="2" />
  <line x1="1800.0" y1="668.7207245532691" x2="1800.0" y2="560.6037007054806" stroke="blue" stroke-width="2" />
  <line x1="1850.0" y1="668.7207245532691" x2="1867.5" y2="560.6037007054806" stroke="red" stroke-width="2" />
  <line x1="2000.0" y1="668.7207245532691" x2="2000.0" y2="560.6037007054806" stroke="blue" stroke-width="2" />
  <line x1="2050.0" y1="668.7207245532691" x2="2067.5" y2="560.6037007054806" stroke="red" stroke-width="2" />
  <line x1="2200.0" y1="668.7207245532691" x2="2200.0" y2="560.6037007054806" stroke="blue" stroke-width="2" />
  <line x1="2250.0" y1="668.7207245532691" x2="2267.5" y2="560.6037007054806" stroke="red" stroke-width="2" />
  <line x1="2400.0" y1="668.7207245532691" x2="2400.0" y2="560.6037007054806" stroke="blue" stroke-width="2" />
  <line x1="2450.0" y1="668.7207245532691" x2="2467.5" y2="560.6037007054806" stroke="red" stroke-width="2" />
  <line x1="2600.0" y1="668.7207245532691" x2="2600.0" y2="560.6037007054806" stroke="blue" stroke-width="2" />
  <line x1="2650.0" y1="668.7207245532691" x2="2667.5" y2="560.6037007054806" stroke="red" stroke-width="2" />
  <line x1="2800.0" y1="668.7207245532691" x2="2800.0" y2="560.6037007054806" stroke="blue" stroke-width="2" />
  <line x1="2850.0" y1="668.7207245532691" x2="2867.5" y2="560.6037007054806" stroke="red" stroke-width="2" />
  <line x1="3000.0" y1="668.7207245532691" x2="3000.0" y2="560.6037007054806" stroke="blue" stroke-width="2" />
  <line x1="3050.0" y1="668.7207245532691" x2="3067.5" y2="560.6037007054806" stroke="red" stroke-width="2" />
  <line x1="3200.0" y1="668.7207245532691" x2="3200.0" y2="560.6037007054806" stroke="black" stroke-width="3" />
  <line x1="0.0" y1="560.6037007054806" x2="0.0" y2="471.7320545502523" stroke="black" stroke-width="3" />
  <line x1="67.5" y1="560.6037007054806" x2="80.0" y2="471.7320545502523" stroke="red" stroke-width="2" />
  <line x1="200.0" y1="560.6037007054806" x2="200.0" y2="471.7320545502523" stroke="blue" stroke-width="2" />
  <line x1="267.5" y1="560.6037007054806" x2="280.0" y2="471.7320545502523" stroke="red" stroke-width="2" />
  <line x1="400.0" y1="560.6037007054806" x2="400.0" y2="471.7320545502523" stroke="blue" stroke-width="2" />
  <line x1="467.5" y1="560.6037007054806" x2="480.0" y2="471.7320545502523" stroke="red" stroke-width="2" />
  <line x1="600.0" y1="560.6037007054806" x2="600.0" y2="471.7320545502523" stroke="blue" stroke-width="2" />
  <line x1="667.5" y1="560.6037007054806" x2="680.0" y2="471.7320545502523" stroke="red" stroke-width="2" />
  <line x1="800.0" y1="560.6037007054806" x2="800.0" y2="471.7320545502523" stroke="blue" stroke-width="2" />
  <line x1="867.5000000000001" y1="560.6037007054806" x2="880.0000000000001" y2="471.7320545502523" stroke="red" stroke-width="2" />
  <line x1="1000.0" y1="560.6037007054806" x2="1000.0" y2="471.7320545502523" stroke="blue" stroke-width="2" />
  <line x1="1067.5" y1="560.6037007054806" x2="1080.0" y2="471.7320545502523" stroke="red" stroke-width="2" />
  <line x1="1200.0" y1="560.6037007054806" x2="1200.0" y2="471.7320545502523" stroke="blue" stroke-width="2" />
  <line x1="1267.5" y1="560.6037007054806" x2="1280.0" y2="471.7320545502523" stroke="red" stroke-width="2" />
  <line x1="1400.0" y1="560.6037007054806" x2="1400.0" y2="471.7320545502523" stroke="blue" stroke-width="2" />
  <line x1="1467.5" y1="560.6037007054806" x2="1480.0" y2="471.7320545502523" stroke="red" stroke-width="2" />
  <line x1="1600.0" y1="560.6037007054806" x2="1600.0" y2="471.7320545502523" stroke="blue" stroke-width="2" />
  <line x1="1667.5" y1="560.6037007054806" x2="1680.0" y2="471.7320545502523" stroke="red" stroke-width="2" />
  <line x1="1800.0" y1="560.6037007054806" x2="1800.0" y2="471.7320545502523" stroke="blue" stroke-width="2" />
  <line x1="1867.5" y1="560.6037007054806" x2="1880.0" y2="471.7320545502523" stroke="red" stroke-width="2" />
  <line x1="2000.0" y1="560.6037007054806" x2="2000.0" y2="471.7320545502523" stroke="blue" stroke-width="2" />
  <line x1="2067.5" y1="560.6037007054806" x2="2080.0" y2="471.7320545502523" stroke="red" stroke-width="2" />
  <line x1="2200.0" y1="560.6037007054806" x2="2200.0" y2="471.7320545502523" stroke="blue" stroke-width="2" />
  <line x1="2267.5" y1="560.6037007054806" x2="2280.0" y2="471.7320545502523" stroke="red" stroke-width="2" />
  <line x1="2400.0" y1="560.6037007054806" x2="2400.0" y2="471.7320545502523" stroke="blue" stroke-width="2" />
  <line x1="2467.5" y1="560.6037007054806" x2="2480.0" y2="471.7320545502523" stroke="red" stroke-width="2" />
  <line x1="2600.0" y1="560.6037007054806" x2="2600.0" y2="471.7320545502523" stroke="blue" stroke-width="2" />
  <line x1="2667.5" y1="560.6037007054806" x2="2680.0" y2="471.7320545502523" stroke="red" stroke-width="2" />
  <line x1="2800.0" y1="560.6037007054806" x2="2800.0" y2="471.7320545502523" stroke="blue" stroke-width="2" />
  <line x1="2867.5" y1="560.6037007054806" x2="2880.0" y2="471.7320545502523" stroke="red" stroke-width="2" />
  <line x1="3000.0" y1="560.6037007054806" x2="3000.0" y2="471.7320545502523" stroke="blue" stroke-width="2" />
  <line x1="3067.5" y1="560.6037007054806" x2="3080.0" y2="471.7320545502523" stroke="red" stroke-width="2" />
  <line x1="3200.0" y1="560.6037007054806" x2="3200.0" y2="471.7320545502523" stroke="black" stroke-width="3" />
  <line x1="0.0" y1="471.7320545502523" x2="0.0" y2="398.44661770614766" stroke="black" stroke-width="3" />
  <line x1="80.0" y1="471.7320545502523" x2="87.5" y2="398.44661770614766" stroke="red" stroke-width="2" />
  <line x1="200.0" y1="471.7320545502523" x2="200.0" y2="398.44661770614766" stroke="blue" stroke-width="2" />
  <line x1="280.0" y1="471.7320545502523" x2="287.5" y2="398.44661770614766" stroke="red" stroke-width="2" />
  <line x1="400.0" y1="471.7320545502523" x2="400.0" y2="398.44661770614766" stroke="blue" stroke-width="2" />
  <line x1="480.0" y1="471.7320545502523" x2="487.5" y2="398.44661770614766" stroke="red" stroke-width="2" />
  <line x1="600.0" y1="471.7320545502523" x2="600.0" y2="398.44661770614766" stroke="blue" stroke-width="2" />
  <line x1="680.0" y1="471.7320545502523" x2="687.5" y2="398.44661770614766" stroke="red" stroke-width="2" />
  <line x1="800.0" y1="471.7320545502523" x2="800.0" y2="398.44661770614766" stroke="blue" stroke-width="2" />
  <line x1="880.0000000000001" y1="471.7320545502523" x2="887.5" y2="398.44661770614766" stroke="red" stroke-width="2" />
  <line x1="1000.0" y1="471.7320545502523" x2="1000.0" y2="398.44661770614766" stroke="blue" stroke-width="2" />
  <line x1="1080.0" y1="471.7320545502523" x2="1087.5" y2="398.44661770614766" stroke="red" stroke-width="2" />
  <line x1="1200.0" y1="471.7320545502523" x2="1200.0" y2="398.44661770614766" stroke="blue" stroke-width="2" />
  <line x1="1280.0" y1="471.7320545502523" x2="1287.5" y2="398.44661770614766" stroke="red" stroke-width="2" />
  <line x1="1400.0" y1="471.7320545502523" x2="1400.0" y2="398.44661770614766" stroke="blue" stroke-width="2" />
  <line x1="1480.0" y1="471.7320545502523" x2="1487.5" y2="398.44661770614766" stroke="red" stroke-width="2" />
  <line x1="1600.0" y1="471.7320545502523" x2="1600.0" y2="398.44661770614766" stroke="blue" stroke-width="2" />
  <line x1="1680.0" y1="471.7320545502523" x2="1687.5" y2="398.44661770614766" stroke="red" stroke-width="2" />
  <line x1="1800.0" y1="471.7320545502523" x2="1800.0" y2="398.44661770614766" stroke="blue" stroke-width="2" />
  <line x1="1880.0" y1="471.7320545502523" x2="1887.5" y2="398.44661770614766" stroke="red" stroke-width="2" />
  <line x1="2000.0" y1="471.7320545502523" x2="2000.0" y2="398.44661770614766" stroke="blue" stroke-width="2" />
  <line x1="2080.0" y1="471.7320545502523" x2="2087.5" y2="398.44661770614766" stroke="red" stroke-width="2" />
  <line x1="2200.0" y1="471.7320545502523" x2="2200.0" y2="398.44661770614766" stroke="blue" stroke-width="2" />
  <line x1="2280.0" y1="471.7320545502523" x2="2287.5" y2="398.44661770614766" stroke="red" stroke-width="2" />
  <line x1="2400.0" y1="471.7320545502523" x2="2400.0" y2="398.44661770614766" stroke="blue" stroke-width="2" />
  <line x1="2480.0" y1="471.7320545502523" x2="2487.5" y2="398.44661770614766" stroke="red" stroke-width="2" />
  <line x1="2600.0" y1="471.7320545502523" x2="2600.0" y2="398.44661770614766" stroke="blue" stroke-width="2" />
  <line x1="2680.0" y1="471.7320545502523" x2="2687.5" y2="398.44661770614766" stroke="red" stroke-width="2" />
  <line x1="2800.0" y1="471.7320545502523" x2="2800.0" y2="398.44661770614766" stroke="blue" stroke-width="2" />
  <line x1="2880.0" y1="471.7320545502523" x2="2887.5" y2="398.44661770614766" stroke="red" stroke-width="2" />
  <line x1="3000.0" y1="471.7320545502523" x2="3000.0" y2="398.44661770614766" stroke="blue" stroke-width="2" />
  <line x1="3080.0" y1="471.7320545502523" x2="3087.5" y2="398.44661770614766" stroke="red" stroke-width="2" />
  <line x1="3200.0" y1="471.7320545502523" x2="3200.0" y2="398.44661770614766" stroke="black" stroke-width="3" />
  <line x1="0.0" y1="398.44661770614766" x2="0.0" y2="334.36036227663453" stroke="black" stroke-width="3" />
  <line x1="87.5" y1="398.44661770614766" x2="90.0" y2="334.36036227663453" stroke="red" stroke-width="2" />
  <line x1="200.0" y1="398.44661770614766" x2="200.0" y2="334.36036227663453" stroke="blue" stroke-width="2" />
  <line x1="287.5" y1="398.44661770614766" x2="290.0" y2="334.36036227663453" stroke="red" stroke-width="2" />
  <line x1="400.0" y1="398.44661770614766" x2="400.0" y2="334.36036227663453" stroke="blue" stroke-width="2" />
  <line x1="487.5" y1="398.44661770614766" x2="490.00000000000006" y2="334.36036227663453" stroke="red" stroke-width="2" />
  <line x1="600.0" y1="398.44661770614766" x2="600.0" y2="334.36036227663453" stroke="blue" stroke-width="2" />
  <line x1="687.5" y1="398.44661770614766" x2="690.0" y2="334.36036227663453" stroke="red" stroke-width="2" />
  <line x1="800.0" y1="398.44661770614766" x2="800.0" y2="334.36036227663453" stroke="blue" stroke-width="2" />
  <line x1="887.5" y1="398.44661770614766" x2="890.0" y2="334.36036227663453" stroke="red" stroke-width="2" />
  <line x1="1000.0" y1="398.44661770614766" x2="1000.0" y2="334.36036227663453" stroke="blue" stroke-width="2" />
  <line x1="1087.5" y1="398.44661770614766" x2="1090.0" y2="334.36036227663453" stroke="red" stroke-width="2" />
  <line x1="1200.0" y1="398.44661770614766" x2="1200.0" y2="334.36036227663453" stroke="blue" stroke-width="2" />
  <line x1="1287.5" y1="398.44661770614766" x2="1290.0" y2="334.36036227663453" stroke="red" stroke-width="2" />
  <line x1="1400.0" y1="398.44661770614766" x2="1400.0" y2="334.36036227663453" stroke="blue" stroke-width="2" />
  <line x1="1487.5" y1="398.44661770614766" x2="1490.0" y2="334.36036227663453" stroke="red" stroke-width="2" />
  <line x1="1600.0" y1="398.44661770614766" x2="1600.0" y2="334.36036227663453" stroke="blue" stroke-width="2" />
  <line x1="1687.5" y1="398.44661770614766" x2="1689.9999999999998" y2="334.36036227663453" stroke="red" stroke-width="2" />
  <line x1="1800.0" y1="398.44661770614766" x2="1800.0" y2="334.36036227663453" stroke="blue" stroke-width="2" />
  <line x1="1887.5" y1="398.44661770614766" x2="1889.9999999999998" y2="334.36036227663453" stroke="red" stroke-width="2" />
  <line x1="2000.0" y1="398.44661770614766" x2="2000.0" y2="334.36036227663453" stroke="blue" stroke-width="2" />
  <line x1="2087.5" y1="398.44661770614766" x2="2090.0" y2="334.36036227663453" stroke="red" stroke-width="2" />
  <line x1="2200.0" y1="398.44661770614766" x2="2200.0" y2="334.36036227663453" stroke="blue" stroke-width="2" />
  <line x1="2287.5" y1="398.44661770614766" x2="2290.0" y2="334.36036227663453" stroke="red" stroke-width="2" />
  <line x1="2400.0" y1="398.44661770614766" x2="2400.0" y2="334.36036227663453" stroke="blue" stroke-width="2" />
  <line x1="2487.5" y1="398.44661770614766" x2="2490.0" y2="334.36036227663453" stroke="red" stroke-width="2" />
  <line x1="2600.0" y1="398.44661770614766" x2="2600.0" y2="334.36036227663453" stroke="blue" stroke-width="2" />
  <line x1="2687.5" y1="398.44661770614766" x2="2690.0" y2="334.36036227663453" stroke="red" stroke-width="2" />
  <line x1="2800.0" y1="398.44661770614766" x2="2800.0" y2="334.36036227663453" stroke="blue" stroke-width="2" />
  <line x1="2887.5" y1="398.44661770614766" x2="2890.0" y2="334.36036227663453" stroke="red" stroke-width="2" />
  <line x1="3000.0" y1="398.44661770614766" x2="3000.0" y2="334.36036227663453" stroke="blue" stroke-width="2" />
  <line x1="3087.5" y1="398.44661770614766" x2="3090.0" y2="334.36036227663453" stroke="red" stroke-width="2" />
  <line x1="3200.0" y1="398.44661770614766" x2="3200.0" y2="334.36036227663453" stroke="black" stroke-width="3" />
  <line x1="0.0" y1="334.36036227663453" x2="0.0" y2="270.2741068471212" stroke="black" stroke-width="3" />
  <line x1="90.0" y1="334.36036227663453" x2="87.5" y2="270.2741068471212" stroke="red" stroke-width="2" />
  <line x1="200.0" y1="334.36036227663453" x2="200.0" y2="270.2741068471212" stroke="blue" stroke-width="2" />
  <line x1="290.0" y1="334.36036227663453" x2="287.5" y2="270.2741068471212" stroke="red" stroke-width="2" />
  <line x1="400.0" y1="334.36036227663453" x2="400.0" y2="270.2741068471212" stroke="blue" stroke-width="2" />
  <line x1="490.00000000000006" y1="334.36036227663453" x2="487.5" y2="270.2741068471212" stroke="red" stroke-width="2" />
  <line x1="600.0" y1="334.36036227663453" x2="600.0" y2="270.2741068471212" stroke="blue" stroke-width="2" />
  <line x1="690.0" y1="334.36036227663453" x2="687.5" y2="270.2741068471212" stroke="red" stroke-width="2" />
  <line x1="800.0" y1="334.36036227663453" x2="800.0" y2="270.2741068471212" stroke="blue" stroke-width="2" />
  <line x1="890.0" y1="334.36036227663453" x2="887.5" y2="270.2741068471212" stroke="red" stroke-width="2" />
  <line x1="1000.0" y1="334.36036227663453" x2="1000.0" y2="270.2741068471212" stroke="blue" stroke-width="2" />
  <line x1="1090.0" y1="334.36036227663453" x2="1087.5" y2="270.2741068471212" stroke="red" stroke-width="2" />
  <line x1="1200.0" y1="334.36036227663453" x2="1200.0" y2="270.2741068471212" stroke="blue" stroke-width="2" />
  <line x1="1290.0" y1="334.36036227663453" x2="1287.5" y2="270.2741068471212" stroke="red" stroke-width="2" />
  <line x1="1400.0" y1="334.36036227663453" x2="1400.0" y2="270.2741068471212" stroke="blue" stroke-width="2" />
  <line x1="1490.0" y1="334.36036227663453" x2="1487.5" y2="270.2741068471212" stroke="red" stroke-width="2" />
  <line x1="1600.0" y1="334.36036227663453" x2="1600.0" y2="270.2741068471212" stroke="blue" stroke-width="2" />
  <line x1="1689.9999999999998" y1="334.36036227663453" x2="1687.5" y2="270.2741068471212" stroke="red" stroke-width="2" />
  <line x1="1800.0" y1="334.36036227663453" x2="1800.0" y2="270.2741068471212" stroke="blue" stroke-width="2" />
  <line x1="1889.9999999999998" y1="334.36036227663453" x2="1887.5" y2="270.2741068471212" stroke="red" stroke-width="2" />
  <line x1="2000.0" y1="334.36036227663453" x2="2000.0" y2="270.2741068471212" stroke="blue" stroke-width="2" />
  <line x1="2090.0" y1="334.36036227663453" x2="2087.5" y2="270.2741068471212" stroke="red" stroke-width="2" />
  <line x1="2200.0" y1="334.36036227663453" x2="2200.0" y2="270.2741068471212" stroke="blue" stroke-width="2" />
  <line x1="2290.0" y1="334.36036227663453" x2="2287.5" y2="270.2741068471212" stroke="red" stroke-width="2" />
  <line x1="2400.0" y1="334.36036227663453" x2="2400.0" y2="270.2741068471212" stroke="blue" stroke-width="2" />
  <line x1="2490.0" y1="334.36036227663453" x2="2487.5" y2="270.2741068471212" stroke="red" stroke-width="2" />
  <line x1="2600.0" y1="334.36036227663453" x2="2600.0" y2="270.2741068471212" stroke="blue" stroke-width="2" />
  <line x1="2690.0" y1="334.36036227663453" x2="2687.5" y2="270.2741068471212" stroke="red" stroke-width="2" />
  <line x1="2800.0" y1="334.36036227663453" x2="2800.0" y2="270.2741068471212" stroke="blue" stroke-width="2" />
  <line x1="2890.0" y1="334.36036227663453" x2="2887.5" y2="270.2741068471212" stroke="red" stroke-width="2" />
  <line x1="3000.0" y1="334.36036227663453" x2="3000.0" y2="270.2741068471212" stroke="blue" stroke-width="2" />
  <line x1="3090.0" y1="334.36036227663453" x2="3087.5" y2="270.2741068471212" stroke="red" stroke-width="2" />
  <line x1="3200.0" y1="334.36036227663453" x2="3200.0" y2="270.2741068471212" stroke="black" stroke-width="3" />
  <line x1="0.0" y1="270.2741068471212" x2="0.0" y2="196.98867000301652" stroke="black" stroke-width="3" />
  <line x1="87.5" y1="270.2741068471212" x2="80.0" y2="196.98867000301652" stroke="red" stroke-width="2" />
  <line x1="200.0" y1="270.2741068471212" x2="200.0" y2="196.98867000301652" stroke="blue" stroke-width="2" />
  <line x1="287.5" y1="270.2741068471212" x2="280.0" y2="196.98867000301652" stroke="red" stroke-width="2" />
  <line x1="400.0" y1="270.2741068471212" x2="400.0" y2="196.98867000301652" stroke="blue" stroke-width="2" />
  <line x1="487.5" y1="270.2741068471212" x2="480.0" y2="196.98867000301652" stroke="red" stroke-width="2" />
  <line x1="600.0" y1="270.2741068471212" x2="600.0" y2="196.98867000301652" stroke="blue" stroke-width="2" />
  <line x1="687.5" y1="270.2741068471212" x2="680.0" y2="196.98867000301652" stroke="red" stroke-width="2" />
  <line x1="800.0" y1="270.2741068471212" x2="800.0" y2="196.98867000301652" stroke="blue" stroke-width="2" />
  <line x1="887.5" y1="270.2741068471212" x2="880.0000000000001" y2="196.98867000301652" stroke="red" stroke-width="2" />
  <line x1="1000.0" y1="270.2741068471212" x2="1000.0" y2="196.98867000301652" stroke="blue" stroke-width="2" />
  <line x1="1087.5" y1="270.2741068471212" x2="1080.0" y2="196.98867000301652" stroke="red" stroke-width="2" />
  <line x1="1200.0" y1="270.2741068471212" x2="1200.0" y2="196.98867000301652" stroke="blue" stroke-width="2" />
  <line x1="1287.5" y1="270.2741068471212" x2="1280.0" y2="196.98867000301652" stroke="red" stroke-width="2" />
  <line x1="1400.0" y1="270.2741068471212" x2="1400.0" y2="196.98867000301652" stroke="blue" stroke-width="2" />
  <line x1="1487.5" y1="270.2741068471212" x2="1480.0" y2="196.98867000301652" stroke="red" stroke-width="2" />
  <line x1="1600.0" y1="270.2741068471212" x2="1600.0" y2="196.98867000301652" stroke="blue" stroke-width="2" />
  <line x1="1687.5" y1="270.2741068471212" x2="1680.0" y2="196.98867000301652" stroke="red" stroke-width="2" />
  <line x1="1800.0" y1="270.2741068471212" x2="1800.0" y2="196.98867000301652" stroke="blue" stroke-width="2" />
  <line x1="1887.5" y1="270.2741068471212" x2="1880.0" y2="196.98867000301652" stroke="red" stroke-width="2" />
  <line x1="2000.0" y1="270.2741068471212" x2="2000.0" y2="196.98867000301652" stroke="blue" stroke-width="2" />
  <line x1="2087.5" y1="270.2741068471212" x2="2080.0" y2="196.98867000301652" stroke="red" stroke-width="2" />
  <line x1="2200.0" y1="270.2741068471212" x2="2200.0" y2="196.98867000301652" stroke="blue" stroke-width="2" />
  <line x1="2287.5" y1="270.2741068471212" x2="2280.0" y2="196.98867000301652" stroke="red" stroke-width="2" />
  <line x1="2400.0" y1="270.2741068471212" x2="2400.0" y2="196.98867000301652" stroke="blue" stroke-width="2" />
  <line x1="2487.5" y1="270.2741068471212" x2="2480.0" y2="196.98867000301652" stroke="red" stroke-width="2" />
  <line x1="2600.0" y1="270.2741068471212" x2="2600.0" y2="196.98867000301652" stroke="blue" stroke-width="2" />
  <line x1="2687.5" y1="270.2741068471212" x2="2680.0" y2="196.98867000301652" stroke="red" stroke-width="2" />
  <line x1="2800.0" y1="270.2741068471212" x2="2800.0" y2="196.98867000301652" stroke="blue" stroke-width="2" />
  <line x1="2887.5" y1="270.2741068471212" x2="2880.0" y2="196.98867000301652" stroke="red" stroke-width="2" />
  <line x1="3000.0" y1="270.2741068471212" x2="3000.0" y2="196.98867000301652" stroke="blue" stroke-width="2" />
  <line x1="3087.5" y1="270.2741068471212" x2="3080.0" y2="196.98867000301652" stroke="red" stroke-width="2" />
  <line x1="3200.0" y1="270.2741068471212" x2="3200.0" y2="196.98867000301652" stroke="black" stroke-width="3" />
  <line x1="0.0" y1="196.98867000301652" x2="0.0" y2="108.11702384778846" stroke="black" stroke-width="3" />
  <line x1="80.0" y1="196.98867000301652" x2="67.5" y2="108.11702384778846" stroke="red" stroke-width="2" />
  <line x1="200.0" y1="196.98867000301652" x2="200.0" y2="108.11702384778846" stroke="blue" stroke-width="2" />
  <line x1="280.0" y1="196.98867000301652" x2="267.5" y2="108.11702384778846" stroke="red" stroke-width="2" />
  <line x1="400.0" y1="196.98867000301652" x2="400.0" y2="108.11702384778846" stroke="blue" stroke-width="2" />
  <line x1="480.0" y1="196.98867000301652" x2="467.5" y2="108.11702384778846" stroke="red" stroke-width="2" />
  <line x1="600.0" y1="196.98867000301652" x2="600.0" y2="108.11702384778846" stroke="blue" stroke-width="2" />
  <line x1="680.0" y1="196.98867000301652" x2="667.5" y2="108.11702384778846" stroke="red" stroke-width="2" />
  <line x1="800.0" y1="196.98867000301652" x2="800.0" y2="108.11702384778846" stroke="blue" stroke-width="2" />
  <line x1="880.0000000000001" y1="196.98867000301652" x2="867.5000000000001" y2="108.11702384778846" stroke="red" stroke-width="2" />
  <line x1="1000.0" y1="196.98867000301652" x2="1000.0" y2="108.11702384778846" stroke="blue" stroke-width="2" />
  <line x1="1080.0" y1="196.98867000301652" x2="1067.5" y2="108.11702384778846" stroke="red" stroke-width="2" />
  <line x1="1200.0" y1="196.98867000301652" x2="1200.0" y2="108.11702384778846" stroke="blue" stroke-width="2" />
  <line x1="1280.0" y1="196.98867000301652" x2="1267.5" y2="108.11702384778846" stroke="red" stroke-width="2" />
  <line x1="1400.0" y1="196.98867000301652" x2="1400.0" y2="108.11702384778846" stroke="blue" stroke-width="2" />
  <line x1="1480.0" y1="196.98867000301652" x2="1467.5" y2="108.11702384778846" stroke="red" stroke-width="2" />
  <line x1="1600.0" y1="196.98867000301652" x2="1600.0" y2="108.11702384778846" stroke="blue" stroke-width="2" />
  <line x1="1680.0" y1="196.98867000301652" x2="1667.5" y2="108.11702384778846" stroke="red" stroke-width="2" />
  <line x1="1800.0" y1="196.98867000301652" x2="1800.0" y2="108.11702384778846" stroke="blue" stroke-width="2" />
  <line x1="1880.0" y1="196.98867000301652" x2="1867.5" y2="108.11702384778846" stroke="red" stroke-width="2" />
  <line x1="2000.0" y1="196.98867000301652" x2="2000.0" y2="108.11702384778846" stroke="blue" stroke-width="2" />
  <line x1="2080.0" y1="196.98867000301652" x2="2067.5" y2="108.11702384778846" stroke="red" stroke-width="2" />
  <line x1="2200.0" y1="196.98867000301652" x2="2200.0" y2="108.11702384778846" stroke="blue" stroke-width="2" />
  <line x1="2280.0" y1="196.98867000301652" x2="2267.5" y2="108.11702384778846" stroke="red" stroke-width="2" />
  <line x1="2400.0" y1="196.98867000301652" x2="2400.0" y2="108.11702384778846" stroke="blue" stroke-width="2" />
  <line x1="2480.0" y1="196.98867000301652" x2="2467.5" y2="108.11702384778846" stroke="red" stroke-width="2" />
  <line x1="2600.0" y1="196.98867000301652" x2="2600.0" y2="108.11702384778846" stroke="blue" stroke-width="2" />
  <line x1="2680.0" y1="196.98867000301652" x2="2667.5" y2="108.11702384778846" stroke="red" stroke-width="2" />
  <line x1="2800.0" y1="196.98867000301652" x2="2800.0" y2="108.11702384778846" stroke="blue" stroke-width="2" />
  <line x1="2880.0" y1="196.98867000301652" x2="2867.5" y2="108.11702384778846" stroke="red" stroke-width="2" />
  <line x1="3000.0" y1="196.98867000301652" x2="3000.0" y2="108.11702384778846" stroke="blue" stroke-width="2" />
  <line x1="3080.0" y1="196.98867000301652" x2="3067.5" y2="108.11702384778846" stroke="red" stroke-width="2" />
  <line x1="3200.0" y1="196.98867000301652" x2="3200.0" y2="108.11702384778846" stroke="black" stroke-width="3" />
  <line x1="0.0" y1="108.11702384778846" x2="0.0" y2="0.0" stroke="black" stroke-width="3" />
  <line x1="67.5" y1="108.11702384778846" x2="49.999999999999986" y2="0.0" stroke="red" stroke-width="2" />
  <line x1="200.0" y1="108.11702384778846" x2="200.0" y2="0.0" stroke="blue" stroke-width="2" />
  <line x1="267.5" y1="108.11702384778846" x2="250.0" y2="0.0" stroke="red" stroke-width="2" />
  <line x1="400.0" y1="108.11702384778846" x2="400.0" y2="0.0" stroke="blue" stroke-width="2" />
  <line x1="467.5" y1="108.11702384778846" x2="450.0" y2="0.0" stroke="red" stroke-width="2" />
  <line x1="600.0" y1="108.11702384778846" x2="600.0" y2="0.0" stroke="blue" stroke-width="2" />
  <line x1="667.5" y1="108.11702384778846" x2="650.0" y2="0.0" stroke="red" stroke-width="2" />
  <line x1="800.0" y1="108.11702384778846" x2="800.0" y2="0.0" stroke="blue" stroke-width="2" />
  <line x1="867.5000000000001" y1="108.11702384778846" x2="850.0" y2="0.0" stroke="red" stroke-width="2" />
  <line x1="1000.0" y1="108.11702384778846" x2="1000.0" y2="0.0" stroke="blue" stroke-width="2" />
  <line x1="1067.5" y1="108.11702384778846" x2="1050.0" y2="0.0" stroke="red" stroke-width="2" />
  <line x1="1200.0" y1="108.11702384778846" x2="1200.0" y2="0.0" stroke="blue" stroke-width="2" />
  <line x1="1267.5" y1="108.11702384778846" x2="1250.0" y2="0.0" stroke="red" stroke-width="2" />
  <line x1="1400.0" y1="108.11702384778846" x2="1400.0" y2="0.0" stroke="blue" stroke-width="2" />
  <line x1="1467.5" y1="108.11702384778846" x2="1450.0" y2="0.0" stroke="red" stroke-width="2" />
  <line x1="1600.0" y1="108.11702384778846" x2="1600.0" y2="0.0" stroke="blue" stroke-width="2" />
  <line x1="1667.5" y1="108.11702384778846" x2="1650.0" y2="0.0" stroke="red" stroke-width="2" />
  <line x1="1800.0" y1="108.11702384778846" x2="1800.0" y2="0.0" stroke="blue" stroke-width="2" />
  <line x1="1867.5" y1="108.11702384778846" x2="1850.0" y2="0.0" stroke="red" stroke-width="2" />
  <line x1="2000.0" y1="108.11702384778846" x2="2000.0" y2="0.0" stroke="blue" stroke-width="2" />
  <line x1="2067.5" y1="108.11702384778846" x2="2050.0" y2="0.0" stroke="red" stroke-width="2" />
  <line x1="2200.0" y1="108.11702384778846" x2="2200.0" y2="0.0" stroke="blue" stroke-width="2" />
  <line x1="2267.5" y1="108.11702384778846" x2="2250.0" y2="0.0" stroke="red" stroke-width="2" />
  <line x1="2400.0" y1="108.11702384778846" x2="2400.0" y2="0.0" stroke="blue" stroke-width="2" />
  <line x1="2467.5" y1="108.11702384778846" x2="2450.0" y2="0.0" stroke="red" stroke-width="2" />
  <line x1="2600.0" y1="108.11702384778846" x2="2600.0" y2="0.0" stroke="blue" stroke-width="2" />
  <line x1="2667.5" y1="108.11702384778846" x2="2650.0" y2="0.0" stroke="red" stroke-width="2" />
  <line x1="2800.0" y1="108.11702384778846" x2="2800.0" y2="0.0" stroke="blue" stroke-width="2" />
  <line x1="2867.5" y1="108.11702384778846" x2="2850.0" y2="0.0" stroke="red" stroke-width="2" />
  <line x1="3000.0" y1="108.11702384778846" x2="3000.0" y2="0.0" stroke="blue" stroke-width="2" />
  <line x1="3067.5" y1="108.11702384778846" x2="3050.0" y2="0.0" stroke="red" stroke-width="2" />
  <line x1="3200.0" y1="108.11702384778846" x2="3200.0" y2="0.0" stroke="black" stroke-width="3" />
  <line x1="0.0" y1="0.0" x2="49.999999999999986" y2="0.0" stroke="black" stroke-width="3" />
  <line x1="49.999999999999986" y1="0.0" x2="200.0" y2="0.0" stroke="black" stroke-width="3" />
  <line x1="200.0" y1="0.0" x2="250.0" y2="0.0" stroke="black" stroke-width="3" />
  <line x1="250.0" y1="0.0" x2="400.0" y2="0.0" stroke="black" stroke-width="3" />
  <line x1="400.0" y1="0.0" x2="450.0" y2="0.0" stroke="black" stroke-width="3" />
  <line x1="450.0" y1="0.0" x2="600.0" y2="0.0" stroke="black" stroke-width="3" />
  <line x1="600.0" y1="0.0" x2="650.0" y2="0.0" stroke="black" stroke-width="3" />
  <line x1="650.0" y1="0.0" x2="800.0" y2="0.0" stroke="black" stroke-width="3" />
  <line x1="800.0" y1="0.0" x2="850.0" y2="0.0" stroke="black" stroke-width="3" />
  <line x1="850.0" y1="0.0" x2="1000.0" y2="0.0" stroke="black" stroke-width="3" />
  <line x1="1000.0" y1="0.0" x2="1050.0" y2="0.0" stroke="black" stroke-width="3" />
  <line x1="1050.0" y1="0.0" x2="1200.0" y2="0.0" stroke="black" stroke-width="3" />
  <line x1="1200.0" y1="0.0" x2="1250.0" y2="0.0" stroke="black" stroke-width="3" />
  <line x1="1250.0" y1="0.0" x2="1400.0" y2="0.0" stroke="black" stroke-width="3" />
  <line x1="1400.0" y1="0.0" x2="1450.0" y2="0.0" stroke="black" stroke-width="3" />
  <line x1="1450.0" y1="0.0" x2="1600.0" y2="0.0" stroke="black" stroke-width="3" />
  <line x1="1600.0" y1="0.0" x2="1650.0" y2="0.0" stroke="black" stroke-width="3" />
  <line x1="1650.0" y1="0.0" x2="1800.0" y2="0.0" stroke="black" stroke-width="3" />
  <line x1="1800.0" y1="0.0" x2="1850.0" y2="0.0" stroke="black" stroke-width="3" />
  <line x1="1850.0" y1="0.0" x2="2000.0" y2="0.0" stroke="black" stroke-width="3" />
  <line x1="2000.0" y1="0.0" x2="2050.0" y2="0.0" stroke="black" stroke-width="3" />
  <line x1="2050.0" y1="0.0" x2="2200.0" y2="0.0" stroke="black" stroke-width="3" />
  <line x1="2200.0" y1="0.0" x2="2250.0" y2="0.0" stroke="black" stroke-width="3" />
  <line x1="2250.0" y1="0.0" x2="2400.0" y2="0.0" stroke="black" stroke-width="3" />
  <line x1="2400.0" y1="0.0" x2="2450.0" y2="0.0" stroke="black" stroke-width="3" />
  <line x1="2450.0" y1="0.0" x2="2600.0" y2="0.0" stroke="black" stroke-width="3" />
  <line x1="2600.0" y1="0.0" x2="2650.0" y2="0.0" stroke="black" stroke-width="3" />
  <line x1="2650.0" y1="0.0" x2="2800.0" y2="0.0" stroke="black" stroke-width="3" />
  <line x1="2800.0" y1="0.0" x2="2850.0" y2="0.0" stroke="black" stroke-width="3" />
  <line x1="2850.0" y1="0.0" x2="3000.0" y2="0.0" stroke="black" stroke-width="3" />
  <line x1="3000.0" y1="0.0" x2="3050.0" y2="0.0" stroke="black" stroke-width="3" />
  <line x1="3050.0" y1="0.0" x2="3200.0" y2="0.0" stroke="black" stroke-width="3" />
</g>
</svg>