<?xml version="1.0" encoding="UTF-8" standalone="no"?>
<svg 
  xmlns="http://www.w3.org/2000/svg"
  id="svg8"
  version="1.1" 
  height="182.20372849767497mm" 
  width="160.0mm">
<g>
  <line x1="0.0mm" y1="182.20372849767497mm" x2="20.0mm" y2="182.20372849767497mm" stroke="black" stroke-width="2" />
  <line x1="20.0mm" y1="182.20372849767497mm" x2="20.0mm" y2="182.20372849767497mm" stroke="black" stroke-width="2" />
  <line x1="20.0mm" y1="182.20372849767497mm" x2="40.0mm" y2="182.20372849767497mm" stroke="black" stroke-width="2" />
  <line x1="40.0mm" y1="182.20372849767497mm" x2="40.0mm" y2="182.20372849767497mm" stroke="black" stroke-width="2" />
  <line x1="40.0mm" y1="182.20372849767497mm" x2="60.0mm" y2="182.20372849767497mm" stroke="black" stroke-width="2" />
  <line x1="60.0mm" y1="182.20372849767497mm" x2="60.0mm" y2="182.20372849767497mm" stroke="black" stroke-width="2" />
  <line x1="60.0mm" y1="182.20372849767497mm" x2="80.0mm" y2="182.20372849767497mm" stroke="black" stroke-width="2" />
  <line x1="80.0mm" y1="182.20372849767497mm" x2="80.0mm" y2="182.20372849767497mm" stroke="black" stroke-width="2" />
  <line x1="80.0mm" y1="182.20372849767497mm" x2="100.0mm" y2="182.20372849767497mm" stroke="black" stroke-width="2" />
  <line x1="100.0mm" y1="182.20372849767497mm" x2="100.0mm" y2="182.20372849767497mm" stroke="black" stroke-width="2" />
  <line x1="100.0mm" y1="182.20372849767497mm" x2="120.0mm" y2="182.20372849767497mm" stroke="black" stroke-width="2" />
  <line x1="120.0mm" y1="182.20372849767497mm" x2="120.0mm" y2="182.20372849767497mm" stroke="black" stroke-width="2" />
  <line x1="120.0mm" y1="182.20372849767497mm" x2="140.0mm" y2="182.20372849767497mm" stroke="black" stroke-width="2" />
  <line x1="140.0mm" y1="182.20372849767497mm" x2="140.0mm" y2="182.20372849767497mm" stroke="black" stroke-width="2" />
  <line x1="140.0mm" y1="182.20372849767497mm" x2="160.0mm" y2="182.20372849767497mm" stroke="black" stroke-width="2" />
  <line x1="160.0mm" y1="182.20372849767497mm" x2="160.0mm" y2="182.20372849767497mm" stroke="black" stroke-width="2" />
  <line x1="0.0mm" y1="182.20372849767497mm" x2="0.0mm" y2="159.42808330149205mm" stroke="black" stroke-width="2" />
  <line x1="20.0mm" y1="182.20372849767497mm" x2="12.0mm" y2="159.42808330149205mm" stroke="red" stroke-width="1.5" />
  <line x1="20.0mm" y1="182.20372849767497mm" x2="20.0mm" y2="159.42808330149205mm" stroke="blue" stroke-width="1.5" />
  <line x1="40.0mm" y1="182.20372849767497mm" x2="32.0mm" y2="159.42808330149205mm" stroke="red" stroke-width="1.5" />
  <line x1="40.0mm" y1="182.20372849767497mm" x2="40.0mm" y2="159.42808330149205mm" stroke="blue" stroke-width="1.5" />
  <line x1="60.0mm" y1="182.20372849767497mm" x2="52.0mm" y2="159.42808330149205mm" stroke="red" stroke-width="1.5" />
  <line x1="60.0mm" y1="182.20372849767497mm" x2="60.0mm" y2="159.42808330149205mm" stroke="blue" stroke-width="1.5" />
  <line x1="80.0mm" y1="182.20372849767497mm" x2="72.0mm" y2="159.42808330149205mm" stroke="red" stroke-width="1.5" />
  <line x1="80.0mm" y1="182.20372849767497mm" x2="80.0mm" y2="159.42808330149205mm" stroke="blue" stroke-width="1.5" />
  <line x1="100.0mm" y1="182.20372849767497mm" x2="92.0mm" y2="159.42808330149205mm" stroke="red" stroke-width="1.5" />
  <line x1="100.0mm" y1="182.20372849767497mm" x2="100.0mm" y2="159.42808330149205mm" stroke="blue" stroke-width="1.5" />
  <line x1="120.0mm" y1="182.20372849767497mm" x2="112.0mm" y2="159.42808330149205mm" stroke="red" stroke-width="1.5" />
  <line x1="120.0mm" y1="182.20372849767497mm" x2="120.0mm" y2="159.42808330149205mm" stroke="blue" stroke-width="1.5" />
  <line x1="140.0mm" y1="182.20372849767497mm" x2="132.0mm" y2="159.42808330149205mm" stroke="red" stroke-width="1.5" />
  <line x1="140.0mm" y1="182.20372849767497mm" x2="140.0mm" y2="159.42808330149205mm" stroke="blue" stroke-width="1.5" />
  <line x1="160.0mm" y1="182.20372849767497mm" x2="152.0mm" y2="159.42808330149205mm" stroke="red" stroke-width="1.5" />
  <line x1="160.0mm" y1="182.20372849767497mm" x2="160.0mm" y2="159.42808330149205mm" stroke="black" stroke-width="2" />
  <line x1="0.0mm" y1="159.42808330149205mm" x2="12.0mm" y2="159.42808330149205mm" stroke="red" stroke-width="1.5" />
  <line x1="12.0mm" y1="159.42808330149205mm" x2="20.0mm" y2="159.42808330149205mm" stroke="blue" stroke-width="1.5" />
  <line x1="20.0mm" y1="159.42808330149205mm" x2="32.0mm" y2="159.42808330149205mm" stroke="red" stroke-width="1.5" />
  <line x1="32.0mm" y1="159.42808330149205mm" x2="40.0mm" y2="159.42808330149205mm" stroke="blue" stroke-width="1.5" />
  <line x1="40.0mm" y1="159.42808330149205mm" x2="52.0mm" y2="159.42808330149205mm" stroke="red" stroke-width="1.5" />
  <line x1="52.0mm" y1="159.42808330149205mm" x2="60.0mm" y2="159.42808330149205mm" stroke="blue" stroke-width="1.5" />
  <line x1="60.0mm" y1="159.42808330149205mm" x2="72.0mm" y2="159.42808330149205mm" stroke="red" stroke-width="1.5" />
  <line x1="72.0mm" y1="159.42808330149205mm" x2="80.0mm" y2="159.42808330149205mm" stroke="blue" stroke-width="1.5" />
  <line x1="80.0mm" y1="159.42808330149205mm" x2="92.0mm" y2="159.42808330149205mm" stroke="red" stroke-width="1.5" />
  <line x1="92.0mm" y1="159.42808330149205mm" x2="100.0mm" y2="159.42808330149205mm" stroke="blue" stroke-width="1.5" />
  <line x1="100.0mm" y1="159.42808330149205mm" x2="112.0mm" y2="159.42808330149205mm" stroke="red" stroke-width="1.5" />
  <line x1="112.0mm" y1="159.42808330149205mm" x2="120.0mm" y2="159.42808330149205mm" stroke="blue" stroke-width="1.5" />
  <line x1="120.0mm" y1="159.42808330149205mm" x2="132.0mm" y2="159.42808330149205mm" stroke="red" stroke-width="1.5" />
  <line x1="132.0mm" y1="159.42808330149205mm" x2="140.0mm" y2="159.42808330149205mm" stroke="blue" stroke-width="1.5" />
  <line x1="140.0mm" y1="159.42808330149205mm" x2="152.0mm" y2="159.42808330149205mm" stroke="red" stroke-width="1.5" />
  <line x1="152.0mm" y1="159.42808330149205mm" x2="160.0mm" y2="159.42808330149205mm" stroke="blue" stroke-width="1.5" />
  <line x1="0.0mm" y1="159.42808330149205mm" x2="0.0mm" y2="136.65264282985032mm" stroke="black" stroke-width="2" />
  <line x1="12.0mm" y1="159.42808330149205mm" x2="19.9999mm" y2="136.65264282985032mm" stroke="red" stroke-width="1.5" />
  <line x1="20.0mm" y1="159.42808330149205mm" x2="20.0mm" y2="136.65264282985032mm" stroke="blue" stroke-width="1.5" />
  <line x1="32.0mm" y1="159.42808330149205mm" x2="39.9999mm" y2="136.65264282985032mm" stroke="red" stroke-width="1.5" />
  <line x1="40.0mm" y1="159.42808330149205mm" x2="40.0mm" y2="136.65264282985032mm" stroke="blue" stroke-width="1.5" />
  <line x1="52.0mm" y1="159.42808330149205mm" x2="59.999900000000004mm" y2="136.65264282985032mm" stroke="red" stroke-width="1.5" />
  <line x1="60.0mm" y1="159.42808330149205mm" x2="60.0mm" y2="136.65264282985032mm" stroke="blue" stroke-width="1.5" />
  <line x1="72.0mm" y1="159.42808330149205mm" x2="79.9999mm" y2="136.65264282985032mm" stroke="red" stroke-width="1.5" />
  <line x1="80.0mm" y1="159.42808330149205mm" x2="80.0mm" y2="136.65264282985032mm" stroke="blue" stroke-width="1.5" />
  <line x1="92.0mm" y1="159.42808330149205mm" x2="99.9999mm" y2="136.65264282985032mm" stroke="red" stroke-width="1.5" />
  <line x1="100.0mm" y1="159.42808330149205mm" x2="100.0mm" y2="136.65264282985032mm" stroke="blue" stroke-width="1.5" />
  <line x1="112.0mm" y1="159.42808330149205mm" x2="119.9999mm" y2="136.65264282985032mm" stroke="red" stroke-width="1.5" />
  <line x1="120.0mm" y1="159.42808330149205mm" x2="120.0mm" y2="136.65264282985032mm" stroke="blue" stroke-width="1.5" />
  <line x1="132.0mm" y1="159.42808330149205mm" x2="139.9999mm" y2="136.65264282985032mm" stroke="red" stroke-width="1.5" />
  <line x1="140.0mm" y1="159.42808330149205mm" x2="140.0mm" y2="136.65264282985032mm" stroke="blue" stroke-width="1.5" />
  <line x1="152.0mm" y1="159.42808330149205mm" x2="159.9999mm" y2="136.65264282985032mm" stroke="red" stroke-width="1.5" />
  <line x1="160.0mm" y1="159.42808330149205mm" x2="160.0mm" y2="136.65264282985032mm" stroke="black" stroke-width="2" />
  <line x1="0.0mm" y1="136.65264282985032mm" x2="19.9999mm" y2="136.65264282985032mm" stroke="blue" stroke-width="1.5" />
  <line x1="19.9999mm" y1="136.65264282985032mm" x2="20.0mm" y2="136.65264282985032mm" stroke="red" stroke-width="1.5" />
  <line x1="20.0mm" y1="136.65264282985032mm" x2="39.9999mm" y2="136.65264282985032mm" stroke="blue" stroke-width="1.5" />
  <line x1="39.9999mm" y1="136.65264282985032mm" x2="40.0mm" y2="136.65264282985032mm" stroke="red" stroke-width="1.5" />
  <line x1="40.0mm" y1="136.65264282985032mm" x2="59.999900000000004mm" y2="136.65264282985032mm" stroke="blue" stroke-width="1.5" />
  <line x1="59.999900000000004mm" y1="136.65264282985032mm" x2="60.0mm" y2="136.65264282985032mm" stroke="red" stroke-width="1.5" />
  <line x1="60.0mm" y1="136.65264282985032mm" x2="79.9999mm" y2="136.65264282985032mm" stroke="blue" stroke-width="1.5" />
  <line x1="79.9999mm" y1="136.65264282985032mm" x2="80.0mm" y2="136.65264282985032mm" stroke="red" stroke-width="1.5" />
  <line x1="80.0mm" y1="136.65264282985032mm" x2="99.9999mm" y2="136.65264282985032mm" stroke="blue" stroke-width="1.5" />
  <line x1="99.9999mm" y1="136.65264282985032mm" x2="100.0mm" y2="136.65264282985032mm" stroke="red" stroke-width="1.5" />
  <line x1="100.0mm" y1="136.65264282985032mm" x2="119.9999mm" y2="136.65264282985032mm" stroke="blue" stroke-width="1.5" />
  <line x1="119.9999mm" y1="136.65264282985032mm" x2="120.0mm" y2="136.65264282985032mm" stroke="red" stroke-width="1.5" />
  <line x1="120.0mm" y1="136.65264282985032mm" x2="139.9999mm" y2="136.65264282985032mm" stroke="blue" stroke-width="1.5" />
  <line x1="139.9999mm" y1="136.65264282985032mm" x2="140.0mm" y2="136.65264282985032mm" stroke="red" stroke-width="1.5" />
  <line x1="140.0mm" y1="136.65264282985032mm" x2="159.9999mm" y2="136.65264282985032mm" stroke="blue" stroke-width="1.5" />
  <line x1="159.9999mm" y1="136.65264282985032mm" x2="160.0mm" y2="136.65264282985032mm" stroke="red" stroke-width="1.5" />
  <line x1="0.0mm" y1="136.65264282985032mm" x2="0.0mm" y2="113.8772023582086mm" stroke="black" stroke-width="2" />
  <line x1="19.9999mm" y1="136.65264282985032mm" x2="12.0mm" y2="113.8772023582086mm" stroke="red" stroke-width="1.5" />
  <line x1="20.0mm" y1="136.65264282985032mm" x2="20.0mm" y2="113.8772023582086mm" stroke="blue" stroke-width="1.5" />
  <line x1="39.9999mm" y1="136.65264282985032mm" x2="32.0mm" y2="113.8772023582086mm" stroke="red" stroke-width="1.5" />
  <line x1="40.0mm" y1="136.65264282985032mm" x2="40.0mm" y2="113.8772023582086mm" stroke="blue" stroke-width="1.5" />
  <line x1="59.999900000000004mm" y1="136.65264282985032mm" x2="52.0mm" y2="113.8772023582086mm" stroke="red" stroke-width="1.5" />
  <line x1="60.0mm" y1="136.65264282985032mm" x2="60.0mm" y2="113.8772023582086mm" stroke="blue" stroke-width="1.5" />
  <line x1="79.9999mm" y1="136.65264282985032mm" x2="72.0mm" y2="113.8772023582086mm" stroke="red" stroke-width="1.5" />
  <line x1="80.0mm" y1="136.65264282985032mm" x2="80.0mm" y2="113.8772023582086mm" stroke="blue" stroke-width="1.5" />
  <line x1="99.9999mm" y1="136.65264282985032mm" x2="92.0mm" y2="113.8772023582086mm" stroke="red" stroke-width="1.5" />
  <line x1="100.0mm" y1="136.65264282985032mm" x2="100.0mm" y2="113.8772023582086mm" stroke="blue" stroke-width="1.5" />
  <line x1="119.9999mm" y1="136.65264282985032mm" x2="112.0mm" y2="113.8772023582086mm" stroke="red" stroke-width="1.5" />
  <line x1="120.0mm" y1="136.65264282985032mm" x2="120.0mm" y2="113.8772023582086mm" stroke="blue" stroke-width="1.5" />
  <line x1="139.9999mm" y1="136.65264282985032mm" x2="132.0mm" y2="113.8772023582086mm" stroke="red" stroke-width="1.5" />
  <line x1="140.0mm" y1="136.65264282985032mm" x2="140.0mm" y2="113.8772023582086mm" stroke="blue" stroke-width="1.5" />
  <line x1="159.9999mm" y1="136.65264282985032mm" x2="152.0mm" y2="113.8772023582086mm" stroke="red" stroke-width="1.5" />
  <line x1="160.0mm" y1="136.65264282985032mm" x2="160.0mm" y2="113.8772023582086mm" stroke="black" stroke-width="2" />
  <line x1="0.0mm" y1="113.8772023582086mm" x2="12.0mm" y2="113.8772023582086mm" stroke="red" stroke-width="1.5" />
  <line x1="12.0mm" y1="113.8772023582086mm" x2="20.0mm" y2="113.8772023582086mm" stroke="blue" stroke-width="1.5" />
  <line x1="20.0mm" y1="113.8772023582086mm" x2="32.0mm" y2="113.8772023582086mm" stroke="red" stroke-width="1.5" />
  <line x1="32.0mm" y1="113.8772023582086mm" x2="40.0mm" y2="113.8772023582086mm" stroke="blue" stroke-width="1.5" />
  <line x1="40.0mm" y1="113.8772023582086mm" x2="52.0mm" y2="113.8772023582086mm" stroke="red" stroke-width="1.5" />
  <line x1="52.0mm" y1="113.8772023582086mm" x2="60.0mm" y2="113.8772023582086mm" stroke="blue" stroke-width="1.5" />
  <line x1="60.0mm" y1="113.8772023582086mm" x2="72.0mm" y2="113.8772023582086mm" stroke="red" stroke-width="1.5" />
  <line x1="72.0mm" y1="113.8772023582086mm" x2="80.0mm" y2="113.8772023582086mm" stroke="blue" stroke-width="1.5" />
  <line x1="80.0mm" y1="113.8772023582086mm" x2="92.0mm" y2="113.8772023582086mm" stroke="red" stroke-width="1.5" />
  <line x1="92.0mm" y1="113.8772023582086mm" x2="100.0mm" y2="113.8772023582086mm" stroke="blue" stroke-width="1.5" />
  <line x1="100.0mm" y1="113.8772023582086mm" x2="112.0mm" y2="113.8772023582086mm" stroke="red" stroke-width="1.5" />
  <line x1="112.0mm" y1="113.8772023582086mm" x2="120.0mm" y2="113.8772023582086mm" stroke="blue" stroke-width="1.5" />
  <line x1="120.0mm" y1="113.8772023582086mm" x2="132.0mm" y2="113.8772023582086mm" stroke="red" stroke-width="1.5" />
  <line x1="132.0mm" y1="113.8772023582086mm" x2="140.0mm" y2="113.8772023582086mm" stroke="blue" stroke-width="1.5" />
  <line x1="140.0mm" y1="113.8772023582086mm" x2="152.0mm" y2="113.8772023582086mm" stroke="red" stroke-width="1.5" />
  <line x1="152.0mm" y1="113.8772023582086mm" x2="160.0mm" y2="113.8772023582086mm" stroke="blue" stroke-width="1.5" />
  <line x1="0.0mm" y1="113.8772023582086mm" x2="0.0mm" y2="91.10176188656689mm" stroke="black" stroke-width="2" />
  <line x1="12.0mm" y1="113.8772023582086mm" x2="19.9999mm" y2="91.10176188656689mm" stroke="red" stroke-width="1.5" />
  <line x1="20.0mm" y1="113.8772023582086mm" x2="20.0mm" y2="91.10176188656689mm" stroke="blue" stroke-width="1.5" />
  <line x1="32.0mm" y1="113.8772023582086mm" x2="39.9999mm" y2="91.10176188656689mm" stroke="red" stroke-width="1.5" />
  <line x1="40.0mm" y1="113.8772023582086mm" x2="40.0mm" y2="91.10176188656689mm" stroke="blue" stroke-width="1.5" />
  <line x1="52.0mm" y1="113.8772023582086mm" x2="59.999900000000004mm" y2="91.10176188656689mm" stroke="red" stroke-width="1.5" />
  <line x1="60.0mm" y1="113.8772023582086mm" x2="60.0mm" y2="91.10176188656689mm" stroke="blue" stroke-width="1.5" />
  <line x1="72.0mm" y1="113.8772023582086mm" x2="79.9999mm" y2="91.10176188656689mm" stroke="red" stroke-width="1.5" />
  <line x1="80.0mm" y1="113.8772023582086mm" x2="80.0mm" y2="91.10176188656689mm" stroke="blue" stroke-width="1.5" />
  <line x1="92.0mm" y1="113.8772023582086mm" x2="99.9999mm" y2="91.10176188656689mm" stroke="red" stroke-width="1.5" />
  <line x1="100.0mm" y1="113.8772023582086mm" x2="100.0mm" y2="91.10176188656689mm" stroke="blue" stroke-width="1.5" />
  <line x1="112.0mm" y1="113.8772023582086mm" x2="119.9999mm" y2="91.10176188656689mm" stroke="red" stroke-width="1.5" />
  <line x1="120.0mm" y1="113.8772023582086mm" x2="120.0mm" y2="91.10176188656689mm" stroke="blue" stroke-width="1.5" />
  <line x1="132.0mm" y1="113.8772023582086mm" x2="139.9999mm" y2="91.10176188656689mm" stroke="red" stroke-width="1.5" />
  <line x1="140.0mm" y1="113.8772023582086mm" x2="140.0mm" y2="91.10176188656689mm" stroke="blue" stroke-width="1.5" />
  <line x1="152.0mm" y1="113.8772023582086mm" x2="159.9999mm" y2="91.10176188656689mm" stroke="red" stroke-width="1.5" />
  <line x1="160.0mm" y1="113.8772023582086mm" x2="160.0mm" y2="91.10176188656689mm" stroke="black" stroke-width="2" />
  <line x1="0.0mm" y1="91.10176188656689mm" x2="19.9999mm" y2="91.10176188656689mm" stroke="blue" stroke-width="1.5" />
  <line x1="19.9999mm" y1="91.10176188656689mm" x2="20.0mm" y2="91.10176188656689mm" stroke="red" stroke-width="1.5" />
  <line x1="20.0mm" y1="91.10176188656689mm" x2="39.9999mm" y2="91.10176188656689mm" stroke="blue" stroke-width="1.5" />
  <line x1="39.9999mm" y1="91.10176188656689mm" x2="40.0mm" y2="91.10176188656689mm" stroke="red" stroke-width="1.5" />
  <line x1="40.0mm" y1="91.10176188656689mm" x2="59.999900000000004mm" y2="91.10176188656689mm" stroke="blue" stroke-width="1.5" />
  <line x1="59.999900000000004mm" y1="91.10176188656689mm" x2="60.0mm" y2="91.10176188656689mm" stroke="red" stroke-width="1.5" />
  <line x1="60.0mm" y1="91.10176188656689mm" x2="79.9999mm" y2="91.10176188656689mm" stroke="blue" stroke-width="1.5" />
  <line x1="79.9999mm" y1="91.10176188656689mm" x2="80.0mm" y2="91.10176188656689mm" stroke="red" stroke-width="1.5" />
  <line x1="80.0mm" y1="91.10176188656689mm" x2="99.9999mm" y2="91.10176188656689mm" stroke="blue" stroke-width="1.5" />
  <line x1="99.9999mm" y1="91.10176188656689mm" x2="100.0mm" y2="91.10176188656689mm" stroke="red" stroke-width="1.5" />
  <line x1="100.0mm" y1="91.10176188656689mm" x2="119.9999mm" y2="91.10176188656689mm" stroke="blue" stroke-width="1.5" />
  <line x1="119.9999mm" y1="91.10176188656689mm" x2="120.0mm" y2="91.10176188656689mm" stroke="red" stroke-width="1.5" />
  <line x1="120.0mm" y1="91.10176188656689mm" x2="139.9999mm" y2="91.10176188656689mm" stroke="blue" stroke-width="1.5" />
  <line x1="139.9999mm" y1="91.10176188656689mm" x2="140.0mm" y2="91.10176188656689mm" stroke="red" stroke-width="1.5" />
  <line x1="140.0mm" y1="91.10176188656689mm" x2="159.9999mm" y2="91.10176188656689mm" stroke="blue" stroke-width="1.5" />
  <line x1="159.9999mm" y1="91.10176188656689mm" x2="160.0mm" y2="91.10176188656689mm" stroke="red" stroke-width="1.5" />
  <line x1="0.0mm" y1="91.10176188656689mm" x2="0.0mm" y2="68.32632141492516mm" stroke="black" stroke-width="2" />
  <line x1="19.9999mm" y1="91.10176188656689mm" x2="12.0mm" y2="68.32632141492516mm" stroke="red" stroke-width="1.5" />
  <line x1="20.0mm" y1="91.10176188656689mm" x2="20.0mm" y2="68.32632141492516mm" stroke="blue" stroke-width="1.5" />
  <line x1="39.9999mm" y1="91.10176188656689mm" x2="32.0mm" y2="68.32632141492516mm" stroke="red" stroke-width="1.5" />
  <line x1="40.0mm" y1="91.10176188656689mm" x2="40.0mm" y2="68.32632141492516mm" stroke="blue" stroke-width="1.5" />
  <line x1="59.999900000000004mm" y1="91.10176188656689mm" x2="52.0mm" y2="68.32632141492516mm" stroke="red" stroke-width="1.5" />
  <line x1="60.0mm" y1="91.10176188656689mm" x2="60.0mm" y2="68.32632141492516mm" stroke="blue" stroke-width="1.5" />
  <line x1="79.9999mm" y1="91.10176188656689mm" x2="72.0mm" y2="68.32632141492516mm" stroke="red" stroke-width="1.5" />
  <line x1="80.0mm" y1="91.10176188656689mm" x2="80.0mm" y2="68.32632141492516mm" stroke="blue" stroke-width="1.5" />
  <line x1="99.9999mm" y1="91.10176188656689mm" x2="92.0mm" y2="68.32632141492516mm" stroke="red" stroke-width="1.5" />
  <line x1="100.0mm" y1="91.10176188656689mm" x2="100.0mm" y2="68.32632141492516mm" stroke="blue" stroke-width="1.5" />
  <line x1="119.9999mm" y1="91.10176188656689mm" x2="112.0mm" y2="68.32632141492516mm" stroke="red" stroke-width="1.5" />
  <line x1="120.0mm" y1="91.10176188656689mm" x2="120.0mm" y2="68.32632141492516mm" stroke="blue" stroke-width="1.5" />
  <line x1="139.9999mm" y1="91.10176188656689mm" x2="132.0mm" y2="68.32632141492516mm" stroke="red" stroke-width="1.5" />
  <line x1="140.0mm" y1="91.10176188656689mm" x2="140.0mm" y2="68.32632141492516mm" stroke="blue" stroke-width="1.5" />
  <line x1="159.9999mm" y1="91.10176188656689mm" x2="152.0mm" y2="68.32632141492516mm" stroke="red" stroke-width="1.5" />
  <line x1="160.0mm" y1="91.10176188656689mm" x2="160.0mm" y2="68.32632141492516mm" stroke="black" stroke-width="2" />
  <line x1="0.0mm" y1="68.32632141492516mm" x2="12.0mm" y2="68.32632141492516mm" stroke="red" stroke-width="1.5" />
  <line x1="12.0mm" y1="68.32632141492516mm" x2="20.0mm" y2="68.32632141492516mm" stroke="blue" stroke-width="1.5" />
  <line x1="20.0mm" y1="68.32632141492516mm" x2="32.0mm" y2="68.32632141492516mm" stroke="red" stroke-width="1.5" />
  <line x1="32.0mm" y1="68.32632141492516mm" x2="40.0mm" y2="68.32632141492516mm" stroke="blue" stroke-width="1.5" />
  <line x1="40.0mm" y1="68.32632141492516mm" x2="52.0mm" y2="68.32632141492516mm" stroke="red" stroke-width="1.5" />
  <line x1="52.0mm" y1="68.32632141492516mm" x2="60.0mm" y2="68.32632141492516mm" stroke="blue" stroke-width="1.5" />
  <line x1="60.0mm" y1="68.32632141492516mm" x2="72.0mm" y2="68.32632141492516mm" stroke="red" stroke-width="1.5" />
  <line x1="72.0mm" y1="68.32632141492516mm" x2="80.0mm" y2="68.32632141492516mm" stroke="blue" stroke-width="1.5" />
  <line x1="80.0mm" y1="68.32632141492516mm" x2="92.0mm" y2="68.32632141492516mm" stroke="red" stroke-width="1.5" />
  <line x1="92.0mm" y1="68.32632141492516mm" x2="100.0mm" y2="68.32632141492516mm" stroke="blue" stroke-width="1.5" />
  <line x1="100.0mm" y1="68.32632141492516mm" x2="112.0mm" y2="68.32632141492516mm" stroke="red" stroke-width="1.5" />
  <line x1="112.0mm" y1="68.32632141492516mm" x2="120.0mm" y2="68.32632141492516mm" stroke="blue" stroke-width="1.5" />
  <line x1="120.0mm" y1="68.32632141492516mm" x2="132.0mm" y2="68.32632141492516mm" stroke="red" stroke-width="1.5" />
  <line x1="132.0mm" y1="68.32632141492516mm" x2="140.0mm" y2="68.32632141492516mm" stroke="blue" stroke-width="1.5" />
  <line x1="140.0mm" y1="68.32632141492516mm" x2="152.0mm" y2="68.32632141492516mm" stroke="red" stroke-width="1.5" />
  <line x1="152.0mm" y1="68.32632141492516mm" x2="160.0mm" y2="68.32632141492516mm" stroke="blue" stroke-width="1.5" />
  <line x1="0.0mm" y1="68.32632141492516mm" x2="0.0mm" y2="45.55088094328343mm" stroke="black" stroke-width="2" />
  <line x1="12.0mm" y1="68.32632141492516mm" x2="19.9999mm" y2="45.55088094328343mm" stroke="red" stroke-width="1.5" />
  <line x1="20.0mm" y1="68.32632141492516mm" x2="20.0mm" y2="45.55088094328343mm" stroke="blue" stroke-width="1.5" />
  <line x1="32.0mm" y1="68.32632141492516mm" x2="39.9999mm" y2="45.55088094328343mm" stroke="red" stroke-width="1.5" />
  <line x1="40.0mm" y1="68.32632141492516mm" x2="40.0mm" y2="45.55088094328343mm" stroke="blue" stroke-width="1.5" />
  <line x1="52.0mm" y1="68.32632141492516mm" x2="59.999900000000004mm" y2="45.55088094328343mm" stroke="red" stroke-width="1.5" />
  <line x1="60.0mm" y1="68.32632141492516mm" x2="60.0mm" y2="45.55088094328343mm" stroke="blue" stroke-width="1.5" />
  <line x1="72.0mm" y1="68.32632141492516mm" x2="79.9999mm" y2="45.55088094328343mm" stroke="red" stroke-width="1.5" />
  <line x1="80.0mm" y1="68.32632141492516mm" x2="80.0mm" y2="45.55088094328343mm" stroke="blue" stroke-width="1.5" />
  <line x1="92.0mm" y1="68.32632141492516mm" x2="99.9999mm" y2="45.55088094328343mm" stroke="red" stroke-width="1.5" />
  <line x1="100.0mm" y1="68.32632141492516mm" x2="100.0mm" y2="45.55088094328343mm" stroke="blue" stroke-width="1.5" />
  <line x1="112.0mm" y1="68.32632141492516mm" x2="119.9999mm" y2="45.55088094328343mm" stroke="red" stroke-width="1.5" />
  <line x1="120.0mm" y1="68.32632141492516mm" x2="120.0mm" y2="45.55088094328343mm" stroke="blue" stroke-width="1.5" />
  <line x1="132.0mm" y1="68.32632141492516mm" x2="139.9999mm" y2="45.55088094328343mm" stroke="red" stroke-width="1.5" />
  <line x1="140.0mm" y1="68.32632141492516mm" x2="140.0mm" y2="45.55088094328343mm" stroke="blue" stroke-width="1.5" />
  <line x1="152.0mm" y1="68.32632141492516mm" x2="159.9999mm" y2="45.55088094328343mm" stroke="red" stroke-width="1.5" />
  <line x1="160.0mm" y1="68.32632141492516mm" x2="160.0mm" y2="45.55088094328343mm" stroke="black" stroke-width="2" />
  <line x1="0.0mm" y1="45.55088094328343mm" x2="19.9999mm" y2="45.55088094328343mm" stroke="blue" stroke-width="1.5" />
  <line x1="19.9999mm" y1="45.55088094328343mm" x2="20.0mm" y2="45.55088094328343mm" stroke="red" stroke-width="1.5" />
  <line x1="20.0mm" y1="45.55088094328343mm" x2="39.9999mm" y2="45.55088094328343mm" stroke="blue" stroke-width="1.5" />
  <line x1="39.9999mm" y1="45.55088094328343mm" x2="40.0mm" y2="45.55088094328343mm" stroke="red" stroke-width="1.5" />
  <line x1="40.0mm" y1="45.55088094328343mm" x2="59.999900000000004mm" y2="45.55088094328343mm" stroke="blue" stroke-width="1.5" />
  <line x1="59.999900000000004mm" y1="45.55088094328343mm" x2="60.0mm" y2="45.55088094328343mm" stroke="red" stroke-width="1.5" />
  <line x1="60.0mm" y1="45.55088094328343mm" x2="79.9999mm" y2="45.55088094328343mm" stroke="blue" stroke-width="1.5" />
  <line x1="79.9999mm" y1="45.55088094328343mm" x2="80.0mm" y2="45.55088094328343mm" stroke="red" stroke-width="1.5" />
  <line x1="80.0mm" y1="45.55088094328343mm" x2="99.9999mm" y2="45.55088094328343mm" stroke="blue" stroke-width="1.5" />
  <line x1="99.9999mm" y1="45.55088094328343mm" x2="100.0mm" y2="45.55088094328343mm" stroke="red" stroke-width="1.5" />
  <line x1="100.0mm" y1="45.55088094328343mm" x2="119.9999mm" y2="45.55088094328343mm" stroke="blue" stroke-width="1.5" />
  <line x1="119.9999mm" y1="45.55088094328343mm" x2="120.0mm" y2="45.55088094328343mm" stroke="red" stroke-width="1.5" />
  <line x1="120.0mm" y1="45.55088094328343mm" x2="139.9999mm" y2="45.55088094328343mm" stroke="blue" stroke-width="1.5" />
  <line x1="139.9999mm" y1="45.55088094328343mm" x2="140.0mm" y2="45.55088094328343mm" stroke="red" stroke-width="1.5" />
  <line x1="140.0mm" y1="45.55088094328343mm" x2="159.9999mm" y2="45.55088094328343mm" stroke="blue" stroke-width="1.5" />
  <line x1="159.9999mm" y1="45.55088094328343mm" x2="160.0mm" y2="45.55088094328343mm" stroke="red" stroke-width="1.5" />
  <line x1="0.0mm" y1="45.55088094328343mm" x2="0.0mm" y2="22.77544047164173mm" stroke="black" stroke-width="2" />
  <line x1="19.9999mm" y1="45.55088094328343mm" x2="12.0mm" y2="22.77544047164173mm" stroke="red" stroke-width="1.5" />
  <line x1="20.0mm" y1="45.55088094328343mm" x2="20.0mm" y2="22.77544047164173mm" stroke="blue" stroke-width="1.5" />
  <line x1="39.9999mm" y1="45.55088094328343mm" x2="32.0mm" y2="22.77544047164173mm" stroke="red" stroke-width="1.5" />
  <line x1="40.0mm" y1="45.55088094328343mm" x2="40.0mm" y2="22.77544047164173mm" stroke="blue" stroke-width="1.5" />
  <line x1="59.999900000000004mm" y1="45.55088094328343mm" x2="52.0mm" y2="22.77544047164173mm" stroke="red" stroke-width="1.5" />
  <line x1="60.0mm" y1="45.55088094328343mm" x2="60.0mm" y2="22.77544047164173mm" stroke="blue" stroke-width="1.5" />
  <line x1="79.9999mm" y1="45.55088094328343mm" x2="72.0mm" y2="22.77544047164173mm" stroke="red" stroke-width="1.5" />
  <line x1="80.0mm" y1="45.55088094328343mm" x2="80.0mm" y2="22.77544047164173mm" stroke="blue" stroke-width="1.5" />
  <line x1="99.9999mm" y1="45.55088094328343mm" x2="92.0mm" y2="22.77544047164173mm" stroke="red" stroke-width="1.5" />
  <line x1="100.0mm" y1="45.55088094328343mm" x2="100.0mm" y2="22.77544047164173mm" stroke="blue" stroke-width="1.5" />
  <line x1="119.9999mm" y1="45.55088094328343mm" x2="112.0mm" y2="22.77544047164173mm" stroke="red" stroke-width="1.5" />
  <line x1="120.0mm" y1="45.55088094328343mm" x2="120.0mm" y2="22.77544047164173mm" stroke="blue" stroke-width="1.5" />
  <line x1="139.9999mm" y1="45.55088094328343mm" x2="132.0mm" y2="22.77544047164173mm" stroke="red" stroke-width="1.5" />
  <line x1="140.0mm" y1="45.55088094328343mm" x2="140.0mm" y2="22.77544047164173mm" stroke="blue" stroke-width="1.5" />
  <line x1="159.9999mm" y1="45.55088094328343mm" x2="152.0mm" y2="22.77544047164173mm" stroke="red" stroke-width="1.5" />
  <line x1="160.0mm" y1="45.55088094328343mm" x2="160.0mm" y2="22.77544047164173mm" stroke="black" stroke-width="2" />
  <line x1="0.0mm" y1="22.77544047164173mm" x2="12.0mm" y2="22.77544047164173mm" stroke="red" stroke-width="1.5" />
  <line x1="12.0mm" y1="22.77544047164173mm" x2="20.0mm" y2="22.77544047164173mm" stroke="blue" stroke-width="1.5" />
  <line x1="20.0mm" y1="22.77544047164173mm" x2="32.0mm" y2="22.77544047164173mm" stroke="red" stroke-width="1.5" />
  <line x1="32.0mm" y1="22.77544047164173mm" x2="40.0mm" y2="22.77544047164173mm" stroke="blue" stroke-width="1.5" />
  <line x1="40.0mm" y1="22.77544047164173mm" x2="52.0mm" y2="22.77544047164173mm" stroke="red" stroke-width="1.5" />
  <line x1="52.0mm" y1="22.77544047164173mm" x2="60.0mm" y2="22.77544047164173mm" stroke="blue" stroke-width="1.5" />
  <line x1="60.0mm" y1="22.77544047164173mm" x2="72.0mm" y2="22.77544047164173mm" stroke="red" stroke-width="1.5" />
  <line x1="72.0mm" y1="22.77544047164173mm" x2="80.0mm" y2="22.77544047164173mm" stroke="blue" stroke-width="1.5" />
  <line x1="80.0mm" y1="22.77544047164173mm" x2="92.0mm" y2="22.77544047164173mm" stroke="red" stroke-width="1.5" />
  <line x1="92.0mm" y1="22.77544047164173mm" x2="100.0mm" y2="22.77544047164173mm" stroke="blue" stroke-width="1.5" />
  <line x1="100.0mm" y1="22.77544047164173mm" x2="112.0mm" y2="22.77544047164173mm" stroke="red" stroke-width="1.5" />
  <line x1="112.0mm" y1="22.77544047164173mm" x2="120.0mm" y2="22.77544047164173mm" stroke="blue" stroke-width="1.5" />
  <line x1="120.0mm" y1="22.77544047164173mm" x2="132.0mm" y2="22.77544047164173mm" stroke="red" stroke-width="1.5" />
  <line x1="132.0mm" y1="22.77544047164173mm" x2="140.0mm" y2="22.77544047164173mm" stroke="blue" stroke-width="1.5" />
  <line x1="140.0mm" y1="22.77544047164173mm" x2="152.0mm" y2="22.77544047164173mm" stroke="red" stroke-width="1.5" />
  <line x1="152.0mm" y1="22.77544047164173mm" x2="160.0mm" y2="22.77544047164173mm" stroke="blue" stroke-width="1.5" />
  <line x1="0.0mm" y1="22.77544047164173mm" x2="0.0mm" y2="0.0mm" stroke="black" stroke-width="2" />
  <line x1="12.0mm" y1="22.77544047164173mm" x2="19.9999mm" y2="0.0mm" stroke="red" stroke-width="1.5" />
  <line x1="20.0mm" y1="22.77544047164173mm" x2="20.0mm" y2="0.0mm" stroke="blue" stroke-width="1.5" />
  <line x1="32.0mm" y1="22.77544047164173mm" x2="39.9999mm" y2="0.0mm" stroke="red" stroke-width="1.5" />
  <line x1="40.0mm" y1="22.77544047164173mm" x2="40.0mm" y2="0.0mm" stroke="blue" stroke-width="1.5" />
  <line x1="52.0mm" y1="22.77544047164173mm" x2="59.999900000000004mm" y2="0.0mm" stroke="red" stroke-width="1.5" />
  <line x1="60.0mm" y1="22.77544047164173mm" x2="60.0mm" y2="0.0mm" stroke="blue" stroke-width="1.5" />
  <line x1="72.0mm" y1="22.77544047164173mm" x2="79.9999mm" y2="0.0mm" stroke="red" stroke-width="1.5" />
  <line x1="80.0mm" y1="22.77544047164173mm" x2="80.0mm" y2="0.0mm" stroke="blue" stroke-width="1.5" />
  <line x1="92.0mm" y1="22.77544047164173mm" x2="99.9999mm" y2="0.0mm" stroke="red" stroke-width="1.5" />
  <line x1="100.0mm" y1="22.77544047164173mm" x2="100.0mm" y2="0.0mm" stroke="blue" stroke-width="1.5" />
  <line x1="112.0mm" y1="22.77544047164173mm" x2="119.9999mm" y2="0.0mm" stroke="red" stroke-width="1.5" />
  <line x1="120.0mm" y1="22.77544047164173mm" x2="120.0mm" y2="0.0mm" stroke="blue" stroke-width="1.5" />
  <line x1="132.0mm" y1="22.77544047164173mm" x2="139.9999mm" y2="0.0mm" stroke="red" stroke-width="1.5" />
  <line x1="140.0mm" y1="22.77544047164173mm" x2="140.0mm" y2="0.0mm" stroke="blue" stroke-width="1.5" />
  <line x1="152.0mm" y1="22.77544047164173mm" x2="159.9999mm" y2="0.0mm" stroke="red" stroke-width="1.5" />
  <line x1="160.0mm" y1="22.77544047164173mm" x2="160.0mm" y2="0.0mm" stroke="black" stroke-width="2" />
  <line x1="0.0mm" y1="0.0mm" x2="19.9999mm" y2="0.0mm" stroke="black" stroke-width="2" />
  <line x1="19.9999mm" y1="0.0mm" x2="20.0mm" y2="0.0mm" stroke="black" stroke-width="2" />
  <line x1="20.0mm" y1="0.0mm" x2="39.9999mm" y2="0.0mm" stroke="black" stroke-width="2" />
  <line x1="39.9999mm" y1="0.0mm" x2="40.0mm" y2="0.0mm" stroke="black" stroke-width="2" />
  <line x1="40.0mm" y1="0.0mm" x2="59.999900000000004mm" y2="0.0mm" stroke="black" stroke-width="2" />
  <line x1="59.999900000000004mm" y1="0.0mm" x2="60.0mm" y2="0.0mm" stroke="black" stroke-width="2" />
  <line x1="60.0mm" y1="0.0mm" x2="79.9999mm" y2="0.0mm" stroke="black" stroke-width="2" />
  <line x1="79.9999mm" y1="0.0mm" x2="80.0mm" y2="0.0mm" stroke="black" stroke-width="2" />
  <line x1="80.0mm" y1="0.0mm" x2="99.9999mm" y2="0.0mm" stroke="black" stroke-width="2" />
  <line x1="99.9999mm" y1="0.0mm" x2="100.0mm" y2="0.0mm" stroke="black" stroke-width="2" />
  <line x1="100.0mm" y1="0.0mm" x2="119.9999mm" y2="0.0mm" stroke="black" stroke-width="2" />
  <line x1="119.9999mm" y1="0.0mm" x2="120.0mm" y2="0.0mm" stroke="black" stroke-width="2" />
  <line x1="120.0mm" y1="0.0mm" x2="139.9999mm" y2="0.0mm" stroke="black" stroke-width="2" />
  <line x1="139.9999mm" y1="0.0mm" x2="140.0mm" y2="0.0mm" stroke="black" stroke-width="2" />
  <line x1="140.0mm" y1="0.0mm" x2="159.9999mm" y2="0.0mm" stroke="black" stroke-width="2" />
  <line x1="159.9999mm" y1="0.0mm" x2="160.0mm" y2="0.0mm" stroke="black" stroke-width="2" />
</g>
</svg>